<?xml version="1.0" encoding="UTF-8"?>
<svg version="1.1" xmlns="http://www.w3.org/2000/svg" width="479" height="521">
<path d="M0,0 L57,0 L57,8 L65,8 L65,16 L73,16 L74,17 L74,24 L81,24 L81,32 L89,32 L89,40 L105,40 L105,48 L128,48 L128,40 L143,40 L144,32 L240,32 L240,40 L256,40 L256,48 L278,48 L278,41 L279,40 L286,40 L286,32 L302,32 L302,25 L303,24 L310,24 L310,17 L311,16 L318,16 L318,9 L324,8 L326,8 L326,0 L383,0 L384,1 L385,8 L390,8 L391,9 L391,16 L399,16 L399,24 L407,24 L407,32 L415,32 L415,48 L423,48 L423,105 L415,105 L415,113 L407,113 L407,129 L399,129 L399,145 L391,145 L391,161 L384,161 L384,176 L383,177 L375,177 L375,191 L383,191 L384,193 L384,263 L382,265 L375,265 L375,288 L367,288 L367,304 L359,304 L359,320 L352,320 L352,335 L351,336 L344,337 L343,344 L335,344 L335,352 L327,352 L328,356 L328,367 L327,368 L320,368 L320,375 L319,376 L312,376 L312,383 L311,384 L304,384 L304,391 L303,392 L296,392 L296,408 L288,408 L288,415 L287,416 L280,416 L280,440 L272,440 L272,447 L271,448 L264,448 L264,456 L248,456 L248,463 L240,463 L240,471 L143,471 L143,463 L136,463 L136,456 L119,456 L119,448 L112,448 L111,441 L104,440 L104,416 L96,416 L96,408 L88,408 L88,392 L80,392 L79,391 L79,384 L72,384 L72,376 L64,376 L64,368 L56,368 L56,352 L48,352 L48,344 L40,344 L40,336 L32,336 L32,320 L24,320 L24,304 L16,304 L16,288 L8,288 L8,265 L2,265 L0,264 L0,192 L1,191 L8,191 L8,177 L1,177 L0,176 L0,161 L-7,161 L-7,145 L-15,145 L-16,144 L-16,129 L-24,129 L-24,113 L-32,113 L-32,105 L-39,105 L-39,48 L-32,48 L-32,33 L-31,32 L-24,32 L-24,24 L-16,24 L-16,17 L-15,16 L-7,16 L-7,8 L0,8 Z " fill="#DBA016" transform="translate(47,31)"/>
<path d="M0,0 L57,0 L58,1 L59,8 L64,8 L65,9 L65,16 L73,16 L73,24 L81,24 L81,32 L89,32 L89,48 L97,48 L97,105 L89,105 L89,113 L81,113 L81,129 L73,129 L73,145 L65,145 L65,161 L58,161 L58,176 L57,177 L49,177 L49,191 L57,191 L58,193 L58,263 L56,265 L49,265 L49,288 L41,288 L41,304 L33,304 L33,320 L26,320 L26,335 L25,336 L18,337 L17,344 L9,344 L9,352 L1,352 L2,356 L2,367 L1,368 L-6,368 L-6,375 L-7,376 L-14,376 L-14,383 L-15,384 L-22,384 L-22,391 L-23,392 L-30,392 L-30,408 L-38,408 L-38,415 L-39,416 L-46,416 L-46,440 L-54,440 L-54,447 L-55,448 L-62,448 L-62,456 L-78,456 L-78,463 L-86,463 L-86,471 L-183,471 L-183,463 L-190,463 L-190,456 L-207,456 L-207,448 L-214,448 L-215,441 L-222,440 L-222,416 L-230,416 L-230,408 L-238,408 L-238,392 L-246,392 L-247,391 L-247,384 L-254,384 L-254,376 L-262,376 L-262,368 L-270,368 L-270,352 L-278,352 L-278,344 L-286,344 L-286,336 L-294,336 L-294,320 L-302,320 L-302,304 L-310,304 L-310,288 L-318,288 L-318,265 L-324,265 L-326,264 L-326,192 L-325,191 L-318,191 L-318,177 L-325,177 L-326,176 L-326,161 L-333,161 L-333,145 L-341,145 L-342,144 L-342,129 L-350,129 L-350,113 L-358,113 L-358,105 L-365,105 L-365,48 L-358,48 L-358,33 L-357,32 L-350,32 L-350,24 L-342,24 L-342,17 L-333,17 L-333,33 L-341,33 L-341,41 L-349,41 L-349,49 L-357,49 L-357,96 L-349,96 L-349,104 L-341,104 L-338,108 L-338,118 L-333,118 L-331,120 L-330,135 L-324,135 L-324,142 L-310,143 L-310,129 L-318,129 L-318,113 L-326,113 L-326,97 L-333,97 L-333,57 L-325,57 L-325,49 L-317,49 L-317,41 L-293,41 L-293,49 L-285,49 L-285,57 L-277,57 L-277,64 L-269,64 L-269,72 L-261,72 L-261,80 L-253,80 L-253,89 L-261,89 L-261,97 L-270,97 L-270,104 L-277,104 L-277,112 L-285,112 L-285,146 L-291,148 L-292,161 L-299,164 L-299,253 L-298,256 L-293,256 L-293,280 L-286,280 L-286,296 L-277,296 L-277,311 L-270,312 L-270,320 L-261,320 L-261,327 L-253,327 L-253,335 L-246,335 L-245,336 L-245,343 L-238,343 L-238,335 L-230,335 L-230,328 L-222,328 L-222,335 L-229,335 L-229,383 L-221,383 L-221,391 L-214,391 L-213,392 L-213,399 L-206,399 L-206,431 L-198,431 L-198,439 L-182,439 L-182,447 L-166,447 L-166,455 L-103,455 L-103,447 L-87,447 L-87,439 L-71,439 L-71,431 L-63,431 L-63,399 L-55,399 L-55,392 L-47,392 L-47,383 L-39,383 L-39,335 L-47,335 L-47,327 L-55,327 L-55,312 L-47,312 L-46,327 L-38,327 L-37,328 L-37,333 L-31,333 L-29,334 L-29,341 L-25,341 L-23,334 L-17,332 L-18,328 L-17,327 L-7,327 L-7,320 L1,320 L1,312 L9,312 L9,296 L17,296 L17,280 L25,280 L25,256 L33,256 L33,160 L25,160 L25,128 L16,128 L16,113 L9,113 L9,104 L1,104 L1,96 L-7,96 L-7,89 L-24,89 L-24,81 L-31,81 L-31,73 L-23,73 L-23,65 L-15,65 L-15,57 L-7,57 L-7,49 L1,49 L1,41 L9,41 L9,33 L17,33 L17,25 L48,25 L48,33 L57,33 L57,41 L65,41 L65,97 L57,97 L57,113 L49,113 L49,121 L48,128 L41,128 L41,144 L64,144 L64,128 L65,121 L72,121 L72,104 L80,104 L80,96 L88,96 L88,49 L80,49 L80,33 L71,33 L70,27 L65,26 L64,25 L64,17 L57,17 L57,9 L9,9 L9,17 L1,17 L1,25 L-7,25 L-7,33 L-15,33 L-15,41 L-31,41 L-31,49 L-39,49 L-39,57 L-71,57 L-94,56 L-94,49 L-174,49 L-174,57 L-206,57 L-206,64 L-221,65 L-222,73 L-230,73 L-230,57 L-238,57 L-238,49 L-246,49 L-246,41 L-253,41 L-254,25 L-270,25 L-270,17 L-277,17 L-277,9 L-325,9 L-325,1 L-269,1 L-269,8 L-261,8 L-261,16 L-253,16 L-252,17 L-252,24 L-245,24 L-245,32 L-237,32 L-237,40 L-221,40 L-221,48 L-198,48 L-198,40 L-183,40 L-182,32 L-86,32 L-86,40 L-70,40 L-70,48 L-48,48 L-48,41 L-47,40 L-40,40 L-40,32 L-24,32 L-24,25 L-23,24 L-16,24 L-16,17 L-15,16 L-8,16 L-8,9 L-2,8 L0,8 Z " fill="#A77324" transform="translate(373,31)"/>
<path d="M0,0 L16,0 L16,15 L24,15 L24,23 L40,23 L40,31 L48,31 L48,39 L56,39 L56,48 L64,48 L64,80 L48,80 L48,87 L24,87 L24,95 L16,95 L16,103 L25,103 L25,96 L48,96 L48,112 L56,112 L56,95 L48,95 L48,88 L95,88 L95,95 L119,95 L119,87 L96,87 L95,80 L80,79 L80,48 L88,48 L88,40 L95,39 L96,32 L103,32 L103,23 L119,23 L119,15 L128,15 L128,0 L143,0 L143,8 L150,8 L150,15 L159,15 L159,23 L167,23 L167,71 L159,71 L159,80 L151,80 L151,87 L143,87 L143,119 L135,119 L135,127 L119,127 L119,135 L103,135 L103,143 L40,143 L40,135 L24,135 L24,127 L8,127 L8,119 L0,119 L0,87 L-7,87 L-8,80 L-15,79 L-15,71 L-23,71 L-23,24 L-15,24 L-15,15 L-7,15 L-7,8 L0,8 Z " fill="#ECD592" transform="translate(167,343)"/>
<path d="M0,0 L57,0 L58,1 L59,8 L64,8 L65,9 L65,16 L73,16 L73,24 L81,24 L81,32 L89,32 L89,48 L97,48 L97,105 L89,105 L89,113 L81,113 L81,129 L73,129 L73,145 L65,145 L65,161 L58,161 L58,176 L57,177 L49,177 L49,191 L57,191 L58,193 L58,263 L57,264 L49,264 L48,241 L48,192 L41,192 L41,168 L48,168 L48,152 L56,152 L56,144 L64,144 L64,128 L65,121 L72,121 L72,104 L80,104 L80,96 L88,96 L88,49 L80,49 L80,33 L71,33 L70,27 L65,26 L64,25 L64,17 L57,17 L57,9 L9,9 L9,17 L1,17 L1,25 L-7,25 L-7,33 L-15,33 L-15,41 L-31,41 L-31,49 L-39,49 L-39,57 L-71,57 L-94,56 L-94,49 L-174,49 L-174,57 L-206,57 L-206,64 L-221,65 L-222,73 L-230,73 L-230,57 L-238,57 L-238,49 L-246,49 L-246,41 L-253,41 L-254,25 L-270,25 L-270,17 L-277,17 L-277,9 L-325,9 L-325,1 L-269,1 L-269,8 L-261,8 L-261,16 L-253,16 L-252,17 L-252,24 L-245,24 L-245,32 L-237,32 L-237,40 L-221,40 L-221,48 L-198,48 L-198,40 L-183,40 L-182,32 L-86,32 L-86,40 L-70,40 L-70,48 L-48,48 L-48,41 L-47,40 L-40,40 L-40,32 L-24,32 L-24,25 L-23,24 L-16,24 L-16,17 L-15,16 L-8,16 L-8,9 L-2,8 L0,8 Z " fill="#483635" transform="translate(373,31)"/>
<path d="M0,0 L7,0 L9,4 L9,15 L8,16 L1,16 L1,23 L0,24 L-7,24 L-7,31 L-8,32 L-15,32 L-15,39 L-16,40 L-23,40 L-23,56 L-31,56 L-31,63 L-32,64 L-39,64 L-39,88 L-47,88 L-47,95 L-48,96 L-55,96 L-55,104 L-71,104 L-71,111 L-79,111 L-79,119 L-176,119 L-176,111 L-183,111 L-183,104 L-200,104 L-200,96 L-207,96 L-208,89 L-215,88 L-215,64 L-223,64 L-223,56 L-231,56 L-231,40 L-223,40 L-223,47 L-215,47 L-215,55 L-207,55 L-207,79 L-191,79 L-191,87 L-175,87 L-175,95 L-159,95 L-159,103 L-96,103 L-96,95 L-80,95 L-80,87 L-64,87 L-64,79 L-48,79 L-48,55 L-40,55 L-40,47 L-39,45 L-39,41 L-35,42 L-33,38 L-26,35 L-24,29 L-20,28 L-19,24 L-24,24 L-24,23 L-16,23 L-16,15 L0,15 Z " fill="#1D0D13" transform="translate(366,383)"/>
<path d="M0,0 L8,0 L8,9 L16,9 L16,1 L39,1 L39,9 L72,9 L72,1 L95,1 L95,8 L104,8 L104,1 L111,1 L111,16 L103,16 L103,24 L87,24 L87,33 L80,33 L80,40 L79,41 L72,41 L72,49 L64,49 L64,80 L79,80 L80,81 L80,88 L103,88 L103,96 L79,96 L79,89 L32,89 L32,96 L40,96 L40,113 L32,113 L31,98 L9,97 L9,104 L0,104 L0,96 L8,96 L8,88 L32,88 L32,81 L48,81 L48,49 L40,49 L40,40 L32,40 L32,32 L24,32 L24,24 L8,24 L8,16 L0,16 Z " fill="#39201A" transform="translate(183,342)"/>
<path d="M0,0 L24,0 L24,8 L32,8 L32,16 L40,16 L40,23 L48,23 L48,31 L56,31 L56,39 L64,39 L64,48 L56,48 L56,56 L47,56 L47,63 L40,63 L40,71 L32,71 L32,88 L24,88 L24,103 L16,103 L16,95 L8,95 L8,79 L0,79 L0,63 L-8,63 L-8,55 L-16,55 L-16,16 L-8,16 L-8,8 L0,8 Z " fill="#2F1817" transform="translate(56,72)"/>
<path d="M0,0 L23,0 L23,8 L32,8 L32,15 L39,15 L39,55 L31,55 L31,63 L23,63 L23,79 L15,79 L15,95 L7,95 L7,103 L0,103 L0,87 L-9,87 L-9,72 L-16,72 L-16,63 L-24,63 L-24,55 L-32,55 L-32,48 L-40,48 L-40,40 L-32,40 L-32,32 L-24,32 L-24,24 L-16,24 L-16,16 L-8,16 L-8,8 L0,8 Z " fill="#2E1718" transform="translate(398,72)"/>
<path d="M0,0 L56,0 L56,7 L64,7 L64,15 L72,15 L73,16 L73,23 L80,23 L80,31 L88,31 L88,39 L104,39 L104,47 L127,47 L127,39 L142,39 L143,31 L239,31 L239,39 L255,39 L255,47 L277,47 L277,40 L278,40 L278,48 L255,48 L255,55 L286,55 L286,56 L254,56 L231,55 L231,48 L151,48 L151,56 L119,56 L119,63 L104,64 L103,72 L95,72 L95,56 L87,56 L87,48 L79,48 L79,40 L72,40 L71,24 L55,24 L55,16 L48,16 L48,8 L0,8 Z " fill="#A66F21" transform="translate(48,32)"/>
<path d="M0,0 L5,3 L5,22 L7,23 L0,23 L0,38 L-1,39 L-8,39 L-9,55 L-16,55 L-16,70 L-24,70 L-24,78 L-16,78 L-16,79 L-24,79 L-25,82 L-25,79 L-32,79 L-32,94 L-48,94 L-48,102 L-51,103 L-52,108 L-56,109 L-58,115 L-65,118 L-66,123 L-67,121 L-71,120 L-70,125 L-71,126 L-72,134 L-80,134 L-80,158 L-88,158 L-88,126 L-80,126 L-80,119 L-72,119 L-72,110 L-64,110 L-64,62 L-72,62 L-72,54 L-80,54 L-80,39 L-72,39 L-71,54 L-63,54 L-62,55 L-62,60 L-56,60 L-54,61 L-54,68 L-50,68 L-48,61 L-42,59 L-43,55 L-42,54 L-32,54 L-32,47 L-24,47 L-24,39 L-16,39 L-16,23 L-8,23 L-8,7 L0,7 Z " fill="#A77224" transform="translate(398,304)"/>
<path d="M0,0 L55,0 L55,8 L47,8 L47,16 L55,16 L55,56 L48,56 L48,40 L-1,40 L-1,32 L-8,32 L-8,24 L-16,24 L-16,16 L-24,16 L-24,8 L0,8 Z " fill="#1B0A12" transform="translate(136,215)"/>
<path d="M0,0 L55,0 L55,7 L79,7 L79,15 L63,15 L63,31 L55,31 L55,39 L7,39 L7,55 L-1,55 L-1,15 L7,15 L7,7 L0,7 Z " fill="#1E0C12" transform="translate(287,216)"/>
<path d="M0,0 L9,0 L9,72 L17,72 L17,88 L25,88 L25,104 L33,104 L33,120 L40,120 L41,127 L41,135 L49,135 L49,144 L56,144 L56,151 L65,151 L65,168 L72,168 L72,175 L81,175 L81,183 L88,183 L88,184 L82,184 L82,189 L88,189 L88,199 L79,199 L79,192 L72,192 L72,184 L64,184 L64,176 L56,176 L56,160 L48,160 L48,152 L40,152 L40,144 L32,144 L32,128 L24,128 L24,112 L16,112 L16,96 L8,96 L8,73 L2,73 L0,72 Z " fill="#5F4E48" transform="translate(47,223)"/>
<path d="M0,0 L31,0 L31,8 L40,8 L40,16 L48,16 L48,72 L40,72 L40,88 L32,88 L32,96 L31,103 L24,103 L24,112 L16,112 L16,120 L8,120 L8,119 L15,119 L15,111 L23,111 L23,95 L31,95 L31,79 L39,79 L39,71 L47,71 L47,31 L40,31 L40,24 L31,24 L31,16 L8,16 L8,24 L0,24 L0,32 L-8,32 L-8,40 L-16,40 L-16,48 L-24,48 L-24,56 L-32,56 L-32,64 L-41,64 L-41,56 L-48,56 L-48,48 L-40,48 L-40,40 L-32,40 L-32,32 L-24,32 L-24,24 L-16,24 L-16,16 L-8,16 L-8,8 L0,8 Z " fill="#A56F20" transform="translate(390,56)"/>
<path d="M0,0 L32,0 L32,8 L40,8 L40,16 L48,16 L48,23 L56,23 L56,31 L64,31 L64,39 L72,39 L72,47 L80,47 L80,55 L79,56 L72,56 L72,64 L64,64 L64,55 L56,55 L56,47 L48,47 L48,39 L40,39 L40,32 L32,32 L32,24 L24,24 L24,16 L0,16 L0,24 L-8,24 L-8,32 L-16,32 L-16,16 L-8,16 L-8,8 L0,8 Z " fill="#A77121" transform="translate(56,56)"/>
<path d="M0,0 L8,0 L8,8 L24,8 L24,16 L40,16 L40,24 L103,24 L103,16 L119,16 L119,8 L135,8 L135,0 L143,0 L143,16 L127,16 L127,24 L111,24 L111,32 L32,32 L32,24 L16,24 L16,16 L0,16 Z " fill="#A7762A" transform="translate(167,462)"/>
<path d="M0,0 L15,0 L15,32 L32,32 L32,39 L55,39 L55,47 L31,47 L31,40 L-16,40 L-16,47 L-8,47 L-8,64 L-16,64 L-17,49 L-39,48 L-39,55 L-48,55 L-48,47 L-40,47 L-40,39 L-16,39 L-16,32 L0,32 Z " fill="#1A0A12" transform="translate(231,391)"/>
<path d="M0,0 L7,0 L9,4 L9,15 L8,16 L1,16 L1,23 L0,24 L-7,24 L-7,31 L-8,32 L-15,32 L-15,39 L-16,40 L-23,40 L-23,56 L-31,56 L-31,63 L-32,64 L-39,64 L-39,88 L-47,88 L-47,95 L-48,96 L-55,96 L-55,104 L-71,104 L-71,111 L-79,111 L-79,119 L-80,119 L-80,109 L-77,106 L-73,105 L-72,95 L-56,95 L-56,79 L-48,79 L-48,55 L-40,55 L-40,47 L-39,45 L-39,41 L-35,42 L-33,38 L-26,35 L-24,29 L-20,28 L-19,24 L-24,24 L-24,23 L-16,23 L-16,15 L0,15 Z " fill="#2C1F27" transform="translate(366,383)"/>
<path d="M0,0 L23,0 L23,8 L63,8 L63,16 L87,16 L87,32 L78,32 L78,25 L23,25 L23,17 L0,17 Z " fill="#371F17" transform="translate(279,167)"/>
<path d="M0,0 L8,0 L8,24 L0,24 L0,32 L-8,32 L-8,40 L-40,40 L-40,32 L-55,32 L-55,25 L-48,25 L-48,16 L-8,16 L-8,8 L0,8 Z " fill="#AA7421" transform="translate(358,247)"/>
<path d="M0,0 L9,0 L9,16 L1,16 L1,24 L-7,24 L-7,32 L-15,32 L-15,79 L-7,79 L-7,95 L1,95 L1,111 L9,111 L9,127 L0,127 L0,112 L-8,112 L-8,96 L-16,96 L-16,88 L-23,88 L-23,31 L-16,31 L-16,16 L-15,15 L-8,15 L-8,7 L0,7 Z " fill="#7E7373" transform="translate(31,48)"/>
<path d="M0,0 L8,0 L8,8 L16,8 L16,16 L55,16 L55,24 L63,24 L63,32 L47,32 L47,40 L16,40 L16,32 L8,32 L8,24 L0,24 Z " fill="#AA7522" transform="translate(112,247)"/>
<path d="M0,0 L95,0 L95,8 L0,8 L0,16 L-16,16 L-16,23 L-47,23 L-47,16 L-55,16 L-55,8 L-39,8 L-39,15 L-16,15 L-16,7 L-1,7 Z " fill="#1D0D13" transform="translate(191,64)"/>
<path d="M0,0 L24,0 L24,17 L0,17 L0,24 L-55,24 L-55,32 L-63,32 L-63,17 L-39,17 L-39,8 L0,8 Z " fill="#371F18" transform="translate(175,167)"/>
<path d="M0,0 L7,0 L7,15 L1,16 L1,31 L0,32 L-8,32 L-8,46 L0,46 L1,48 L1,118 L0,119 L-8,119 L-9,96 L-9,47 L-16,47 L-16,23 L-9,23 L-9,15 L-8,8 L0,8 Z " fill="#2F222A" transform="translate(430,176)"/>
<path d="M0,0 L8,0 L8,7 L1,7 L1,55 L9,55 L9,63 L16,63 L17,64 L17,71 L24,71 L24,103 L16,103 L16,79 L8,79 L8,71 L0,71 L0,64 L-16,64 L-16,63 L-8,63 L-8,53 L-14,53 L-14,48 L-8,48 L-8,7 L0,7 Z " fill="#7E4D17" transform="translate(143,359)"/>
<path d="M0,0 L47,0 L47,8 L55,8 L55,16 L8,16 L8,24 L-16,24 L-16,17 L-9,17 L-9,9 L-8,8 L0,8 Z " fill="#E9D491" transform="translate(128,199)"/>
<path d="M0,0 L48,0 L48,8 L55,8 L56,9 L56,17 L64,17 L64,23 L63,24 L40,24 L40,16 L-7,16 L-7,9 L0,9 Z " fill="#E8D391" transform="translate(302,199)"/>
<path d="M0,0 L9,0 L9,72 L17,72 L17,88 L24,88 L24,111 L17,111 L17,96 L8,96 L8,73 L2,73 L0,72 Z " fill="#28191C" transform="translate(47,223)"/>
<path d="M0,0 L16,0 L16,16 L8,16 L8,24 L0,24 L0,32 L-40,32 L-40,40 L-49,40 L-49,47 L-55,47 L-55,24 L-8,24 L-8,16 L0,16 Z " fill="#E8D090" transform="translate(350,231)"/>
<path d="M0,0 L8,0 L8,8 L16,8 L16,16 L23,16 L23,24 L71,24 L71,48 L63,48 L63,40 L55,40 L55,32 L16,32 L16,24 L8,24 L8,16 L0,16 Z " fill="#E8CF8D" transform="translate(112,231)"/>
<path d="M0,0 L8,0 L8,41 L13,41 L12,46 L8,47 L6,53 L-1,56 L-2,61 L-3,59 L-7,58 L-6,63 L-7,64 L-8,72 L-16,72 L-16,96 L-24,96 L-24,64 L-16,64 L-16,57 L-8,57 L-8,48 L0,48 Z " fill="#815116" transform="translate(334,366)"/>
<path d="M0,0 L35,0 L37,5 L61,6 L61,14 L45,14 L45,22 L44,29 L37,29 L38,14 L21,14 L21,22 L5,22 L5,14 L13,14 L13,6 L-2,6 L-2,3 L0,3 Z " fill="#210D11" transform="translate(305,217)"/>
<path d="M0,0 L79,0 L79,7 L56,8 L55,15 L24,15 L24,7 L0,7 Z " fill="#EDD68D" transform="translate(199,335)"/>
<path d="M0,0 L56,0 L56,7 L64,7 L64,15 L72,15 L72,24 L79,24 L79,32 L71,32 L71,24 L55,24 L55,16 L48,16 L48,8 L0,8 Z " fill="#241318" transform="translate(48,32)"/>
<path d="M0,0 L34,0 L35,6 L30,6 L30,3 L32,2 L27,3 L25,2 L23,11 L26,11 L27,7 L28,8 L28,15 L36,15 L36,55 L29,55 L29,39 L12,39 L12,31 L20,31 L20,6 L4,6 L5,2 L0,1 Z " fill="#1D0B0F" transform="translate(155,216)"/>
<path d="M0,0 L57,0 L57,1 L1,1 L1,9 L49,9 L49,17 L56,17 L56,25 L48,25 L48,18 L19,19 L4,20 L1,25 L-7,25 L-7,17 L-15,17 L-15,16 L-7,16 L-7,8 L0,8 Z " fill="#A8701C" transform="translate(47,31)"/>
<path d="M0,0 L47,0 L47,7 L40,7 L40,15 L48,15 L48,24 L39,24 L39,16 L8,16 L8,7 L0,7 Z " fill="#DDA220" transform="translate(215,431)"/>
<path d="M0,0 L1,0 L1,7 L24,7 L24,15 L0,15 L0,8 L-47,8 L-47,15 L-39,15 L-39,32 L-47,32 L-48,17 L-70,16 L-70,23 L-79,23 L-79,15 L-71,15 L-71,7 L0,7 Z " fill="#DBC386" transform="translate(262,423)"/>
<path d="M0,0 L8,0 L8,8 L56,8 L56,9 L1,9 L1,16 L8,16 L8,24 L0,24 L0,64 L-8,64 L-9,50 L-9,14 L-8,13 L-2,13 Z " fill="#D3A534" transform="translate(286,207)"/>
<path d="M0,0 L8,0 L8,9 L16,9 L17,15 L32,16 L32,24 L40,24 L41,39 L48,40 L48,48 L40,48 L40,40 L32,40 L32,32 L24,32 L24,24 L8,24 L8,16 L0,16 Z " fill="#210E12" transform="translate(183,342)"/>
<path d="M0,0 L1,2 L96,2 L96,3 L1,3 L1,11 L-15,11 L-15,18 L-46,18 L-46,11 L-54,11 L-54,3 L-38,3 L-38,10 L-15,10 L-15,2 L0,2 Z " fill="#271311" transform="translate(190,69)"/>
<path d="M0,0 L1,0 L1,7 L8,7 L8,15 L16,15 L16,23 L32,23 L32,24 L16,24 L16,32 L24,32 L24,39 L55,39 L55,40 L47,40 L47,47 L32,48 L31,56 L23,56 L23,40 L15,40 L15,32 L7,32 L7,24 L0,24 L0,16 L7,16 L7,8 L0,8 Z " fill="#986624" transform="translate(120,48)"/>
<path d="M0,0 L25,0 L25,13 L24,14 L17,14 L17,22 L9,22 L9,26 L25,26 L25,33 L24,34 L0,34 L0,21 L8,21 L8,12 L16,12 L16,8 L0,8 Z " fill="#60565D" transform="translate(135,23)"/>
<path d="M0,0 L7,0 L9,4 L9,15 L8,16 L1,16 L1,23 L0,24 L-7,24 L-7,31 L-8,32 L-15,32 L-15,39 L-16,40 L-23,40 L-23,56 L-31,56 L-31,63 L-32,63 L-32,55 L-24,55 L-24,40 L-32,40 L-32,47 L-39,47 L-39,41 L-35,42 L-33,38 L-26,35 L-24,29 L-20,28 L-19,24 L-24,24 L-24,23 L-16,23 L-16,15 L0,15 Z " fill="#7A5A3D" transform="translate(366,383)"/>
<path d="M0,0 L16,0 L16,8 L8,8 L8,16 L24,16 L24,8 L40,8 L40,16 L32,16 L32,24 L0,24 Z " fill="#A4722C" transform="translate(302,223)"/>
<path d="M0,0 L16,0 L16,24 L-16,24 L-16,16 L-24,16 L-24,8 L-8,8 L-8,16 L8,16 L8,8 L0,8 Z " fill="#A77426" transform="translate(159,223)"/>
<path d="M0,0 L7,0 L7,15 L-1,15 L-1,23 L-17,23 L-17,31 L-26,31 L-26,37 L-32,37 L-33,36 L-33,23 L-25,23 L-25,15 L-9,15 L-9,8 L-1,7 Z " fill="#1E0C12" transform="translate(287,343)"/>
<path d="M0,0 L8,0 L8,7 L16,7 L16,15 L24,15 L24,39 L32,39 L32,55 L25,55 L26,52 L29,51 L29,42 L24,41 L25,42 L25,45 L23,45 L23,47 L17,47 L17,23 L9,23 L9,15 L0,15 Z " fill="#1B0A10" transform="translate(135,423)"/>
<path d="M0,0 L24,0 L24,17 L0,17 L-4,15 L-4,12 L-9,11 L-37,10 L-37,15 L-39,16 L-39,8 L0,8 Z " fill="#381D12" transform="translate(175,167)"/>
<path d="M0,0 L48,0 L48,8 L55,8 L56,16 L61,18 L62,24 L55,24 L55,17 L47,17 L46,9 L39,10 L36,9 L0,8 Z " fill="#A8701C" transform="translate(382,40)"/>
<path d="M0,0 L7,0 L7,47 L15,47 L15,63 L7,63 L7,55 L0,55 Z " fill="#18070F" transform="translate(9,80)"/>
<path d="M0,0 L7,0 L7,16 L0,16 L0,33 L-7,34 L-8,41 L-16,41 L-16,48 L-24,48 L-24,40 L-16,40 L-16,25 L-9,25 L-9,16 L-8,9 L-1,8 Z " fill="#1C090F" transform="translate(398,334)"/>
<path d="M0,0 L7,0 L7,55 L0,55 L0,63 L-8,63 L-8,48 L0,48 Z " fill="#1C0A11" transform="translate(462,80)"/>
<path d="M0,0 L16,0 L16,8 L8,8 L8,16 L0,16 L0,23 L-31,23 L-31,16 L-8,16 L-8,7 L0,7 Z " fill="#210F16" transform="translate(334,64)"/>
<path d="M0,0 L5,1 L5,16 L9,14 L9,2 L10,1 L27,1 L27,2 L11,2 L11,10 L19,10 L19,18 L43,18 L43,26 L11,26 L11,18 L4,18 L4,10 L-4,10 L-4,2 L-12,2 L-12,1 Z " fill="#4C2D15" transform="translate(124,229)"/>
<path d="M0,0 L8,0 L8,8 L15,8 L15,24 L23,24 L23,46 L16,46 L16,31 L7,31 L7,16 L0,16 Z " fill="#201119" transform="translate(40,176)"/>
<path d="M0,0 L1,0 L1,47 L9,47 L9,55 L16,55 L17,56 L17,63 L24,63 L24,95 L16,95 L16,71 L8,71 L8,48 L0,48 Z " fill="#B1863D" transform="translate(143,367)"/>
<path d="M0,0 L7,0 L7,15 L-1,16 L-1,24 L-3,24 L-2,29 L-1,31 L-9,31 L-9,47 L-16,47 L-16,23 L-9,23 L-9,15 L-8,8 L0,8 Z " fill="#1A0A14" transform="translate(430,176)"/>
<path d="M0,0 L8,0 L8,8 L16,8 L16,24 L24,24 L24,48 L8,48 L8,40 L0,40 L0,32 L-8,32 L-8,16 L-16,16 L-16,8 L-8,8 L-5,12 L-5,22 L0,22 L2,24 L3,39 L9,39 L9,46 L23,47 L23,33 L15,33 L15,17 L7,17 L7,1 L0,1 Z " fill="#CE972D" transform="translate(40,127)"/>
<path d="M0,0 L23,0 L23,1 L2,1 L2,8 L0,10 L-12,11 L-12,13 L-8,12 L-8,14 L2,14 L3,20 L9,21 L8,23 L0,23 L0,15 L-47,15 L-47,23 L-48,23 L-48,14 L-38,12 L-32,11 L-51,11 L-53,15 L-55,15 L-55,7 L0,7 Z " fill="#D9A01D" transform="translate(175,184)"/>
<path d="M0,0 L8,0 L8,8 L16,8 L16,23 L24,23 L24,40 L16,40 L16,24 L8,24 L8,16 L0,16 Z " fill="#AF7718" transform="translate(294,295)"/>
<path d="M0,0 L8,0 L8,16 L0,16 L0,24 L-8,24 L-8,40 L-16,40 L-16,23 L-8,23 L-8,8 L0,8 Z " fill="#AD771B" transform="translate(175,295)"/>
<path d="M0,0 L8,0 L8,15 L0,15 L0,39 L-8,39 L-8,7 L0,7 Z " fill="#A77935" transform="translate(318,423)"/>
<path d="M0,0 L7,0 L8,13 L8,24 L0,24 L0,40 L-8,39 L-8,16 L0,16 Z " fill="#1E0A0C" transform="translate(414,295)"/>
<path d="M0,0 L17,0 L17,14 L9,14 L9,18 L17,18 L17,26 L0,26 L0,13 L7,12 L8,8 L0,7 Z " fill="#5A4F57" transform="translate(163,31)"/>
<path d="M0,0 L17,0 L17,14 L9,14 L9,18 L17,18 L17,26 L1,26 L0,25 L0,13 L2,12 L7,12 L8,7 L0,7 Z " fill="#4D4349" transform="translate(183,31)"/>
<path d="M0,0 L8,0 L8,8 L1,8 L1,24 L8,24 L8,9 L9,9 L9,25 L1,25 L1,41 L-7,41 L-7,57 L-12,57 L-8,56 L-8,41 L-15,41 L-15,49 L-23,49 L-23,56 L-24,56 L-24,48 L-16,48 L-16,40 L-8,40 L-8,24 L-7,17 L0,17 Z " fill="#9E7842" transform="translate(445,135)"/>
<path d="M0,0 L23,0 L23,8 L78,8 L78,15 L87,15 L86,18 L79,18 L76,16 L75,10 L71,11 L71,14 L73,14 L74,19 L79,21 L82,29 L81,30 L86,31 L86,32 L79,32 L78,24 L71,23 L71,15 L23,15 L23,14 L57,13 L58,12 L49,11 L25,11 L22,9 L21,1 L0,1 Z " fill="#D6A224" transform="translate(279,184)"/>
<path d="M0,0 L1,0 L1,10 L0,15 L7,15 L7,8 L8,8 L8,16 L0,16 L0,24 L-32,24 L-32,16 L-8,16 L-8,8 L0,8 Z " fill="#4E2A10" transform="translate(342,231)"/>
<path d="M0,0 L26,0 L27,1 L27,19 L25,19 L25,2 L1,2 L1,10 L-38,10 L-38,19 L-62,19 L-62,34 L-54,34 L-55,36 L-63,36 L-65,31 L-65,18 L-63,18 L-63,16 L-41,16 L-41,9 L-40,8 L-1,8 L-1,2 Z " fill="#CD9A31" transform="translate(174,165)"/>
<path d="M0,0 L8,0 L8,33 L0,33 L0,40 L-8,41 L-8,32 L0,32 Z " fill="#AC740F" transform="translate(207,159)"/>
<path d="M0,0 L8,0 L8,9 L16,9 L16,25 L0,25 Z " fill="#E7CE86" transform="translate(334,135)"/>
<path d="M0,0 L8,0 L8,31 L16,31 L16,39 L7,39 L7,32 L0,32 Z " fill="#AB731B" transform="translate(263,160)"/>
<path d="M0,0 L96,0 L96,8 L112,8 L112,16 L134,16 L134,9 L135,9 L135,17 L112,17 L112,24 L143,24 L143,25 L111,25 L111,17 L95,17 L95,1 L0,1 Z " fill="#978982" transform="translate(191,63)"/>
<path d="M0,0 L8,0 L8,8 L16,8 L17,9 L17,41 L9,41 L9,104 L16,104 L16,112 L8,112 L8,40 L0,40 L0,39 L7,39 L7,25 L0,25 L0,24 L8,24 L8,39 L15,39 L15,17 L7,17 L7,1 L0,1 Z " fill="#956A38" transform="translate(48,183)"/>
<path d="M0,0 L16,0 L16,31 L15,32 L8,32 L8,8 L0,8 Z " fill="#E8D393" transform="translate(183,223)"/>
<path d="M0,0 L8,0 L8,15 L-1,15 L-3,20 L-6,21 L-10,20 L-10,18 L-13,19 L-14,25 L-13,36 L-15,41 L-23,41 L-23,54 L-24,54 L-24,39 L-16,39 L-16,15 L-8,15 L-8,7 L0,7 Z " fill="#1A0912" transform="translate(334,423)"/>
<path d="M0,0 L95,0 L95,8 L111,8 L111,13 L110,9 L94,9 L93,8 L93,3 L3,3 L1,9 L-1,11 L-10,12 L-16,14 L-16,8 L0,8 Z " fill="#9C703E" transform="translate(191,72)"/>
<path d="M0,0 L80,0 L82,6 L96,6 L112,7 L112,15 L119,15 L119,24 L118,24 L118,17 L111,17 L111,9 L96,9 L96,24 L95,24 L95,9 L88,9 L88,16 L79,16 L79,9 L56,9 L56,8 L79,8 L79,1 L0,1 Z " fill="#C8A24B" transform="translate(199,334)"/>
<path d="M0,0 L16,0 L16,16 L8,16 L8,24 L0,24 L3,21 L0,18 L2,9 L0,9 Z M-1,18 Z " fill="#E6CB83" transform="translate(350,231)"/>
<path d="M0,0 L5,0 L5,7 L1,8 L1,15 L8,15 L8,8 L16,8 L16,16 L9,16 L9,23 L-7,23 L-7,7 L0,7 Z " fill="#E9CC79" transform="translate(135,136)"/>
<path d="M0,0 L8,0 L9,15 L17,15 L18,16 L18,21 L24,21 L26,22 L26,29 L30,29 L32,22 L38,20 L37,16 L40,15 L40,24 L32,24 L32,32 L24,32 L24,23 L8,23 L8,15 L0,15 Z " fill="#CF9625" transform="translate(318,343)"/>
<path d="M0,0 L24,0 L24,5 L60,5 L62,0 L63,0 L63,7 L8,7 L8,15 L0,15 Z " fill="#3A1D0F" transform="translate(112,184)"/>
<path d="M0,0 L9,0 L9,8 L17,8 L17,32 L23,32 L24,28 L24,25 L30,27 L30,37 L26,38 L25,40 L48,40 L48,49 L31,49 L31,41 L24,41 L23,34 L16,33 L16,9 L8,9 L8,1 L0,1 Z " fill="#62585F" transform="translate(135,438)"/>
<path d="M0,0 L15,0 L15,8 L7,8 L7,32 L0,32 Z " fill="#ECD490" transform="translate(279,223)"/>
<path d="M0,0 L23,0 L23,8 L63,8 L63,16 L87,16 L87,32 L78,32 L78,25 L23,25 L23,17 L0,17 L0,16 L24,16 L24,24 L79,24 L80,31 L85,30 L86,17 L62,17 L61,16 L61,10 L22,10 L22,2 L3,2 Z " fill="#6F4513" transform="translate(279,167)"/>
<path d="M0,0 L8,0 L8,15 L15,15 L15,7 L24,7 L24,15 L23,16 L16,16 L16,24 L8,24 L7,23 L7,16 L0,16 Z " fill="#E0B448" transform="translate(279,104)"/>
<path d="M0,0 L16,0 L16,8 L23,8 L23,9 L17,9 L17,14 L23,14 L23,24 L15,24 L15,16 L8,16 L8,8 L0,8 Z " fill="#804F21" transform="translate(112,398)"/>
<path d="M0,0 L8,0 L8,96 L2,96 L3,92 L5,92 L5,13 L6,2 L0,2 Z " fill="#D49B23" transform="translate(398,191)"/>
<path d="M0,0 L8,0 L8,17 L2,19 L1,32 L-6,35 L-6,124 L-5,127 L-8,127 L-8,32 L-1,31 Z " fill="#D9A127" transform="translate(80,160)"/>
<path d="M0,0 L7,0 L9,4 L9,15 L8,16 L1,16 L1,23 L0,24 L-7,24 L-7,31 L-15,31 L-14,25 L-8,25 L-8,15 L0,15 Z " fill="#655151" transform="translate(366,383)"/>
<path d="M0,0 L8,0 L8,24 L0,24 L0,16 L-8,16 L-8,8 L0,8 Z " fill="#EBD290" transform="translate(175,255)"/>
<path d="M0,0 L8,0 L8,24 L0,24 L0,16 L-8,16 L-8,8 L0,8 Z " fill="#E7CB7E" transform="translate(167,112)"/>
<path d="M0,0 L1,0 L1,7 L25,7 L25,15 L56,15 L56,8 L57,8 L57,16 L24,16 L24,8 L1,8 L1,16 L-7,16 L-7,7 L-15,8 L-31,8 L-31,16 L-38,16 L-38,23 L-39,23 L-39,8 L-38,8 L-38,13 L-34,13 L-34,7 L-32,6 L-1,6 Z " fill="#B59144" transform="translate(198,335)"/>
<path d="M0,0 L31,0 L31,8 L0,8 Z " fill="#AA7727" transform="translate(223,438)"/>
<path d="M0,0 L1,0 L1,7 L8,7 L8,15 L16,15 L16,23 L32,23 L32,24 L16,24 L16,32 L7,32 L7,24 L0,24 L0,16 L7,16 L7,8 L0,8 Z " fill="#84746F" transform="translate(120,48)"/>
<path d="M0,0 L8,0 L8,16 L15,16 L15,39 L8,39 L7,24 L1,23 L2,19 L6,17 L4,3 L0,2 Z M4,8 Z " fill="#170911" transform="translate(56,295)"/>
<path d="M0,0 L7,0 L7,16 L-8,17 L-8,32 L-16,32 L-16,25 L-9,25 L-9,16 L-8,9 L-1,8 Z " fill="#6E4015" transform="translate(398,334)"/>
<path d="M0,0 L1,0 L1,40 L-7,40 L-7,56 L-15,56 L-15,64 L-16,71 L-23,71 L-23,80 L-31,80 L-31,88 L-39,88 L-39,87 L-32,87 L-32,79 L-24,79 L-24,63 L-16,63 L-16,47 L-8,47 L-8,39 L0,39 Z " fill="#774E1D" transform="translate(437,88)"/>
<path d="M0,0 L24,0 L24,16 L16,16 L16,7 L0,7 Z " fill="#A56F23" transform="translate(310,88)"/>
<path d="M0,0 L25,0 L25,13 L17,13 L17,8 L0,8 Z " fill="#190B14" transform="translate(135,23)"/>
<path d="M0,0 L1,0 L1,8 L9,8 L9,16 L1,16 L1,24 L-7,24 L-7,16 L-23,16 L-23,23 L-24,23 L-24,15 L-8,15 L-8,8 L-7,7 L0,7 Z " fill="#9A7957" transform="translate(357,48)"/>
<path d="M0,0 L25,0 L26,1 L26,7 L62,6 L66,8 L66,15 L87,15 L89,16 L89,33 L87,33 L87,17 L63,17 L63,9 L23,9 L23,1 L0,1 Z " fill="#D09D32" transform="translate(279,166)"/>
<path d="M0,0 L5,1 L5,16 L9,14 L9,2 L10,1 L27,1 L27,2 L11,2 L11,10 L19,10 L19,18 L12,18 L12,26 L11,26 L11,18 L4,18 L4,10 L-4,10 L-4,2 L-12,2 L-12,1 Z " fill="#3C2010" transform="translate(124,229)"/>
<path d="M0,0 L16,0 L16,9 L32,9 L32,10 L19,11 L17,10 L17,16 L8,16 L8,8 L0,8 Z " fill="#A77932" transform="translate(135,231)"/>
<path d="M0,0 L16,0 L16,1 L9,1 L9,9 L1,9 L1,16 L0,17 L-7,17 L-7,25 L-15,25 L-15,17 L-8,16 L-7,9 L0,9 Z " fill="#D9B258" transform="translate(270,366)"/>
<path d="M0,0 L7,0 L7,8 L15,8 L15,16 L6,16 L6,23 L0,23 Z " fill="#ECD692" transform="translate(295,255)"/>
<path d="M0,0 L1,0 L1,16 L8,16 L8,40 L1,40 L0,39 Z " fill="#9B6D28" transform="translate(183,255)"/>
<path d="M0,0 L80,0 L80,7 L103,7 L111,8 L111,15 L127,15 L127,23 L126,23 L126,16 L110,16 L110,10 L79,9 L77,8 L76,2 L3,1 L1,7 L0,7 Z " fill="#D69B2A" transform="translate(199,80)"/>
<path d="M0,0 L63,0 L63,8 L55,8 L55,1 L26,2 L11,3 L8,8 L0,8 Z " fill="#D89C27" transform="translate(40,48)"/>
<path d="M0,0 L1,0 L1,7 L9,7 L9,15 L17,15 L17,23 L25,23 L25,24 L7,24 L6,18 L1,17 L0,16 Z " fill="#8D7763" transform="translate(437,40)"/>
<path d="M0,0 L57,0 L57,1 L1,1 L1,9 L48,9 L48,10 L2,10 L2,17 L-15,17 L-15,16 L-7,16 L-7,8 L0,8 Z " fill="#AA9485" transform="translate(47,31)"/>
<path d="M0,0 L47,0 L47,7 L40,7 L40,15 L48,15 L48,24 L39,24 L39,16 L8,16 L8,15 L39,15 L39,7 L37,6 L45,6 L45,1 L1,1 L1,7 L0,7 Z " fill="#D3A953" transform="translate(215,431)"/>
<path d="M0,0 L8,0 L8,16 L-8,16 L-8,8 L0,8 Z " fill="#7A4A1D" transform="translate(302,462)"/>
<path d="M0,0 L8,0 L8,8 L16,8 L16,16 L0,16 Z " fill="#7B4515" transform="translate(167,462)"/>
<path d="M0,0 L8,0 L8,24 L0,24 Z " fill="#A87727" transform="translate(159,438)"/>
<path d="M0,0 L8,0 L8,24 L0,24 Z " fill="#AB741F" transform="translate(286,271)"/>
<path d="M0,0 L16,0 L16,8 L8,8 L8,16 L0,16 Z " fill="#7D501B" transform="translate(326,231)"/>
<path d="M0,0 L8,0 L8,16 L-8,16 L-8,8 L0,8 Z " fill="#976730" transform="translate(32,48)"/>
<path d="M0,0 L8,0 L8,15 L-8,15 L-8,7 L0,7 Z " fill="#A47427" transform="translate(318,423)"/>
<path d="M0,0 L48,0 L48,8 L46,8 L46,6 L40,7 L40,3 L2,3 L1,8 L0,8 Z " fill="#9D6D34" transform="translate(382,40)"/>
<path d="M0,0 L2,0 L2,6 L78,6 L78,0 L79,0 L79,8 L0,8 Z " fill="#936B37" transform="translate(199,486)"/>
<path d="M0,0 L24,0 L25,15 L28,16 L27,22 L27,30 L26,32 L24,32 L24,16 L16,16 L16,24 L7,25 L9,21 L13,18 L15,14 L23,14 L23,2 L6,2 L3,3 L1,8 L0,8 Z " fill="#D59D27" transform="translate(159,279)"/>
<path d="M0,0 L7,0 L7,15 L4,15 L4,10 L-7,9 L-6,23 L-11,26 L-14,27 L-15,43 L-9,45 L-9,47 L-16,47 L-16,23 L-9,23 L-9,15 L-8,8 L0,8 Z " fill="#1D080A" transform="translate(430,176)"/>
<path d="M0,0 L47,0 L47,1 L3,3 L0,10 L-6,10 L-6,16 L-9,19 L-15,19 L-15,23 L7,23 L7,17 L8,17 L8,24 L-16,24 L-16,17 L-9,17 L-9,9 L-8,8 L0,8 Z " fill="#E2C273" transform="translate(128,199)"/>
<path d="M0,0 L23,0 L23,7 L0,7 Z " fill="#1D0B0D" transform="translate(263,431)"/>
<path d="M0,0 L23,0 L23,7 L0,7 Z " fill="#1B0A0D" transform="translate(192,431)"/>
<path d="M0,0 L1,0 L2,5 L6,6 L7,4 L9,4 L9,1 L16,1 L16,16 L8,16 L8,9 L-8,9 L-8,8 L0,8 Z " fill="#764B1F" transform="translate(135,414)"/>
<path d="M0,0 L8,0 L8,8 L16,8 L16,40 L0,40 L0,39 L7,39 L7,25 L0,25 L0,24 L8,24 L8,39 L15,39 L15,17 L7,17 L7,1 L0,1 Z " fill="#5F473A" transform="translate(48,183)"/>
<path d="M0,0 L24,0 L24,17 L0,17 L0,16 L23,16 L22,14 L22,2 L2,2 L2,8 L1,10 L-39,9 L-39,8 L0,8 Z " fill="#653C0C" transform="translate(175,167)"/>
<path d="M0,0 L1,0 L1,8 L-7,8 L-7,16 L-15,16 L-15,24 L-23,24 L-23,32 L-31,32 L-31,40 L-39,40 L-39,47 L-40,47 L-40,38 L-39,36 L-34,35 L-33,30 L-25,30 L-25,24 L-24,23 L-16,23 L-16,15 L-8,15 L-8,5 L-3,3 Z " fill="#875C2A" transform="translate(397,72)"/>
<path d="M0,0 L23,0 L23,1 L2,1 L2,8 L1,9 L-54,9 L-54,15 L-55,15 L-55,7 L0,7 Z " fill="#BA8B38" transform="translate(175,184)"/>
<path d="M0,0 L45,0 L45,3 L-3,3 L-3,11 L-11,11 L-11,10 L-5,10 L-5,2 Z " fill="#2A1309" transform="translate(385,37)"/>
<path d="M0,0 L6,1 L7,7 L17,9 L18,11 L18,18 L17,20 L9,20 L9,18 L16,18 L16,10 L8,10 L8,17 L1,17 L1,10 L4,9 L5,2 L0,2 L0,9 L-7,9 L-2,3 Z " fill="#D8A52B" transform="translate(135,134)"/>
<path d="M0,0 L8,0 L8,1 L2,1 L3,38 L8,39 L8,47 L0,47 Z " fill="#CB973E" transform="translate(16,80)"/>
<path d="M0,0 L16,0 L16,8 L1,8 L1,24 L0,24 Z " fill="#6B3E14" transform="translate(302,223)"/>
<path d="M0,0 L48,0 L48,8 L55,8 L55,9 L47,9 L44,3 L26,3 L2,2 L1,8 L0,8 Z " fill="#EFC96D" transform="translate(302,199)"/>
<path d="M0,0 L8,0 L8,9 L17,9 L16,13 L14,14 L2,14 L0,8 Z " fill="#A67424" transform="translate(183,470)"/>
<path d="M0,0 L26,0 L27,1 L27,19 L25,19 L25,2 L1,2 L1,10 L-38,10 L-38,9 L-1,9 L-1,2 Z " fill="#CE9C36" transform="translate(174,165)"/>
<path d="M0,0 L4,0 L5,28 L3,30 L-1,29 L-1,2 Z " fill="#A9721F" transform="translate(209,161)"/>
<path d="M0,0 L5,0 L6,5 L5,6 L7,7 L7,0 L8,0 L8,8 L0,8 L0,16 L-8,16 L-6,3 L-2,1 Z " fill="#A16B20" transform="translate(48,72)"/>
<path d="M0,0 L15,0 L15,12 L6,12 L7,6 L0,6 Z " fill="#1F111B" transform="translate(184,32)"/>
<path d="M0,0 L7,0 L7,2 L12,3 L14,17 L9,20 L8,23 L14,23 L14,24 L6,24 L6,1 L0,1 Z M11,8 Z " fill="#3E3139" transform="translate(49,295)"/>
<path d="M0,0 L65,1 L65,2 L3,3 L1,9 L-1,11 L-10,12 L-16,14 L-16,8 L0,8 Z " fill="#A16C2D" transform="translate(191,72)"/>
<path d="M0,0 L8,0 L8,17 L0,17 Z " fill="#A37122" transform="translate(88,143)"/>
<path d="M0,0 L9,0 L9,8 L1,8 L1,15 L-7,15 L-7,7 L0,7 Z " fill="#986728" transform="translate(103,128)"/>
<path d="M0,0 L1,0 L1,7 L9,7 L9,13 L-6,13 L-6,1 Z " fill="#150910" transform="translate(170,43)"/>
<path d="M0,0 L8,0 L8,9 L6,8 L6,3 L3,4 L3,23 L15,23 L15,10 L9,10 L9,9 L16,9 L16,25 L0,25 Z " fill="#EAC466" transform="translate(334,135)"/>
<path d="M0,0 L5,0 L5,7 L1,8 L1,15 L8,15 L8,8 L16,8 L16,16 L9,16 L9,23 L8,23 L8,16 L0,16 L0,8 L-7,8 L-7,7 L0,7 Z " fill="#E4B952" transform="translate(135,136)"/>
<path d="M0,0 L8,0 L11,4 L11,14 L16,14 L18,16 L18,23 L17,23 L17,17 L9,17 L8,16 L8,8 L0,8 Z " fill="#D29C2D" transform="translate(24,135)"/>
<path d="M0,0 L19,0 L20,8 L25,10 L26,16 L19,16 L19,9 L11,9 L10,1 L3,2 Z " fill="#D09528" transform="translate(418,48)"/>
<path d="M0,0 L16,0 L16,8 L8,9 L0,8 Z " fill="#6B3E14" transform="translate(159,223)"/>
<path d="M0,0 L1,0 L1,8 L-2,8 L-2,6 L-5,6 L-5,4 L-42,3 L-43,6 L-46,6 L-46,1 Z " fill="#A16D2E" transform="translate(95,40)"/>
<path d="M0,0 L16,0 L16,8 L0,8 Z " fill="#250F11" transform="translate(294,478)"/>
<path d="M0,0 L16,0 L16,8 L0,8 Z " fill="#1B0B0C" transform="translate(167,478)"/>
<path d="M0,0 L7,0 L9,4 L9,15 L0,15 Z " fill="#220B07" transform="translate(366,383)"/>
<path d="M0,0 L8,0 L8,16 L0,16 Z " fill="#A77324" transform="translate(191,255)"/>
<path d="M0,0 L2,0 L3,65 L4,69 L3,72 L1,72 L0,49 Z " fill="#311507" transform="translate(421,223)"/>
<path d="M0,0 L8,0 L8,16 L0,16 Z " fill="#EBC769" transform="translate(88,191)"/>
<path d="M0,0 L23,0 L23,8 L78,8 L78,15 L87,15 L86,18 L79,18 L76,16 L75,10 L22,9 L21,1 L0,1 Z " fill="#D4A23C" transform="translate(279,184)"/>
<path d="M0,0 L8,0 L8,16 L0,16 Z " fill="#976829" transform="translate(390,159)"/>
<path d="M0,0 L8,0 L8,16 L0,16 Z " fill="#190812" transform="translate(32,159)"/>
<path d="M0,0 L8,0 L8,16 L0,16 Z " fill="#220F0F" transform="translate(24,143)"/>
<path d="M0,0 L1,0 L1,5 L8,5 L8,6 L1,6 L1,14 L-7,14 L-7,18 L9,18 L9,25 L8,25 L8,19 L-8,19 L-8,4 L0,4 Z " fill="#7C7679" transform="translate(151,31)"/>
<path d="M0,0 L1,0 L1,6 L-6,6 L-6,60 L-7,60 L-9,20 L-9,10 L-6,3 L0,4 Z " fill="#D4A02F" transform="translate(118,210)"/>
<path d="M0,0 L8,0 L8,8 L56,8 L56,9 L1,9 L1,16 L0,16 Z " fill="#946F34" transform="translate(286,207)"/>
<path d="M0,0 L1,0 L1,15 L-7,15 L-7,31 L-15,31 L-15,39 L-22,39 L-22,23 L-21,23 L-21,37 L-17,37 L-18,26 L-15,25 L-15,30 L-9,29 L-8,14 L-4,13 L-4,11 L-2,11 Z " fill="#331709" transform="translate(420,136)"/>
<path d="M0,0 L1,0 L2,89 L1,96 L-6,98 L-7,104 L-8,104 L-8,95 L0,95 Z " fill="#AB7314" transform="translate(406,192)"/>
<path d="M0,0 L82,0 L82,1 L2,1 L2,9 L-22,9 L-22,8 L-1,7 L-1,4 Z " fill="#B47B1A" transform="translate(197,79)"/>
<path d="M0,0 L7,0 L8,7 L15,8 L15,16 L7,16 L7,8 L0,8 Z " fill="#1F0B0A" transform="translate(120,406)"/>
<path d="M0,0 L8,0 L8,9 L15,9 L15,16 L7,16 L7,8 L0,8 Z " fill="#241010" transform="translate(88,366)"/>
<path d="M0,0 L8,0 L8,15 L0,15 Z " fill="#A67421" transform="translate(318,343)"/>
<path d="M0,0 L1,0 L1,5 L51,5 L51,3 L54,4 L56,6 L56,12 L55,12 L55,7 L0,7 Z " fill="#412008" transform="translate(303,184)"/>
<path d="M0,0 L8,0 L8,15 L0,15 Z " fill="#A67322" transform="translate(80,160)"/>
<path d="M0,0 L8,0 L8,15 L0,15 Z " fill="#160911" transform="translate(454,64)"/>
<path d="M0,0 L4,1 L2,2 L8,3 L9,1 L9,4 L1,4 L1,20 L-6,19 L-6,11 L-3,2 Z " fill="#21141E" transform="translate(413,315)"/>
<path d="M0,0 L1,0 L1,23 L7,23 L7,24 L1,24 L1,40 L-6,40 L-6,55 L-7,55 L-7,39 L0,39 L0,23 L-7,23 L-7,16 L0,16 Z " fill="#786354" transform="translate(405,311)"/>
<path d="M0,0 L8,0 L8,1 L1,1 L0,24 L-8,24 L-8,16 L-7,14 L-2,14 L-2,3 Z " fill="#CD9525" transform="translate(437,151)"/>
<path d="M0,0 L1,0 L1,7 L24,7 L24,8 L1,8 L1,15 L0,15 L0,8 L-70,8 L-70,15 L-71,15 L-71,7 L0,7 Z " fill="#72542C" transform="translate(262,423)"/>
<path d="M0,0 L6,1 L4,3 L4,6 L6,5 L5,12 L4,14 L-8,15 L-7,11 L-6,10 L-9,8 L-2,8 L-2,1 Z " fill="#2F2028" transform="translate(367,39)"/>
<path d="M0,0 L55,0 L55,8 L46,9 L45,12 L42,12 L43,5 L44,3 L52,2 L51,5 L49,6 L54,7 L53,1 L0,1 Z " fill="#4C382F" transform="translate(136,215)"/>
<path d="M0,0 L7,0 L7,16 L-1,16 L-1,8 L0,7 Z " fill="#AF771A" transform="translate(128,64)"/>
<path d="M0,0 L25,0 L25,13 L24,13 L24,1 L10,2 L14,4 L12,6 L16,8 L0,8 Z " fill="#443940" transform="translate(135,23)"/>
<path d="M0,0 L7,0 L7,16 L0,16 Z " fill="#1E0C0F" transform="translate(398,334)"/>
<path d="M0,0 L7,0 L7,16 L0,16 Z " fill="#A3742C" transform="translate(279,255)"/>
<path d="M0,0 L8,0 L9,15 L16,16 L16,24 L8,24 L8,16 L0,16 L0,8 L2,8 L3,14 L7,15 L7,1 L0,1 Z " fill="#281110" transform="translate(215,366)"/>
<path d="M0,0 L1,0 L1,31 L9,31 L9,39 L0,39 L0,32 L-7,32 L-7,31 L0,31 Z " fill="#BE8518" transform="translate(270,160)"/>
<path d="M0,0 L7,0 L7,16 L0,15 Z " fill="#1B080C" transform="translate(80,351)"/>
<path d="M0,0 L0,3 L-3,4 L-4,6 L-10,7 L-18,7 L-22,5 L-23,1 Z " fill="#170810" transform="translate(326,79)"/>
<path d="M0,0 L33,0 L33,8 L41,8 L41,9 L32,9 L32,1 L1,1 L1,9 L-7,9 L-7,17 L-15,17 L-14,15 L-10,13 L-8,8 L-3,7 Z " fill="#CB9023" transform="translate(389,55)"/>
<path d="M0,0 L7,0 L7,15 L0,15 Z " fill="#19070D" transform="translate(104,383)"/>
<path d="M0,0 L7,0 L7,15 L0,15 Z " fill="#A8731F" transform="translate(152,343)"/>
<path d="M0,0 L7,0 L7,15 L0,15 Z " fill="#18080B" transform="translate(72,335)"/>
<path d="M0,0 L7,0 L7,16 L-16,16 L-16,15 L-2,14 L3,13 L5,1 L1,1 L1,9 L-17,9 L-17,8 L-1,8 L-1,1 Z " fill="#9C703A" transform="translate(168,231)"/>
<path d="M0,0 L7,0 L7,15 L0,15 Z " fill="#1B080D" transform="translate(438,160)"/>
<path d="M0,0 L7,0 L7,15 L0,15 Z " fill="#14070E" transform="translate(446,144)"/>
<path d="M0,0 L7,0 L7,15 L0,15 Z " fill="#A36F27" transform="translate(382,144)"/>
<path d="M0,0 L7,0 L7,15 L0,15 Z " fill="#EACC79" transform="translate(279,104)"/>
<path d="M0,0 L8,0 L8,2 L2,2 L3,35 L8,38 L8,39 L0,39 Z " fill="#3B1A02" transform="translate(40,88)"/>
<path d="M0,0 L15,0 L15,7 L0,7 Z " fill="#1B0B0F" transform="translate(287,72)"/>
<path d="M0,0 L7,0 L7,1 L2,1 L1,9 L-5,11 L-7,17 L-14,18 L-14,22 L-8,21 L-5,31 L-8,31 L-8,24 L-16,24 L-16,16 L-8,16 L-8,8 L0,8 Z " fill="#381908" transform="translate(374,96)"/>
<path d="M0,0 L7,0 L7,31 L6,32 L-1,32 L-1,8 L0,8 L0,31 L5,31 L5,2 L0,1 Z " fill="#E0C27A" transform="translate(192,223)"/>
<path d="M0,0 L1,0 L2,5 L46,6 L48,8 L0,8 Z " fill="#281106" transform="translate(48,32)"/>
<path d="M0,0 L1,0 L1,8 L-7,8 L-7,15 L-38,15 L-38,9 L-36,12 L-33,13 L-9,13 L-9,8 L-4,5 L-1,5 Z " fill="#2A0E06" transform="translate(341,72)"/>
<path d="M0,0 L1,0 L1,31 L-7,31 L-7,39 L-8,39 L-8,32 L-10,32 L-9,28 L-2,23 L-1,21 Z " fill="#D69D1F" transform="translate(206,160)"/>
<path d="M0,0 L8,0 L8,32 L-8,32 L-8,31 L7,31 L7,7 L0,7 Z " fill="#B18E46" transform="translate(223,391)"/>
<path d="M0,0 L18,0 L23,1 L24,8 L49,8 L50,4 L51,2 L53,2 L53,10 L22,10 L22,2 L-1,2 Z " fill="#EAD39E" transform="translate(201,340)"/>
<path d="M0,0 L1,0 L1,23 L6,22 L7,16 L16,16 L16,17 L9,17 L9,24 L18,24 L18,25 L2,27 L2,40 L0,40 Z " fill="#CBA14C" transform="translate(294,255)"/>
<path d="M0,0 L2,1 L2,48 L0,48 L-1,31 Z " fill="#D5A12B" transform="translate(199,223)"/>
<path d="M0,0 L7,0 L6,8 L7,8 L7,15 L0,15 Z " fill="#18080F" transform="translate(16,64)"/>
<path d="M0,0 L4,2 L4,4 L24,4 L24,6 L32,6 L32,7 L0,7 Z " fill="#4D3118" transform="translate(310,248)"/>
<path d="M0,0 L1,0 L1,47 L9,47 L9,63 L8,63 L6,50 L3,51 L0,50 Z " fill="#381A06" transform="translate(15,80)"/>
<path d="M0,0 L2,2 L2,6 L8,6 L8,16 L0,16 Z " fill="#AE751C" transform="translate(143,88)"/>
<path d="M0,0 L1,0 L1,10 L0,15 L7,15 L7,8 L8,8 L8,16 L-8,16 L-8,8 L0,8 Z " fill="#573519" transform="translate(342,231)"/>
<path d="M0,0 L33,0 L33,2 L1,2 L1,10 L-7,10 L-7,9 L-2,8 Z " fill="#D69924" transform="translate(55,54)"/>
<path d="M0,0 L1,0 L2,36 L6,36 L7,24 L8,24 L8,40 L0,40 Z " fill="#442B1A" transform="translate(286,231)"/>
<path d="M0,0 L2,4 L4,5 L5,0 L6,2 L8,0 L16,0 L16,7 L0,7 Z " fill="#1D0B0E" transform="translate(104,48)"/>
<path d="M0,0 L1,4 L4,4 L5,0 L6,1 L6,7 L3,7 L1,9 L0,25 L-10,25 L-10,24 L-2,24 L-2,1 Z " fill="#240B05" transform="translate(177,223)"/>
<path d="M0,0 L50,0 L51,6 L57,7 L56,9 L48,9 L48,1 L1,1 L1,9 L0,9 Z " fill="#D4A330" transform="translate(127,198)"/>
<path d="M0,0 L14,0 L14,6 L-1,6 Z " fill="#160A11" transform="translate(145,50)"/>
<path d="M0,0 L8,0 L8,16 L15,16 L15,36 L14,36 L13,19 L7,17 L4,3 L0,2 Z M4,8 Z " fill="#2F1208" transform="translate(56,295)"/>
<path d="M0,0 L6,0 L6,14 L-1,14 L0,9 Z " fill="#EAD189" transform="translate(359,232)"/>
<path d="M0,0 L24,0 L24,8 L23,8 L22,3 L2,2 L2,8 L1,9 L-6,10 L-7,16 L-8,16 L-8,8 L0,8 Z " fill="#381806" transform="translate(56,72)"/>
<path d="M0,0 L8,0 L8,1 L1,1 L1,9 L-15,9 L-15,16 L-23,16 L-23,24 L-24,24 L-24,14 L-21,11 L-17,10 L-16,8 L0,8 Z " fill="#645B62" transform="translate(310,478)"/>
<path d="M0,0 L8,0 L8,8 L16,8 L16,9 L8,9 L7,12 L7,9 L0,9 Z " fill="#734B25" transform="translate(366,374)"/>
<path d="M0,0 L1,0 L1,7 L-54,7 L-54,15 L-62,15 L-62,14 L-55,14 L-55,6 L-2,5 Z " fill="#4D2806" transform="translate(174,184)"/>
<path d="M0,0 L1,0 L1,16 L-7,16 L-7,32 L-12,32 L-8,31 L-8,16 L-15,16 L-15,24 L-23,24 L-23,31 L-24,31 L-24,23 L-16,23 L-16,15 L-8,15 L-8,7 L-7,7 L-7,15 L0,15 Z " fill="#654E40" transform="translate(445,160)"/>
<path d="M0,0 L16,0 L16,3 L13,3 L12,6 L0,6 Z " fill="#16090F" transform="translate(175,72)"/>
<path d="M0,0 L2,1 L2,6 L9,5 L9,2 L8,0 L16,0 L16,8 L0,8 Z " fill="#2B120A" transform="translate(151,231)"/>
<path d="M0,0 L39,0 L39,1 L2,1 L2,11 L-22,11 L-22,10 L1,10 L-1,8 L-1,1 Z " fill="#BA8A25" transform="translate(134,173)"/>
<path d="M0,0 L7,0 L7,8 L12,9 L8,11 L4,12 L2,10 L0,10 Z " fill="#1A0910" transform="translate(184,343)"/>
<path d="M0,0 L2,0 L2,22 L-5,22 L-6,21 L-6,7 L-5,7 L-4,16 L-3,20 L-1,19 L-1,8 L0,6 Z " fill="#AE7718" transform="translate(189,273)"/>
<path d="M0,0 L8,0 L8,9 L-8,9 L-8,8 L0,8 Z " fill="#846038" transform="translate(40,167)"/>
<path d="M0,0 L8,0 L8,8 L16,8 L16,16 L8,16 L7,9 L7,1 L0,1 Z " fill="#97692E" transform="translate(40,127)"/>
<path d="M0,0 L8,0 L8,1 L1,1 L3,21 L1,26 L-7,26 L-7,39 L-8,39 L-8,24 L0,24 Z " fill="#351709" transform="translate(318,438)"/>
<path d="M0,0 L8,0 L8,16 L7,16 L7,8 L-1,8 L-1,1 Z " fill="#AA771E" transform="translate(184,207)"/>
<path d="M0,0 L1,0 L2,20 L1,22 L-6,22 L-6,19 L-3,14 L-2,12 L-1,1 Z " fill="#140811" transform="translate(420,296)"/>
<path d="M0,0 L10,0 L10,25 L9,25 L9,2 L1,2 L1,10 L-6,10 L-6,8 L-1,7 L-3,5 L-2,2 Z " fill="#D7A631" transform="translate(166,110)"/>
<path d="M0,0 L6,0 L2,4 L1,12 L4,12 L5,14 L5,23 L0,23 Z " fill="#A67321" transform="translate(311,438)"/>
<path d="M0,0 L1,0 L1,5 L-7,5 L-7,12 L-15,12 L-15,4 L0,4 Z " fill="#3D2F2E" transform="translate(389,370)"/>
<path d="M0,0 L2,0 L2,15 L1,16 L-7,16 L-7,30 L1,30 L1,31 L-8,31 L-8,15 L-1,14 L-3,10 L-2,8 L0,8 Z " fill="#7E7176" transform="translate(429,192)"/>
<path d="M0,0 L8,0 L8,8 L15,8 L15,9 L7,9 L4,7 L4,9 L0,10 Z " fill="#946424" transform="translate(64,167)"/>
<path d="M0,0 L31,0 L28,2 L21,3 L4,3 Z " fill="#B37A18" transform="translate(223,438)"/>
<path d="M0,0 L16,0 L16,1 L8,1 L8,8 L0,9 Z " fill="#B47A16" transform="translate(199,191)"/>
<path d="M0,0 L1,0 L2,8 L-1,11 L-5,10 L-6,13 L-1,13 L1,15 L1,23 L8,23 L8,24 L0,24 L0,16 L-8,16 L-8,8 L0,8 Z " fill="#E6C05F" transform="translate(167,112)"/>
<path d="M0,0 L8,0 L8,9 L0,9 Z " fill="#362519" transform="translate(294,446)"/>
<path d="M0,0 L8,0 L8,9 L0,9 Z " fill="#AC8235" transform="translate(215,446)"/>
<path d="M0,0 L8,0 L8,9 L0,9 Z " fill="#C39230" transform="translate(215,382)"/>
<path d="M0,0 L16,0 L16,8 L8,8 L8,1 L0,1 Z " fill="#B58D42" transform="translate(191,366)"/>
<path d="M0,0 L16,0 L16,1 L8,1 L8,8 L0,8 Z " fill="#BA8E37" transform="translate(270,366)"/>
<path d="M0,0 L1,0 L1,7 L8,7 L8,15 L0,15 Z " fill="#CFA03A" transform="translate(159,423)"/>
<path d="M0,0 L1,0 L1,15 L7,15 L10,17 L10,33 L8,33 L8,18 L0,18 Z " fill="#9D7239" transform="translate(64,293)"/>
<path d="M0,0 L6,1 L7,2 L7,16 L12,16 L12,10 L13,10 L13,18 L6,18 L6,3 L-2,3 L-2,18 L-3,18 L-3,2 Z " fill="#D5A42F" transform="translate(281,101)"/>
<path d="M0,0 L3,0 L3,5 L-36,5 L-36,4 L-13,3 L-6,2 L-1,2 Z " fill="#4A3731" transform="translate(188,75)"/>
<path d="M0,0 L1,0 L1,23 L9,23 L9,30 L-5,30 L-5,29 L8,28 L8,25 L2,26 L0,25 Z " fill="#250A06" transform="translate(301,224)"/>
<path d="M0,0 L1,0 L1,17 L-3,17 L-4,14 L-4,20 L-6,20 L-6,13 L-4,11 L-3,11 L-2,1 Z " fill="#D0992E" transform="translate(278,167)"/>
<path d="M0,0 L21,0 L19,2 L1,2 L1,7 L0,7 Z M-1,7 L0,9 L-5,10 L-7,15 L-8,15 L-8,8 Z " fill="#E9D8A4" transform="translate(192,439)"/>
<path d="M0,0 L8,0 L8,7 L1,8 L-8,8 L-8,7 L0,7 Z " fill="#A47119" transform="translate(143,359)"/>
<path d="M0,0 L8,0 L8,8 L0,8 Z " fill="#D4A338" transform="translate(183,470)"/>
<path d="M0,0 L8,0 L8,8 L0,8 Z " fill="#A4762B" transform="translate(294,470)"/>
<path d="M0,0 L8,0 L8,8 L0,8 Z " fill="#D69E26" transform="translate(286,470)"/>
<path d="M0,0 L8,0 L8,8 L0,8 Z " fill="#A17023" transform="translate(175,470)"/>
<path d="M0,0 L8,0 L8,8 L0,8 Z " fill="#A87F3D" transform="translate(302,462)"/>
<path d="M0,0 L8,0 L8,8 L0,8 Z " fill="#A17832" transform="translate(167,462)"/>
<path d="M0,0 L8,0 L8,8 L0,8 Z " fill="#1B0905" transform="translate(175,446)"/>
<path d="M0,0 L8,0 L8,8 L0,8 Z " fill="#25170E" transform="translate(286,438)"/>
<path d="M0,0 L8,0 L8,8 L0,8 Z " fill="#26160F" transform="translate(183,438)"/>
<path d="M0,0 L8,0 L8,8 L0,8 Z " fill="#CFA031" transform="translate(310,430)"/>
<path d="M0,0 L8,0 L8,8 L0,8 Z " fill="#15070F" transform="translate(342,414)"/>
<path d="M0,0 L2,1 L3,22 L16,21 L16,23 L0,23 Z " fill="#EBD8A8" transform="translate(247,399)"/>
<path d="M0,0 L8,0 L8,8 L0,8 Z " fill="#14060B" transform="translate(112,398)"/>
<path d="M0,0 L8,0 L8,8 L0,8 Z " fill="#804C13" transform="translate(350,398)"/>
<path d="M0,0 L8,0 L8,8 L0,8 Z " fill="#D8A740" transform="translate(247,391)"/>
<path d="M0,0 L8,0 L8,8 L0,8 Z " fill="#D2A026" transform="translate(207,374)"/>
<path d="M0,0 L8,0 L8,8 L0,8 Z " fill="#7F501F" transform="translate(104,374)"/>
<path d="M0,0 L8,0 L8,8 L0,8 Z " fill="#7C4D1C" transform="translate(88,358)"/>
<path d="M0,0 L8,0 L8,8 L0,8 Z " fill="#7C4713" transform="translate(56,287)"/>
<path d="M0,0 L8,0 L8,8 L0,8 Z " fill="#A37628" transform="translate(167,255)"/>
<path d="M0,0 L8,0 L8,8 L0,8 Z " fill="#A67E40" transform="translate(302,255)"/>
<path d="M0,0 L8,0 L8,8 L0,8 Z " fill="#CD972F" transform="translate(326,239)"/>
<path d="M0,0 L8,0 L8,8 L0,8 Z " fill="#C39646" transform="translate(334,231)"/>
<path d="M0,0 L8,0 L8,8 L0,8 Z " fill="#A67935" transform="translate(350,231)"/>
<path d="M0,0 L7,0 L5,2 L3,3 L2,14 L2,35 L1,35 L0,26 Z " fill="#1D0907" transform="translate(287,232)"/>
<path d="M0,0 L8,0 L8,8 L0,8 Z " fill="#966D37" transform="translate(120,231)"/>
<path d="M0,0 L8,0 L8,8 L0,8 Z " fill="#DBC797" transform="translate(310,223)"/>
<path d="M0,0 L8,0 L8,8 L0,8 Z " fill="#E2CD9C" transform="translate(159,223)"/>
<path d="M0,0 L8,0 L8,8 L0,8 Z " fill="#764413" transform="translate(56,191)"/>
<path d="M0,0 L8,0 L8,8 L0,8 Z " fill="#95662C" transform="translate(56,151)"/>
<path d="M0,0 L8,0 L8,8 L0,8 Z " fill="#B17A1C" transform="translate(422,136)"/>
<path d="M0,0 L8,0 L8,8 L0,8 Z " fill="#986A32" transform="translate(24,135)"/>
<path d="M0,0 L8,0 L8,8 L0,8 Z " fill="#936325" transform="translate(374,135)"/>
<path d="M0,0 L8,0 L8,8 L0,8 Z " fill="#A46D1D" transform="translate(366,127)"/>
<path d="M0,0 L8,0 L8,8 L0,8 Z " fill="#A36F24" transform="translate(16,119)"/>
<path d="M0,0 L8,0 L8,8 L0,8 Z " fill="#A47125" transform="translate(135,80)"/>
<path d="M0,0 L8,0 L8,8 L0,8 Z " fill="#9B6E34" transform="translate(342,72)"/>
<path d="M0,0 L8,0 L8,8 L0,8 Z " fill="#9C6D31" transform="translate(350,64)"/>
<path d="M0,0 L8,0 L8,8 L0,8 Z " fill="#9D6A2D" transform="translate(24,64)"/>
<path d="M0,0 L8,0 L8,8 L0,8 Z " fill="#240F10" transform="translate(24,56)"/>
<path d="M0,0 L8,0 L8,8 L0,8 Z " fill="#AB731F" transform="translate(374,48)"/>
<path d="M0,0 L8,0 L8,8 L0,8 Z " fill="#A06C28" transform="translate(40,48)"/>
<path d="M0,0 L8,0 L8,8 L0,8 Z " fill="#180B14" transform="translate(32,48)"/>
<path d="M0,0 L4,1 L4,5 L6,5 L6,7 L8,7 L8,9 L6,9 L5,13 L1,12 L0,10 Z " fill="#AB7421" transform="translate(296,297)"/>
<path d="M0,0 L8,0 L9,8 L37,8 L37,1 L38,1 L38,9 L6,9 L6,1 L0,1 Z " fill="#B57B12" transform="translate(312,278)"/>
<path d="M0,0 L3,1 L2,2 L2,12 L23,13 L23,15 L0,15 Z " fill="#3C1803" transform="translate(279,168)"/>
<path d="M0,0 L7,0 L8,1 L8,8 L0,8 Z " fill="#A06C2B" transform="translate(453,119)"/>
<path d="M0,0 L8,0 L8,8 L0,8 Z " fill="#DECB98" transform="translate(286,223)"/>
<path d="M0,0 L9,0 L9,1 L2,1 L2,8 L1,9 L-6,9 L-6,17 L-14,17 L-14,16 L-7,16 L-7,6 L0,6 Z " fill="#5C3B18" transform="translate(261,374)"/>
<path d="M0,0 L8,0 L8,8 L0,8 L1,5 L-1,3 Z " fill="#EED28A" transform="translate(302,263)"/>
<path d="M0,0 L23,0 L23,1 L18,2 L18,4 L20,5 L16,7 L10,6 L13,1 L0,1 Z M21,2 L22,4 L20,3 Z " fill="#261313" transform="translate(112,223)"/>
<path d="M0,0 L8,0 L8,16 L1,16 L2,13 L5,12 L5,3 L0,2 Z " fill="#210C08" transform="translate(159,462)"/>
<path d="M0,0 L5,3 L6,1 L7,1 L7,12 L0,10 L-1,4 Z " fill="#33282F" transform="translate(368,386)"/>
<path d="M0,0 L5,0 L5,10 L3,14 L1,14 L0,10 Z " fill="#E7CE82" transform="translate(89,193)"/>
<path d="M0,0 L17,0 L15,3 L6,4 L0,6 Z " fill="#A07136" transform="translate(175,80)"/>
<path d="M0,0 L2,0 L3,5 L45,6 L45,7 L0,7 Z " fill="#290C01" transform="translate(215,423)"/>
<path d="M0,0 L1,0 L1,11 L7,11 L10,14 L9,18 L14,19 L15,21 L7,21 L7,13 L1,13 L0,12 Z " fill="#D89F24" transform="translate(295,282)"/>
<path d="M0,0 L1,0 L2,9 L3,11 L10,13 L9,22 L17,22 L17,23 L8,23 L8,15 L1,15 L0,14 Z " fill="#C8901E" transform="translate(95,328)"/>
<path d="M0,0 L8,1 L8,8 L0,8 Z " fill="#A26F18" transform="translate(32,151)"/>
<path d="M0,0 L1,0 L1,9 L-6,9 L-6,1 Z " fill="#220F10" transform="translate(436,39)"/>
<path d="M0,0 L7,0 L7,8 L0,8 Z " fill="#A87C30" transform="translate(255,446)"/>
<path d="M0,0 L8,0 L8,7 L0,7 Z " fill="#724A29" transform="translate(358,391)"/>
<path d="M0,0 L7,0 L7,8 L0,8 Z " fill="#1A0A11" transform="translate(247,382)"/>
<path d="M0,0 L8,0 L8,7 L0,7 Z " fill="#714622" transform="translate(374,367)"/>
<path d="M0,0 L8,0 L8,7 L0,7 Z " fill="#A27423" transform="translate(326,359)"/>
<path d="M0,0 L8,0 L8,7 L0,7 Z " fill="#7C4C1B" transform="translate(72,327)"/>
<path d="M0,0 L7,0 L7,8 L0,8 Z " fill="#7B4815" transform="translate(414,287)"/>
<path d="M0,0 L8,0 L8,7 L0,7 Z " fill="#20090B" transform="translate(334,247)"/>
<path d="M0,0 L7,0 L7,8 L0,8 Z " fill="#8C5816" transform="translate(144,231)"/>
<path d="M0,0 L8,0 L8,7 L0,7 Z " fill="#A9721F" transform="translate(112,120)"/>
<path d="M0,0 L8,0 L8,7 L0,7 Z " fill="#A06E23" transform="translate(358,120)"/>
<path d="M0,0 L8,0 L8,7 L0,7 Z " fill="#A16E26" transform="translate(334,80)"/>
<path d="M0,0 L7,0 L7,8 L0,8 Z " fill="#A26B1A" transform="translate(120,64)"/>
<path d="M0,0 L7,0 L7,8 L0,8 Z " fill="#A16C26" transform="translate(446,64)"/>
<path d="M0,0 L7,0 L7,8 L0,8 Z " fill="#AA6F12" transform="translate(112,56)"/>
<path d="M0,0 L7,0 L7,8 L0,8 Z " fill="#180A14" transform="translate(120,56)"/>
<path d="M0,0 L7,0 L7,8 L0,8 Z " fill="#1C090A" transform="translate(446,56)"/>
<path d="M0,0 L7,0 L7,8 L0,8 Z " fill="#A67121" transform="translate(430,48)"/>
<path d="M0,0 L7,0 L7,8 L0,8 Z " fill="#AA7219" transform="translate(96,48)"/>
<path d="M0,0 L7,0 L7,8 L0,8 Z " fill="#180810" transform="translate(438,48)"/>
<path d="M0,0 L7,0 L7,8 L0,8 Z " fill="#150B11" transform="translate(144,36)"/>
<path d="M0,0 L8,0 L8,2 L10,2 L9,10 L8,31 L7,31 L7,2 L0,2 Z " fill="#EFCC7D" transform="translate(160,428)"/>
<path d="M0,0 L32,0 L31,2 L2,2 L1,7 L0,7 Z " fill="#D99F25" transform="translate(167,88)"/>
<path d="M0,0 L16,0 L16,1 L1,2 L1,8 L0,8 Z M-8,8 L0,8 L-5,12 L-8,15 Z " fill="#D1982D" transform="translate(366,56)"/>
<path d="M0,0 L2,2 L2,22 L6,22 L6,24 L0,24 Z " fill="#8D6634" transform="translate(159,438)"/>
<path d="M0,0 L31,0 L31,1 L7,1 L5,5 L3,6 L3,4 L0,4 Z " fill="#D9BF83" transform="translate(255,438)"/>
<path d="M0,0 L2,0 L2,6 L-14,6 L-14,14 L-22,14 L-22,13 L-16,12 L-15,4 L-6,4 L0,5 L-1,1 Z " fill="#230903" transform="translate(284,360)"/>
<path d="M0,0 L8,0 L8,8 L15,8 L15,24 L14,24 L13,10 L5,8 L5,1 L0,1 Z " fill="#220A07" transform="translate(40,176)"/>
<path d="M0,0 L2,3 L3,8 L9,8 L10,9 L10,22 L8,24 L8,9 L0,9 Z " fill="#D4A129" transform="translate(342,135)"/>
<path d="M0,0 L8,0 L8,1 L1,1 L2,8 L-4,13 L-8,15 L-8,8 L0,8 Z " fill="#D79D24" transform="translate(358,271)"/>
<path d="M0,0 L16,0 L16,7 L8,7 L12,3 L0,1 Z " fill="#96692A" transform="translate(310,239)"/>
<path d="M0,0 L7,1 L7,8 L0,8 Z " fill="#180708" transform="translate(40,39)"/>
<path d="M0,0 L8,0 L8,16 L7,16 L6,2 L1,2 L1,16 L0,16 Z " fill="#2D150C" transform="translate(32,159)"/>
<path d="M0,0 L1,0 L1,8 L-6,8 L-6,16 L-14,16 L-13,14 L-9,12 L-7,7 L-2,6 Z " fill="#D49A23" transform="translate(388,56)"/>
<path d="M0,0 L7,0 L8,3 L7,7 L0,7 Z " fill="#1A080B" transform="translate(382,367)"/>
<path d="M0,0 L1,0 L2,5 L26,5 L30,4 L31,1 L31,7 L0,7 Z " fill="#B17812" transform="translate(128,280)"/>
<path d="M0,0 L7,0 L7,8 L0,7 Z " fill="#1C0A0E" transform="translate(128,64)"/>
<path d="M0,0 L6,0 L6,1 L1,1 L1,6 L10,6 L11,1 L15,0 L15,7 L0,7 Z " fill="#15070C" transform="translate(295,479)"/>
<path d="M0,0 L7,0 L7,7 L0,7 Z " fill="#7C4713" transform="translate(112,391)"/>
<path d="M0,0 L7,0 L7,7 L0,7 Z " fill="#1B090B" transform="translate(96,375)"/>
<path d="M0,0 L7,0 L7,7 L0,7 Z " fill="#76471B" transform="translate(96,367)"/>
<path d="M0,0 L7,0 L7,7 L0,7 Z " fill="#F2D99F" transform="translate(279,343)"/>
<path d="M0,0 L7,0 L7,7 L0,7 Z " fill="#7B491C" transform="translate(80,343)"/>
<path d="M0,0 L7,0 L7,7 L0,7 Z " fill="#17080B" transform="translate(136,247)"/>
<path d="M0,0 L7,0 L7,7 L0,7 Z " fill="#D4A038" transform="translate(136,232)"/>
<path d="M0,0 L7,0 L7,7 L0,7 Z " fill="#744314" transform="translate(414,192)"/>
<path d="M0,0 L7,0 L7,7 L0,7 Z " fill="#A97313" transform="translate(271,192)"/>
<path d="M0,0 L7,0 L7,7 L0,7 Z " fill="#A8711A" transform="translate(430,168)"/>
<path d="M0,0 L7,0 L7,7 L0,7 Z " fill="#A8701D" transform="translate(414,152)"/>
<path d="M0,0 L7,0 L7,7 L0,7 Z " fill="#A16F24" transform="translate(438,152)"/>
<path d="M0,0 L7,0 L7,7 L0,7 Z " fill="#ECCE76" transform="translate(144,144)"/>
<path d="M0,0 L7,0 L7,7 L0,7 Z " fill="#EECB79" transform="translate(287,120)"/>
<path d="M0,0 L7,0 L7,7 L0,7 Z " fill="#EDCB77" transform="translate(295,112)"/>
<path d="M0,0 L7,0 L7,7 L0,7 Z " fill="#18080D" transform="translate(350,56)"/>
<path d="M0,0 L6,0 L7,1 L7,7 L0,7 Z " fill="#E5D29F" transform="translate(192,343)"/>
<path d="M0,0 L1,0 L1,9 L-6,8 L-6,15 L1,15 L1,16 L-7,16 L-7,7 L-15,7 L-15,6 L-1,6 Z " fill="#C09B4A" transform="translate(198,335)"/>
<path d="M0,0 L6,0 L7,1 L7,7 L0,7 Z " fill="#D39D33" transform="translate(144,240)"/>
<path d="M0,0 L7,0 L7,1 L1,1 L2,8 L0,8 Z M-8,8 L0,8 L-2,10 L-5,11 L-7,23 L-8,23 Z " fill="#A9700E" transform="translate(48,64)"/>
<path d="M0,0 L8,0 L6,1 L6,6 L4,8 L0,8 Z " fill="#D69C27" transform="translate(24,72)"/>
<path d="M0,0 L7,0 L7,6 L4,3 L3,11 L0,11 Z " fill="#0F070D" transform="translate(136,44)"/>
<path d="M0,0 L22,0 L22,1 L16,1 L16,6 L9,6 L12,3 L0,1 Z " fill="#11050C" transform="translate(136,24)"/>
<path d="M0,0 L8,0 L4,6 L8,8 L0,8 Z " fill="#D0BE92" transform="translate(183,223)"/>
<path d="M0,0 L1,0 L1,8 L-7,8 L-5,1 Z " fill="#AC741F" transform="translate(111,128)"/>
<path d="M0,0 L1,0 L1,14 L-7,14 L-7,5 L-4,9 L-2,11 L0,11 Z " fill="#AF7512" transform="translate(333,90)"/>
<path d="M0,0 L8,0 L8,15 L1,15 L1,10 L2,13 L5,13 L5,10 L7,10 L6,6 L7,1 L0,1 Z " fill="#B17814" transform="translate(302,303)"/>
<path d="M0,0 L2,1 L2,7 L-20,7 L-20,5 L-2,5 Z " fill="#E5D19A" transform="translate(133,215)"/>
<path d="M0,0 L2,4 L17,4 L22,5 L22,6 L0,6 Z " fill="#A96F16" transform="translate(279,81)"/>
<path d="M0,0 L1,0 L4,12 L7,11 L8,15 L0,15 Z " fill="#1E070A" transform="translate(454,64)"/>
<path d="M0,0 L1,0 L1,8 L-15,8 L-15,6 L-1,6 L-2,2 Z " fill="#F2D182" transform="translate(301,462)"/>
<path d="M0,0 L22,0 L21,4 L20,1 L17,2 L3,3 L0,5 Z " fill="#371F0A" transform="translate(200,343)"/>
<path d="M0,0 L3,1 L2,4 L17,5 L17,6 L1,6 L1,14 L0,14 L-1,3 L-3,3 L-3,1 Z " fill="#251313" transform="translate(158,217)"/>
<path d="M0,0 L7,0 L3,2 L2,5 L13,5 L14,0 L15,0 L15,6 L0,8 Z " fill="#19090A" transform="translate(358,48)"/>
<path d="M0,0 L1,0 L1,7 L-7,7 L-7,17 L-8,17 L-9,10 L-9,6 L-8,5 L-1,5 Z " fill="#F5D282" transform="translate(317,423)"/>
<path d="M0,0 L1,0 L1,8 L-8,8 L-8,5 L-3,3 Z " fill="#95672E" transform="translate(397,72)"/>
<path d="M0,0 L9,0 L7,5 L0,6 Z " fill="#130710" transform="translate(184,32)"/>
<path d="M0,0 L1,0 L1,8 L-15,8 L-14,6 L-2,5 Z " fill="#98713B" transform="translate(293,478)"/>
<path d="M0,0 L8,0 L8,1 L1,1 L2,7 L5,5 L6,13 L5,11 L1,10 L2,15 L0,16 Z " fill="#895B23" transform="translate(326,414)"/>
<path d="M0,0 L6,0 L6,7 L0,7 Z " fill="#1D0603" transform="translate(224,383)"/>
<path d="M0,0 L6,1 L7,4 L6,7 L0,7 Z " fill="#170B10" transform="translate(127,415)"/>
<path d="M0,0 L8,0 L8,2 L2,2 L2,7 L8,8 L8,9 L1,9 L1,16 L0,16 Z " fill="#604A44" transform="translate(350,406)"/>
<path d="M0,0 L2,1 L2,7 L0,9 L-6,10 L-7,23 L-8,23 L-8,7 L0,7 Z " fill="#D49B25" transform="translate(104,136)"/>
<path d="M0,0 L8,0 L7,2 L2,3 L3,7 L1,9 L-6,10 L-8,14 L-8,8 L0,8 Z " fill="#A66F10" transform="translate(374,72)"/>
<path d="M0,0 L14,0 L14,8 L12,8 L12,3 L6,3 L0,1 Z " fill="#CF962B" transform="translate(98,56)"/>
<path d="M0,0 L2,1 L2,9 L-4,9 L-3,2 L-1,2 Z " fill="#E4D29C" transform="translate(189,429)"/>
<path d="M0,0 L15,0 L14,5 L9,5 L7,1 L2,2 Z " fill="#A16D1C" transform="translate(414,176)"/>
<path d="M0,0 L3,0 L3,6 L12,6 L11,9 L4,9 L1,7 Z " fill="#C89629" transform="translate(354,193)"/>
<path d="M0,0 L8,0 L8,7 L3,6 Z " fill="#AD7618" transform="translate(40,167)"/>
<path d="M0,0 L1,0 L1,7 L-26,7 L-26,6 L-2,5 Z " fill="#0D060C" transform="translate(285,495)"/>
<path d="M0,0 L6,0 L6,6 L-1,6 Z " fill="#180913" transform="translate(352,408)"/>
<path d="M0,0 L15,0 L14,2 L8,3 L3,2 L1,7 L0,7 Z " fill="#1F090C" transform="translate(279,487)"/>
<path d="M0,0 L7,0 L3,2 L1,9 L-5,11 L-7,8 L0,8 Z M-2,10 Z " fill="#AC7513" transform="translate(350,367)"/>
<path d="M0,0 L8,0 L8,15 L6,12 L7,1 L2,2 L2,7 L0,7 Z " fill="#AF7714" transform="translate(318,343)"/>
<path d="M0,0 L15,0 L15,1 L2,2 L1,8 L-1,8 L-1,1 Z " fill="#CE9524" transform="translate(152,95)"/>
<path d="M0,0 L6,0 L6,6 L0,6 Z " fill="#D9A32E" transform="translate(256,384)"/>
<path d="M0,0 L7,0 L7,8 L5,7 L4,2 L2,3 L1,10 L0,10 Z " fill="#1F0A05" transform="translate(184,343)"/>
<path d="M0,0 L7,0 L7,15 L0,15 L0,10 L2,13 L5,12 L6,1 L0,2 Z " fill="#AB7410" transform="translate(160,319)"/>
<path d="M0,0 L2,1 L3,14 L7,15 L0,15 Z " fill="#3C1806" transform="translate(56,136)"/>
<path d="M0,0 L6,0 L6,6 L-1,6 Z " fill="#160A0D" transform="translate(360,400)"/>
<path d="M0,0 L8,0 L8,7 L15,7 L15,8 L7,8 L7,5 L5,5 L4,3 L0,1 Z " fill="#EECC75" transform="translate(215,391)"/>
<path d="M0,0 L6,0 L6,6 L1,6 L0,5 Z " fill="#D79D26" transform="translate(264,376)"/>
<path d="M0,0 L4,0 L4,7 L-3,7 Z " fill="#A47525" transform="translate(155,351)"/>
<path d="M0,0 L1,0 L1,9 L-6,9 L-5,6 L-2,3 Z " fill="#140710" transform="translate(178,35)"/>
<path d="M0,0 L7,0 L7,14 L6,14 L4,3 L0,2 Z M4,8 Z " fill="#200807" transform="translate(56,295)"/>
<path d="M0,0 L4,1 L3,3 L2,14 L0,16 Z " fill="#8B6333" transform="translate(191,255)"/>
<path d="M0,0 L1,0 L1,14 L-5,14 L-2,13 L-1,1 Z " fill="#AD7615" transform="translate(198,257)"/>
<path d="M0,0 L7,0 L3,2 L2,4 L1,24 L0,24 Z " fill="#69472B" transform="translate(302,223)"/>
<path d="M0,0 L2,0 L2,8 L-6,8 L-3,5 L-1,5 Z " fill="#94652C" transform="translate(46,80)"/>
<path d="M0,0 L4,0 L3,5 L-7,5 L-5,2 L0,2 Z " fill="#1E0D16" transform="translate(184,73)"/>
<path d="M0,0 L8,0 L8,1 L2,1 L2,6 L8,6 L8,8 L1,8 L0,7 Z " fill="#734A24" transform="translate(127,406)"/>
<path d="M0,0 L4,1 L4,5 L12,5 L12,6 L1,7 L0,6 Z " fill="#483121" transform="translate(274,345)"/>
<path d="M0,0 L1,0 L1,9 L-6,9 L-6,16 L-7,16 L-7,8 L-2,8 L-2,2 Z " fill="#D7AC41" transform="translate(301,199)"/>
<path d="M0,0 L23,0 L23,7 L20,6 L22,1 L0,1 Z " fill="#F2D17C" transform="translate(152,200)"/>
<path d="M0,0 L1,0 L1,7 L-20,7 L-20,6 L-2,5 Z " fill="#452103" transform="translate(174,184)"/>
<path d="M0,0 L1,0 L1,13 L-1,12 L-4,13 L-5,5 L-3,4 L-3,9 L0,9 Z " fill="#1B0F1A" transform="translate(461,64)"/>
<path d="M0,0 L5,1 L6,7 L0,7 Z " fill="#A66E1B" transform="translate(438,57)"/>
<path d="M0,0 L6,0 L5,5 L0,7 Z " fill="#7D4C16" transform="translate(390,343)"/>
<path d="M0,0 L6,0 L6,5 L0,6 Z " fill="#7E4D14" transform="translate(398,327)"/>
<path d="M0,0 L1,0 L1,15 L-7,15 L-6,13 L-2,13 Z " fill="#D8A230" transform="translate(444,136)"/>
<path d="M0,0 L8,0 L8,8 L5,7 L6,2 L0,3 Z " fill="#CE9525" transform="translate(366,135)"/>
<path d="M0,0 L1,0 L1,8 L-7,8 L-4,5 L-2,5 L-2,1 Z " fill="#D29A22" transform="translate(373,72)"/>
<path d="M0,0 L1,0 L1,8 L-7,8 L-5,7 L-4,4 L-2,4 Z " fill="#724A26" transform="translate(357,398)"/>
<path d="M0,0 L2,1 L1,13 L4,12 L6,16 L0,16 Z " fill="#A77315" transform="translate(279,255)"/>
<path d="M0,0 L8,0 L8,2 L1,3 L1,7 L8,7 L8,8 L0,8 Z " fill="#A57F40" transform="translate(167,255)"/>
<path d="M0,0 L7,0 L7,8 L1,3 Z " fill="#A87015" transform="translate(25,135)"/>
<path d="M0,0 L7,0 L7,8 L4,7 L3,3 L0,2 Z " fill="#A27235" transform="translate(128,72)"/>
<path d="M0,0 L17,1 L17,2 L3,3 L2,8 L0,8 Z " fill="#946630" transform="translate(191,72)"/>
<path d="M0,0 L8,0 L8,8 L4,7 L4,1 Z " fill="#33170C" transform="translate(112,398)"/>
<path d="M0,0 L3,1 L4,4 L7,3 L8,7 L0,7 Z " fill="#1B0908" transform="translate(374,375)"/>
<path d="M0,0 L1,0 L1,14 L-6,14 L-3,12 L-1,8 Z " fill="#DBA028" transform="translate(150,344)"/>
<path d="M0,0 L6,0 L2,4 L1,16 L0,16 Z " fill="#AC7414" transform="translate(390,311)"/>
<path d="M0,0 L8,0 L7,2 L2,3 L2,8 L0,9 Z " fill="#D69D28" transform="translate(175,311)"/>
<path d="M0,0 L1,0 L2,10 L6,11 L6,14 L0,14 Z M2,9 Z " fill="#A67015" transform="translate(390,161)"/>
<path d="M0,0 L5,0 L3,2 L1,14 L3,15 L0,15 Z " fill="#1E0502" transform="translate(446,144)"/>
<path d="M0,0 L1,0 L1,7 L-5,7 L-4,1 L0,2 Z " fill="#33170C" transform="translate(428,128)"/>
<path d="M0,0 L8,0 L8,7 L1,7 L2,5 L5,4 L6,1 L0,1 Z " fill="#301306" transform="translate(111,112)"/>
<path d="M0,0 L15,0 L15,6 L13,8 L12,2 L0,1 Z " fill="#10060C" transform="translate(136,72)"/>
<path d="M0,0 L1,0 L1,7 L-6,7 L-4,6 L-4,2 Z " fill="#A76D19" transform="translate(39,57)"/>
<path d="M0,0 L2,0 L3,5 L8,6 L8,8 L0,8 Z " fill="#6B4326" transform="translate(167,470)"/>
<path d="M0,0 L8,0 L8,9 L6,7 L5,3 L0,2 Z " fill="#D7C49B" transform="translate(286,446)"/>
<path d="M0,0 L8,0 L8,7 L3,2 L1,1 L1,9 L0,9 Z " fill="#684527" transform="translate(167,223)"/>
<path d="M0,0 L1,0 L2,9 L-6,12 L-7,8 L0,8 Z M2,7 Z " fill="#2E140B" transform="translate(421,191)"/>
<path d="M0,0 L8,0 L8,8 L6,8 L5,4 L6,2 L1,2 Z " fill="#391D0A" transform="translate(88,88)"/>
<path d="M0,0 L3,0 L3,6 L-3,6 L-2,1 Z " fill="#A87019" transform="translate(347,74)"/>
<path d="M0,0 L1,0 L1,6 L-7,6 L-4,2 Z " fill="#AE7519" transform="translate(357,66)"/>
<path d="M0,0 L4,1 L5,7 L0,7 Z " fill="#A67525" transform="translate(303,463)"/>
<path d="M0,0 L5,0 L5,6 L1,6 Z " fill="#D19C1C" transform="translate(161,432)"/>
<path d="M0,0 L8,0 L8,8 L6,8 L6,2 L0,2 Z " fill="#BE9144" transform="translate(207,374)"/>
<path d="M0,0 L7,0 L6,2 L3,1 L2,4 L2,13 L0,14 Z " fill="#AD7413" transform="translate(152,343)"/>
<path d="M0,0 L8,0 L4,2 L1,9 L0,9 Z " fill="#9D742A" transform="translate(350,255)"/>
<path d="M0,0 L1,0 L1,10 L-5,12 L-7,15 L-7,9 L0,9 Z " fill="#4C2609" transform="translate(342,231)"/>
<path d="M0,0 L3,0 L4,4 L2,6 L-2,6 L-1,1 Z " fill="#A97629" transform="translate(122,233)"/>
<path d="M0,0 L1,0 L1,7 L3,7 L2,4 L7,3 L8,8 L0,8 Z " fill="#C8B48A" transform="translate(159,223)"/>
<path d="M0,0 L7,0 L7,6 L1,4 L2,1 Z " fill="#EDCC76" transform="translate(359,216)"/>
<path d="M0,0 L1,0 L1,11 L-5,11 L-5,9 L-1,9 L-1,1 Z " fill="#1F0806" transform="translate(62,211)"/>
<path d="M0,0 L1,0 L1,11 L5,10 L6,14 L0,14 Z " fill="#A56E14" transform="translate(382,145)"/>
<path d="M0,0 L7,0 L7,8 L5,10 L4,1 Z " fill="#D9A12B" transform="translate(40,128)"/>
<path d="M0,0 L7,0 L7,7 L3,6 L3,1 Z " fill="#946831" transform="translate(120,64)"/>
<path d="M0,0 L15,0 L15,7 L13,6 L12,2 L0,1 Z " fill="#240D07" transform="translate(184,487)"/>
<path d="M0,0 L8,0 L4,1 L5,5 L2,5 L0,8 Z " fill="#352214" transform="translate(175,446)"/>
<path d="M0,0 L5,0 L3,1 L1,15 L0,15 Z " fill="#916527" transform="translate(151,423)"/>
<path d="M0,0 L2,0 L2,8 L-6,8 L-5,6 L0,5 L-1,1 Z " fill="#D69E22" transform="translate(356,358)"/>
<path d="M0,0 L8,0 L5,2 L1,3 L1,14 L0,14 Z " fill="#AA720F" transform="translate(382,327)"/>
<path d="M0,0 L5,0 L6,5 L0,5 Z " fill="#A47427" transform="translate(303,257)"/>
<path d="M0,0 L5,2 L5,6 L0,7 Z " fill="#DAA12B" transform="translate(335,232)"/>
<path d="M0,0 L1,0 L1,9 L-3,9 L-3,12 L-5,12 L-5,8 L-7,7 L0,7 Z " fill="#D09622" transform="translate(421,152)"/>
<path d="M0,0 L2,1 L3,6 L7,6 L7,8 L0,8 Z " fill="#996D34" transform="translate(32,151)"/>
<path d="M0,0 L5,1 L6,6 L0,6 Z " fill="#A87017" transform="translate(48,137)"/>
<path d="M0,0 L7,0 L6,5 L4,5 L4,2 L2,3 L0,7 Z " fill="#A4732E" transform="translate(422,136)"/>
<path d="M0,0 L8,0 L8,8 L6,7 L6,2 L0,2 Z " fill="#875D2F" transform="translate(366,127)"/>
<path d="M0,0 L8,0 L8,8 L6,8 L6,2 L1,2 Z " fill="#D29726" transform="translate(112,64)"/>
<path d="M0,0 L1,0 L1,8 L-7,8 L-6,6 L-2,5 Z " fill="#2E1007" transform="translate(39,48)"/>
<path d="M0,0 L6,0 L6,4 L0,5 Z " fill="#7F4B13" transform="translate(358,391)"/>
<path d="M0,0 L3,4 L0,7 Z M-8,7 L0,7 L0,8 L-7,8 L-7,14 L-8,14 Z " fill="#F5D783" transform="translate(279,368)"/>
<path d="M0,0 L4,0 L4,3 L-3,4 L-5,5 L-5,3 L-12,3 L-12,2 L0,2 Z " fill="#352323" transform="translate(394,364)"/>
<path d="M0,0 L8,0 L7,2 L2,2 L2,7 L0,8 Z " fill="#B47A17" transform="translate(358,358)"/>
<path d="M0,0 L13,0 L13,7 L11,5 L11,2 L0,1 Z M10,5 Z " fill="#F7D780" transform="translate(297,343)"/>
<path d="M0,0 L2,4 L3,6 L15,7 L15,8 L0,8 Z " fill="#C9983F" transform="translate(342,175)"/>
<path d="M0,0 L1,0 L1,7 L-6,7 Z " fill="#D49F25" transform="translate(134,136)"/>
<path d="M0,0 L8,0 L8,8 L6,6 L5,3 L0,1 Z " fill="#D19629" transform="translate(358,127)"/>
<path d="M0,0 L1,0 L1,6 L5,4 L7,2 L7,8 L0,8 Z " fill="#A76E13" transform="translate(144,95)"/>
<path d="M0,0 L9,0 L8,2 L2,2 L1,7 L0,7 Z " fill="#D29D33" transform="translate(167,88)"/>
<path d="M0,0 L2,0 L2,5 L4,5 L4,7 L7,6 L7,8 L0,8 Z " fill="#D49D23" transform="translate(430,64)"/>
<path d="M0,0 L2,0 L2,6 L7,6 L7,8 L0,8 Z " fill="#290E04" transform="translate(120,56)"/>
<path d="M0,0 L7,0 L7,2 L3,3 L2,7 L0,7 Z " fill="#280D07" transform="translate(334,423)"/>
<path d="M0,0 L8,0 L6,2 L2,2 L2,8 L0,8 Z " fill="#2E1104" transform="translate(342,414)"/>
<path d="M0,0 L1,0 L1,8 L-6,8 L-2,6 Z " fill="#724B2B" transform="translate(397,342)"/>
<path d="M0,0 L1,0 L1,11 L3,11 L3,13 L8,13 L8,14 L0,14 Z " fill="#D9A125" transform="translate(88,312)"/>
<path d="M0,0 L2,4 L8,6 L8,8 L0,8 Z " fill="#6C4528" transform="translate(56,287)"/>
<path d="M0,0 L2,0 L2,7 L-6,7 L-6,6 L-1,6 L-1,1 Z " fill="#AF7514" transform="translate(356,272)"/>
<path d="M0,0 L5,0 L5,5 L0,5 Z " fill="#A96F15" transform="translate(56,154)"/>
<path d="M0,0 L7,0 L7,7 L3,4 L3,2 L0,1 Z " fill="#9E6E31" transform="translate(96,48)"/>
<path d="M0,0 Z M-2,2 L5,4 L6,6 L-2,6 Z " fill="#93692F" transform="translate(177,472)"/>
<path d="M0,0 L5,1 L5,5 L0,5 Z " fill="#D49A1A" transform="translate(312,432)"/>
<path d="M0,0 L2,0 L2,7 L-5,7 L-5,5 L0,5 Z " fill="#210402" transform="translate(252,383)"/>
<path d="M0,0 L2,0 L2,11 L0,10 L-1,1 Z " fill="#926936" transform="translate(364,380)"/>
<path d="M0,0 L5,0 L5,5 L0,4 Z " fill="#DCA428" transform="translate(200,368)"/>
<path d="M0,0 L1,0 L2,11 L5,15 L0,15 Z " fill="#0F040C" transform="translate(80,351)"/>
<path d="M0,0 L4,1 L3,8 L-4,8 L-4,7 L2,7 L1,3 L-1,2 Z " fill="#DBA228" transform="translate(140,358)"/>
<path d="M0,0 L8,0 L7,6 L4,5 L2,6 L2,2 Z " fill="#E6D09C" transform="translate(127,247)"/>
<path d="M0,0 L8,0 L8,7 L6,7 L6,2 L0,1 Z " fill="#65380B" transform="translate(135,239)"/>
<path d="M0,0 L1,0 L1,5 L-4,6 L-5,1 Z " fill="#8C5716" transform="translate(333,231)"/>
<path d="M0,0 L1,0 L1,6 L3,6 L3,2 L6,3 L5,5 L7,5 L7,7 L0,7 Z " fill="#AC7D39" transform="translate(183,208)"/>
<path d="M0,0 L1,0 L1,9 L-5,10 L-7,9 L-7,7 L0,7 Z " fill="#D59C25" transform="translate(207,192)"/>
<path d="M0,0 L2,0 L2,7 L-5,7 L-5,5 L0,5 Z " fill="#6C4627" transform="translate(419,192)"/>
<path d="M0,0 L5,0 L7,2 L7,9 L6,9 L6,3 L-2,3 Z " fill="#D39A1F" transform="translate(35,149)"/>
<path d="M0,0 L2,3 L3,8 L8,8 L8,9 L0,9 Z " fill="#D8A936" transform="translate(342,135)"/>
<path d="M0,0 L7,0 L6,2 L2,2 L2,7 L0,8 Z " fill="#AF7716" transform="translate(453,119)"/>
<path d="M0,0 L5,0 L8,3 L0,3 L0,10 L-1,10 L-1,1 Z " fill="#D09720" transform="translate(342,101)"/>
<path d="M0,0 L2,1 L2,5 L7,5 L8,7 L0,7 Z " fill="#A37438" transform="translate(104,96)"/>
<path d="M0,0 L1,0 L1,7 L-6,7 L-6,5 L-2,5 Z " fill="#9F6E32" transform="translate(380,88)"/>
<path d="M0,0 L1,0 L1,5 L8,7 L8,8 L0,8 Z " fill="#E3D2A0" transform="translate(295,438)"/>
<path d="M0,0 L7,0 L7,1 L1,1 L3,6 L7,8 L0,8 Z " fill="#D7AB4B" transform="translate(215,383)"/>
<path d="M0,0 L8,0 L8,8 L6,7 L6,2 L0,1 Z " fill="#ECC96D" transform="translate(199,374)"/>
<path d="M0,0 L7,0 L3,3 L1,8 L0,8 Z " fill="#AA7213" transform="translate(374,343)"/>
<path d="M0,0 L6,0 L5,5 L2,6 Z " fill="#EED589" transform="translate(192,343)"/>
<path d="M0,0 L1,0 L1,12 L4,12 L3,15 L0,15 Z " fill="#D69D24" transform="translate(310,303)"/>
<path d="M0,0 L6,0 L6,1 L1,1 L1,8 L-1,8 L-1,6 L-3,5 Z " fill="#E0A624" transform="translate(174,293)"/>
<path d="M0,0 L7,0 L3,2 L2,4 L1,13 L0,13 Z " fill="#E7D2AB" transform="translate(295,255)"/>
<path d="M0,0 L1,0 L1,12 L4,13 L4,15 L0,15 Z " fill="#311404" transform="translate(390,144)"/>
<path d="M0,0 L8,0 L8,2 L2,3 L1,5 Z " fill="#E2A42B" transform="translate(350,72)"/>
<path d="M0,0 L2,0 L2,7 L-2,7 L-2,2 L0,2 Z " fill="#140A09" transform="translate(284,64)"/>
<path d="M0,0 L2,0 L2,8 L-6,8 L-6,7 L-1,6 Z " fill="#D19824" transform="translate(54,56)"/>
<path d="M0,0 L4,2 L2,2 L2,4 L4,5 L3,8 L0,8 Z " fill="#1A1016" transform="translate(40,39)"/>
<path d="M0,0 L7,1 L6,5 L5,3 L3,3 L1,8 L0,8 Z " fill="#CB9927" transform="translate(183,470)"/>
<path d="M0,0 L3,0 L3,6 L-1,6 Z " fill="#AD752A" transform="translate(170,464)"/>
<path d="M0,0 L5,0 L5,6 L1,5 Z " fill="#7E4811" transform="translate(122,399)"/>
<path d="M0,0 L2,0 L3,6 L7,8 L0,8 Z " fill="#321101" transform="translate(215,374)"/>
<path d="M0,0 L1,3 L7,3 L6,6 L-1,5 Z " fill="#D6A022" transform="translate(121,361)"/>
<path d="M0,0 L1,2 L3,2 L4,7 L0,6 L-2,1 Z " fill="#201017" transform="translate(83,360)"/>
<path d="M0,0 L1,0 L1,8 L-6,8 L-5,6 L-1,4 Z " fill="#6D472C" transform="translate(420,287)"/>
<path d="M0,0 L3,1 L3,5 L7,7 L0,7 Z " fill="#694126" transform="translate(56,192)"/>
<path d="M0,0 L1,0 L1,7 L-6,7 L-3,4 L-1,4 Z " fill="#9E6F34" transform="translate(436,168)"/>
<path d="M0,0 L1,0 L1,7 L-5,7 L-4,4 L-1,3 Z " fill="#9D6F37" transform="translate(452,136)"/>
<path d="M0,0 L7,0 L7,7 L6,3 L1,2 Z " fill="#AA7010" transform="translate(96,72)"/>
<path d="M0,0 L2,2 L2,6 L7,7 L7,8 L0,8 Z " fill="#A2763A" transform="translate(152,430)"/>
<path d="M0,0 L8,0 L6,2 L2,3 L1,8 L0,8 Z " fill="#3B180A" transform="translate(326,430)"/>
<path d="M0,0 L5,0 L3,5 L0,5 Z " fill="#7D4B0E" transform="translate(374,367)"/>
<path d="M0,0 L8,0 L8,1 L3,2 L2,7 L0,7 Z " fill="#AF7613" transform="translate(366,351)"/>
<path d="M0,0 L1,0 L2,5 L7,6 L7,8 L0,8 Z " fill="#D8AD3A" transform="translate(279,335)"/>
<path d="M0,0 L2,3 L8,4 L8,6 L0,6 Z " fill="#B07612" transform="translate(120,273)"/>
<path d="M0,0 L7,0 L7,8 L5,6 L5,2 L0,1 Z " fill="#855A34" transform="translate(144,231)"/>
<path d="M0,0 L1,3 L6,4 L7,6 L0,6 Z " fill="#D8A636" transform="translate(192,217)"/>
<path d="M0,0 L7,0 L7,1 L2,2 L0,8 L-1,8 L-1,1 Z " fill="#EBC25E" transform="translate(120,207)"/>
<path d="M0,0 L8,0 L8,3 L2,3 Z " fill="#ECCC71" transform="translate(175,207)"/>
<path d="M0,0 L1,0 L1,9 L-5,9 L-5,7 L-2,6 L0,7 L-1,3 Z " fill="#D29F24" transform="translate(126,198)"/>
<path d="M0,0 L5,1 L6,5 L0,5 Z " fill="#A96E19" transform="translate(358,122)"/>
<path d="M0,0 L2,0 L3,6 L7,6 L7,8 L1,8 Z " fill="#9C6E33" transform="translate(429,79)"/>
<path d="M0,0 L8,0 L8,1 L3,2 L1,8 L0,8 Z " fill="#351306" transform="translate(390,80)"/>
<path d="M0,0 L3,0 L3,8 L1,8 Z " fill="#B07613" transform="translate(85,56)"/>
<path d="M0,0 L2,0 L3,8 L1,8 L0,6 L-3,5 Z " fill="#6B6466" transform="translate(429,32)"/>
<path d="M0,0 L5,0 L3,2 L2,8 L0,8 Z " fill="#D4A93F" transform="translate(286,470)"/>
<path d="M0,0 L6,0 L1,5 L-1,7 L-1,1 Z " fill="#A37121" transform="translate(295,471)"/>
<path d="M0,0 L3,1 L3,9 L1,9 Z " fill="#EBD7A0" transform="translate(172,446)"/>
<path d="M0,0 L1,0 L2,5 L9,7 L9,8 L0,8 Z " fill="#724D2B" transform="translate(135,414)"/>
<path d="M0,0 L2,4 L7,5 L7,7 L0,7 Z " fill="#734A2A" transform="translate(112,391)"/>
<path d="M0,0 L5,1 L5,8 L3,4 L0,2 Z " fill="#13080F" transform="translate(369,385)"/>
<path d="M0,0 L5,1 L5,8 L3,6 L3,2 L-1,1 Z " fill="#DCA529" transform="translate(340,173)"/>
<path d="M0,0 L1,0 L1,8 L-3,9 L-4,5 L-1,5 Z " fill="#301609" transform="translate(435,118)"/>
<path d="M0,0 L7,0 L4,3 L1,3 L0,7 Z " fill="#9F7539" transform="translate(112,120)"/>
<path d="M0,0 L7,0 L7,7 L5,7 L4,2 Z " fill="#AA7111" transform="translate(128,104)"/>
<path d="M0,0 L2,0 L2,7 L-4,7 L-1,5 Z " fill="#D99F26" transform="translate(348,96)"/>
<path d="M0,0 L1,0 L1,7 L-5,7 L-4,5 L-1,5 Z " fill="#240B04" transform="translate(341,72)"/>
<path d="M0,0 L7,0 L7,8 L5,6 L4,2 Z " fill="#CE9428" transform="translate(439,64)"/>
<path d="M0,0 L7,0 L7,8 L5,6 L4,2 Z " fill="#996B39" transform="translate(112,56)"/>
<path d="M0,0 L2,1 L3,6 L7,8 L0,8 Z " fill="#0D0309" transform="translate(144,36)"/>
<path d="M0,0 L5,0 L4,4 L0,4 Z " fill="#190911" transform="translate(225,383)"/>
<path d="M0,0 L2,0 L2,6 L-6,6 L-6,5 L-1,4 Z " fill="#D59D25" transform="translate(364,352)"/>
<path d="M0,0 L6,0 L6,5 L0,2 Z " fill="#D69E28" transform="translate(296,311)"/>
<path d="M0,0 L2,3 L5,4 L5,6 L-1,6 Z " fill="#9B702D" transform="translate(351,233)"/>
<path d="M0,0 L1,0 L1,7 L-5,7 L-1,5 Z " fill="#D59E24" transform="translate(365,80)"/>
<path d="M0,0 L2,4 L7,6 L7,7 L0,7 Z " fill="#311207" transform="translate(438,49)"/>
<path d="M0,0 L7,0 L5,2 L2,2 L1,7 L0,7 Z " fill="#9C6A39" transform="translate(374,48)"/>
<path d="M0,0 L3,1 L3,5 L-1,5 Z " fill="#DCA323" transform="translate(186,472)"/>
<path d="M0,0 L2,0 L2,7 L-3,7 L-1,3 L1,3 Z " fill="#250C01" transform="translate(213,431)"/>
<path d="M0,0 L7,0 L7,5 L5,3 L0,2 Z " fill="#2E1009" transform="translate(120,406)"/>
<path d="M0,0 L2,3 L6,4 L7,1 L7,5 L-1,5 Z " fill="#15080C" transform="translate(367,393)"/>
<path d="M0,0 L5,0 L5,7 L3,6 L3,2 L0,1 Z " fill="#A77412" transform="translate(329,359)"/>
<path d="M0,0 L7,1 L10,3 L1,3 Z " fill="#DDA126" transform="translate(326,355)"/>
<path d="M0,0 L3,0 L3,8 L1,8 Z " fill="#A37234" transform="translate(386,350)"/>
<path d="M0,0 L2,3 L3,5 L8,6 L8,7 L0,7 Z " fill="#DEA52A" transform="translate(104,343)"/>
<path d="M0,0 L2,0 L2,7 L-2,7 L-2,5 L0,5 Z " fill="#D7A024" transform="translate(372,343)"/>
<path d="M0,0 L6,0 L6,6 L4,6 L4,2 Z " fill="#E0A32B" transform="translate(312,279)"/>
<path d="M0,0 L7,0 L6,3 L0,3 Z " fill="#DBA028" transform="translate(121,279)"/>
<path d="M0,0 L7,0 L7,2 L2,3 L0,5 Z " fill="#1F0702" transform="translate(136,247)"/>
<path d="M0,0 L7,1 L7,3 L0,3 Z " fill="#260D05" transform="translate(414,220)"/>
<path d="M0,0 L5,0 L3,5 L0,5 Z " fill="#F0D386" transform="translate(295,208)"/>
<path d="M0,0 L8,0 L6,3 L1,2 Z " fill="#D49A21" transform="translate(271,199)"/>
<path d="M0,0 L8,0 L8,2 L1,4 Z " fill="#D09724" transform="translate(80,175)"/>
<path d="M0,0 L7,1 L7,3 L2,4 Z " fill="#A86E20" transform="translate(40,167)"/>
<path d="M0,0 L4,0 L4,5 L0,4 Z " fill="#DAA01B" transform="translate(137,145)"/>
<path d="M0,0 L7,0 L5,2 L2,3 L1,8 L0,8 Z " fill="#A97011" transform="translate(358,88)"/>
<path d="M0,0 L7,0 L3,2 L2,6 L0,6 Z " fill="#D69C2A" transform="translate(342,80)"/>
<path d="M0,0 L1,0 L1,7 L-5,7 L-3,4 L-1,4 Z " fill="#AA6E13" transform="translate(31,65)"/>
<path d="M0,0 L5,1 L6,6 L3,6 L3,2 L0,2 Z " fill="#A56D22" transform="translate(112,57)"/>
<path d="M0,0 L7,0 L7,2 L0,3 Z " fill="#986832" transform="translate(430,48)"/>
<path d="M0,0 L3,0 L3,3 L-4,3 L-4,1 Z " fill="#926832" transform="translate(299,475)"/>
<path d="M0,0 L2,4 L2,5 L-5,5 L-5,3 L-1,2 Z " fill="#724A28" transform="translate(388,361)"/>
<path d="M0,0 L7,0 L7,3 L3,2 L2,4 Z " fill="#E9D9A3" transform="translate(183,359)"/>
<path d="M0,0 L4,0 L4,9 L2,5 Z " fill="#A97740" transform="translate(306,231)"/>
<path d="M0,0 L6,0 L3,2 L1,7 L0,7 Z " fill="#A17639" transform="translate(414,152)"/>
<path d="M0,0 L1,0 L1,5 L-3,5 L-3,1 Z " fill="#341507" transform="translate(94,138)"/>
<path d="M0,0 L7,0 L7,6 L5,5 L4,2 Z " fill="#916837" transform="translate(359,120)"/>
<path d="M0,0 L2,4 L2,6 L5,7 L5,8 L0,8 Z " fill="#A27536" transform="translate(112,103)"/>
<path d="M0,0 L8,0 L7,4 L6,2 L0,1 Z " fill="#DEA42D" transform="translate(127,80)"/>
<path d="M0,0 L5,1 L2,4 L0,7 Z " fill="#D4982A" transform="translate(48,48)"/>
<path d="M0,0 L1,4 L-6,4 L-5,1 L-3,1 L-3,3 L-1,3 Z " fill="#0A0409" transform="translate(178,40)"/>
<path d="M0,0 L3,1 L2,5 L0,6 L-2,4 Z " fill="#220D19" transform="translate(174,33)"/>
</svg>
