<?xml version="1.0" encoding="UTF-8"?>
<svg version="1.1" xmlns="http://www.w3.org/2000/svg" width="479" height="521">
<path d="M0,0 L56,0 L57,1 L57,8 L65,8 L65,16 L73,16 L73,24 L80,24 L81,25 L81,32 L88,32 L89,33 L89,40 L105,40 L105,48 L127,48 L127,40 L143,40 L143,33 L144,32 L240,32 L240,40 L255,40 L256,41 L256,48 L278,48 L278,40 L286,40 L286,32 L302,32 L302,24 L310,24 L310,16 L318,16 L318,8 L326,8 L326,0 L383,0 L383,8 L390,8 L391,9 L391,16 L398,16 L399,17 L399,24 L406,24 L407,25 L407,32 L415,32 L415,48 L422,48 L423,49 L423,104 L422,105 L415,105 L415,113 L407,113 L407,129 L399,129 L399,144 L398,145 L391,145 L391,160 L390,161 L383,161 L383,176 L382,177 L375,177 L375,191 L383,191 L384,261 L382,265 L375,265 L375,288 L367,288 L367,303 L366,304 L359,304 L359,320 L352,320 L352,335 L351,336 L343,336 L343,343 L342,344 L335,344 L335,351 L334,352 L327,352 L327,367 L326,368 L320,368 L319,375 L318,376 L312,376 L312,382 L309,384 L304,384 L304,390 L303,391 L295,391 L296,398 L296,406 L294,408 L288,408 L288,414 L287,415 L280,415 L280,438 L279,439 L272,439 L272,446 L271,447 L264,447 L264,454 L263,455 L248,455 L248,462 L247,463 L240,463 L240,471 L143,471 L143,463 L136,463 L135,462 L135,456 L120,455 L119,454 L119,447 L112,447 L111,446 L111,439 L104,439 L103,438 L103,415 L96,415 L96,408 L89,408 L87,407 L87,393 L88,391 L80,391 L79,390 L79,384 L73,384 L71,382 L71,376 L64,376 L64,368 L56,368 L55,366 L55,358 L56,352 L49,352 L48,351 L48,344 L41,344 L40,343 L40,336 L33,336 L32,335 L32,320 L24,320 L24,304 L16,304 L16,288 L8,288 L8,265 L2,265 L0,264 L0,192 L1,191 L8,191 L8,177 L2,177 L0,176 L0,161 L-8,161 L-8,145 L-15,145 L-16,144 L-16,129 L-24,129 L-24,113 L-32,113 L-32,105 L-39,105 L-40,104 L-40,49 L-39,48 L-32,48 L-32,32 L-24,32 L-24,24 L-16,24 L-16,16 L-8,16 L-8,9 L-7,8 L0,8 Z " fill="#DDA21B" transform="translate(47,31)"/>
<path d="M0,0 L56,0 L57,1 L57,8 L65,8 L65,16 L73,16 L73,24 L80,24 L81,25 L81,32 L88,32 L89,33 L89,40 L105,40 L105,48 L127,48 L127,40 L143,40 L143,33 L144,32 L238,32 L239,33 L239,40 L193,41 L144,41 L144,49 L128,49 L128,57 L96,57 L96,49 L88,49 L88,41 L80,41 L80,33 L72,33 L72,25 L56,25 L56,17 L1,17 L1,25 L-7,25 L-7,33 L-15,33 L-15,41 L-23,41 L-23,49 L-30,49 L-29,88 L-23,89 L-23,104 L-15,104 L-15,120 L-7,120 L-7,136 L1,136 L1,144 L16,144 L16,129 L8,129 L8,112 L1,112 L1,96 L-7,96 L-7,57 L1,57 L1,49 L9,49 L9,41 L32,41 L32,49 L40,49 L40,57 L48,57 L48,65 L56,65 L56,73 L64,73 L64,81 L72,81 L72,89 L64,89 L64,96 L55,96 L55,104 L48,104 L48,112 L41,113 L40,128 L33,128 L33,144 L32,160 L25,161 L24,172 L20,177 L19,192 L17,194 L11,194 L10,255 L9,263 L16,263 L17,264 L17,279 L26,278 L27,283 L26,283 L25,295 L33,295 L33,311 L40,311 L41,327 L48,327 L48,335 L56,335 L56,343 L64,343 L65,359 L72,359 L73,374 L88,375 L88,335 L96,335 L96,383 L104,383 L104,391 L112,391 L112,398 L120,398 L120,430 L128,430 L128,438 L144,438 L144,446 L160,446 L160,454 L223,454 L223,446 L239,446 L239,438 L255,438 L255,431 L263,431 L263,399 L270,398 L271,391 L279,391 L279,383 L287,383 L287,335 L295,335 L295,375 L303,375 L303,367 L318,366 L319,343 L327,343 L327,335 L335,335 L335,327 L342,327 L342,311 L350,311 L351,295 L358,295 L358,280 L359,279 L366,279 L366,256 L368,254 L372,254 L372,194 L366,194 L364,192 L363,176 L362,180 L360,180 L359,175 L359,160 L351,160 L350,144 L342,144 L342,129 L334,129 L334,113 L327,113 L327,96 L319,96 L319,89 L311,89 L311,81 L319,81 L319,73 L327,73 L327,65 L335,65 L335,57 L343,57 L343,49 L351,49 L351,41 L374,41 L374,49 L382,49 L382,57 L390,57 L390,96 L382,96 L382,104 L374,104 L374,128 L367,128 L367,144 L382,144 L382,136 L390,136 L390,120 L398,120 L398,112 L406,112 L406,96 L414,96 L414,49 L406,49 L406,41 L398,41 L398,25 L390,25 L390,17 L383,17 L383,9 L391,9 L391,16 L398,16 L399,17 L399,24 L406,24 L407,25 L407,32 L415,32 L415,48 L422,48 L423,49 L423,104 L422,105 L415,105 L415,113 L407,113 L407,129 L399,129 L399,144 L398,145 L391,145 L391,160 L390,161 L383,161 L383,176 L382,177 L375,177 L375,191 L383,191 L384,261 L382,265 L375,265 L375,288 L367,288 L367,303 L366,304 L359,304 L359,320 L352,320 L352,335 L351,336 L343,336 L343,343 L342,344 L335,344 L335,351 L334,352 L327,352 L327,367 L326,368 L320,368 L319,375 L318,376 L312,376 L312,382 L309,384 L304,384 L304,390 L303,391 L295,391 L296,398 L296,406 L294,408 L288,408 L288,414 L287,415 L280,415 L280,438 L279,439 L272,439 L272,446 L271,447 L264,447 L264,454 L263,455 L248,455 L248,462 L247,463 L240,463 L240,471 L143,471 L143,463 L136,463 L135,462 L135,456 L120,455 L119,454 L119,447 L112,447 L111,446 L111,439 L104,439 L103,438 L103,415 L96,415 L96,408 L89,408 L87,407 L87,393 L88,391 L80,391 L79,390 L79,384 L73,384 L71,382 L71,376 L64,376 L64,368 L56,368 L55,366 L55,358 L56,352 L49,352 L48,351 L48,344 L41,344 L40,343 L40,336 L33,336 L32,335 L32,320 L24,320 L24,304 L16,304 L16,288 L8,288 L8,265 L2,265 L0,264 L0,192 L1,191 L8,191 L8,177 L2,177 L0,176 L0,161 L-8,161 L-8,145 L-15,145 L-16,144 L-16,129 L-24,129 L-24,113 L-32,113 L-32,105 L-39,105 L-40,104 L-40,49 L-39,48 L-32,48 L-32,32 L-24,32 L-24,24 L-16,24 L-16,16 L-8,16 L-8,9 L-7,8 L0,8 Z " fill="#966829" transform="translate(47,31)"/>
<path d="M0,0 L16,0 L16,16 L24,16 L24,24 L40,24 L40,32 L48,32 L48,40 L56,40 L56,48 L64,48 L64,80 L48,80 L48,87 L16,87 L16,80 L8,80 L8,88 L16,88 L16,96 L127,96 L127,88 L135,88 L135,80 L127,80 L127,87 L95,87 L95,80 L79,80 L79,48 L87,48 L87,40 L95,40 L95,32 L103,32 L103,24 L119,24 L119,16 L128,16 L128,0 L143,0 L143,8 L151,8 L151,16 L159,16 L159,24 L167,24 L167,72 L159,72 L159,80 L151,80 L151,87 L150,88 L143,88 L143,120 L135,120 L135,127 L119,127 L119,135 L103,135 L103,143 L40,143 L40,135 L24,135 L24,127 L8,127 L8,119 L0,119 L0,87 L-8,87 L-8,80 L-16,80 L-16,71 L-23,71 L-23,24 L-16,24 L-16,16 L-8,16 L-8,8 L0,8 Z " fill="#EFD996" transform="translate(167,342)"/>
<path d="M0,0 L8,0 L8,8 L16,8 L16,0 L40,0 L40,8 L71,8 L71,0 L96,0 L96,8 L104,8 L104,0 L111,0 L111,16 L103,16 L103,24 L87,24 L87,32 L79,32 L79,40 L71,40 L71,48 L63,48 L63,80 L79,80 L79,87 L111,87 L111,80 L119,80 L119,88 L111,88 L111,96 L0,96 L0,88 L-8,88 L-8,80 L0,80 L0,87 L32,87 L32,80 L48,80 L48,48 L40,48 L40,40 L32,40 L32,32 L24,32 L24,24 L8,24 L8,16 L0,16 Z " fill="#39211B" transform="translate(183,342)"/>
<path d="M0,0 L23,0 L23,8 L31,8 L31,16 L39,16 L39,55 L31,55 L31,63 L23,63 L23,79 L15,79 L15,95 L7,95 L7,103 L0,103 L-1,88 L-9,87 L-9,72 L-16,72 L-17,64 L-24,63 L-24,55 L-32,55 L-32,48 L-40,48 L-40,40 L-32,40 L-32,32 L-24,32 L-24,24 L-16,24 L-16,16 L-8,16 L-8,8 L0,8 Z " fill="#2B1616" transform="translate(398,72)"/>
<path d="M0,0 L23,0 L23,8 L31,8 L31,16 L39,16 L39,24 L47,24 L47,32 L55,32 L55,40 L63,40 L63,48 L55,48 L55,55 L46,55 L46,63 L39,63 L39,71 L32,72 L31,87 L24,87 L24,103 L16,103 L16,95 L8,95 L8,79 L0,79 L0,63 L-8,63 L-8,55 L-16,55 L-16,16 L-8,16 L-8,8 L0,8 Z " fill="#2B1515" transform="translate(56,72)"/>
<path d="M0,0 L47,0 L47,8 L55,8 L55,16 L63,16 L63,48 L56,49 L55,56 L47,56 L47,64 L-1,64 L-1,72 L-8,72 L-8,56 L-1,56 L-1,40 L7,40 L7,32 L39,32 L39,40 L47,40 L47,48 L55,48 L55,24 L47,24 L47,16 L-1,16 L-1,24 L-9,24 L-9,32 L-17,32 L-17,56 L-25,56 L-25,24 L-17,24 L-17,16 L-9,16 L-9,8 L-1,8 L-1,1 Z " fill="#EDD795" transform="translate(303,199)"/>
<path d="M0,0 L1,0 L1,84 L10,84 L10,107 L18,107 L18,123 L26,123 L26,139 L33,139 L33,147 L41,147 L41,156 L49,156 L49,163 L57,163 L57,171 L65,171 L65,203 L50,203 L49,202 L49,187 L42,187 L41,171 L33,171 L33,163 L25,163 L25,155 L18,155 L17,139 L10,139 L10,123 L2,123 L2,108 L2,107 L-6,107 L-7,92 L-14,91 L-13,24 L-12,22 L-5,20 L-4,5 Z " fill="#AB7522" transform="translate(70,203)"/>
<path d="M0,0 L1,0 L2,20 L4,20 L5,15 L6,15 L7,32 L14,34 L14,94 L15,96 L8,96 L8,119 L1,120 L0,135 L-7,135 L-8,151 L-16,151 L-16,167 L-23,167 L-23,175 L-31,175 L-31,183 L-39,183 L-39,206 L-40,207 L-55,207 L-55,215 L-63,215 L-63,183 L-55,183 L-55,175 L-47,175 L-47,167 L-39,167 L-39,159 L-31,159 L-31,151 L-23,151 L-23,135 L-16,135 L-16,120 L-15,119 L-8,119 L-8,95 L0,95 Z " fill="#AA7424" transform="translate(405,191)"/>
<path d="M0,0 L55,0 L55,8 L48,8 L48,23 L56,23 L56,31 L64,31 L64,39 L72,39 L72,47 L71,47 L71,40 L63,40 L63,32 L55,32 L55,24 L47,24 L47,16 L39,16 L39,8 L7,8 L7,16 L0,16 L0,23 L-1,24 L-8,24 L-8,79 L0,79 L0,95 L7,95 L7,112 L15,112 L15,127 L0,127 L0,119 L-8,119 L-8,103 L-16,103 L-16,87 L-24,87 L-24,72 L-32,72 L-31,70 L-31,32 L-24,32 L-24,24 L-16,24 L-16,16 L-8,16 L-8,8 L0,8 Z " fill="#DDA321" transform="translate(48,48)"/>
<path d="M0,0 L8,0 L8,7 L15,7 L16,8 L16,15 L23,15 L24,16 L24,23 L32,23 L32,39 L39,39 L40,40 L40,95 L39,96 L32,96 L32,104 L24,104 L24,120 L16,120 L16,135 L15,136 L8,136 L8,151 L7,151 L7,136 L0,136 L0,143 L-9,143 L-9,159 L-16,159 L-16,183 L-9,183 L-9,247 L-15,246 L-11,245 L-11,185 L-17,185 L-19,183 L-20,167 L-21,171 L-23,171 L-24,166 L-24,151 L-32,151 L-33,135 L-41,135 L-41,120 L-49,120 L-49,104 L-56,104 L-56,95 L-49,95 L-48,96 L-48,104 L-41,104 L-41,119 L-33,119 L-32,120 L-32,135 L-25,135 L-25,127 L-17,127 L-17,111 L-9,111 L-9,119 L-16,119 L-16,135 L-1,135 L-1,127 L7,127 L7,111 L15,111 L15,103 L23,103 L23,87 L31,87 L31,40 L23,40 L23,32 L15,32 L15,16 L7,16 L7,8 L0,8 Z " fill="#A36E24" transform="translate(430,40)"/>
<path d="M0,0 L33,0 L33,8 L37,8 L37,6 L46,6 L48,7 L48,1 L56,1 L56,17 L64,17 L64,25 L72,25 L72,72 L64,72 L64,88 L56,88 L56,96 L48,96 L48,112 L40,112 L40,120 L25,120 L25,104 L32,104 L32,80 L40,80 L40,72 L48,72 L48,17 L40,17 L40,9 L32,9 L32,1 L1,1 L1,9 L-7,9 L-7,17 L-15,17 L-15,25 L-23,25 L-23,33 L-31,33 L-31,41 L-39,41 L-39,49 L-47,49 L-47,56 L-48,56 L-48,48 L-40,48 L-40,40 L-33,39 L-32,32 L-24,32 L-24,24 L-16,24 L-16,16 L-8,16 L-8,8 L0,8 Z " fill="#DBA124" transform="translate(389,55)"/>
<path d="M0,0 L7,0 L7,16 L0,16 L0,31 L-1,32 L-8,32 L-8,46 L0,46 L1,116 L-1,120 L-8,120 L-8,143 L-16,143 L-16,158 L-17,159 L-24,159 L-24,175 L-31,175 L-31,190 L-32,191 L-40,191 L-40,198 L-41,199 L-48,199 L-48,206 L-49,207 L-56,207 L-56,222 L-57,223 L-63,223 L-64,230 L-72,230 L-72,222 L-65,221 L-64,198 L-56,198 L-56,190 L-48,190 L-48,182 L-41,182 L-41,166 L-33,166 L-32,150 L-25,150 L-25,135 L-24,134 L-17,134 L-17,111 L-9,111 L-9,47 L-16,47 L-16,23 L-9,23 L-9,7 L0,7 Z " fill="#634F46" transform="translate(430,176)"/>
<path d="M0,0 L7,0 L7,16 L-1,16 L-1,24 L-17,24 L-17,32 L-25,32 L-25,40 L-33,40 L-33,48 L-41,48 L-41,80 L-25,80 L-25,87 L7,87 L7,80 L15,80 L15,88 L7,88 L7,96 L-104,96 L-104,88 L-112,88 L-112,80 L-104,80 L-104,87 L-72,87 L-72,80 L-56,80 L-56,48 L-42,47 L-41,40 L-34,39 L-33,24 L-25,24 L-25,16 L-9,16 L-9,9 L0,9 Z " fill="#150710" transform="translate(287,342)"/>
<path d="M0,0 L56,0 L56,7 L64,7 L64,15 L72,15 L72,23 L79,23 L80,24 L80,31 L87,31 L88,32 L88,39 L104,39 L104,47 L126,47 L126,39 L142,39 L142,32 L143,31 L237,31 L238,32 L238,39 L192,40 L143,40 L143,48 L127,48 L127,56 L95,56 L95,48 L87,48 L87,40 L79,40 L79,32 L71,32 L71,24 L55,24 L55,16 L47,16 L47,8 L0,8 Z " fill="#2E1F22" transform="translate(48,32)"/>
<path d="M0,0 L8,0 L8,40 L16,40 L16,32 L24,32 L24,40 L31,40 L31,41 L25,41 L25,47 L22,49 L17,49 L17,55 L16,56 L8,56 L9,63 L9,71 L7,73 L1,73 L1,79 L0,80 L-7,80 L-7,103 L-8,104 L-15,104 L-15,111 L-16,112 L-23,112 L-23,119 L-39,119 L-39,112 L-25,111 L-24,64 L-17,63 L-16,56 L-8,56 L-8,48 L0,48 Z " fill="#7F4E17" transform="translate(334,366)"/>
<path d="M0,0 L32,0 L32,8 L40,8 L40,16 L48,16 L48,24 L56,24 L56,32 L64,32 L64,39 L72,39 L72,47 L80,47 L80,55 L72,55 L72,63 L64,64 L64,56 L56,56 L56,48 L48,48 L48,40 L40,40 L40,32 L32,32 L32,24 L24,24 L24,16 L1,16 L1,24 L-7,24 L-7,32 L-15,32 L-15,16 L-8,15 L-7,8 L0,8 Z " fill="#A46D1E" transform="translate(55,56)"/>
<path d="M0,0 L31,0 L31,8 L39,8 L39,16 L47,16 L47,32 L39,32 L39,24 L31,24 L31,16 L8,16 L8,24 L0,24 L0,32 L-8,32 L-8,40 L-16,40 L-16,48 L-24,48 L-24,56 L-32,56 L-32,64 L-40,64 L-40,56 L-48,56 L-48,48 L-40,48 L-40,40 L-32,40 L-32,32 L-24,32 L-24,24 L-16,24 L-16,16 L-8,16 L-8,8 L0,8 Z " fill="#A56D1E" transform="translate(390,56)"/>
<path d="M0,0 L8,0 L8,16 L16,16 L16,32 L24,32 L24,40 L31,40 L31,56 L24,57 L23,68 L19,73 L18,88 L16,90 L10,90 L9,151 L8,159 L15,159 L16,160 L16,175 L15,175 L12,163 L10,162 L10,182 L15,183 L15,184 L7,184 L7,161 L1,161 L-1,160 L-1,88 L0,87 L7,87 L7,73 L1,73 L1,72 L8,72 L8,88 L16,88 L16,56 L8,56 L8,48 L0,48 L0,40 L15,40 L15,25 L7,25 L7,8 L0,8 Z " fill="#A46F22" transform="translate(48,135)"/>
<path d="M0,0 L48,0 L48,8 L56,8 L56,32 L48,32 L48,24 L40,24 L40,16 L8,16 L8,24 L0,24 L0,40 L-8,40 L-8,56 L-16,56 L-16,16 L-8,16 L-8,8 L0,8 Z " fill="#1C0E13" transform="translate(302,215)"/>
<path d="M0,0 L48,0 L48,8 L56,8 L56,16 L64,16 L64,56 L56,56 L56,40 L48,40 L48,24 L40,24 L40,16 L8,16 L8,24 L0,24 L0,32 L-8,32 L-8,8 L0,8 Z " fill="#1D0F14" transform="translate(127,215)"/>
<path d="M0,0 L47,0 L47,8 L55,8 L55,16 L63,16 L63,24 L71,24 L71,55 L70,56 L63,56 L63,32 L55,32 L55,24 L47,24 L47,16 L-1,16 L-1,24 L-9,24 L-9,48 L-17,48 L-17,16 L-9,16 L-9,8 L-1,8 L-1,1 Z " fill="#EDD895" transform="translate(128,199)"/>
<path d="M0,0 L57,0 L57,7 L56,9 L9,9 L9,17 L1,17 L1,25 L-15,25 L-15,41 L-31,41 L-31,49 L-39,49 L-39,57 L-71,57 L-71,49 L-87,49 L-87,41 L-70,41 L-70,48 L-48,48 L-48,40 L-40,40 L-40,32 L-24,32 L-24,24 L-16,24 L-16,16 L-8,16 L-8,8 L0,8 Z " fill="#462816" transform="translate(373,31)"/>
<path d="M0,0 L32,0 L32,8 L40,8 L40,24 L48,24 L48,40 L40,40 L40,32 L-8,32 L-8,24 L-16,24 L-16,16 L-8,16 L-8,8 L0,8 Z " fill="#EBD696" transform="translate(135,231)"/>
<path d="M0,0 L3,1 L5,8 L5,13 L15,12 L16,17 L15,17 L14,29 L22,29 L22,45 L29,45 L30,61 L37,61 L37,69 L45,69 L45,77 L53,77 L54,93 L61,93 L62,108 L69,109 L69,116 L77,117 L77,125 L69,125 L68,124 L68,118 L62,118 L60,116 L60,110 L53,110 L53,102 L45,102 L44,100 L44,92 L45,86 L38,86 L37,85 L37,78 L30,78 L29,77 L29,70 L22,70 L21,69 L21,54 L13,54 L13,38 L5,38 L5,21 L-1,21 Z " fill="#362B2E" transform="translate(58,297)"/>
<path d="M0,0 L8,0 L8,7 L15,7 L16,8 L16,15 L23,15 L24,16 L24,23 L32,23 L32,39 L39,39 L40,40 L40,95 L39,96 L32,96 L32,104 L24,104 L24,120 L16,120 L16,135 L8,135 L8,119 L15,119 L15,103 L23,103 L23,87 L31,87 L31,40 L23,40 L23,32 L15,32 L15,16 L7,16 L7,8 L0,8 Z " fill="#1D0C0D" transform="translate(430,40)"/>
<path d="M0,0 L2,0 L2,8 L17,8 L17,9 L1,9 L1,17 L17,17 L17,25 L-7,25 L-7,17 L-86,17 L-86,25 L-110,25 L-110,17 L-94,17 L-94,9 L-45,8 L1,8 Z " fill="#AA6F22" transform="translate(285,63)"/>
<path d="M0,0 L8,0 L8,7 L40,7 L41,4 L41,7 L119,7 L119,0 L127,0 L127,8 L119,8 L119,16 L8,16 L8,8 L0,8 Z " fill="#544334" transform="translate(175,422)"/>
<path d="M0,0 L48,0 L48,8 L56,8 L56,16 L0,16 L0,24 L-16,24 L-16,8 L0,8 Z " fill="#3A1E16" transform="translate(294,159)"/>
<path d="M0,0 L48,0 L48,8 L64,8 L64,24 L48,24 L48,16 L-8,16 L-8,8 L0,8 Z " fill="#3A1E16" transform="translate(135,159)"/>
<path d="M0,0 L16,0 L16,9 L9,9 L9,17 L-86,17 L-87,16 L-87,9 L-87,7 L-93,6 L-94,1 L-80,1 L-80,8 L0,8 Z " fill="#140810" transform="translate(278,485)"/>
<path d="M0,0 L8,0 L8,7 L16,7 L16,16 L24,16 L24,40 L32,40 L32,47 L48,48 L48,63 L31,63 L31,56 L24,56 L23,55 L23,48 L16,48 L15,47 L15,24 L8,24 L8,17 L1,17 L-1,16 L-1,2 Z " fill="#170A14" transform="translate(135,422)"/>
<path d="M0,0 L79,0 L79,7 L55,7 L55,15 L24,15 L24,7 L0,7 Z " fill="#EFD996" transform="translate(199,335)"/>
<path d="M0,0 L57,0 L57,7 L56,9 L9,9 L9,17 L1,17 L1,25 L-15,25 L-15,17 L-7,17 L-7,9 L0,9 Z " fill="#2A1E25" transform="translate(373,31)"/>
<path d="M0,0 L8,0 L8,15 L7,16 L-7,16 L-7,23 L8,23 L8,24 L-7,24 L-7,31 L-8,31 L-8,23 L-24,23 L-24,31 L-104,31 L-104,24 L-117,25 L-116,27 L-117,29 L-111,29 L-109,31 L-109,38 L-110,40 L-112,40 L-112,32 L-119,32 L-120,31 L-120,25 L-135,24 L-135,23 L-119,23 L-119,15 L-116,16 L-115,20 L-103,21 L-101,22 L-101,30 L-25,30 L-26,21 L-29,23 L-32,23 L-32,15 L-16,15 L-16,7 L0,7 Z " fill="#B68735" transform="translate(302,462)"/>
<path d="M0,0 L7,0 L8,14 L16,15 L16,23 L24,23 L24,31 L32,31 L32,63 L24,63 L24,47 L15,47 L15,32 L7,32 L7,16 L0,16 Z " fill="#342424" transform="translate(32,160)"/>
<path d="M0,0 L47,0 L47,8 L55,8 L55,16 L63,16 L63,24 L71,24 L71,55 L70,56 L63,56 L63,32 L55,32 L55,24 L47,24 L50,22 L53,20 L54,9 L44,9 L44,3 L6,3 L2,4 L-1,11 L-5,14 L-7,18 L-10,18 L-10,21 L-12,21 L-13,23 L-16,23 L-16,47 L-9,47 L-9,48 L-17,48 L-17,16 L-9,16 L-9,8 L-1,8 L-1,1 Z " fill="#E8D598" transform="translate(128,199)"/>
<path d="M0,0 L52,0 L53,1 L53,7 L59,7 L62,10 L62,15 L76,15 L77,16 L77,33 L76,35 L66,35 L64,28 L57,27 L57,19 L11,20 L8,21 L6,20 L6,25 L4,28 L-13,28 L-15,26 L-15,9 L-13,7 L1,7 Z M3,1 L3,9 L-13,9 L-13,25 L3,25 L3,17 L59,17 L59,9 L51,9 L51,1 Z " fill="#D19E3E" transform="translate(291,158)"/>
<path d="M0,0 L56,0 L56,7 L64,7 L64,16 L70,16 L71,23 L56,22 L56,16 L47,16 L47,8 L0,8 Z " fill="#201014" transform="translate(48,32)"/>
<path d="M0,0 L1,0 L1,39 L8,39 L8,48 L16,48 L16,63 L24,63 L24,80 L16,80 L16,64 L8,64 L8,56 L0,56 L0,40 L-8,40 L-8,16 L0,16 Z " fill="#AF7717" transform="translate(294,255)"/>
<path d="M0,0 L8,0 L8,9 L16,9 L16,16 L32,16 L32,24 L40,24 L41,39 L48,40 L48,47 L40,47 L40,40 L32,40 L32,32 L24,32 L24,24 L8,24 L8,16 L0,16 Z " fill="#19080E" transform="translate(183,342)"/>
<path d="M0,0 L73,0 L79,5 L79,9 L99,8 L110,9 L109,17 L115,18 L115,19 L108,19 L108,11 L93,11 L93,27 L92,27 L92,11 L85,11 L85,19 L77,19 L76,4 L-3,4 L-3,19 L-11,19 L-11,11 L-35,11 L-35,19 L-43,19 L-43,11 L-42,11 L-42,17 L-39,16 L-38,11 L-36,11 L-36,9 L-12,8 L-12,10 L-7,8 L-5,3 Z " fill="#D5A32E" transform="translate(202,331)"/>
<path d="M0,0 L8,0 L8,7 L15,7 L16,8 L16,15 L23,15 L24,16 L24,23 L32,23 L32,39 L39,39 L40,40 L40,95 L39,96 L32,96 L32,101 L31,101 L31,95 L38,95 L37,45 L36,45 L34,51 L33,51 L33,40 L23,40 L23,32 L15,32 L15,16 L7,16 L7,8 L0,8 Z " fill="#826C5B" transform="translate(430,40)"/>
<path d="M0,0 L8,0 L8,24 L0,24 L0,40 L-8,40 L-8,48 L-16,48 L-16,63 L-24,63 L-24,47 L-16,47 L-16,32 L-8,32 L-8,23 L0,23 Z " fill="#AF771A" transform="translate(183,271)"/>
<path d="M0,0 L7,0 L8,2 L9,69 L8,72 L1,72 L0,71 Z " fill="#1A0F16" transform="translate(422,223)"/>
<path d="M0,0 L56,0 L56,1 L1,1 L1,9 L48,9 L48,17 L1,17 L1,25 L-7,25 L-7,8 L0,8 Z " fill="#9D6F30" transform="translate(47,31)"/>
<path d="M0,0 L1,0 L1,96 L-7,96 L-6,119 L-4,119 L-3,125 L-4,133 L-6,135 L-7,143 L-9,139 L-10,149 L-13,150 L-13,146 L-18,145 L-20,149 L-22,153 L-28,156 L-31,159 L-31,151 L-23,151 L-23,135 L-16,135 L-16,120 L-15,119 L-8,119 L-8,95 L0,95 Z M-8,120 Z " fill="#B47C21" transform="translate(405,191)"/>
<path d="M0,0 L49,0 L50,1 L50,9 L64,9 L65,10 L66,26 L63,29 L46,29 L44,27 L43,20 L-7,20 L-7,27 L-13,31 L-15,36 L-26,36 L-25,34 L-17,34 L-17,26 L-9,26 L-9,18 L-25,18 L-25,16 L-11,16 L-11,10 L-10,8 L-3,8 L-3,1 Z M-1,2 L-1,10 L-9,10 L-9,18 L47,18 L47,26 L63,26 L63,10 L47,10 L47,2 Z " fill="#D29E3A" transform="translate(136,157)"/>
<path d="M0,0 L8,0 L9,16 L16,16 L17,31 L24,32 L24,39 L32,40 L32,48 L24,48 L23,47 L23,41 L17,41 L15,39 L15,33 L8,33 L8,25 L0,25 L-1,23 L-1,15 L0,9 L-7,9 L-7,8 L0,8 Z " fill="#715C54" transform="translate(103,374)"/>
<path d="M0,0 L8,0 L9,3 L8,5 L8,32 L1,32 L1,39 L0,40 L-7,40 L-7,47 L-23,47 L-23,40 L-9,39 L-8,24 L0,24 Z " fill="#150A11" transform="translate(318,438)"/>
<path d="M0,0 L7,0 L7,71 L0,71 Z " fill="#14070B" transform="translate(48,223)"/>
<path d="M0,0 L8,0 L8,15 L16,15 L16,31 L24,31 L24,47 L32,47 L32,55 L24,55 L23,54 L23,40 L16,40 L16,55 L15,55 L15,40 L7,40 L7,24 L-1,24 L-1,16 L-8,16 L-8,15 L0,15 L0,23 L7,23 L7,8 L0,8 Z " fill="#845D2A" transform="translate(16,120)"/>
<path d="M0,0 L8,0 L8,8 L1,8 L1,15 L-8,15 L-8,24 L-15,24 L-15,39 L-16,40 L-24,40 L-24,55 L-31,55 L-31,39 L-24,39 L-24,24 L-23,23 L-16,23 L-16,15 L-9,15 L-9,7 L0,7 Z " fill="#A66F1B" transform="translate(111,120)"/>
<path d="M0,0 L8,1 L8,2 L1,2 L1,10 L8,10 L8,18 L0,18 L0,10 L-47,10 L-47,2 L0,2 Z " fill="#AB7122" transform="translate(429,38)"/>
<path d="M0,0 L8,0 L8,7 L16,7 L16,39 L24,39 L24,47 L16,47 L16,40 L8,40 L8,16 L0,16 Z " fill="#A97A33" transform="translate(151,422)"/>
<path d="M0,0 L2,0 L2,48 L9,48 L9,63 L2,63 L2,55 L-6,55 L-6,1 L-1,2 L-2,36 L-1,48 Z " fill="#210E0A" transform="translate(14,80)"/>
<path d="M0,0 L7,0 L7,15 L-1,15 L-2,24 L-4,27 L-2,30 L-9,31 L-9,47 L-16,47 L-16,23 L-9,23 L-9,7 L0,7 Z " fill="#170B13" transform="translate(430,176)"/>
<path d="M0,0 L47,0 L47,6 L79,7 L79,8 L-32,8 L-32,7 L0,7 Z " fill="#4C2E1D" transform="translate(215,430)"/>
<path d="M0,0 L9,0 L9,7 L17,8 L18,10 L18,16 L16,18 L10,19 L8,26 L0,26 L-1,25 L-1,18 L-7,18 L-9,17 L-8,8 L-1,8 Z " fill="#E5B83C" transform="translate(143,23)"/>
<path d="M0,0 L8,0 L9,1 L9,8 L16,8 L17,9 L17,17 L16,18 L9,18 L9,25 L8,26 L1,26 L-1,25 L-2,19 L-9,17 L-9,9 L-8,8 L-1,8 L-1,1 Z " fill="#D3B66F" transform="translate(453,15)"/>
<path d="M0,0 L8,0 L9,1 L9,7 L17,8 L17,17 L16,18 L9,18 L9,24 L7,26 L1,26 L-1,24 L-1,18 L-7,18 L-9,16 L-9,10 L-8,8 L-2,7 Z " fill="#E4B739" transform="translate(318,39)"/>
<path d="M0,0 L49,0 L49,8 L0,8 Z " fill="#D9AA46" transform="translate(214,438)"/>
<path d="M0,0 L9,0 L11,7 L18,9 L18,17 L11,19 L9,26 L0,26 L-1,19 L-8,17 L-8,8 L0,8 Z M2,10 L2,15 L7,16 L7,11 Z " fill="#C3AA5F" transform="translate(23,190)"/>
<path d="M0,0 L15,0 L15,7 L7,7 L7,15 L-1,16 L-4,22 L-29,22 L-31,20 L-31,16 L-8,16 L-8,8 L0,8 Z " fill="#17080D" transform="translate(334,64)"/>
<path d="M0,0 L8,0 L8,16 L0,16 L0,40 L-8,40 L-8,8 L-1,7 Z " fill="#AF7926" transform="translate(318,422)"/>
<path d="M0,0 L16,0 L16,8 L40,8 L40,16 L8,16 L8,8 L0,8 Z " fill="#271412" transform="translate(135,72)"/>
<path d="M0,0 L9,0 L9,8 L17,8 L17,17 L10,19 L8,26 L0,26 L-1,18 L-8,18 L-9,16 L-9,10 L-8,8 L-1,8 Z M2,10 L1,15 L6,16 L7,15 L7,10 Z " fill="#D9C283" transform="translate(445,190)"/>
<path d="M0,0 L2,0 L2,8 L17,8 L17,9 L1,9 L1,17 L17,17 L17,24 L15,23 L15,18 L-1,18 L-2,12 L-92,11 L-92,17 L-95,19 L-108,20 L-108,25 L-110,25 L-110,17 L-94,17 L-94,9 L-45,8 L1,8 Z " fill="#8F6639" transform="translate(285,63)"/>
<path d="M0,0 L16,0 L16,9 L9,9 L9,17 L-78,17 L-78,16 L3,16 L3,10 L0,11 L0,9 L-79,9 L-79,8 L0,8 Z " fill="#372112" transform="translate(278,485)"/>
<path d="M0,0 L47,0 L47,8 L55,8 L55,16 L63,16 L63,24 L61,24 L61,18 L57,18 L57,21 L53,20 L54,9 L44,9 L44,3 L6,3 L2,4 L-1,11 L-5,14 L-7,18 L-10,18 L-10,21 L-12,21 L-13,23 L-16,23 L-16,47 L-9,47 L-9,48 L-17,48 L-17,16 L-9,16 L-9,8 L-1,8 L-1,1 Z " fill="#F2CE78" transform="translate(128,199)"/>
<path d="M0,0 L8,0 L8,38 L6,41 L4,41 L3,45 L1,45 L0,48 Z " fill="#7D4E18" transform="translate(334,366)"/>
<path d="M0,0 L46,0 L49,4 L49,8 L54,9 L55,11 L47,11 L47,3 L0,4 L-1,11 L-9,11 L-9,19 L-17,19 L-17,27 L-25,27 L-25,59 L-27,57 L-27,26 L-21,23 L-19,23 L-18,17 L-15,16 L-11,17 L-11,9 L-5,6 L-2,1 Z " fill="#D6A530" transform="translate(303,196)"/>
<path d="M0,0 L8,0 L8,1 L1,1 L1,16 L9,15 L9,17 L1,17 L1,33 L-7,33 L-7,48 L-15,48 L-15,32 L-8,32 L-8,16 L0,16 Z " fill="#5C4439" transform="translate(453,127)"/>
<path d="M0,0 L7,0 L7,23 L-2,23 L-2,39 L-8,39 L-8,16 L0,16 Z " fill="#1A090E" transform="translate(414,295)"/>
<path d="M0,0 L7,0 L8,1 L8,9 L15,9 L16,26 L22,26 L23,29 L23,40 L15,40 L15,25 L7,25 L7,9 L0,9 Z " fill="#A77227" transform="translate(374,135)"/>
<path d="M0,0 L16,0 L16,8 L32,8 L32,16 L95,16 L95,17 L33,18 L30,21 L27,21 L26,15 L12,14 L11,9 L8,8 L8,1 L0,1 Z " fill="#B48531" transform="translate(175,469)"/>
<path d="M0,0 L8,0 L10,1 L11,4 L53,4 L54,6 L7,6 L7,14 L0,14 L0,10 L-4,10 L-4,20 L-2,20 L-2,15 L-1,15 L-1,22 L-16,23 L-16,15 L-8,15 L-8,7 L-1,6 Z " fill="#17070B" transform="translate(374,33)"/>
<path d="M0,0 L5,1 L7,2 L7,8 L14,9 L15,16 L13,16 L12,19 L12,11 L4,11 L4,3 L-19,3 L-19,11 L-27,11 L-27,19 L-35,19 L-35,27 L-43,27 L-43,35 L-51,35 L-48,33 L-46,33 L-46,25 L-43,23 L-38,23 L-37,17 L-32,15 L-29,9 L-23,8 L-22,1 Z " fill="#8E602E" transform="translate(417,69)"/>
<path d="M0,0 L5,0 L5,4 L86,5 L86,13 L109,13 L109,14 L85,14 L85,6 L6,6 L6,14 L-16,14 L-16,9 L-11,8 L-1,6 Z " fill="#B1791E" transform="translate(193,74)"/>
<path d="M0,0 L8,0 L8,9 L16,9 L16,16 L32,16 L32,24 L31,24 L31,17 L19,18 L17,22 L24,23 L24,24 L8,24 L8,16 L0,16 Z " fill="#241413" transform="translate(183,342)"/>
<path d="M0,0 L8,0 L5,2 L3,4 L2,16 L0,18 L-5,19 L-5,109 L0,111 L0,112 L-8,112 L-8,17 L-7,16 L0,16 Z " fill="#D49A29" transform="translate(79,175)"/>
<path d="M0,0 L16,1 L16,16 L-1,16 L-1,9 L-8,9 L-8,8 L0,8 Z " fill="#684322" transform="translate(167,469)"/>
<path d="M0,0 L80,0 L82,2 L82,6 L102,5 L113,6 L112,14 L118,15 L118,16 L111,16 L111,8 L96,8 L96,24 L95,24 L95,8 L88,8 L88,16 L80,16 L79,1 L0,1 Z " fill="#D4AB49" transform="translate(199,334)"/>
<path d="M0,0 L3,1 L6,13 L13,14 L14,37 L6,37 L5,22 L-1,21 Z " fill="#11050C" transform="translate(58,297)"/>
<path d="M0,0 L3,1 L4,5 L16,6 L18,7 L18,15 L94,15 L94,8 L95,8 L95,16 L15,16 L15,9 L2,10 L3,12 L2,14 L8,14 L10,16 L10,23 L9,25 L7,25 L7,17 L0,17 L-1,16 L-1,10 L-16,9 L-16,8 L0,8 Z " fill="#A37F4F" transform="translate(183,477)"/>
<path d="M0,0 L1,0 L1,71 L8,71 L8,32 L9,32 L9,71 L16,71 L17,72 L17,87 L16,87 L13,75 L11,74 L11,94 L16,95 L16,96 L8,96 L8,73 L2,73 L0,72 Z " fill="#5E4E46" transform="translate(47,223)"/>
<path d="M0,0 L6,0 L6,7 L0,7 L0,23 L-1,24 L-7,24 L-8,31 L-16,31 L-16,23 L-9,22 L-8,7 L-1,6 Z " fill="#221515" transform="translate(374,375)"/>
<path d="M0,0 L24,0 L24,7 L9,8 L8,16 L0,16 Z " fill="#A76D1B" transform="translate(143,88)"/>
<path d="M0,0 L24,0 L24,16 L16,16 L16,7 L0,7 Z " fill="#A86F16" transform="translate(310,88)"/>
<path d="M0,0 L8,0 L8,1 L1,1 L1,16 L0,17 L-7,17 L-7,31 L1,31 L0,34 L0,32 L-7,32 L-6,104 L-15,104 L-15,120 L-23,120 L-23,119 L-16,119 L-16,96 L-8,96 L-8,16 L-2,14 L-4,12 L-1,6 Z " fill="#452610" transform="translate(429,191)"/>
<path d="M0,0 L8,0 L8,1 L1,1 L1,9 L-7,9 L-7,33 L-15,33 L-15,25 L-31,25 L-31,33 L-39,33 L-39,41 L-62,41 L-62,40 L-40,40 L-40,32 L-32,32 L-32,24 L-16,24 L-16,16 L-8,16 L-8,8 L0,8 Z " fill="#948273" transform="translate(365,39)"/>
<path d="M0,0 L8,0 L8,7 L16,7 L16,16 L13,16 L14,22 L10,22 L10,16 L-1,16 L-1,2 Z " fill="#1A0D13" transform="translate(135,422)"/>
<path d="M0,0 L8,0 L8,8 L15,8 L15,9 L9,9 L9,15 L8,16 L0,16 L-2,13 L-9,15 L-13,16 L-16,16 L-15,13 L-13,12 L-12,9 L-10,9 L-9,6 L-8,8 L0,8 Z M-17,17 Z " fill="#7F4C16" transform="translate(350,398)"/>
<path d="M0,0 L76,0 L76,3 L2,3 L0,2 Z " fill="#A66B17" transform="translate(198,76)"/>
<path d="M0,0 L32,0 L32,7 L-1,7 Z " fill="#14080A" transform="translate(262,430)"/>
<path d="M0,0 L32,0 L32,7 L0,7 Z " fill="#15090B" transform="translate(183,430)"/>
<path d="M0,0 L5,1 L4,35 L4,49 L3,53 L6,54 L0,54 Z " fill="#0F070C" transform="translate(8,81)"/>
<path d="M0,0 L8,0 L8,15 L7,16 L-7,16 L-7,23 L8,23 L8,24 L-7,24 L-7,31 L-8,31 L-8,8 L0,8 Z " fill="#61493B" transform="translate(302,462)"/>
<path d="M0,0 L15,0 L15,9 L8,9 L8,16 L7,17 L0,17 L0,16 L6,16 L6,14 L4,13 L6,13 L6,9 L0,9 L0,15 L-1,16 L-8,16 L-8,8 L0,8 Z " fill="#754311" transform="translate(374,366)"/>
<path d="M0,0 L48,0 L48,8 L64,8 L64,24 L48,24 L48,16 L50,18 L50,22 L62,22 L62,13 L63,9 L47,9 L46,3 L3,2 L3,8 L2,9 L-7,9 L-7,16 L-8,16 L-8,8 L0,8 Z " fill="#5E360A" transform="translate(135,159)"/>
<path d="M0,0 L7,0 L7,22 L2,21 L1,23 L16,23 L16,31 L8,31 L8,24 L0,24 Z " fill="#A27330" transform="translate(159,438)"/>
<path d="M0,0 L8,0 L8,7 L15,7 L16,8 L16,15 L23,15 L23,24 L15,24 L15,16 L7,16 L7,8 L0,8 Z " fill="#604F47" transform="translate(430,40)"/>
<path d="M0,0 L7,0 L8,7 L15,8 L15,15 L23,16 L23,24 L15,24 L14,23 L14,17 L8,17 L7,16 L7,8 L0,8 Z " fill="#210E0F" transform="translate(112,398)"/>
<path d="M0,0 L1,0 L1,31 L9,31 L9,95 L3,94 L7,93 L7,33 L1,33 L-1,31 L-1,6 Z " fill="#9D713C" transform="translate(412,192)"/>
<path d="M0,0 L8,0 L8,10 L3,13 L2,18 L-7,16 L-7,40 L-8,40 L-8,8 L0,8 Z " fill="#E6C578" transform="translate(254,382)"/>
<path d="M0,0 L2,0 L2,55 L10,55 L10,71 L17,71 L17,72 L9,72 L9,61 L7,61 L7,57 L0,56 L-1,54 L-1,15 Z " fill="#D9A43B" transform="translate(38,72)"/>
<path d="M0,0 L8,0 L8,24 L16,24 L16,39 L8,39 L9,32 L1,31 L4,28 L5,26 L5,5 L6,2 L1,2 Z " fill="#1C0808" transform="translate(151,438)"/>
<path d="M0,0 L16,0 L16,8 L8,8 L8,16 L0,16 Z " fill="#3C1F13" transform="translate(111,175)"/>
<path d="M0,0 L16,0 L16,16 L8,16 L8,8 L0,8 Z " fill="#3D1F12" transform="translate(350,175)"/>
<path d="M0,0 L9,0 L9,7 L17,8 L18,10 L18,16 L16,18 L10,19 L8,26 L0,26 L-1,25 L-1,18 L-7,18 L-9,17 L-8,8 L-1,8 L0,4 L2,10 L-6,10 L-7,16 L0,17 L2,23 L7,24 L8,1 L0,1 Z " fill="#D0A23A" transform="translate(143,23)"/>
<path d="M0,0 L8,0 L8,15 L16,15 L16,23 L8,23 L8,39 L15,39 L15,40 L7,40 L7,24 L-1,24 L-1,16 L-8,16 L-8,15 L0,15 L0,23 L7,23 L7,8 L0,8 Z " fill="#7E7168" transform="translate(16,120)"/>
<path d="M0,0 L2,3 L2,5 L9,6 L11,9 L11,13 L13,13 L14,11 L16,11 L16,8 L24,8 L24,23 L16,23 L16,16 L8,16 L8,8 L0,7 Z " fill="#80511A" transform="translate(127,406)"/>
<path d="M0,0 L8,0 L8,3 L3,4 L3,8 L5,10 L3,11 L2,24 L1,29 L7,30 L7,31 L-2,31 L-2,37 L-1,39 L-8,39 L-8,24 L0,24 Z " fill="#210904" transform="translate(318,438)"/>
<path d="M0,0 L8,0 L8,7 L15,7 L16,0 L17,0 L17,8 L16,9 L9,9 L9,16 L8,17 L1,17 L-1,16 L-2,10 L-8,9 L-8,8 L0,8 Z " fill="#C6AC65" transform="translate(453,24)"/>
<path d="M0,0 L8,0 L8,16 L-8,15 L-8,8 L0,8 Z " fill="#96672F" transform="translate(32,48)"/>
<path d="M0,0 L49,0 L50,1 L50,8 L49,8 L49,2 L-1,2 L-1,10 L-9,10 L-9,18 L-25,18 L-25,16 L-11,16 L-11,10 L-10,8 L-3,8 L-3,1 Z " fill="#D29D34" transform="translate(136,157)"/>
<path d="M0,0 L1,0 L1,18 L-7,18 L-7,26 L-15,26 L-15,42 L-20,42 L-18,40 L-17,32 L-18,27 L-15,24 L-10,24 L-10,16 L-7,8 L-2,8 L-1,1 Z " fill="#DDA229" transform="translate(452,125)"/>
<path d="M0,0 L1,0 L1,15 L-7,15 L-7,7 L-31,7 L-31,15 L-39,15 L-39,7 L-38,7 L-38,13 L-35,12 L-34,7 L-32,7 L-32,5 L-8,4 L-8,6 L0,6 Z " fill="#D1A136" transform="translate(198,335)"/>
<path d="M0,0 L9,0 L9,23 L2,23 L1,6 L-2,4 L-2,2 Z " fill="#17080C" transform="translate(54,200)"/>
<path d="M0,0 L2,1 L0,17 L8,17 L8,33 L15,33 L15,41 L8,41 L7,40 L7,25 L0,25 L-1,24 L-1,2 L-8,2 L-8,1 Z " fill="#724928" transform="translate(72,309)"/>
<path d="M0,0 L42,0 L43,3 L15,5 L0,4 Z " fill="#E1A82B" transform="translate(217,440)"/>
<path d="M0,0 L9,0 L11,7 L18,9 L18,17 L11,19 L9,26 L0,26 L0,25 L8,25 L8,17 L0,18 L1,10 L2,10 L3,15 L7,16 L6,10 L8,10 L8,1 L0,2 Z " fill="#DCC789" transform="translate(23,190)"/>
<path d="M0,0 L7,0 L7,5 L4,9 L6,10 L8,13 L6,14 L6,16 L0,16 L0,23 L-7,22 L-4,19 L-6,16 L-7,16 L-7,8 L0,8 Z M0,9 L1,12 L1,9 Z " fill="#12050C" transform="translate(334,422)"/>
<path d="M0,0 L1,0 L1,26 L0,27 L-6,27 L-7,88 L-8,88 L-9,57 L-9,25 L-16,25 L-16,24 L-9,24 L-9,10 L-15,10 L-15,9 L-8,9 L-8,25 L0,25 Z " fill="#8B6B48" transform="translate(64,198)"/>
<path d="M0,0 L7,0 L7,16 L-1,16 L-1,24 L-17,24 L-17,23 L-3,23 L-3,13 L-3,10 L0,9 Z M-5,13 L-3,14 Z " fill="#140912" transform="translate(287,342)"/>
<path d="M0,0 L2,0 L2,5 L45,5 L50,7 L51,13 L55,15 L55,16 L48,16 L48,8 L0,8 Z " fill="#F3D17A" transform="translate(127,255)"/>
<path d="M0,0 L8,0 L8,23 L1,23 Z " fill="#A8711F" transform="translate(286,271)"/>
<path d="M0,0 L5,0 L5,13 L3,12 L1,11 L1,9 L-6,11 L-6,23 L-9,25 L-15,24 L-14,45 L-11,46 L-11,44 L-9,44 L-9,47 L-16,47 L-16,23 L-9,23 L-9,7 L0,7 Z " fill="#110407" transform="translate(430,176)"/>
<path d="M0,0 L47,0 L47,8 L55,8 L55,16 L53,12 L53,10 L50,11 L45,9 L42,4 L36,3 L1,2 L1,8 L-1,8 L-1,1 Z " fill="#F4D175" transform="translate(303,199)"/>
<path d="M0,0 L8,0 L8,8 L16,8 L16,40 L15,40 L15,16 L7,16 L7,8 L0,8 Z " fill="#BB9956" transform="translate(215,382)"/>
<path d="M0,0 L55,0 L55,8 L53,6 L54,3 L36,2 L14,2 L11,3 L8,8 L0,8 Z " fill="#DDA330" transform="translate(374,48)"/>
<path d="M0,0 L1,0 L1,16 L18,16 L18,8 L74,8 L74,16 L73,16 L73,9 L19,9 L20,10 L26,10 L25,12 L21,11 L21,16 L19,19 L2,19 L0,17 Z " fill="#BF8E3A" transform="translate(276,167)"/>
<path d="M0,0 L8,0 L8,8 L1,8 L1,15 L-15,16 L-15,23 L-16,23 L-16,15 L-9,15 L-9,7 L0,7 Z " fill="#AA7322" transform="translate(111,120)"/>
<path d="M0,0 L7,0 L7,55 L6,56 L-1,56 L-1,61 L-2,61 L-2,55 L5,55 L4,5 L3,5 L1,11 L0,11 Z " fill="#4F474A" transform="translate(463,80)"/>
<path d="M0,0 L47,0 L47,8 L44,8 L44,3 L0,3 Z " fill="#A7743D" transform="translate(48,40)"/>
<path d="M0,0 L7,0 L7,8 L0,8 L0,23 L-1,24 L-8,24 L-7,13 L-5,13 L-3,9 L-1,9 Z " fill="#AE751F" transform="translate(96,136)"/>
<path d="M0,0 L9,0 L9,8 L15,8 L16,15 L1,14 L0,5 Z " fill="#13060C" transform="translate(103,40)"/>
<path d="M0,0 L1,0 L1,14 L-6,14 L-6,22 L-14,22 L-14,30 L-22,30 L-22,38 L-30,38 L-26,34 L-24,28 L-18,26 L-15,20 L-8,15 L-8,12 L-1,10 L-1,3 Z " fill="#D9A028" transform="translate(380,328)"/>
<path d="M0,0 L41,0 L41,7 L50,7 L50,15 L58,15 L58,23 L56,23 L56,17 L52,17 L52,20 L48,19 L49,8 L39,8 L39,2 L1,2 L-4,3 L-4,1 Z " fill="#F5D886" transform="translate(133,200)"/>
<path d="M0,0 L56,0 L56,8 L55,8 L55,1 L2,2 L2,9 L-4,13 L-6,18 L-17,18 L-16,16 L-8,16 L-8,8 L0,8 Z " fill="#B88A42" transform="translate(127,175)"/>
<path d="M0,0 L48,0 L48,8 L56,8 L56,16 L52,14 L54,14 L54,10 L49,11 L46,9 L45,3 L2,2 L2,8 L0,8 Z " fill="#5D350A" transform="translate(294,159)"/>
<path d="M0,0 L1,0 L1,28 L-1,26 L-3,29 L-5,29 L-6,26 L-6,3 L-1,2 Z " fill="#251A1F" transform="translate(429,225)"/>
<path d="M0,0 L8,0 L5,3 L1,4 L1,15 L4,20 L9,22 L11,24 L11,29 L14,29 L14,31 L8,31 L8,23 L0,23 L0,16 L-8,16 L-8,8 L0,8 Z " fill="#34150A" transform="translate(366,104)"/>
<path d="M0,0 L7,0 L7,48 L5,50 L4,35 L6,2 L1,1 L1,55 L0,55 Z " fill="#473B3C" transform="translate(7,80)"/>
<path d="M0,0 L5,0 L5,8 L13,8 L13,17 L5,17 L3,10 L-3,9 L-3,1 Z " fill="#C3A557" transform="translate(449,190)"/>
<path d="M0,0 L7,0 L7,2 L3,4 L3,37 L8,38 L10,44 L10,55 L7,55 L7,40 L-1,40 L0,38 Z " fill="#D8A438" transform="translate(17,80)"/>
<path d="M0,0 L8,1 L8,2 L1,2 L1,10 L8,10 L8,18 L0,18 L-2,4 L-45,3 L-46,8 L-47,8 L-47,2 L0,2 Z " fill="#926B4A" transform="translate(429,38)"/>
<path d="M0,0 L1,0 L1,40 L-7,40 L-7,55 L-8,56 L-15,56 L-15,63 L-16,63 L-16,47 L-8,47 L-8,39 L0,39 Z " fill="#9B6D31" transform="translate(437,88)"/>
<path d="M0,0 L4,1 L4,3 L7,3 L8,9 L10,9 L10,11 L14,11 L14,13 L6,13 L6,5 L-42,6 L-41,3 L-1,2 Z " fill="#D7A531" transform="translate(169,194)"/>
<path d="M0,0 L8,0 L8,16 L16,16 L16,24 L8,24 L7,17 L7,8 L0,8 Z " fill="#8B5E2B" transform="translate(48,135)"/>
<path d="M0,0 L7,0 L6,2 L3,2 L4,36 L6,36 L6,38 L8,39 L0,39 Z " fill="#2D0E03" transform="translate(40,88)"/>
<path d="M0,0 L2,0 L2,7 L9,7 L10,8 L9,18 L3,19 L1,25 L-6,27 L-7,33 L-8,33 L-8,25 L-6,24 L0,24 L0,16 L8,16 L8,8 L0,8 Z M-15,33 L-8,33 L-8,34 L-13,35 L-15,42 L-22,42 L-22,47 L-24,48 L-24,40 L-15,40 Z " fill="#D49B2C" transform="translate(127,95)"/>
<path d="M0,0 L16,0 L16,8 L39,8 L39,9 L15,9 L13,8 L13,6 L10,7 L0,7 Z " fill="#0E060B" transform="translate(135,72)"/>
<path d="M0,0 L1,0 L1,17 L-7,17 L-7,33 L-11,32 L-10,27 L-12,21 L-12,15 L-9,11 L-4,12 L-4,16 L-2,15 Z " fill="#AA752E" transform="translate(396,325)"/>
<path d="M0,0 L2,0 L3,7 L4,10 L3,43 L2,57 L-6,57 L-6,64 L-7,64 L-7,56 L1,56 L0,16 Z " fill="#DAA63F" transform="translate(437,72)"/>
<path d="M0,0 L8,0 L8,16 L0,16 Z " fill="#A6722A" transform="translate(318,422)"/>
<path d="M0,0 L8,0 L8,16 L0,16 Z " fill="#B07A1D" transform="translate(151,342)"/>
<path d="M0,0 L8,0 L8,16 L0,16 Z " fill="#A87621" transform="translate(278,255)"/>
<path d="M0,0 L8,0 L8,16 L0,16 Z " fill="#B0791B" transform="translate(191,255)"/>
<path d="M0,0 L8,0 L8,16 L0,16 Z " fill="#210F0D" transform="translate(24,143)"/>
<path d="M0,0 L16,0 L16,8 L0,8 Z " fill="#150807" transform="translate(175,72)"/>
<path d="M0,0 L8,0 L8,15 L7,16 L0,16 Z " fill="#AF7817" transform="translate(318,342)"/>
<path d="M0,0 L79,0 L79,5 L77,5 L77,2 L45,2 L40,3 L14,2 L1,1 L1,7 L0,7 Z " fill="#F6D983" transform="translate(199,335)"/>
<path d="M0,0 L1,0 L1,8 L-46,8 L-46,6 L-43,5 L-9,5 L-1,6 L-1,1 Z " fill="#F3D078" transform="translate(349,255)"/>
<path d="M0,0 L7,0 L7,39 L-1,39 L-1,47 L-8,47 L-8,45 L-3,46 L-3,38 L3,35 L5,32 L5,2 L0,1 Z " fill="#351505" transform="translate(430,88)"/>
<path d="M0,0 L1,0 L1,5 L4,6 L4,18 L3,19 L2,50 L1,59 L0,59 Z " fill="#AB7216" transform="translate(406,206)"/>
<path d="M0,0 L8,0 L8,15 L0,15 Z " fill="#190B0B" transform="translate(16,64)"/>
<path d="M0,0 L14,0 L15,7 L94,8 L94,9 L14,9 L12,4 L12,3 L2,3 Z " fill="#1B0602" transform="translate(184,486)"/>
<path d="M0,0 L10,0 L10,1 L3,1 L3,9 L-84,9 L-84,8 L-2,7 L0,8 Z " fill="#201A1F" transform="translate(284,493)"/>
<path d="M0,0 L48,0 L48,1 L1,1 L1,9 L-7,9 L-7,17 L-22,17 L-22,16 L-8,16 L-9,14 L-11,14 L-11,4 L-7,4 L-7,6 L0,8 Z " fill="#3E1E0B" transform="translate(381,39)"/>
<path d="M0,0 L23,0 L23,7 L19,5 L19,2 L11,2 L10,4 L4,5 L2,9 L-5,9 L-7,16 L-8,16 L-8,8 L0,8 Z " fill="#2F1107" transform="translate(398,72)"/>
<path d="M0,0 L16,0 L16,7 L0,7 Z " fill="#12080E" transform="translate(167,478)"/>
<path d="M0,0 L7,0 L7,16 L0,16 Z " fill="#140509" transform="translate(438,159)"/>
<path d="M0,0 L16,0 L16,7 L0,7 Z " fill="#190A09" transform="translate(286,72)"/>
<path d="M0,0 L9,0 L10,1 L10,49 L17,49 L17,50 L9,50 L9,2 L1,2 L1,10 L-7,10 L-7,2 L-6,2 L-6,7 L-2,7 Z " fill="#D5A653" transform="translate(134,364)"/>
<path d="M0,0 L5,1 L5,16 L-2,16 L-2,1 Z " fill="#190D14" transform="translate(456,63)"/>
<path d="M0,0 L7,0 L7,9 L-1,9 L-1,15 L-7,15 L-7,9 L-2,8 L-1,1 Z " fill="#CFA135" transform="translate(24,191)"/>
<path d="M0,0 L24,0 L22,13 L17,13 L18,8 L19,6 L16,6 L15,3 L2,2 Z " fill="#A56C1F" transform="translate(310,88)"/>
<path d="M0,0 L7,0 L8,15 L0,15 Z " fill="#1C0C0B" transform="translate(398,335)"/>
<path d="M0,0 L1,0 L1,8 L-14,8 L-14,1 Z " fill="#16060A" transform="translate(309,477)"/>
<path d="M0,0 L7,0 L8,15 L0,15 Z " fill="#11080E" transform="translate(104,383)"/>
<path d="M0,0 L7,0 L8,15 L0,15 Z " fill="#190B13" transform="translate(32,160)"/>
<path d="M0,0 L7,0 L7,15 L0,15 Z " fill="#AB7417" transform="translate(310,319)"/>
<path d="M0,0 L4,1 L5,7 L7,9 L-2,10 L-2,3 L-50,3 L-50,2 L0,2 Z " fill="#E5D2A1" transform="translate(177,212)"/>
<path d="M0,0 L6,2 L6,8 L14,6 L15,8 L12,8 L11,17 L6,16 L4,13 L0,14 L-1,18 L-3,18 L-3,11 L4,11 L4,2 L0,2 Z " fill="#F3DB9E" transform="translate(306,411)"/>
<path d="M0,0 L8,0 L6,2 L3,4 L2,8 L-2,11 L-10,10 L-46,9 L-47,16 L-48,16 L-48,8 L0,8 Z " fill="#D2A637" transform="translate(350,255)"/>
<path d="M0,0 L3,1 L4,7 L9,8 L9,14 L22,15 L20,8 L20,3 L17,2 L23,2 L23,17 L8,17 L8,9 L0,9 Z " fill="#DAA337" transform="translate(40,158)"/>
<path d="M0,0 L8,0 L9,1 L9,7 L17,8 L17,17 L16,18 L9,18 L9,24 L8,24 L8,17 L14,15 L15,10 L9,10 L7,6 L7,2 L2,2 L0,9 L-8,9 L-8,8 L-2,7 Z " fill="#D0B87A" transform="translate(318,39)"/>
<path d="M0,0 L7,0 L7,6 L4,6 L2,6 L1,71 L0,71 Z " fill="#190200" transform="translate(422,223)"/>
<path d="M0,0 L1,0 L1,39 L8,39 L8,40 L1,40 L1,55 L8,55 L8,56 L0,56 L0,40 L-8,40 L-8,17 L-7,17 L-7,39 L0,39 Z " fill="#BF8B2C" transform="translate(294,255)"/>
<path d="M0,0 L2,0 L2,15 L10,15 L11,17 L11,31 L18,31 L18,48 L16,44 L16,34 L9,32 L8,29 L8,19 L7,17 L1,16 L0,5 Z " fill="#D69C2B" transform="translate(387,160)"/>
<path d="M0,0 L7,0 L7,10 L4,16 L0,16 Z " fill="#0C0508" transform="translate(72,334)"/>
<path d="M0,0 L48,0 L48,8 L45,8 L43,3 L32,2 L1,2 Z " fill="#D3A52E" transform="translate(127,263)"/>
<path d="M0,0 L2,1 L2,8 L-7,8 L-7,16 L-14,16 L-14,24 L-23,24 L-23,22 L-18,20 L-15,14 L-9,14 L-8,7 L-4,5 L-1,2 Z " fill="#301206" transform="translate(109,119)"/>
<path d="M0,0 L32,0 L32,8 L31,8 L31,1 L18,2 L19,4 L18,6 L24,6 L26,8 L26,15 L25,17 L23,17 L23,9 L16,9 L15,8 L15,2 L0,1 Z " fill="#503B2C" transform="translate(167,485)"/>
<path d="M0,0 L1,0 L1,40 L-7,40 L-7,24 L-15,24 L-11,22 L-8,21 L-5,23 L-6,39 L-2,37 L-1,25 Z " fill="#4A321D" transform="translate(190,231)"/>
<path d="M0,0 L1,0 L3,20 L6,21 L6,0 L8,0 L8,24 L0,24 Z " fill="#997239" transform="translate(310,438)"/>
<path d="M0,0 L1,0 L1,7 L-30,7 L-30,1 L-28,1 L-28,4 L-1,4 Z " fill="#F3DEAA" transform="translate(253,343)"/>
<path d="M0,0 L1,0 L1,75 L-5,75 L-4,73 L-2,73 L-1,69 L-1,28 Z " fill="#DA9F2B" transform="translate(404,211)"/>
<path d="M0,0 L16,0 L15,2 L3,3 L2,14 L14,14 L15,9 L16,9 L16,16 L0,16 Z " fill="#572F09" transform="translate(278,167)"/>
<path d="M0,0 L8,0 L8,8 L15,8 L15,9 L9,9 L9,15 L5,15 L6,8 L0,8 Z " fill="#6A4121" transform="translate(350,398)"/>
<path d="M0,0 L1,0 L1,15 L6,14 L8,11 L8,16 L0,16 L0,24 L-9,24 L-8,16 L-1,15 Z " fill="#2D130A" transform="translate(254,366)"/>
<path d="M0,0 L32,0 L32,8 L30,9 L28,3 L3,3 L2,8 L0,6 Z " fill="#E0D0A5" transform="translate(310,231)"/>
<path d="M0,0 L4,1 L4,9 L-4,9 L-4,30 L-5,30 L-5,9 L-7,9 L-7,6 L-5,6 L-5,3 L0,2 Z " fill="#ECD794" transform="translate(123,214)"/>
<path d="M0,0 L8,0 L8,11 L4,14 L2,14 L2,5 L1,15 L0,15 Z " fill="#1B0705" transform="translate(390,350)"/>
<path d="M0,0 L6,0 L2,1 L2,5 L4,5 L5,7 L5,20 L4,22 L0,21 Z " fill="#110409" transform="translate(415,200)"/>
<path d="M0,0 L16,0 L16,16 L8,16 L9,12 L9,14 L14,14 L13,9 L14,2 L1,2 L1,6 L6,7 L6,8 L0,8 Z " fill="#522905" transform="translate(350,175)"/>
<path d="M0,0 L8,0 L8,8 L1,8 L1,32 L0,32 Z " fill="#693B14" transform="translate(413,191)"/>
<path d="M0,0 L2,4 L3,6 L-5,6 L-6,12 L1,13 L3,19 L8,20 L9,13 L17,13 L17,14 L11,15 L9,22 L1,22 L0,21 L0,14 L-6,14 L-8,13 L-7,4 L0,4 Z " fill="#D0B57B" transform="translate(142,27)"/>
<path d="M0,0 L2,4 L2,7 L9,6 L59,6 L63,3 L63,8 L0,8 Z " fill="#F5D889" transform="translate(207,477)"/>
<path d="M0,0 L8,0 L7,2 L2,2 L3,11 L4,18 L3,19 L2,30 L0,32 Z " fill="#EFCE77" transform="translate(278,223)"/>
<path d="M0,0 L8,0 L8,32 L1,33 L0,40 L-8,40 L-6,35 L-2,34 L0,31 L7,31 L7,1 L0,1 Z " fill="#F1CB69" transform="translate(358,215)"/>
<path d="M0,0 L8,0 L5,5 L7,6 L5,9 L2,11 L-6,10 L-6,15 L-8,16 L-8,8 L0,8 Z " fill="#F2D380" transform="translate(294,207)"/>
<path d="M0,0 L1,0 L1,39 L9,39 L9,55 L16,55 L16,56 L8,56 L8,45 L6,45 L6,41 L1,41 L0,40 Z " fill="#A57B3F" transform="translate(39,88)"/>
<path d="M0,0 L10,2 L10,10 L2,10 L1,9 L1,3 L-5,3 L-5,2 L0,2 Z " fill="#383033" transform="translate(125,412)"/>
<path d="M0,0 L1,0 L1,22 L-6,23 L-7,38 L-13,38 L-13,36 L-9,36 L-9,22 L-7,20 L-1,20 Z " fill="#DBA22B" transform="translate(396,288)"/>
<path d="M0,0 L54,0 L55,7 L62,8 L62,13 L60,12 L60,10 L53,9 L53,1 L0,2 Z " fill="#D7A341" transform="translate(295,176)"/>
<path d="M0,0 L8,0 L8,8 L0,9 L0,16 L-1,16 L-2,10 L-8,9 L-8,8 L0,8 Z " fill="#E7C353" transform="translate(453,24)"/>
<path d="M0,0 L7,0 L7,16 L-1,16 L-1,24 L-17,24 L-17,23 L-3,23 L-3,15 L-2,14 L5,14 L5,2 L0,1 Z " fill="#2E1C0F" transform="translate(287,342)"/>
<path d="M0,0 L8,0 L8,1 L1,1 L2,7 L4,9 L5,13 L7,13 L8,17 L1,17 L1,40 L0,40 L-1,13 L0,11 Z " fill="#534546" transform="translate(326,429)"/>
<path d="M0,0 L8,0 L8,7 L1,7 L1,24 L-7,24 L-7,23 L0,23 Z " fill="#714824" transform="translate(413,287)"/>
<path d="M0,0 L1,0 L2,11 L1,15 L-6,15 L-4,9 L-5,5 L-4,1 Z " fill="#14060B" transform="translate(452,144)"/>
<path d="M0,0 L16,0 L16,1 L9,1 L9,8 L0,8 Z " fill="#BFA064" transform="translate(270,366)"/>
<path d="M0,0 L8,0 L8,31 L7,32 L0,32 L0,31 L6,31 L6,2 L0,1 Z " fill="#EECB74" transform="translate(191,223)"/>
<path d="M0,0 L8,0 L8,1 L1,1 L1,16 L0,17 L-7,17 L-7,31 L1,31 L0,34 L0,32 L-8,32 L-8,16 L-2,14 L-4,12 L-1,6 Z " fill="#6E6668" transform="translate(429,191)"/>
<path d="M0,0 L1,0 L1,15 L-7,15 L-7,23 L-14,23 L-14,8 L-13,8 L-12,20 L-9,20 L-7,13 L-5,12 L-1,13 L-1,1 Z " fill="#351506" transform="translate(412,152)"/>
<path d="M0,0 L1,0 L1,7 L9,7 L11,9 L11,13 L17,14 L17,23 L25,23 L25,31 L24,31 L24,24 L16,24 L16,16 L8,16 L8,8 L0,8 Z " fill="#7D522B" transform="translate(95,88)"/>
<path d="M0,0 L3,0 L4,20 L-1,20 L-1,17 L-1,2 Z " fill="#11040A" transform="translate(416,296)"/>
<path d="M0,0 L3,1 L3,3 L5,5 L-3,5 L-3,29 L-10,29 L-10,28 L-5,28 L-5,6 L-3,1 Z " fill="#DFCC9B" transform="translate(289,226)"/>
<path d="M0,0 L9,0 L9,1 L4,2 L9,3 L9,8 L-6,9 L-6,16 L-7,16 L-7,8 L0,8 Z " fill="#7A4F28" transform="translate(102,127)"/>
<path d="M0,0 L9,0 L9,2 L3,4 L2,8 L0,9 L-13,9 L-14,14 L-16,15 L-16,8 L-15,7 L0,7 Z " fill="#CF9628" transform="translate(167,88)"/>
<path d="M0,0 L6,0 L6,11 L5,13 L0,12 Z " fill="#AD771C" transform="translate(160,319)"/>
<path d="M0,0 L2,0 L3,2 L3,27 L0,24 Z M-1,24 Z " fill="#D6A22E" transform="translate(108,216)"/>
<path d="M0,0 L62,0 L62,6 L60,6 L58,2 L0,1 Z " fill="#DDA32E" transform="translate(216,80)"/>
<path d="M0,0 L2,0 L3,6 L8,5 L8,7 L10,8 L11,13 L14,13 L15,8 L16,8 L16,16 L8,16 L8,8 L0,8 Z " fill="#D8A12F" transform="translate(334,358)"/>
<path d="M0,0 L8,0 L8,1 L1,1 L2,13 L3,16 L0,18 L-6,17 L-5,38 L-2,39 L-2,37 L0,37 L0,40 L-7,40 L-7,16 L0,16 Z " fill="#240D04" transform="translate(421,183)"/>
<path d="M0,0 L16,0 L16,1 L8,1 L8,8 L0,8 Z " fill="#D4A643" transform="translate(286,469)"/>
<path d="M0,0 L16,0 L16,8 L8,8 L8,1 L0,1 Z " fill="#D3A547" transform="translate(175,469)"/>
<path d="M0,0 L3,0 L3,2 L7,4 L13,5 L13,6 L4,6 L4,12 L5,14 L-2,14 Z " fill="#12050C" transform="translate(312,463)"/>
<path d="M0,0 L8,0 L8,1 L1,1 L1,24 L-7,24 L-7,39 L-9,39 L-10,35 L-9,23 L0,23 Z " fill="#787173" transform="translate(421,295)"/>
<path d="M0,0 L1,0 L2,25 L2,38 L7,38 L7,33 L8,33 L8,40 L0,40 Z " fill="#48301C" transform="translate(286,231)"/>
<path d="M0,0 L47,0 L47,8 L46,8 L46,1 L1,2 L1,8 L-1,8 L-1,1 Z " fill="#F2CB6A" transform="translate(128,199)"/>
<path d="M0,0 L3,0 L3,15 L-4,15 L-4,7 L0,8 Z " fill="#2F1107" transform="translate(76,160)"/>
<path d="M0,0 L8,0 L9,4 L8,12 L3,13 L3,6 L3,4 L-3,3 L-3,1 Z " fill="#0C040B" transform="translate(188,488)"/>
<path d="M0,0 L1,0 L1,8 L8,8 L8,16 L1,16 L0,15 Z " fill="#734112" transform="translate(87,350)"/>
<path d="M0,0 L8,0 L8,8 L0,8 L-1,7 L-1,1 Z " fill="#C79D3F" transform="translate(310,48)"/>
<path d="M0,0 L8,0 L8,7 L3,7 L3,2 L1,1 L1,32 L0,32 Z " fill="#A08043" transform="translate(246,390)"/>
<path d="M0,0 L5,0 L7,10 L6,13 L0,13 Z " fill="#16080B" transform="translate(185,343)"/>
<path d="M0,0 L1,0 L1,7 L-7,7 L-7,15 L-23,15 L-23,13 L-9,13 L-9,7 L-8,5 L0,5 Z " fill="#D4A141" transform="translate(134,160)"/>
<path d="M0,0 L8,0 L8,8 L15,8 L15,9 L-9,9 L-9,1 L-8,1 L-8,7 L6,7 L6,3 L0,1 Z " fill="#3E1E0B" transform="translate(112,47)"/>
<path d="M0,0 L47,0 L46,3 L44,2 L5,2 L0,7 Z " fill="#DEA234" transform="translate(48,48)"/>
<path d="M0,0 L48,0 L49,1 L49,6 L51,6 L51,8 L47,8 L47,1 L0,1 Z " fill="#E0CFAD" transform="translate(303,214)"/>
<path d="M0,0 L7,0 L7,5 L4,9 L2,13 L0,14 Z " fill="#0E0505" transform="translate(40,176)"/>
<path d="M0,0 L1,0 L1,9 L-7,9 L-7,1 Z " fill="#DCA93C" transform="translate(317,429)"/>
<path d="M0,0 L8,0 L8,8 L0,8 Z " fill="#B68948" transform="translate(167,461)"/>
<path d="M0,0 L8,0 L8,8 L0,8 Z " fill="#D7A942" transform="translate(159,429)"/>
<path d="M0,0 L8,0 L8,8 L0,8 Z " fill="#160907" transform="translate(167,414)"/>
<path d="M0,0 L8,0 L8,8 L0,8 Z " fill="#3B2D1B" transform="translate(302,414)"/>
<path d="M0,0 L8,0 L8,8 L0,8 Z " fill="#D5A840" transform="translate(254,382)"/>
<path d="M0,0 L8,0 L8,8 L0,8 Z " fill="#C79B46" transform="translate(262,374)"/>
<path d="M0,0 L8,0 L8,8 L0,8 Z " fill="#C39E5A" transform="translate(207,374)"/>
<path d="M0,0 L8,0 L8,8 L0,8 Z " fill="#C9A14D" transform="translate(199,366)"/>
<path d="M0,0 L8,0 L8,8 L0,8 Z " fill="#A37018" transform="translate(326,358)"/>
<path d="M0,0 L1,0 L2,5 L3,25 L1,32 L0,32 Z " fill="#D8A32E" transform="translate(366,215)"/>
<path d="M0,0 L8,0 L8,8 L0,8 Z " fill="#703F12" transform="translate(56,191)"/>
<path d="M0,0 L8,0 L8,8 L0,8 Z " fill="#A97830" transform="translate(429,167)"/>
<path d="M0,0 L8,0 L8,8 L0,8 Z " fill="#AB731B" transform="translate(40,167)"/>
<path d="M0,0 L8,0 L8,8 L0,8 Z " fill="#AE771A" transform="translate(437,151)"/>
<path d="M0,0 L8,0 L8,8 L0,8 Z " fill="#AB741B" transform="translate(445,135)"/>
<path d="M0,0 L8,0 L8,8 L0,8 Z " fill="#B17516" transform="translate(24,135)"/>
<path d="M0,0 L8,0 L8,8 L0,8 Z " fill="#996624" transform="translate(366,127)"/>
<path d="M0,0 L8,0 L8,8 L0,8 Z " fill="#AA7728" transform="translate(334,80)"/>
<path d="M0,0 L8,0 L8,8 L0,8 Z " fill="#9F6B23" transform="translate(135,80)"/>
<path d="M0,0 L8,0 L8,8 L0,8 Z " fill="#B0751D" transform="translate(127,72)"/>
<path d="M0,0 L8,0 L8,8 L0,8 Z " fill="#AF751D" transform="translate(342,72)"/>
<path d="M0,0 L8,0 L8,8 L0,8 Z " fill="#AA7119" transform="translate(119,64)"/>
<path d="M0,0 L8,0 L8,8 L0,8 Z " fill="#24120D" transform="translate(119,56)"/>
<path d="M0,0 L8,0 L8,8 L0,8 Z " fill="#A56F1E" transform="translate(437,56)"/>
<path d="M0,0 L8,0 L8,8 L0,8 Z " fill="#22100C" transform="translate(350,56)"/>
<path d="M0,0 L8,0 L8,8 L0,8 Z " fill="#AB7017" transform="translate(111,56)"/>
<path d="M0,0 L8,0 L8,8 L0,8 Z " fill="#200D09" transform="translate(445,56)"/>
<path d="M0,0 L8,0 L8,8 L0,8 Z " fill="#8F6630" transform="translate(358,56)"/>
<path d="M0,0 L8,0 L8,8 L0,8 Z " fill="#A5722C" transform="translate(429,48)"/>
<path d="M0,0 L8,0 L8,8 L0,8 Z " fill="#A76D16" transform="translate(95,48)"/>
<path d="M0,0 L8,0 L8,8 L0,8 Z " fill="#A9701D" transform="translate(40,48)"/>
<path d="M0,0 L8,0 L8,8 L0,8 Z " fill="#B1751E" transform="translate(374,48)"/>
<path d="M0,0 L8,0 L8,8 L0,8 Z " fill="#281411" transform="translate(32,48)"/>
<path d="M0,0 L8,0 L8,8 L0,8 Z " fill="#26140F" transform="translate(40,40)"/>
<path d="M0,0 L8,0 L8,8 L1,8 L0,7 Z " fill="#73420F" transform="translate(119,398)"/>
<path d="M0,0 L8,0 L8,7 L7,8 L0,8 Z " fill="#6D421C" transform="translate(358,390)"/>
<path d="M0,0 L8,0 L8,8 L1,8 L0,7 Z " fill="#7B470B" transform="translate(95,366)"/>
<path d="M0,0 L8,0 L8,8 L1,8 L0,7 Z " fill="#A67418" transform="translate(143,358)"/>
<path d="M0,0 L7,0 L8,1 L8,8 L0,8 Z " fill="#895D2C" transform="translate(374,135)"/>
<path d="M0,0 L16,0 L16,8 L0,8 Z M2,2 L2,7 L15,7 L15,2 Z " fill="#2A1811" transform="translate(175,72)"/>
<path d="M0,0 L8,0 L8,8 L1,8 L0,7 Z " fill="#CAA03C" transform="translate(143,24)"/>
<path d="M0,0 L31,0 L31,1 L26,1 L25,3 L2,3 L0,2 Z " fill="#EBDBAA" transform="translate(183,438)"/>
<path d="M0,0 L7,0 L8,9 L9,9 L9,22 L14,23 L14,24 L6,24 L6,1 L0,1 Z " fill="#716C6F" transform="translate(49,295)"/>
<path d="M0,0 L16,0 L16,8 L8,8 L9,6 L15,6 L14,3 L1,1 L1,16 L0,16 Z " fill="#5C350B" transform="translate(111,175)"/>
<path d="M0,0 L1,0 L2,7 L2,15 L0,17 L-6,17 L-6,23 L-7,23 L-7,16 L-1,16 L-1,14 L-3,13 L0,12 L-3,9 L-4,11 L-4,8 L-2,5 L0,5 Z M-7,9 L-5,11 L-7,12 Z " fill="#170E12" transform="translate(341,422)"/>
<path d="M0,0 L3,0 L3,7 L-27,7 L-27,1 L-25,5 L0,5 Z " fill="#EBDAAE" transform="translate(211,422)"/>
<path d="M0,0 L8,0 L5,6 L-6,6 L-5,2 Z " fill="#B17E29" transform="translate(286,477)"/>
<path d="M0,0 L45,0 L45,6 L43,7 L41,2 L0,1 Z " fill="#160905" transform="translate(129,216)"/>
<path d="M0,0 L1,0 L1,16 L-7,16 L-2,10 L-3,2 L0,2 Z " fill="#331608" transform="translate(420,135)"/>
<path d="M0,0 L3,1 L4,5 L16,6 L18,7 L18,14 L16,10 L16,8 L0,8 Z " fill="#AE8047" transform="translate(183,477)"/>
<path d="M0,0 L10,0 L10,1 L2,1 L2,9 L-4,14 L-6,16 L-6,9 L-2,8 L-1,1 Z " fill="#E3D194" transform="translate(165,413)"/>
<path d="M0,0 L2,0 L2,23 L0,23 L0,21 L-13,21 L-13,20 L0,20 Z " fill="#F5E6B1" transform="translate(228,398)"/>
<path d="M0,0 L7,0 L7,7 L2,8 L1,16 L0,16 Z " fill="#794B1E" transform="translate(389,342)"/>
<path d="M0,0 L7,0 L7,2 L3,6 L1,6 L1,13 L0,17 L-8,17 L-8,16 L-1,16 L-1,1 Z " fill="#885B2E" transform="translate(88,143)"/>
<path d="M0,0 L10,0 L10,1 L3,1 L3,9 L-24,9 L-24,8 L-2,7 L0,8 Z " fill="#383337" transform="translate(284,493)"/>
<path d="M0,0 L30,0 L30,7 L28,3 L26,1 L25,3 L24,2 L4,2 L2,8 L0,7 Z " fill="#ECDBA6" transform="translate(136,232)"/>
<path d="M0,0 L1,0 L1,10 L-7,10 L-7,26 L-9,26 L-9,14 L-7,8 L-2,8 L-1,1 Z " fill="#D5A03E" transform="translate(452,125)"/>
<path d="M0,0 L6,0 L8,4 L8,8 L0,8 Z " fill="#1C1318" transform="translate(342,414)"/>
<path d="M0,0 L2,0 L3,31 L0,33 Z " fill="#230C0A" transform="translate(433,90)"/>
<path d="M0,0 L2,0 L3,5 L10,6 L11,13 L9,13 L8,16 L8,8 L0,8 Z " fill="#976B35" transform="translate(421,72)"/>
<path d="M0,0 L8,0 L8,7 L0,7 Z " fill="#AC7A27" transform="translate(294,470)"/>
<path d="M0,0 L8,0 L8,7 L0,7 Z " fill="#A2702B" transform="translate(175,470)"/>
<path d="M0,0 L8,0 L8,7 L0,7 Z " fill="#A07339" transform="translate(302,462)"/>
<path d="M0,0 L9,0 L9,6 L15,7 L15,31 L14,31 L14,8 L7,8 L7,1 L0,1 Z " fill="#7F797D" transform="translate(136,438)"/>
<path d="M0,0 L8,0 L8,7 L0,7 Z " fill="#201206" transform="translate(175,422)"/>
<path d="M0,0 L2,3 L8,4 L8,5 L3,5 L3,11 L0,7 L0,4 L-6,4 L-6,12 L-14,12 L-14,11 L-7,11 L-8,3 Z " fill="#67452A" transform="translate(348,410)"/>
<path d="M0,0 L7,0 L7,8 L0,8 Z " fill="#784921" transform="translate(112,390)"/>
<path d="M0,0 L7,0 L7,8 L0,8 Z " fill="#1E0A0B" transform="translate(382,366)"/>
<path d="M0,0 L7,0 L7,8 L0,8 Z " fill="#7A4610" transform="translate(374,366)"/>
<path d="M0,0 L7,0 L7,8 L0,8 Z " fill="#6A4322" transform="translate(382,358)"/>
<path d="M0,0 L7,0 L7,8 L0,8 Z " fill="#F1DEAF" transform="translate(279,342)"/>
<path d="M0,0 L7,0 L7,8 L0,8 Z " fill="#EEDEAE" transform="translate(191,342)"/>
<path d="M0,0 L8,0 L8,8 L16,8 L16,16 L14,16 L14,10 L10,10 L10,13 L6,12 L7,1 L0,1 Z " fill="#F1CF78" transform="translate(175,207)"/>
<path d="M0,0 L7,0 L7,8 L0,8 Z " fill="#C8A143" transform="translate(446,207)"/>
<path d="M0,0 L7,0 L7,8 L0,8 Z " fill="#C3A244" transform="translate(438,199)"/>
<path d="M0,0 L15,0 L14,13 L13,13 L12,5 L11,3 L5,4 L0,1 Z " fill="#3F1E0B" transform="translate(183,168)"/>
<path d="M0,0 L8,0 L8,7 L0,7 Z " fill="#9C6925" transform="translate(358,120)"/>
<path d="M0,0 L8,0 L8,7 L0,7 Z " fill="#A36E15" transform="translate(453,120)"/>
<path d="M0,0 L8,0 L8,7 L0,7 Z " fill="#A16C26" transform="translate(16,120)"/>
<path d="M0,0 L1,0 L1,8 L-7,8 L-7,16 L-15,16 L-15,14 L-13,14 L-13,12 L-10,12 L-9,7 L0,7 Z " fill="#885B2E" transform="translate(55,72)"/>
<path d="M0,0 L8,0 L8,7 L0,7 Z " fill="#231312" transform="translate(24,56)"/>
<path d="M0,0 L7,0 L7,8 L0,8 Z " fill="#140905" transform="translate(430,40)"/>
<path d="M0,0 L9,0 L10,2 L0,2 L0,10 L-15,10 L-15,9 L-5,8 Z " fill="#F5D586" transform="translate(286,467)"/>
<path d="M0,0 L8,0 L8,6 L7,7 L0,7 Z " fill="#7C4613" transform="translate(56,287)"/>
<path d="M0,0 L1,0 L3,6 L3,15 L7,15 L8,18 L0,18 L-1,1 Z " fill="#A07238" transform="translate(64,292)"/>
<path d="M0,0 L7,1 L7,8 L0,8 Z " fill="#C8A141" transform="translate(32,199)"/>
<path d="M0,0 L1,0 L1,18 L-9,18 L-10,14 L-9,9 L-16,9 L-16,8 L-8,8 L-8,16 L0,16 Z " fill="#BF8F39" transform="translate(366,175)"/>
<path d="M0,0 L1,0 L1,16 L8,16 L8,17 L1,17 L1,32 L0,32 L0,17 L-7,17 L-7,24 L-8,24 L-8,16 L0,16 Z " fill="#68503C" transform="translate(437,159)"/>
<path d="M0,0 L4,0 L4,2 L6,3 L4,3 L4,13 L-11,13 L-11,12 L3,12 L2,10 L0,10 Z " fill="#311813" transform="translate(370,43)"/>
<path d="M0,0 L15,0 L15,7 L8,7 L11,5 L12,2 L2,3 Z " fill="#1F1208" transform="translate(247,422)"/>
<path d="M0,0 L2,3 L2,5 L9,6 L11,9 L11,14 L9,15 L16,15 L16,16 L8,16 L8,8 L0,7 Z " fill="#734B2A" transform="translate(127,406)"/>
<path d="M0,0 L5,0 L5,14 L3,13 L1,10 Z " fill="#0F0301" transform="translate(106,383)"/>
<path d="M0,0 L1,0 L1,8 L8,8 L8,9 L1,9 L1,16 L0,17 L-7,17 L-7,16 L-1,16 L-1,14 L-3,13 L-1,13 L-1,9 L-7,9 L-7,15 L-8,15 L-8,8 L0,8 Z " fill="#573C2E" transform="translate(381,366)"/>
<path d="M0,0 L2,0 L2,7 L-6,7 L-6,15 L-8,15 L-7,5 L-5,3 L0,3 Z " fill="#986B34" transform="translate(427,176)"/>
<path d="M0,0 L7,0 L7,16 L2,13 L2,10 L4,10 L6,1 L2,2 L1,8 L0,8 Z " fill="#231012" transform="translate(438,159)"/>
<path d="M0,0 L23,0 L21,3 L9,3 L0,1 Z " fill="#996934" transform="translate(310,88)"/>
<path d="M0,0 L3,1 L3,6 L29,6 L30,3 L31,7 L0,7 Z " fill="#E6D7AC" transform="translate(263,422)"/>
<path d="M0,0 L4,0 L4,11 L2,14 L0,14 Z " fill="#110406" transform="translate(367,383)"/>
<path d="M0,0 L8,0 L8,26 L7,26 L7,9 L5,9 L5,2 L0,1 Z " fill="#8D580C" transform="translate(334,366)"/>
<path d="M0,0 L15,0 L15,8 L13,8 L12,3 L0,2 Z " fill="#F4D57E" transform="translate(295,342)"/>
<path d="M0,0 L6,2 L6,12 L0,14 L-1,18 L-3,18 L-3,11 L4,11 L4,2 L0,2 Z " fill="#EDDFAF" transform="translate(306,411)"/>
<path d="M0,0 L2,0 L2,15 L-2,15 L-2,2 Z " fill="#EAD7A8" transform="translate(181,343)"/>
<path d="M0,0 L7,0 L8,23 L5,23 L5,2 L0,1 Z " fill="#220904" transform="translate(64,311)"/>
<path d="M0,0 L6,0 L6,8 L-1,7 L-1,1 Z " fill="#CFA440" transform="translate(137,32)"/>
<path d="M0,0 L8,0 L7,7 L0,7 Z " fill="#D2A636" transform="translate(461,24)"/>
<path d="M0,0 L7,0 L7,8 L0,8 Z " fill="#1E0707" transform="translate(96,374)"/>
<path d="M0,0 L8,0 L7,2 L3,3 L2,9 L-6,11 L-7,16 L-8,16 L-8,8 L0,8 Z " fill="#B17814" transform="translate(366,350)"/>
<path d="M0,0 L1,0 L1,13 L3,14 L-3,14 L-3,4 Z " fill="#0E0406" transform="translate(402,336)"/>
<path d="M0,0 L8,0 L8,23 L4,22 L6,20 L6,7 L5,2 L0,1 Z " fill="#DAA433" transform="translate(175,271)"/>
<path d="M0,0 L1,3 L8,3 L11,14 L8,15 L8,7 L0,7 Z " fill="#9B6C37" transform="translate(48,176)"/>
<path d="M0,0 L6,0 L3,3 L2,13 L14,14 L15,12 L15,15 L0,15 Z " fill="#DCA439" transform="translate(414,160)"/>
<path d="M0,0 L7,0 L7,7 L0,7 Z " fill="#140906" transform="translate(295,422)"/>
<path d="M0,0 L7,0 L7,7 L0,7 Z " fill="#A46C21" transform="translate(48,136)"/>
<path d="M0,0 L7,0 L7,7 L0,7 Z " fill="#A16D2B" transform="translate(96,136)"/>
<path d="M0,0 L7,0 L7,8 L15,8 L15,15 L9,15 L12,12 L13,9 L6,9 L5,3 L0,1 Z " fill="#301202" transform="translate(104,104)"/>
<path d="M0,0 L7,2 L7,8 L0,8 Z " fill="#9F6B28" transform="translate(445,64)"/>
<path d="M0,0 L7,0 L7,9 L6,10 L-1,10 L-1,16 L-2,16 L-2,9 L4,7 L5,2 L-1,2 Z " fill="#CCB073" transform="translate(328,47)"/>
<path d="M0,0 L8,0 L7,7 L2,7 L0,4 Z " fill="#CEA02A" transform="translate(143,40)"/>
<path d="M0,0 L1,0 L1,17 L-7,17 L-4,14 L-4,12 L0,11 L-1,6 L-2,3 Z " fill="#D9A22A" transform="translate(150,341)"/>
<path d="M0,0 L2,0 L2,14 L-4,14 Z " fill="#A57336" transform="translate(403,312)"/>
<path d="M0,0 L1,0 L1,22 L-6,22 L-6,20 L-1,20 L-1,6 Z " fill="#A47839" transform="translate(412,288)"/>
<path d="M0,0 L2,2 L2,7 L8,7 L10,12 L15,13 L15,16 L8,16 L7,9 L0,8 Z " fill="#9E6C37" transform="translate(88,79)"/>
<path d="M0,0 L26,0 L26,1 L2,2 L1,9 L-6,9 L-2,7 Z " fill="#A37238" transform="translate(54,70)"/>
<path d="M0,0 L6,0 L7,1 L7,7 L0,7 Z " fill="#CFA33C" transform="translate(454,17)"/>
<path d="M0,0 L0,3 L-3,6 L-5,5 L-5,3 L-12,4 L-14,8 L-14,1 Z " fill="#1B0504" transform="translate(293,485)"/>
<path d="M0,0 L6,0 L6,8 L0,8 Z " fill="#1D0402" transform="translate(350,406)"/>
<path d="M0,0 L10,0 L6,1 L6,5 L8,7 L0,7 Z " fill="#140709" transform="translate(135,72)"/>
<path d="M0,0 L16,0 L16,7 L13,6 L12,2 L2,2 L0,4 Z " fill="#1A0803" transform="translate(167,478)"/>
<path d="M0,0 L10,0 L10,1 L3,1 L3,8 L2,9 L-5,9 L-5,16 L-6,16 L-6,8 L-1,7 Z " fill="#6B6467" transform="translate(316,469)"/>
<path d="M0,0 L8,0 L6,6 L0,8 Z " fill="#743E0C" transform="translate(302,469)"/>
<path d="M0,0 L1,0 L1,19 L-6,19 L-6,8 L-5,8 L-5,17 L-1,14 Z " fill="#AD7411" transform="translate(293,275)"/>
<path d="M0,0 L8,0 L5,3 L2,4 L1,9 L-6,9 L-7,16 L-8,16 L-8,8 L0,8 Z " fill="#321104" transform="translate(382,88)"/>
<path d="M0,0 L16,0 L15,2 L2,3 L2,8 L0,8 Z " fill="#A3753C" transform="translate(175,80)"/>
<path d="M0,0 L3,0 L2,8 L1,32 L0,32 Z " fill="#190802" transform="translate(231,390)"/>
<path d="M0,0 L6,0 L6,6 L4,6 L4,8 L-1,8 Z " fill="#160507" transform="translate(121,406)"/>
<path d="M0,0 L2,0 L2,4 L9,5 L9,6 L1,6 L1,27 L0,27 L0,6 L-2,6 L-2,3 L0,3 Z " fill="#DFCE9B" transform="translate(118,217)"/>
<path d="M0,0 L8,0 L10,5 L14,5 L15,8 L14,9 L8,9 L6,7 L6,1 L0,1 Z " fill="#DDBA75" transform="translate(311,56)"/>
<path d="M0,0 L15,0 L14,2 L3,2 L5,7 L1,7 Z " fill="#22130B" transform="translate(215,422)"/>
<path d="M0,0 L2,4 L6,5 L6,7 L9,7 L10,9 L10,16 L7,16 L8,8 L0,8 Z " fill="#A27134" transform="translate(112,103)"/>
<path d="M0,0 L18,0 L18,7 L16,7 L15,4 L8,2 L0,1 Z " fill="#D49D34" transform="translate(292,88)"/>
<path d="M0,0 L23,0 L22,2 L5,3 L0,1 Z " fill="#986736" transform="translate(144,88)"/>
<path d="M0,0 L1,0 L1,6 L-29,6 L-29,1 L-27,1 L-26,4 L0,5 Z " fill="#210702" transform="translate(173,81)"/>
<path d="M0,0 L7,1 L7,6 L0,8 Z " fill="#D0A02D" transform="translate(326,48)"/>
<path d="M0,0 L9,0 L9,7 L17,8 L18,10 L18,16 L16,17 L14,10 L8,9 L8,1 L0,1 Z " fill="#D6C494" transform="translate(143,23)"/>
<path d="M0,0 L7,1 L7,7 L0,7 Z " fill="#CB9E37" transform="translate(446,25)"/>
<path d="M0,0 L7,0 L7,5 L0,8 Z " fill="#7C4A17" transform="translate(398,326)"/>
<path d="M0,0 L2,1 L5,1 L5,9 L-2,9 Z " fill="#F3D887" transform="translate(297,262)"/>
<path d="M0,0 L2,0 L2,7 L-5,7 L-5,18 L-6,18 L-7,5 L-1,3 L0,5 Z " fill="#150905" transform="translate(307,231)"/>
<path d="M0,0 L4,1 L2,1 L2,12 L5,11 L7,7 L7,15 L0,15 Z " fill="#3F1D03" transform="translate(112,176)"/>
<path d="M0,0 L2,1 L-6,8 L-7,17 L-8,17 L-8,2 L-1,1 Z M-9,17 Z " fill="#DCA32A" transform="translate(104,142)"/>
<path d="M0,0 L1,0 L1,8 L7,8 L8,15 L0,14 L2,13 L0,9 Z " fill="#1B0E12" transform="translate(111,40)"/>
<path d="M0,0 L5,0 L6,7 L-1,7 Z " fill="#CFA337" transform="translate(320,41)"/>
<path d="M0,0 L5,0 L6,3 L5,7 L-1,7 L-1,1 Z " fill="#D5A430" transform="translate(455,32)"/>
<path d="M0,0 L1,0 L1,7 L-14,7 L-14,5 L-2,5 L-1,1 Z " fill="#AC854F" transform="translate(293,478)"/>
<path d="M0,0 L5,0 L5,7 L-1,7 L-1,1 Z " fill="#150405" transform="translate(248,382)"/>
<path d="M0,0 L7,0 L6,2 L3,3 L2,15 L0,16 Z " fill="#D79E2A" transform="translate(183,295)"/>
<path d="M0,0 L3,0 L3,33 L2,33 L2,3 L-1,3 Z " fill="#DDA533" transform="translate(456,81)"/>
<path d="M0,0 L6,0 L6,7 L0,7 Z " fill="#150506" transform="translate(374,375)"/>
<path d="M0,0 L3,0 L3,13 L0,14 Z " fill="#F1E0AB" transform="translate(295,344)"/>
<path d="M0,0 L3,3 L4,12 L5,15 L0,15 Z " fill="#D9A02C" transform="translate(310,303)"/>
<path d="M0,0 L1,0 L1,7 L8,8 L9,9 L9,15 L6,16 L6,9 L-1,9 Z " fill="#352E31" transform="translate(152,461)"/>
<path d="M0,0 L7,0 L3,4 L1,17 L0,17 Z " fill="#DCA12E" transform="translate(167,319)"/>
<path d="M0,0 L8,0 L7,2 L2,2 L1,24 L0,24 Z " fill="#D79F2E" transform="translate(191,271)"/>
<path d="M0,0 L1,0 L1,8 L-7,8 L-5,3 L-1,2 Z " fill="#F2D47E" transform="translate(357,247)"/>
<path d="M0,0 L7,0 L7,9 L1,9 L5,7 L6,2 L2,3 L1,7 L-1,7 L-1,1 Z " fill="#C5A44E" transform="translate(24,191)"/>
<path d="M0,0 L7,0 L4,3 L2,13 L0,13 Z " fill="#A27036" transform="translate(80,160)"/>
<path d="M0,0 L3,4 L3,15 L0,15 Z " fill="#D49E39" transform="translate(32,136)"/>
<path d="M0,0 L2,0 L2,10 L-2,12 L-1,1 Z " fill="#150A12" transform="translate(394,352)"/>
<path d="M0,0 L7,0 L7,1 L2,2 L2,13 L7,12 L7,15 L0,15 Z " fill="#B1770E" transform="translate(310,319)"/>
<path d="M0,0 L2,1 L2,13 L6,12 L6,15 L0,15 Z " fill="#341305" transform="translate(56,136)"/>
<path d="M0,0 L8,0 L8,15 L15,15 L15,16 L7,16 L7,5 L5,5 L5,1 L0,1 Z " fill="#C7933C" transform="translate(40,128)"/>
<path d="M0,0 L1,0 L1,11 L7,10 L7,15 L0,15 Z " fill="#1A0506" transform="translate(454,64)"/>
<path d="M0,0 L7,0 L7,7 L1,5 Z " fill="#D19E2E" transform="translate(319,56)"/>
<path d="M0,0 L6,0 L6,7 L0,6 Z " fill="#1D0C12" transform="translate(439,48)"/>
<path d="M0,0 L7,0 L7,8 L3,6 L2,4 L0,3 Z " fill="#ECDBB0" transform="translate(176,430)"/>
<path d="M0,0 L11,0 L12,3 L-1,3 Z " fill="#EFDFAA" transform="translate(249,418)"/>
<path d="M0,0 L5,0 L5,8 L4,6 L-1,6 L-1,1 Z " fill="#7A4511" transform="translate(82,342)"/>
<path d="M0,0 L6,0 L5,2 L3,2 L1,16 L0,16 Z " fill="#9C7234" transform="translate(191,255)"/>
<path d="M0,0 L13,0 L13,3 L0,3 Z " fill="#9A6616" transform="translate(414,176)"/>
<path d="M0,0 L2,0 L3,10 L5,14 L0,14 Z " fill="#A16811" transform="translate(382,145)"/>
<path d="M0,0 L1,0 L1,8 L-6,8 L-5,3 Z " fill="#A56D1D" transform="translate(31,64)"/>
<path d="M0,0 L8,0 L9,1 L9,8 L16,8 L16,9 L8,9 L7,3 L1,2 L1,7 L0,7 Z " fill="#C3AC6C" transform="translate(453,15)"/>
<path d="M0,0 L7,0 L3,4 L3,6 L7,6 L7,8 L0,8 Z " fill="#1B0505" transform="translate(358,398)"/>
<path d="M0,0 L6,0 L6,6 L0,6 Z " fill="#D5A943" transform="translate(272,368)"/>
<path d="M0,0 L8,0 L8,8 L4,7 L4,3 L0,2 Z " fill="#F0CE7F" transform="translate(310,350)"/>
<path d="M0,0 L6,0 L5,7 L0,7 Z " fill="#180805" transform="translate(287,343)"/>
<path d="M0,0 L8,0 L8,8 L4,7 L4,2 L0,1 Z " fill="#D7A329" transform="translate(111,247)"/>
<path d="M0,0 L2,0 L2,14 L5,15 L0,16 Z " fill="#170A03" transform="translate(175,238)"/>
<path d="M0,0 L23,0 L23,1 L3,1 L3,5 L0,6 Z " fill="#300F00" transform="translate(56,72)"/>
<path d="M0,0 L7,1 L9,3 L9,10 L8,12 L6,12 L5,4 L0,3 Z " fill="#39363A" transform="translate(184,490)"/>
<path d="M0,0 L6,0 L6,5 L5,6 L0,6 Z " fill="#D6A944" transform="translate(215,384)"/>
<path d="M0,0 L0,3 L-7,5 L-8,9 L-8,4 L-7,3 L-9,2 L-9,9 L-10,9 L-10,1 Z " fill="#D0BD92" transform="translate(296,357)"/>
<path d="M0,0 L2,1 L2,3 L5,4 L9,7 L8,8 L0,8 Z " fill="#D5A635" transform="translate(191,215)"/>
<path d="M0,0 L8,0 L5,3 L1,4 L1,9 L-7,9 L-7,8 L0,8 Z " fill="#321207" transform="translate(366,104)"/>
<path d="M0,0 L12,0 L13,6 L7,4 L6,2 L1,2 Z " fill="#A8712C" transform="translate(288,81)"/>
<path d="M0,0 L5,0 L6,1 L6,6 L0,6 Z " fill="#160406" transform="translate(128,65)"/>
<path d="M0,0 L1,0 L2,13 L8,14 L8,16 L1,16 L0,15 Z " fill="#5C3B24" transform="translate(87,350)"/>
<path d="M0,0 L1,0 L1,8 L3,9 L2,14 L7,14 L7,16 L1,16 L0,15 Z " fill="#654028" transform="translate(79,334)"/>
<path d="M0,0 L8,0 L8,8 L7,5 L4,6 L2,1 Z " fill="#814B13" transform="translate(72,326)"/>
<path d="M0,0 L1,0 L1,15 L-6,15 L-3,9 L-1,11 Z " fill="#D89E27" transform="translate(166,303)"/>
<path d="M0,0 L5,2 L4,19 L3,19 L3,3 L-5,3 L-1,1 Z " fill="#3B2C20" transform="translate(180,252)"/>
<path d="M0,0 L3,3 L4,5 L8,5 L8,8 L0,8 Z " fill="#D7A630" transform="translate(358,207)"/>
<path d="M0,0 L6,0 L6,7 L1,6 Z " fill="#D1A436" transform="translate(25,207)"/>
<path d="M0,0 L7,0 L7,5 L6,3 L3,4 L1,8 L0,8 Z " fill="#1E0704" transform="translate(334,422)"/>
<path d="M0,0 L1,0 L1,8 L-7,8 L-8,14 L-9,10 L-8,6 L0,6 Z M-10,8 Z " fill="#200B03" transform="translate(269,366)"/>
<path d="M0,0 L2,0 L3,2 L5,3 L6,4 L7,7 L-1,7 L-2,5 Z " fill="#DFCB94" transform="translate(295,216)"/>
<path d="M0,0 L4,0 L4,6 L-1,6 L-2,1 Z " fill="#D0A237" transform="translate(448,192)"/>
<path d="M0,0 L0,3 L-5,4 L-5,12 L-7,14 L-7,1 Z " fill="#1E0504" transform="translate(429,183)"/>
<path d="M0,0 L14,0 L14,1 L5,2 L2,6 L0,8 Z M2,5 Z " fill="#DAA22D" transform="translate(199,80)"/>
<path d="M0,0 L2,0 L3,7 L4,10 L2,10 L1,16 L0,16 Z " fill="#D09A29" transform="translate(437,72)"/>
<path d="M0,0 L4,0 L4,9 L1,11 Z " fill="#A8761E" transform="translate(162,438)"/>
<path d="M0,0 L5,5 L8,6 L8,8 L0,8 Z " fill="#A5712D" transform="translate(127,398)"/>
<path d="M0,0 L6,0 L2,3 L2,16 L1,21 L0,21 Z " fill="#AE7612" transform="translate(398,287)"/>
<path d="M0,0 L6,0 L2,1 L3,7 L2,14 L0,15 Z " fill="#EBD5A8" transform="translate(295,255)"/>
<path d="M0,0 L7,0 L8,1 L8,16 L7,16 L6,2 L0,2 Z " fill="#80562D" transform="translate(390,159)"/>
<path d="M0,0 L5,1 L5,3 L7,4 L-1,6 L-4,3 L-2,3 L-1,1 Z " fill="#1C0916" transform="translate(459,129)"/>
<path d="M0,0 L5,0 L2,4 L2,14 L0,15 Z " fill="#D8A02E" transform="translate(334,88)"/>
<path d="M0,0 L7,0 L7,7 L5,7 L5,5 L2,5 Z " fill="#956A37" transform="translate(120,64)"/>
<path d="M0,0 L7,0 L7,7 L4,6 L4,3 L1,4 Z " fill="#9A6933" transform="translate(96,48)"/>
<path d="M0,0 L1,0 L1,7 L-7,7 L-6,1 L-4,1 L-4,5 L-1,4 Z " fill="#D29E35" transform="translate(317,431)"/>
<path d="M0,0 L1,0 L1,8 L-7,8 L-7,5 L0,4 Z " fill="#EDCF84" transform="translate(325,414)"/>
<path d="M0,0 L8,0 L8,8 L0,8 L0,7 L7,7 L7,1 L2,3 L0,6 Z " fill="#40311F" transform="translate(167,414)"/>
<path d="M0,0 L8,1 L8,2 L2,2 L2,8 L-2,8 L-1,1 Z " fill="#665E5E" transform="translate(357,405)"/>
<path d="M0,0 L7,0 L6,2 L2,4 L2,12 L0,14 Z " fill="#AC7212" transform="translate(390,311)"/>
<path d="M0,0 L5,0 L5,8 L13,8 L13,9 L4,9 L2,4 Z " fill="#DCA32D" transform="translate(297,311)"/>
<path d="M0,0 L5,0 L5,6 L2,6 L-1,5 Z " fill="#10080C" transform="translate(424,223)"/>
<path d="M0,0 L8,0 L8,1 L1,1 L2,13 L3,16 L0,18 Z " fill="#3C1E0D" transform="translate(421,183)"/>
<path d="M0,0 L1,0 L3,6 L4,11 L6,12 L0,12 Z " fill="#A86C10" transform="translate(390,163)"/>
<path d="M0,0 L4,1 L3,2 L2,13 L0,15 Z " fill="#D19728" transform="translate(87,160)"/>
<path d="M0,0 L8,0 L8,9 L6,9 L5,3 L0,2 Z " fill="#CE972B" transform="translate(366,135)"/>
<path d="M0,0 L7,0 L7,7 L4,7 L4,3 L0,2 Z " fill="#A1723B" transform="translate(128,72)"/>
<path d="M0,0 L7,0 L7,7 L4,6 L0,2 Z " fill="#986533" transform="translate(112,56)"/>
<path d="M0,0 L5,0 L5,6 L0,6 Z " fill="#D5A93F" transform="translate(207,376)"/>
<path d="M0,0 L8,0 L7,3 L2,3 L1,8 L0,8 Z " fill="#F1CF79" transform="translate(159,350)"/>
<path d="M0,0 L18,0 L18,5 L16,5 L16,2 L0,1 Z " fill="#F8D67B" transform="translate(260,335)"/>
<path d="M0,0 L1,2 L4,2 L4,7 L8,8 L0,8 Z " fill="#F1CF7C" transform="translate(119,247)"/>
<path d="M0,0 L1,0 L1,13 L3,13 L3,17 L5,18 L0,18 Z " fill="#F8D787" transform="translate(112,228)"/>
<path d="M0,0 L2,4 L4,4 L4,6 L8,6 L8,8 L0,8 Z " fill="#D5A632" transform="translate(183,207)"/>
<path d="M0,0 L8,0 L8,8 L4,6 L6,6 L6,2 L1,3 Z " fill="#56300B" transform="translate(342,167)"/>
<path d="M0,0 L2,0 L3,6 L15,7 L15,8 L0,8 Z " fill="#CB9948" transform="translate(183,159)"/>
<path d="M0,0 L1,2 L-2,2 L-3,4 L-6,5 L-6,14 L-7,14 L-7,1 Z " fill="#200604" transform="translate(461,127)"/>
<path d="M0,0 L1,0 L1,6 L-7,6 L-5,5 L-3,1 Z " fill="#A86D19" transform="translate(365,58)"/>
<path d="M0,0 L8,0 L8,8 L15,8 L15,9 L7,9 L6,3 L0,1 Z " fill="#787175" transform="translate(112,47)"/>
<path d="M0,0 L1,0 L1,8 L-1,10 L-7,10 L-7,16 L-8,16 L-8,9 L-2,9 L-2,7 L-4,6 L0,6 Z " fill="#747173" transform="translate(342,429)"/>
<path d="M0,0 L7,1 L7,9 L4,8 L4,3 L1,2 L0,4 Z " fill="#230C06" transform="translate(128,413)"/>
<path d="M0,0 L8,0 L8,8 L5,7 L6,2 L0,2 Z " fill="#B89357" transform="translate(215,382)"/>
<path d="M0,0 L4,0 L5,7 L-1,7 L2,5 L0,4 Z " fill="#0D0406" transform="translate(89,367)"/>
<path d="M0,0 L3,0 L4,5 L9,6 L9,7 L1,7 Z " fill="#CBA857" transform="translate(22,208)"/>
<path d="M0,0 L2,3 L1,10 L-6,10 L-2,8 L-2,5 Z " fill="#1E1418" transform="translate(452,149)"/>
<path d="M0,0 L7,0 L7,2 L4,3 L2,7 L0,7 Z " fill="#A27136" transform="translate(374,48)"/>
<path d="M0,0 L6,0 L6,2 L3,5 L4,7 L0,7 Z " fill="#1D0403" transform="translate(342,414)"/>
<path d="M0,0 L8,0 L8,2 L2,2 L2,8 L0,8 Z " fill="#B29356" transform="translate(254,382)"/>
<path d="M0,0 L7,0 L7,9 L5,10 L5,2 L0,1 Z " fill="#230902" transform="translate(72,334)"/>
<path d="M0,0 L5,0 L5,5 L0,6 Z " fill="#D4A439" transform="translate(455,200)"/>
<path d="M0,0 L7,0 L7,16 L6,16 L5,2 L0,1 Z " fill="#1E0602" transform="translate(48,184)"/>
<path d="M0,0 L2,1 L4,5 L7,6 L7,8 L0,8 Z " fill="#996D37" transform="translate(40,167)"/>
<path d="M0,0 L2,0 L2,8 L-4,8 L-3,6 L-1,6 L-2,2 L0,2 Z " fill="#A2723A" transform="translate(443,151)"/>
<path d="M0,0 L10,0 L11,1 L11,6 L9,6 L8,9 L8,1 L0,1 Z " fill="#7F5329" transform="translate(421,79)"/>
<path d="M0,0 L1,0 L1,6 L-7,6 L-6,4 L-4,4 L-4,2 Z " fill="#A96F18" transform="translate(39,58)"/>
<path d="M0,0 L5,1 L4,6 L0,7 Z " fill="#AB7E2F" transform="translate(302,462)"/>
<path d="M0,0 L8,0 L8,9 L7,7 L5,6 L5,1 L0,1 Z " fill="#2C0F08" transform="translate(143,429)"/>
<path d="M0,0 L1,2 L3,2 L4,8 L-1,7 L-1,1 Z " fill="#B67A21" transform="translate(155,428)"/>
<path d="M0,0 L8,0 L8,2 L3,3 L1,7 L0,7 Z " fill="#A07627" transform="translate(318,422)"/>
<path d="M0,0 L1,0 L1,6 L-8,7 L-8,4 L-2,3 L0,3 Z " fill="#F6DE9D" transform="translate(332,407)"/>
<path d="M0,0 L7,0 L7,1 L1,1 L0,8 L-1,6 L-6,7 L-5,3 L-4,5 L-1,3 Z " fill="#5E575A" transform="translate(366,398)"/>
<path d="M0,0 L3,2 L3,5 L8,5 L8,7 L1,7 L0,6 Z " fill="#613E27" transform="translate(119,399)"/>
<path d="M0,0 L7,0 L7,6 L2,4 L2,1 Z " fill="#77460D" transform="translate(104,374)"/>
<path d="M0,0 L1,0 L1,5 L8,5 L8,8 L0,8 Z " fill="#21130B" transform="translate(342,231)"/>
<path d="M0,0 L1,0 L1,8 L-7,8 L-4,6 L-2,6 L-1,1 Z " fill="#D5A532" transform="translate(118,207)"/>
<path d="M0,0 L5,0 L5,6 L1,5 Z " fill="#D4A42F" transform="translate(439,200)"/>
<path d="M0,0 L6,0 L6,13 L5,13 L5,3 L0,2 Z " fill="#150202" transform="translate(33,160)"/>
<path d="M0,0 L3,0 L3,2 L5,2 L5,5 L-2,5 L-2,2 L0,2 Z " fill="#9B6A33" transform="translate(432,83)"/>
<path d="M0,0 L1,0 L1,6 L-7,6 L-7,4 L-1,1 Z " fill="#B27818" transform="translate(357,66)"/>
<path d="M0,0 L1,0 L1,8 L-4,6 L-3,2 Z " fill="#CE9F29" transform="translate(317,48)"/>
<path d="M0,0 L3,0 L3,5 L-4,5 L-3,2 Z " fill="#170402" transform="translate(44,42)"/>
<path d="M0,0 L5,0 L5,6 L1,6 Z " fill="#AC7929" transform="translate(169,462)"/>
<path d="M0,0 L4,0 L3,5 L-1,6 L-1,1 Z " fill="#DFA62D" transform="translate(161,431)"/>
<path d="M0,0 L1,4 L9,3 L8,6 L-1,6 Z " fill="#DB9F28" transform="translate(326,352)"/>
<path d="M0,0 L7,0 L7,2 L2,3 L1,7 L0,7 Z " fill="#DDA02D" transform="translate(175,311)"/>
<path d="M0,0 L11,0 L11,8 L10,5 L8,5 L8,1 L0,1 Z " fill="#D4AA3D" transform="translate(164,263)"/>
<path d="M0,0 L8,0 L6,2 L2,2 L2,8 L0,8 Z " fill="#322316" transform="translate(294,223)"/>
<path d="M0,0 L2,4 L5,7 L4,8 L-1,8 L-1,1 Z " fill="#311004" transform="translate(383,135)"/>
<path d="M0,0 L4,1 L6,6 L0,6 Z " fill="#9A6112" transform="translate(374,137)"/>
<path d="M0,0 L1,4 L2,6 L-5,6 L-5,11 L-6,11 L-6,4 L0,3 Z " fill="#D39B2A" transform="translate(458,114)"/>
<path d="M0,0 L7,0 L7,2 L2,2 L2,8 L0,8 Z " fill="#9B703D" transform="translate(40,48)"/>
<path d="M0,0 L3,0 L3,2 L7,3 L-1,3 L-3,7 L-4,3 L-2,3 L-2,1 Z " fill="#E1D1A4" transform="translate(303,411)"/>
<path d="M0,0 L3,4 L4,6 L3,9 L5,10 L0,10 Z " fill="#A77634" transform="translate(112,380)"/>
<path d="M0,0 L5,0 L5,5 L0,5 Z " fill="#100207" transform="translate(225,383)"/>
<path d="M0,0 L1,0 L1,6 L-6,6 L-6,4 L-4,2 L0,2 Z " fill="#704529" transform="translate(372,376)"/>
<path d="M0,0 L2,1 L0,5 L-3,6 L-3,4 L-8,3 L-8,2 L0,2 Z " fill="#AF7919" transform="translate(350,372)"/>
<path d="M0,0 L2,0 L3,7 L10,8 L10,9 L2,9 L0,7 L-1,1 Z " fill="#F0DEAB" transform="translate(188,359)"/>
<path d="M0,0 L7,0 L7,3 L5,3 L5,5 L1,4 Z " fill="#EFD188" transform="translate(191,342)"/>
<path d="M0,0 L1,0 L2,9 L3,15 L0,15 Z " fill="#A67636" transform="translate(80,327)"/>
<path d="M0,0 L1,0 L1,7 L-6,7 Z " fill="#5F3A22" transform="translate(420,192)"/>
<path d="M0,0 L2,0 L2,5 L-4,5 L-3,1 Z " fill="#A76D15" transform="translate(419,154)"/>
<path d="M0,0 L4,0 L4,14 L3,14 L1,2 Z " fill="#DCA63C" transform="translate(51,144)"/>
<path d="M0,0 L2,1 L2,6 L8,7 L8,8 L0,8 Z " fill="#A27541" transform="translate(24,135)"/>
<path d="M0,0 L5,0 L5,5 L0,5 Z " fill="#1B0603" transform="translate(26,58)"/>
<path d="M0,0 L5,0 L5,5 L0,5 Z " fill="#150506" transform="translate(34,50)"/>
<path d="M0,0 L1,2 L10,3 L9,11 L8,11 L7,5 L0,4 Z " fill="#F7D88B" transform="translate(160,425)"/>
<path d="M0,0 L2,0 L2,7 L0,5 L-1,6 L-6,6 L-2,5 L-2,1 Z " fill="#6E4620" transform="translate(348,406)"/>
<path d="M0,0 L6,0 L5,5 L2,5 L0,5 Z " fill="#7B4413" transform="translate(390,342)"/>
<path d="M0,0 L7,0 L2,4 L-1,8 L-1,1 Z " fill="#D4A435" transform="translate(359,247)"/>
<path d="M0,0 L8,0 L8,8 L6,4 L6,2 L3,3 Z " fill="#F5D070" transform="translate(350,207)"/>
<path d="M0,0 L4,0 L4,5 L-1,5 Z " fill="#D8A531" transform="translate(26,193)"/>
<path d="M0,0 L1,0 L1,14 L-5,14 L-4,12 L-1,11 Z " fill="#371504" transform="translate(86,145)"/>
<path d="M0,0 L3,2 L3,5 L5,6 L-2,6 Z " fill="#0D0409" transform="translate(456,137)"/>
<path d="M0,0 L2,0 L2,3 L6,4 L7,6 L0,6 Z " fill="#AA7014" transform="translate(135,82)"/>
<path d="M0,0 L1,0 L1,5 L-7,5 L-7,3 L-3,1 L-3,3 Z " fill="#EEDCAB" transform="translate(301,416)"/>
<path d="M0,0 L2,3 L2,5 L6,6 L8,8 L0,7 Z " fill="#67472C" transform="translate(127,406)"/>
<path d="M0,0 L2,0 L2,6 L-3,6 L-2,1 Z " fill="#11060B" transform="translate(354,408)"/>
<path d="M0,0 L6,0 L4,4 L1,4 L0,7 Z " fill="#7B450C" transform="translate(350,398)"/>
<path d="M0,0 L2,0 L2,7 L1,8 L-6,8 L-6,7 L0,7 L0,5 L-2,4 L0,4 Z " fill="#3E3739" transform="translate(380,375)"/>
<path d="M0,0 L8,0 L8,6 L7,3 L2,3 L2,1 Z " fill="#AF7811" transform="translate(95,342)"/>
<path d="M0,0 L7,0 L3,2 L1,9 L0,9 Z " fill="#AC730D" transform="translate(382,327)"/>
<path d="M0,0 L1,0 L1,14 L-3,14 L-1,10 Z " fill="#F2D991" transform="translate(196,240)"/>
<path d="M0,0 L1,0 L1,8 L-7,8 L-4,6 L-1,6 Z " fill="#2A1B0E" transform="translate(134,231)"/>
<path d="M0,0 L2,0 L2,7 L-6,7 L-2,5 Z " fill="#EAD8A3" transform="translate(125,215)"/>
<path d="M0,0 L1,0 L1,8 L-8,8 L-7,6 L-2,6 Z " fill="#986A3A" transform="translate(365,103)"/>
<path d="M0,0 L7,0 L7,2 L2,2 L1,7 L0,7 Z " fill="#A07237" transform="translate(342,72)"/>
<path d="M0,0 L4,1 L2,6 L7,6 L7,7 L1,7 L0,6 Z " fill="#6A6666" transform="translate(182,487)"/>
<path d="M0,0 L5,0 L5,5 L0,4 Z " fill="#140809" transform="translate(304,416)"/>
<path d="M0,0 L2,0 L2,6 L6,7 L6,8 L1,8 L0,7 Z " fill="#623C28" transform="translate(95,366)"/>
<path d="M0,0 L5,0 L5,4 L0,5 Z " fill="#774308" transform="translate(382,358)"/>
<path d="M0,0 L7,0 L5,2 L2,3 L1,11 L0,11 Z " fill="#DCA832" transform="translate(295,271)"/>
<path d="M0,0 L2,0 L2,9 L-3,9 L-1,7 Z " fill="#D4A243" transform="translate(435,158)"/>
<path d="M0,0 L2,0 L3,5 L-4,5 L-3,3 L0,2 Z " fill="#0D0407" transform="translate(20,138)"/>
<path d="M0,0 L2,0 L2,5 L-3,5 L-3,1 Z " fill="#9D6511" transform="translate(109,130)"/>
<path d="M0,0 L2,0 L2,7 L-4,7 L-4,5 L0,5 Z " fill="#A1713F" transform="translate(459,120)"/>
<path d="M0,0 L8,0 L7,2 L2,2 L1,7 L0,7 Z " fill="#916634" transform="translate(111,120)"/>
<path d="M0,0 L8,0 L8,1 L1,1 L3,5 L6,7 L0,7 Z " fill="#A56C0E" transform="translate(342,104)"/>
<path d="M0,0 L2,0 L2,6 L-5,6 L-4,2 L-4,5 L-1,5 Z " fill="#A56B0E" transform="translate(149,97)"/>
<path d="M0,0 L6,0 L6,8 L4,8 L4,2 Z " fill="#331405" transform="translate(89,88)"/>
<path d="M0,0 L7,0 L3,4 L0,7 Z " fill="#D9A035" transform="translate(32,64)"/>
<path d="M0,0 L2,0 L2,5 L-5,5 L-3,4 L-3,2 Z " fill="#D79C2B" transform="translate(53,59)"/>
<path d="M0,0 L2,0 L2,5 L4,5 L5,3 L5,5 L7,5 L7,7 L2,7 L0,4 Z " fill="#CA9F3A" transform="translate(143,40)"/>
<path d="M0,0 L2,0 L2,2 L5,2 L7,0 L7,4 L-1,4 Z " fill="#170F19" transform="translate(286,488)"/>
<path d="M0,0 L4,0 L5,4 L-1,4 Z " fill="#0E0506" transform="translate(176,424)"/>
<path d="M0,0 L2,1 L3,6 L5,7 L0,8 Z " fill="#F0E0B1" transform="translate(175,413)"/>
<path d="M0,0 L1,0 L2,5 L7,6 L7,8 L0,8 Z " fill="#281001" transform="translate(215,374)"/>
<path d="M0,0 L2,0 L1,5 L-4,5 L-4,2 Z " fill="#0E0507" transform="translate(68,329)"/>
<path d="M0,0 L2,4 L4,4 L4,6 L7,7 L0,7 Z " fill="#76492E" transform="translate(56,287)"/>
<path d="M0,0 L2,1 L2,8 L-1,8 L-2,3 Z " fill="#22140F" transform="translate(125,238)"/>
<path d="M0,0 L1,4 L6,4 L6,6 L-1,6 L-1,1 Z " fill="#AA7013" transform="translate(399,185)"/>
<path d="M0,0 L7,0 L6,3 L2,4 L0,3 Z " fill="#986519" transform="translate(49,176)"/>
<path d="M0,0 L1,0 L1,8 L-6,8 L-5,6 L0,5 Z " fill="#9F7144" transform="translate(452,135)"/>
<path d="M0,0 L1,0 L1,5 L-4,5 L-4,1 Z " fill="#AA6C12" transform="translate(428,138)"/>
<path d="M0,0 L1,0 L1,6 L-6,6 L-6,4 L-1,4 Z " fill="#DCA32A" transform="translate(348,97)"/>
<path d="M0,0 L9,0 L9,2 L4,3 L0,2 Z " fill="#CB963D" transform="translate(167,88)"/>
<path d="M0,0 L1,0 L1,7 L-7,7 L-6,5 L-1,4 Z " fill="#DCA42B" transform="translate(364,80)"/>
<path d="M0,0 L1,3 L5,4 L5,7 L0,7 Z " fill="#A27137" transform="translate(80,72)"/>
<path d="M0,0 L4,4 L4,6 L8,7 L0,7 Z " fill="#DEA52E" transform="translate(96,64)"/>
<path d="M0,0 L7,0 L7,1 L1,1 L2,7 L-1,7 L-1,1 Z " fill="#C0A260" transform="translate(310,48)"/>
<path d="M0,0 L8,0 L6,6 L3,7 L3,4 L6,4 L6,1 L0,1 Z " fill="#78471E" transform="translate(302,469)"/>
<path d="M0,0 L7,0 L6,4 L1,1 L1,7 L0,7 Z " fill="#C99B3D" transform="translate(183,470)"/>
<path d="M0,0 L1,0 L1,7 L-5,7 L-2,4 Z " fill="#704D2F" transform="translate(333,422)"/>
<path d="M0,0 L2,2 L2,5 L7,6 L7,7 L0,7 Z " fill="#6E492D" transform="translate(143,422)"/>
<path d="M0,0 L8,0 L9,5 L7,3 L0,2 Z " fill="#82582E" transform="translate(136,419)"/>
<path d="M0,0 L7,1 L7,2 L2,2 L2,8 L-1,4 Z " fill="#807B79" transform="translate(349,413)"/>
<path d="M0,0 L5,0 L5,2 L2,2 L2,4 L5,3 L5,5 L-1,5 Z " fill="#0E0407" transform="translate(113,401)"/>
<path d="M0,0 L5,1 L6,4 L-2,4 L0,3 Z " fill="#1E0C05" transform="translate(209,370)"/>
<path d="M0,0 L1,0 L1,7 L-6,7 L-3,4 L0,4 Z " fill="#714326" transform="translate(380,367)"/>
<path d="M0,0 L8,0 L4,2 L2,3 L1,9 L0,9 Z " fill="#915907" transform="translate(135,366)"/>
<path d="M0,0 L2,1 L4,8 L0,8 Z " fill="#D49D2C" transform="translate(103,342)"/>
<path d="M0,0 L7,0 L5,4 L2,4 Z " fill="#F0CF7E" transform="translate(279,342)"/>
<path d="M0,0 L1,0 L1,8 L-4,8 L-4,6 L-1,4 Z " fill="#DCA32D" transform="translate(173,294)"/>
<path d="M0,0 L7,0 L7,10 L6,10 L5,3 L0,1 Z " fill="#28190C" transform="translate(183,231)"/>
<path d="M0,0 L5,0 L5,4 L0,4 Z " fill="#D8A52C" transform="translate(33,201)"/>
<path d="M0,0 L4,1 L0,3 L-2,8 L-3,8 L-3,1 Z " fill="#D9A330" transform="translate(123,185)"/>
<path d="M0,0 L7,0 L7,8 L5,5 L4,1 Z " fill="#9B7444" transform="translate(136,80)"/>
<path d="M0,0 L3,0 L2,7 L0,8 Z " fill="#D09E48" transform="translate(24,72)"/>
<path d="M0,0 L1,0 L1,6 L-5,5 L-4,2 Z " fill="#D2A127" transform="translate(142,33)"/>
<path d="M0,0 L4,0 L4,5 L0,5 Z " fill="#D8A62A" transform="translate(454,19)"/>
<path d="M0,0 L3,1 L4,6 L1,6 L0,8 Z " fill="#9B713B" transform="translate(183,477)"/>
<path d="M0,0 L5,0 L5,2 L7,3 L-1,3 Z " fill="#A27335" transform="translate(295,474)"/>
<path d="M0,0 L3,0 L4,4 L2,6 L-1,4 Z M-2,4 Z M-3,5 Z " fill="#AD7622" transform="translate(321,424)"/>
<path d="M0,0 L3,1 L3,7 L0,7 Z " fill="#F2E3B3" transform="translate(263,422)"/>
<path d="M0,0 L1,0 L1,6 L-6,6 L-6,4 L-1,3 Z " fill="#805731" transform="translate(340,415)"/>
<path d="M0,0 L3,1 L3,3 L5,5 L-1,6 Z " fill="#10070D" transform="translate(97,376)"/>
<path d="M0,0 L4,1 L4,4 L6,4 L6,6 L0,4 Z " fill="#78451F" transform="translate(97,368)"/>
<path d="M0,0 L2,1 L3,5 L7,7 L0,7 Z " fill="#A87A2B" transform="translate(318,351)"/>
<path d="M0,0 L2,0 L2,3 L-7,3 L-6,1 Z " fill="#DEA52F" transform="translate(371,347)"/>
<path d="M0,0 L8,0 L8,1 L3,2 L1,8 L0,8 Z " fill="#B57C13" transform="translate(374,342)"/>
<path d="M0,0 L2,3 L2,5 L6,5 L6,7 L0,7 Z " fill="#DEA32C" transform="translate(303,295)"/>
<path d="M0,0 L6,0 L1,5 L0,5 Z " fill="#7C4410" transform="translate(414,287)"/>
<path d="M0,0 L2,1 L2,6 L4,6 L4,8 L0,8 Z " fill="#ECDCB0" transform="translate(350,214)"/>
<path d="M0,0 L1,0 L1,5 L-2,4 L-2,6 L-4,5 L-3,1 Z " fill="#A46816" transform="translate(412,169)"/>
<path d="M0,0 L4,0 L6,5 L0,4 Z " fill="#A8721F" transform="translate(26,137)"/>
<path d="M0,0 L4,0 L4,4 L6,4 L6,10 L4,6 Z " fill="#DAA432" transform="translate(41,129)"/>
<path d="M0,0 L3,0 L3,7 L1,7 Z " fill="#D99E2D" transform="translate(347,112)"/>
<path d="M0,0 L7,0 L5,2 L2,3 L1,8 L0,8 Z " fill="#A56B0E" transform="translate(350,96)"/>
<path d="M0,0 Z M-8,1 L0,1 L0,2 L-6,4 L-7,9 L-8,9 Z " fill="#DCA531" transform="translate(350,79)"/>
<path d="M0,0 L3,1 L3,7 L0,7 Z " fill="#260B00" transform="translate(135,72)"/>
<path d="M0,0 L5,2 L6,5 L0,5 Z " fill="#AB6F10" transform="translate(445,67)"/>
<path d="M0,0 L6,0 L6,7 L4,5 L4,3 L0,2 Z " fill="#D99E30" transform="translate(113,64)"/>
<path d="M0,0 L1,3 L6,3 L7,1 L8,4 L7,5 L1,5 Z " fill="#D1B67F" transform="translate(318,60)"/>
<path d="M0,0 L1,0 L1,7 L-5,6 L-2,5 L-1,1 Z " fill="#9F7841" transform="translate(293,478)"/>
<path d="M0,0 L7,0 L6,3 L0,4 Z " fill="#F3D27C" transform="translate(255,390)"/>
<path d="M0,0 L6,0 L6,5 L3,4 Z " fill="#80490D" transform="translate(113,390)"/>
<path d="M0,0 L4,2 L3,4 L2,13 L1,13 Z " fill="#1B111A" transform="translate(63,318)"/>
<path d="M0,0 L1,0 L1,6 L-7,6 L-4,4 L-1,3 Z " fill="#302116" transform="translate(301,249)"/>
<path d="M0,0 L2,2 L2,6 L5,7 L0,8 Z " fill="#EDDDB2" transform="translate(175,214)"/>
<path d="M0,0 L5,1 L5,4 L0,4 Z " fill="#AB7311" transform="translate(430,167)"/>
<path d="M0,0 L3,0 L4,5 L0,5 Z " fill="#A36912" transform="translate(56,154)"/>
<path d="M0,0 L2,0 L2,3 L-9,3 L-10,1 Z " fill="#0E0109" transform="translate(298,74)"/>
<path d="M0,0 L3,1 L4,5 L-1,5 Z " fill="#D29E22" transform="translate(321,43)"/>
<path d="M0,0 L2,4 L-4,4 L-3,1 Z " fill="#AF7D3D" transform="translate(323,433)"/>
<path d="M0,0 L6,1 L6,4 L-1,4 Z " fill="#673E1C" transform="translate(113,394)"/>
<path d="M0,0 L2,2 L3,8 L0,8 Z " fill="#A27138" transform="translate(88,350)"/>
<path d="M0,0 L8,0 L8,5 L6,4 L6,2 L0,1 Z " fill="#D69D2F" transform="translate(278,271)"/>
<path d="M0,0 L8,0 L8,7 L6,3 L0,1 Z " fill="#D2A73F" transform="translate(111,247)"/>
<path d="M0,0 L1,3 L6,5 L6,6 L-1,6 Z " fill="#E7D8A6" transform="translate(184,224)"/>
<path d="M0,0 L4,0 L4,4 L0,5 Z " fill="#D4A22E" transform="translate(447,209)"/>
<path d="M0,0 L4,4 L4,7 L0,7 Z " fill="#623C26" transform="translate(56,192)"/>
<path d="M0,0 L1,4 L-6,4 L-5,2 Z " fill="#9C6310" transform="translate(102,139)"/>
<path d="M0,0 L4,1 L2,6 L0,7 Z " fill="#D99E2C" transform="translate(167,90)"/>
<path d="M0,0 L6,0 L1,6 L0,6 Z " fill="#D99F33" transform="translate(358,64)"/>
<path d="M0,0 L7,0 L7,6 L5,3 L0,1 Z " fill="#916A40" transform="translate(438,56)"/>
<path d="M0,0 L5,0 L4,4 L0,3 Z " fill="#DDA222" transform="translate(448,26)"/>
</svg>
