<?xml version="1.0" encoding="UTF-8"?>
<svg version="1.1" xmlns="http://www.w3.org/2000/svg" width="479" height="521">
<path d="M0,0 L57,0 L57,8 L65,8 L65,16 L73,16 L73,24 L81,24 L81,32 L89,32 L89,40 L105,40 L105,48 L127,48 L127,40 L143,40 L143,32 L240,32 L240,40 L256,40 L256,48 L278,48 L278,40 L286,40 L286,33 L287,32 L302,32 L302,24 L310,24 L310,16 L318,16 L318,9 L319,8 L326,8 L326,0 L383,0 L383,8 L390,8 L391,9 L391,16 L399,16 L399,24 L406,24 L407,25 L407,32 L415,32 L415,48 L423,48 L423,104 L422,105 L415,105 L415,113 L407,113 L407,129 L399,129 L399,145 L391,145 L391,160 L390,161 L383,161 L383,176 L382,177 L375,177 L375,191 L382,191 L383,192 L383,264 L381,265 L375,265 L375,288 L367,288 L367,304 L359,304 L359,320 L351,320 L351,336 L343,336 L343,343 L342,344 L336,344 L336,350 L334,352 L327,352 L327,368 L319,368 L319,375 L318,376 L312,376 L312,382 L311,383 L304,383 L304,390 L303,391 L296,391 L296,406 L295,407 L288,407 L288,414 L287,415 L280,415 L280,438 L279,439 L272,439 L272,446 L271,447 L264,447 L264,454 L263,455 L248,455 L248,462 L247,463 L240,463 L240,470 L239,471 L144,471 L143,470 L143,463 L136,463 L135,462 L135,455 L120,455 L119,454 L119,447 L112,447 L111,446 L111,439 L104,439 L103,438 L103,415 L96,415 L95,414 L95,407 L87,407 L87,391 L80,391 L79,390 L79,384 L73,384 L72,383 L72,376 L64,376 L64,368 L57,368 L56,367 L56,352 L49,352 L48,351 L48,344 L41,344 L40,343 L40,336 L33,336 L32,335 L32,320 L24,320 L24,304 L16,304 L16,288 L8,288 L8,265 L1,265 L0,264 L0,192 L1,191 L8,191 L8,177 L1,177 L0,176 L0,161 L-8,161 L-8,145 L-15,145 L-16,144 L-16,129 L-24,129 L-24,113 L-32,113 L-32,105 L-39,105 L-40,104 L-40,49 L-34,47 L-32,47 L-32,32 L-24,32 L-24,24 L-16,24 L-16,16 L-8,16 L-8,9 L-7,8 L0,8 Z " fill="#DFA41E" transform="translate(47,31)"/>
<path d="M0,0 L8,0 L8,7 L16,7 L16,15 L23,15 L24,16 L24,23 L32,23 L32,39 L40,39 L40,95 L39,96 L32,96 L32,104 L24,104 L24,120 L16,120 L16,136 L8,136 L8,151 L7,152 L0,152 L0,167 L-1,168 L-8,168 L-8,182 L-1,182 L0,183 L0,255 L-2,256 L-8,256 L-8,279 L-16,279 L-16,295 L-24,295 L-24,311 L-32,311 L-32,327 L-40,327 L-40,334 L-41,335 L-47,335 L-47,341 L-49,343 L-56,343 L-56,359 L-64,359 L-64,366 L-65,367 L-71,367 L-71,373 L-72,374 L-79,374 L-79,381 L-80,382 L-87,382 L-87,397 L-88,398 L-95,398 L-95,405 L-96,406 L-103,406 L-103,429 L-104,430 L-111,430 L-111,437 L-112,438 L-119,438 L-119,445 L-120,446 L-135,446 L-135,453 L-136,454 L-143,454 L-143,461 L-144,462 L-239,462 L-240,461 L-240,454 L-247,454 L-248,453 L-248,446 L-263,446 L-264,445 L-264,438 L-271,438 L-272,437 L-272,430 L-279,430 L-280,429 L-280,406 L-287,406 L-288,405 L-288,398 L-296,398 L-296,382 L-303,382 L-304,381 L-304,375 L-310,375 L-311,374 L-311,367 L-319,367 L-319,359 L-326,359 L-327,358 L-327,343 L-334,343 L-335,342 L-335,335 L-342,335 L-343,334 L-343,327 L-350,327 L-351,326 L-351,311 L-359,311 L-359,295 L-367,295 L-367,279 L-375,279 L-375,256 L-382,256 L-383,255 L-383,183 L-382,182 L-375,182 L-375,168 L-382,168 L-383,167 L-383,152 L-391,152 L-391,136 L-398,136 L-399,135 L-399,120 L-407,120 L-407,104 L-415,104 L-415,96 L-422,96 L-423,95 L-423,40 L-415,40 L-414,48 L-414,87 L-406,87 L-406,103 L-398,103 L-398,119 L-390,119 L-390,135 L-367,135 L-367,120 L-375,120 L-375,104 L-383,104 L-383,88 L-391,88 L-391,48 L-382,48 L-382,40 L-374,40 L-374,32 L-351,32 L-351,40 L-343,40 L-343,48 L-335,48 L-335,56 L-327,56 L-327,63 L-319,63 L-319,72 L-311,72 L-311,80 L-319,80 L-319,88 L-327,88 L-327,95 L-335,95 L-335,103 L-342,104 L-343,119 L-350,120 L-351,151 L-358,152 L-358,246 L-351,247 L-351,271 L-343,271 L-343,287 L-335,287 L-335,303 L-327,303 L-327,310 L-319,310 L-319,318 L-311,318 L-311,326 L-303,326 L-303,334 L-295,334 L-295,326 L-287,326 L-287,374 L-279,374 L-279,382 L-271,382 L-271,390 L-263,390 L-263,421 L-255,421 L-255,429 L-239,429 L-239,437 L-223,437 L-223,445 L-160,445 L-160,437 L-144,437 L-144,429 L-128,429 L-128,421 L-120,421 L-120,390 L-112,390 L-112,382 L-104,382 L-104,374 L-96,374 L-96,326 L-88,326 L-88,366 L-80,366 L-80,358 L-72,358 L-72,350 L-65,350 L-64,334 L-56,334 L-56,326 L-48,326 L-49,324 L-49,318 L-41,318 L-41,302 L-33,302 L-33,286 L-25,286 L-25,270 L-24,266 L-28,267 L-31,268 L-32,260 L-32,247 L-24,247 L-24,151 L-32,151 L-33,136 L-41,135 L-41,120 L-48,120 L-48,95 L-56,95 L-56,87 L-64,87 L-64,80 L-72,80 L-72,72 L-64,72 L-64,64 L-56,64 L-56,56 L-48,56 L-48,48 L-40,48 L-40,40 L-33,39 L-32,32 L-9,32 L-9,40 L-1,40 L-1,48 L7,48 L7,87 L-1,87 L-1,95 L-9,95 L-9,119 L-16,119 L-16,135 L7,135 L7,119 L15,119 L15,103 L23,103 L23,87 L31,87 L31,40 L23,40 L23,32 L15,32 L15,16 L7,16 L7,8 L0,8 Z " fill="#A87321" transform="translate(430,40)"/>
<path d="M0,0 L15,0 L16,1 L16,16 L24,16 L24,24 L40,24 L40,32 L48,32 L48,40 L55,40 L55,48 L64,48 L64,80 L48,80 L48,88 L8,88 L8,96 L135,96 L135,88 L95,88 L95,80 L79,80 L79,48 L88,48 L88,40 L95,40 L95,32 L103,32 L103,24 L119,24 L119,16 L127,16 L127,0 L143,0 L143,8 L151,8 L151,16 L159,16 L159,24 L167,24 L167,72 L159,72 L159,80 L151,80 L151,88 L143,88 L143,119 L135,119 L135,127 L119,127 L119,135 L103,135 L103,143 L40,143 L40,135 L24,135 L24,127 L8,127 L8,119 L0,119 L0,88 L-8,88 L-8,80 L-16,80 L-16,72 L-24,72 L-24,24 L-16,24 L-16,16 L-8,16 L-8,8 L0,8 Z " fill="#F1DC9C" transform="translate(167,342)"/>
<path d="M0,0 L8,0 L8,7 L16,7 L16,15 L23,15 L24,16 L24,23 L32,23 L32,39 L40,39 L40,95 L39,96 L32,96 L32,104 L24,104 L24,120 L16,120 L16,136 L8,136 L8,151 L7,152 L0,152 L0,167 L-1,168 L-8,168 L-8,182 L-1,182 L0,183 L0,255 L-2,256 L-8,256 L-8,279 L-16,279 L-16,295 L-24,295 L-24,311 L-32,311 L-32,327 L-40,327 L-40,334 L-41,335 L-47,335 L-47,341 L-49,343 L-56,343 L-56,359 L-64,359 L-64,366 L-65,367 L-71,367 L-71,373 L-72,374 L-79,374 L-79,381 L-80,382 L-87,382 L-87,397 L-88,398 L-95,398 L-95,405 L-96,406 L-103,406 L-103,429 L-104,430 L-111,430 L-111,437 L-112,438 L-119,438 L-119,445 L-136,445 L-136,437 L-120,437 L-120,390 L-112,390 L-112,382 L-104,382 L-104,374 L-96,374 L-96,326 L-88,326 L-88,366 L-80,366 L-80,358 L-72,358 L-72,350 L-65,350 L-64,334 L-56,334 L-56,326 L-48,326 L-49,324 L-49,318 L-41,318 L-41,302 L-33,302 L-33,286 L-25,286 L-25,270 L-24,266 L-28,267 L-31,268 L-32,260 L-32,247 L-24,247 L-24,151 L-32,151 L-33,136 L-41,135 L-41,120 L-48,120 L-48,95 L-56,95 L-56,87 L-64,87 L-64,80 L-72,80 L-72,72 L-64,72 L-64,64 L-56,64 L-56,56 L-48,56 L-48,48 L-40,48 L-40,40 L-33,39 L-32,32 L-9,32 L-9,40 L-1,40 L-1,48 L7,48 L7,87 L-1,87 L-1,95 L-9,95 L-9,119 L-16,119 L-16,135 L7,135 L7,119 L15,119 L15,103 L23,103 L23,87 L31,87 L31,40 L23,40 L23,32 L15,32 L15,16 L7,16 L7,8 L0,8 Z " fill="#A26C1D" transform="translate(430,40)"/>
<path d="M0,0 L57,0 L57,8 L65,8 L65,16 L73,16 L73,24 L81,24 L81,32 L89,32 L89,40 L105,40 L105,48 L127,48 L127,40 L143,40 L143,32 L240,32 L240,40 L256,40 L256,48 L278,48 L278,40 L286,40 L286,33 L287,32 L302,32 L302,24 L310,24 L310,16 L318,16 L318,9 L319,8 L327,8 L327,1 L382,1 L382,9 L335,9 L335,17 L327,17 L327,25 L311,25 L311,33 L303,33 L303,41 L295,41 L295,49 L287,49 L287,73 L279,73 L278,65 L263,64 L263,57 L231,57 L231,49 L152,49 L152,57 L96,57 L96,49 L88,49 L88,41 L80,41 L80,33 L72,33 L72,25 L56,25 L56,17 L48,17 L48,9 L1,9 L1,17 L-7,17 L-7,25 L-15,25 L-15,33 L-23,33 L-23,48 L-31,48 L-31,32 L-24,32 L-24,24 L-16,24 L-16,16 L-8,16 L-8,9 L-7,8 L0,8 Z " fill="#291B1E" transform="translate(47,31)"/>
<path d="M0,0 L57,0 L57,8 L64,8 L64,9 L57,9 L57,17 L64,17 L64,25 L72,25 L72,41 L80,41 L80,49 L88,49 L88,96 L80,96 L80,112 L72,112 L72,128 L64,128 L64,144 L41,144 L41,128 L48,128 L48,104 L56,104 L56,96 L64,96 L64,57 L56,57 L56,49 L48,49 L48,41 L25,41 L25,48 L24,49 L17,49 L17,57 L9,57 L9,65 L1,65 L1,73 L-7,73 L-7,81 L-15,81 L-15,88 L-23,88 L-23,80 L-31,80 L-31,72 L-23,72 L-23,65 L-15,65 L-15,57 L-7,57 L-7,49 L1,49 L1,41 L9,41 L9,32 L16,32 L16,22 L43,22 L45,18 L9,17 L9,9 L56,9 L56,1 L1,1 L1,8 L0,8 Z " fill="#DFA627" transform="translate(373,31)"/>
<path d="M0,0 L8,0 L8,8 L16,8 L16,0 L40,0 L40,8 L71,8 L71,0 L95,0 L95,8 L103,8 L103,0 L111,0 L111,16 L103,16 L103,24 L87,24 L87,32 L79,32 L79,40 L72,40 L72,48 L63,48 L63,80 L79,80 L79,88 L119,88 L119,96 L-8,96 L-8,88 L32,88 L32,80 L48,80 L48,48 L39,48 L39,40 L32,40 L32,32 L24,32 L24,24 L8,24 L8,16 L0,16 Z " fill="#351D18" transform="translate(183,342)"/>
<path d="M0,0 L23,0 L23,8 L31,8 L31,16 L39,16 L39,24 L47,24 L47,31 L55,31 L55,40 L63,40 L63,48 L55,48 L55,56 L47,56 L47,63 L39,63 L39,71 L32,72 L31,87 L24,88 L23,103 L16,103 L16,95 L8,95 L8,79 L0,79 L0,63 L-8,63 L-8,55 L-16,55 L-16,16 L-8,16 L-8,8 L0,8 Z " fill="#2A1415" transform="translate(56,72)"/>
<path d="M0,0 L23,0 L23,8 L31,8 L31,16 L39,16 L39,55 L31,55 L31,63 L23,63 L23,79 L15,79 L15,95 L7,95 L7,103 L0,103 L0,87 L-8,87 L-9,72 L-16,71 L-16,63 L-24,63 L-24,55 L-32,55 L-32,48 L-40,48 L-40,40 L-32,40 L-32,32 L-24,32 L-24,24 L-16,24 L-16,16 L-8,16 L-8,8 L-1,7 Z " fill="#2A1416" transform="translate(398,72)"/>
<path d="M0,0 L48,0 L48,8 L56,8 L56,24 L64,24 L64,64 L56,64 L56,48 L8,48 L8,40 L0,40 L0,16 L-16,16 L-16,8 L0,8 Z " fill="#3E1E09" transform="translate(127,207)"/>
<path d="M0,0 L7,0 L7,16 L-1,16 L-1,32 L-8,32 L-8,40 L-9,41 L-15,41 L-15,47 L-17,49 L-24,49 L-24,65 L-32,65 L-32,72 L-33,73 L-39,73 L-39,79 L-40,80 L-47,80 L-47,87 L-48,88 L-55,88 L-55,103 L-56,104 L-63,104 L-63,111 L-64,112 L-71,112 L-71,135 L-72,136 L-79,136 L-79,143 L-80,144 L-87,144 L-87,151 L-104,151 L-104,143 L-88,143 L-88,96 L-80,96 L-80,88 L-72,88 L-72,80 L-64,80 L-64,32 L-56,32 L-56,72 L-48,72 L-48,64 L-40,64 L-40,56 L-33,56 L-32,40 L-24,40 L-24,32 L-16,32 L-17,30 L-17,24 L-9,24 L-9,8 L0,8 Z " fill="#7B4B12" transform="translate(398,334)"/>
<path d="M0,0 L40,0 L40,8 L56,8 L56,16 L40,16 L40,40 L32,40 L32,48 L-16,48 L-16,64 L-24,64 L-24,24 L-16,24 L-16,8 L0,8 Z " fill="#200F12" transform="translate(310,207)"/>
<path d="M0,0 L55,0 L55,8 L8,8 L8,16 L0,16 L0,24 L-16,24 L-16,32 L-24,32 L-24,40 L-32,40 L-32,48 L-40,48 L-40,72 L-48,72 L-49,64 L-64,63 L-64,56 L-96,56 L-96,48 L-175,48 L-175,56 L-199,56 L-199,48 L-183,48 L-183,40 L-88,40 L-88,47 L-72,47 L-72,40 L-87,40 L-87,39 L-71,39 L-71,47 L-49,47 L-49,39 L-41,39 L-41,32 L-40,31 L-25,31 L-25,23 L-17,23 L-17,15 L-9,15 L-9,8 L-8,7 L0,7 Z " fill="#A87022" transform="translate(374,32)"/>
<path d="M0,0 L1,0 L1,31 L9,31 L9,15 L17,15 L17,16 L10,16 L10,30 L17,30 L18,31 L18,103 L16,104 L10,104 L10,127 L2,127 L2,143 L-6,143 L-6,159 L-14,159 L-14,175 L-22,175 L-22,174 L-15,174 L-15,158 L-7,158 L-7,142 L-14,142 L-14,150 L-15,150 L-15,134 L-7,134 L-7,118 L-6,114 L-10,115 L-13,116 L-14,108 L-14,95 L-6,95 L-5,17 L-2,14 Z " fill="#AA7322" transform="translate(412,192)"/>
<path d="M0,0 L8,0 L8,16 L-8,16 L-8,24 L8,24 L8,25 L-7,25 L-7,32 L-8,33 L-15,33 L-15,40 L-16,41 L-111,41 L-112,40 L-112,33 L-119,33 L-120,32 L-120,25 L-135,25 L-135,24 L-119,24 L-119,9 L-127,9 L-127,8 L-111,8 L-111,16 L-95,16 L-95,24 L-32,24 L-32,16 L-16,16 L-16,8 L0,8 Z " fill="#AF7E2B" transform="translate(302,461)"/>
<path d="M0,0 L8,0 L8,48 L16,48 L16,56 L24,56 L24,64 L32,64 L32,95 L40,95 L40,104 L48,104 L48,119 L31,119 L31,112 L24,112 L23,111 L23,104 L16,104 L15,103 L15,80 L8,80 L7,79 L7,72 L-1,72 L-1,56 L-8,56 L-9,55 L-9,49 L-15,49 L-16,48 L-16,40 L-23,40 L-23,32 L-8,32 L-8,40 L0,40 Z " fill="#7C4B15" transform="translate(135,366)"/>
<path d="M0,0 L31,0 L31,8 L39,8 L39,16 L47,16 L47,24 L55,24 L55,32 L63,32 L63,39 L71,39 L71,47 L79,47 L79,56 L71,56 L71,63 L63,63 L63,56 L55,56 L55,47 L47,47 L47,40 L39,40 L39,32 L31,32 L31,24 L23,24 L23,16 L0,16 L0,24 L-8,24 L-8,32 L-16,32 L-16,16 L-9,15 L-8,8 L0,8 Z " fill="#A36C1E" transform="translate(56,56)"/>
<path d="M0,0 L31,0 L31,8 L39,8 L39,16 L47,16 L47,32 L39,32 L39,24 L31,24 L31,16 L8,16 L8,23 L7,24 L0,24 L0,32 L-8,32 L-8,40 L-16,40 L-16,48 L-24,48 L-24,56 L-32,56 L-32,63 L-40,63 L-40,55 L-48,55 L-48,47 L-40,47 L-40,40 L-32,40 L-32,32 L-24,32 L-24,24 L-16,24 L-16,16 L-8,16 L-8,8 L0,8 Z " fill="#A16A1D" transform="translate(390,56)"/>
<path d="M0,0 L1,0 L2,21 L7,18 L9,19 L8,39 L0,39 L0,55 L-8,55 L-8,71 L-16,71 L-15,79 L-23,79 L-23,87 L-31,87 L-32,103 L-39,103 L-39,111 L-47,111 L-47,119 L-55,119 L-55,87 L-47,87 L-47,79 L-39,79 L-39,71 L-31,71 L-31,63 L-23,63 L-23,55 L-15,55 L-15,39 L-8,39 L-8,23 L0,23 Z " fill="#AB7521" transform="translate(397,287)"/>
<path d="M0,0 L8,0 L9,8 L9,47 L17,47 L17,63 L25,63 L25,79 L33,79 L33,95 L41,95 L41,103 L49,103 L49,119 L57,119 L57,143 L49,143 L49,127 L40,127 L40,112 L32,112 L32,96 L25,96 L24,95 L24,80 L16,80 L16,64 L8,64 L8,56 L1,56 L0,55 Z " fill="#190A0A" transform="translate(7,80)"/>
<path d="M0,0 L50,0 L51,6 L56,6 L57,7 L57,14 L73,15 L74,16 L74,24 L73,26 L55,26 L55,17 L1,17 L1,24 L-16,24 L-16,8 L0,8 Z " fill="#321B16" transform="translate(294,167)"/>
<path d="M0,0 L1,2 L9,2 L9,9 L17,9 L17,17 L25,17 L25,25 L33,25 L33,33 L41,33 L41,65 L33,65 L33,57 L18,57 L18,65 L25,65 L25,66 L17,66 L17,58 L10,58 L10,57 L16,56 L17,33 L9,33 L9,25 L1,25 L1,17 L-6,17 L-6,1 Z " fill="#AB7521" transform="translate(94,341)"/>
<path d="M0,0 L55,0 L55,8 L8,8 L8,16 L0,16 L0,24 L-16,24 L-16,32 L-24,32 L-24,40 L-32,40 L-32,48 L-40,48 L-40,55 L-71,55 L-71,48 L-48,48 L-48,40 L-40,40 L-40,31 L-25,31 L-25,23 L-17,23 L-17,15 L-9,15 L-9,8 L-8,7 L0,7 Z " fill="#180913" transform="translate(374,32)"/>
<path d="M0,0 L8,0 L10,5 L17,7 L18,8 L18,38 L16,40 L8,40 L8,48 L0,48 L0,56 L-40,56 L-40,64 L-48,64 L-48,72 L-56,72 L-56,48 L-8,48 L-8,40 L0,40 L0,16 L16,16 L16,8 L0,8 Z " fill="#EDDA97" transform="translate(350,207)"/>
<path d="M0,0 L15,0 L15,24 L23,24 L23,32 L71,32 L71,56 L63,56 L63,48 L55,48 L55,40 L15,40 L15,32 L7,32 L7,24 L-1,24 L-1,1 Z " fill="#F0DB96" transform="translate(112,223)"/>
<path d="M0,0 L7,0 L8,15 L15,16 L16,38 L23,39 L24,55 L32,55 L32,63 L39,63 L39,71 L47,71 L47,79 L55,79 L55,102 L54,103 L47,103 L47,88 L40,88 L39,87 L39,80 L32,80 L31,79 L31,72 L24,72 L23,71 L23,56 L15,56 L15,40 L7,40 L7,24 L0,24 Z " fill="#392E35" transform="translate(56,295)"/>
<path d="M0,0 L15,0 L15,7 L96,7 L96,0 L111,0 L111,8 L104,8 L104,15 L103,16 L8,16 L7,15 L7,8 L0,8 Z " fill="#251C24" transform="translate(183,486)"/>
<path d="M0,0 L24,0 L24,8 L32,8 L32,32 L0,32 L0,24 L-8,24 L-8,8 L0,8 Z " fill="#8F5E2C" transform="translate(143,215)"/>
<path d="M0,0 L48,0 L48,8 L64,8 L64,24 L48,24 L48,16 L-8,16 L-8,8 L0,8 Z " fill="#331A15" transform="translate(135,167)"/>
<path d="M0,0 L8,0 L8,7 L16,7 L16,15 L23,15 L24,16 L24,23 L32,23 L32,39 L40,39 L40,95 L39,96 L31,96 L31,103 L23,103 L23,87 L31,87 L31,40 L23,40 L23,32 L15,32 L15,16 L7,16 L7,8 L0,8 Z " fill="#0B0208" transform="translate(430,40)"/>
<path d="M0,0 L7,0 L7,16 L-1,16 L-1,32 L-8,32 L-8,40 L-9,41 L-15,41 L-15,47 L-17,49 L-24,49 L-24,65 L-32,65 L-32,72 L-33,73 L-39,73 L-39,79 L-40,80 L-47,80 L-48,79 L-48,64 L-40,64 L-40,56 L-33,56 L-32,40 L-24,40 L-24,32 L-16,32 L-17,30 L-17,24 L-9,24 L-9,8 L0,8 Z " fill="#67462D" transform="translate(398,334)"/>
<path d="M0,0 L127,0 L127,8 L0,8 Z " fill="#CDA344" transform="translate(175,430)"/>
<path d="M0,0 L8,0 L8,8 L16,8 L16,16 L24,16 L24,39 L40,39 L40,48 L48,48 L48,63 L31,63 L31,56 L24,56 L23,55 L23,48 L16,48 L15,47 L15,24 L8,24 L8,15 L0,15 Z " fill="#271A1F" transform="translate(135,422)"/>
<path d="M0,0 L80,0 L80,8 L56,8 L56,16 L25,16 L25,8 L1,8 L1,16 L-7,16 L-7,8 L0,8 Z " fill="#F1DD98" transform="translate(198,334)"/>
<path d="M0,0 L1,4 L2,7 L0,7 L-1,12 L-7,12 L-6,14 L-6,29 L-13,29 L-13,36 L-14,37 L-21,37 L-21,60 L-22,61 L-29,61 L-29,68 L-30,69 L-37,69 L-37,76 L-54,76 L-54,68 L-38,68 L-38,52 L-30,52 L-30,29 L-22,29 L-22,21 L-20,19 L-15,19 L-16,12 L-15,11 L-10,11 L-9,4 L-5,1 L-5,3 L0,3 Z " fill="#1F1417" transform="translate(348,409)"/>
<path d="M0,0 L95,0 L96,7 L111,8 L111,15 L95,15 L95,8 L0,8 Z " fill="#1D0C0E" transform="translate(191,64)"/>
<path d="M0,0 L15,0 L15,32 L31,32 L31,40 L-16,40 L-16,32 L0,32 Z " fill="#12040E" transform="translate(231,390)"/>
<path d="M0,0 L24,0 L24,8 L32,8 L32,24 L24,24 L24,32 L-8,32 L-8,16 L-1,16 L0,17 L0,24 L16,24 L16,8 L8,8 L8,16 L0,16 Z " fill="#81552B" transform="translate(310,215)"/>
<path d="M0,0 L50,0 L51,6 L56,6 L57,7 L57,14 L73,15 L74,16 L74,24 L73,26 L55,26 L55,17 L1,17 L1,24 L-16,24 L-16,8 L0,8 Z M2,2 L2,9 L-14,10 L-14,21 L-12,22 L-2,22 L-2,16 L2,15 L54,15 L53,10 L47,10 L46,3 L45,2 Z " fill="#522B06" transform="translate(294,167)"/>
<path d="M0,0 L3,1 L38,2 L39,0 L39,7 L15,7 L15,15 L7,15 L8,39 L-1,39 L-1,15 L-17,15 L-17,7 L0,7 Z " fill="#0B0304" transform="translate(128,208)"/>
<path d="M0,0 L40,0 L40,8 L56,8 L56,16 L39,16 L39,28 L37,26 L34,28 L32,32 L32,16 L24,16 L24,8 L0,8 Z " fill="#15060D" transform="translate(310,207)"/>
<path d="M0,0 L8,0 L8,8 L17,8 L16,16 L32,16 L32,24 L40,24 L41,39 L48,40 L48,47 L40,47 L40,40 L32,40 L32,32 L24,32 L24,24 L8,24 L8,16 L0,16 Z " fill="#14070B" transform="translate(183,342)"/>
<path d="M0,0 L8,0 L8,72 L0,72 L-1,41 L-1,9 Z " fill="#25171B" transform="translate(422,223)"/>
<path d="M0,0 L8,0 L8,23 L16,23 L16,31 L24,31 L24,47 L32,47 L32,63 L24,63 L24,48 L16,48 L16,40 L8,40 L8,24 L0,24 Z " fill="#AE7514" transform="translate(286,271)"/>
<path d="M0,0 L8,0 L8,24 L0,24 L0,40 L-8,40 L-8,48 L-16,48 L-16,63 L-24,63 L-24,47 L-16,47 L-16,32 L-8,32 L-8,23 L0,23 Z " fill="#AF7715" transform="translate(183,271)"/>
<path d="M0,0 L7,0 L7,15 L-1,15 L-1,23 L-17,23 L-17,31 L-25,31 L-25,39 L-33,39 L-33,46 L-40,46 L-40,39 L-34,38 L-33,23 L-25,23 L-25,15 L-9,15 L-9,8 L0,8 L1,11 L5,10 L5,7 L0,7 Z " fill="#15070B" transform="translate(287,343)"/>
<path d="M0,0 L8,0 L8,71 L7,72 L0,72 Z " fill="#211519" transform="translate(47,223)"/>
<path d="M0,0 L6,0 L6,7 L15,7 L15,47 L7,47 L7,30 L-9,30 L-9,24 L1,24 Z " fill="#15070D" transform="translate(176,224)"/>
<path d="M0,0 L8,0 L8,8 L16,8 L16,24 L24,24 L24,48 L16,48 L16,32 L8,32 L8,16 L0,16 Z " fill="#0C0307" transform="translate(40,175)"/>
<path d="M0,0 L8,0 L8,7 L16,7 L16,15 L23,15 L24,16 L24,23 L32,23 L32,39 L40,39 L40,95 L39,95 L39,40 L23,40 L23,32 L15,32 L15,16 L7,16 L7,8 L0,8 Z " fill="#8C8683" transform="translate(430,40)"/>
<path d="M0,0 L1,0 L1,8 L8,8 L8,16 L16,16 L16,24 L24,24 L24,47 L23,48 L16,48 L16,33 L9,33 L8,32 L8,25 L1,25 L0,24 L0,17 L-7,17 L-7,16 L0,15 Z " fill="#383135" transform="translate(87,350)"/>
<path d="M0,0 L7,0 L7,16 L0,16 L0,31 L-9,31 L-9,47 L-16,47 L-16,23 L-8,23 L-8,8 L-1,7 Z " fill="#130713" transform="translate(430,176)"/>
<path d="M0,0 L16,0 L16,8 L8,8 L8,16 L0,16 L0,23 L-31,23 L-31,16 L-8,16 L-8,8 L0,8 Z " fill="#12060C" transform="translate(334,64)"/>
<path d="M0,0 L57,0 L57,8 L64,8 L64,9 L57,9 L57,17 L9,17 L9,9 L56,9 L56,1 L1,1 L1,8 L0,8 Z " fill="#8A6846" transform="translate(373,31)"/>
<path d="M0,0 L1,0 L1,24 L-7,24 L-7,32 L-55,32 L-55,31 L-39,31 L-39,24 L-15,24 L-15,16 L-6,16 L-6,3 L-5,3 L-4,11 L-1,9 Z " fill="#1B1010" transform="translate(349,223)"/>
<path d="M0,0 L16,0 L16,24 L-16,24 L-16,16 L8,16 L8,8 L0,8 Z " fill="#AF7E2F" transform="translate(159,223)"/>
<path d="M0,0 L48,0 L48,8 L0,8 L0,16 L-8,16 L-8,9 L-1,7 Z " fill="#ECD897" transform="translate(127,199)"/>
<path d="M0,0 L57,0 L57,8 L56,8 L56,1 L1,1 L1,17 L-7,17 L-7,25 L-15,25 L-15,33 L-23,33 L-23,48 L-31,48 L-31,32 L-24,32 L-24,24 L-16,24 L-16,16 L-8,16 L-8,9 L-7,8 L0,8 Z " fill="#706665" transform="translate(47,31)"/>
<path d="M0,0 L5,0 L6,7 L69,8 L69,11 L73,13 L0,13 L-3,3 Z " fill="#B37C22" transform="translate(201,478)"/>
<path d="M0,0 L80,0 L80,8 L56,7 L54,5 L53,7 L51,7 L50,4 L44,3 L4,3 L2,8 L1,16 L-7,16 L-7,8 L0,8 Z " fill="#F0DB95" transform="translate(198,334)"/>
<path d="M0,0 L8,0 L8,16 L16,16 L16,32 L24,32 L24,64 L32,64 L32,80 L31,80 L31,65 L23,65 L23,49 L16,49 L15,48 L15,33 L7,33 L7,17 L-1,17 L-1,9 L-8,9 L-8,8 L0,8 L0,16 L7,16 L7,1 L0,1 Z " fill="#6B5A51" transform="translate(16,127)"/>
<path d="M0,0 L16,0 L16,16 L24,16 L24,8 L32,8 L32,24 L16,24 L15,17 L8,16 L8,8 L0,8 Z " fill="#764B1F" transform="translate(294,215)"/>
<path d="M0,0 L8,0 L8,16 L0,16 L0,40 L-8,40 L-8,8 L0,8 Z " fill="#F1DD97" transform="translate(286,215)"/>
<path d="M0,0 L48,0 L48,8 L0,8 Z " fill="#EFD78D" transform="translate(302,199)"/>
<path d="M0,0 L8,0 L8,8 L16,8 L16,39 L15,40 L8,40 L8,16 L0,16 Z " fill="#ECD99E" transform="translate(183,215)"/>
<path d="M0,0 L7,0 L7,16 L-1,16 L-1,32 L-8,32 L-8,40 L-9,40 L-9,32 L-16,32 L-17,30 L-17,24 L-9,24 L-9,8 L0,8 Z " fill="#784818" transform="translate(398,334)"/>
<path d="M0,0 L8,0 L8,16 L0,16 L0,39 L-8,39 L-8,8 L0,8 Z " fill="#A2793A" transform="translate(318,422)"/>
<path d="M0,0 L47,0 L47,8 L0,8 Z " fill="#AA6F1B" transform="translate(48,40)"/>
<path d="M0,0 L1,0 L1,8 L-7,8 L-7,16 L-30,16 L-30,23 L1,23 L1,40 L-7,40 L-8,32 L-23,31 L-23,24 L-31,24 L-31,16 L-47,16 L-47,15 L-31,15 L-31,8 L-46,8 L-46,7 L-30,7 L-30,15 L-8,15 L-8,7 L0,7 Z " fill="#A96E13" transform="translate(333,64)"/>
<path d="M0,0 L15,0 L15,7 L96,7 L96,0 L111,0 L111,7 L103,7 L101,3 L99,3 L98,8 L96,9 L15,9 L10,8 L8,11 L8,7 L0,7 Z " fill="#290F02" transform="translate(183,486)"/>
<path d="M0,0 L7,0 L7,24 L0,24 L0,38 L-1,39 L-8,39 L-8,16 L0,16 Z " fill="#0E0308" transform="translate(414,295)"/>
<path d="M0,0 L3,0 L3,8 L11,8 L11,39 L3,39 L3,15 L-4,15 L-4,2 Z " fill="#B68335" transform="translate(156,422)"/>
<path d="M0,0 L8,0 L8,9 L1,9 L1,24 L-7,24 L-8,40 L-16,40 L-16,25 L-15,24 L-8,24 L-8,9 L-7,8 L0,8 Z " fill="#AC7323" transform="translate(95,135)"/>
<path d="M0,0 L7,0 L5,8 L6,8 L6,13 L1,13 L0,10 L-9,9 L-31,9 L-32,13 L-34,20 L-41,21 L-44,22 L-44,27 L-48,23 L-48,7 L0,7 Z " fill="#F0DD9C" transform="translate(342,248)"/>
<path d="M0,0 L8,0 L8,9 L16,9 L16,24 L-1,24 L-1,17 L-8,17 L-8,16 L0,16 Z " fill="#6E4926" transform="translate(167,461)"/>
<path d="M0,0 L7,0 L8,1 L8,8 L32,8 L32,16 L0,16 Z " fill="#AF7F3C" transform="translate(302,231)"/>
<path d="M0,0 L74,0 L74,8 L72,7 L72,2 L20,2 L20,9 L19,10 L1,10 L0,8 Z " fill="#BF9039" transform="translate(109,183)"/>
<path d="M0,0 L48,0 L48,8 L56,8 L56,16 L40,16 L39,3 L35,4 L3,3 L1,1 L1,8 L0,8 Z " fill="#251913" transform="translate(127,207)"/>
<path d="M0,0 L3,1 L38,2 L39,0 L39,7 L7,7 L7,10 L-1,11 L-1,14 L-16,14 L-16,8 L-1,7 Z " fill="#0E0209" transform="translate(128,208)"/>
<path d="M0,0 L2,0 L3,6 L8,6 L9,7 L9,14 L25,15 L26,16 L26,24 L25,26 L7,26 L7,17 L-47,17 L-47,24 L-48,24 L-48,16 L8,16 L8,8 L0,8 Z " fill="#B68736" transform="translate(342,167)"/>
<path d="M0,0 L1,0 L1,31 L7,31 L7,32 L1,32 L1,55 L0,55 L0,31 L-7,31 L-7,47 L-15,47 L-15,70 L-7,69 L-7,71 L-15,71 L-15,87 L-23,87 L-23,103 L-31,103 L-31,102 L-24,102 L-24,86 L-16,86 L-16,70 L-23,70 L-23,78 L-24,78 L-24,62 L-16,62 L-16,46 L-8,46 L-8,23 L0,23 Z " fill="#735945" transform="translate(421,264)"/>
<path d="M0,0 L1,0 L2,6 L6,2 L11,3 L10,6 L16,7 L16,0 L17,0 L17,8 L9,8 L9,16 L-7,16 L-7,24 L-31,24 L-31,23 L-16,23 L-16,15 L-8,15 L-8,7 L0,7 Z " fill="#220E10" transform="translate(365,40)"/>
<path d="M0,0 L22,0 L32,1 L32,5 L37,5 L37,0 L38,0 L38,6 L-1,6 L-1,15 L-9,15 L-9,23 L-17,23 L-17,15 L-10,12 L-3,11 L-2,1 Z " fill="#F3DC95" transform="translate(311,256)"/>
<path d="M0,0 L7,0 L7,24 L15,24 L15,31 L-1,31 L-1,47 L-8,47 L-8,31 L-5,26 L2,26 L3,21 L4,21 L5,1 L0,1 Z " fill="#15050C" transform="translate(295,223)"/>
<path d="M0,0 L1,0 L1,5 L10,5 L11,12 L11,20 L10,21 L3,21 L3,36 L2,36 L1,20 L7,20 L8,15 L10,15 L10,13 L2,13 L2,12 L9,12 L8,11 L2,11 L-1,12 L0,17 L-2,17 L-2,19 L-7,20 L-7,27 L-6,29 L-14,29 L-14,13 L-6,13 L-4,4 Z " fill="#7A4A17" transform="translate(340,401)"/>
<path d="M0,0 L40,0 L40,7 L0,7 Z " fill="#0A0203" transform="translate(175,430)"/>
<path d="M0,0 L40,0 L40,7 L0,7 Z " fill="#120705" transform="translate(262,430)"/>
<path d="M0,0 L8,0 L8,8 L16,8 L16,16 L24,16 L24,39 L23,39 L22,21 L21,19 L15,18 L14,22 L16,23 L8,23 L8,15 L0,15 Z " fill="#0E0309" transform="translate(135,422)"/>
<path d="M0,0 L2,1 L1,10 L8,10 L8,18 L0,18 L0,2 L-80,2 L-80,10 L-96,11 L-111,10 L-111,18 L-119,18 L-119,10 L-117,11 L-118,16 L-114,16 L-115,12 L-114,9 L-96,9 L-96,7 L-82,8 L-83,3 L-81,1 Z " fill="#D3A431" transform="translate(278,332)"/>
<path d="M0,0 L7,0 L8,15 L15,16 L16,39 L10,39 L9,35 L12,32 L14,32 L13,28 L14,20 L10,22 L9,24 L0,24 Z M10,36 Z M12,30 Z " fill="#12070B" transform="translate(56,295)"/>
<path d="M0,0 L24,0 L24,8 L8,8 L8,16 L0,16 Z " fill="#A96E18" transform="translate(143,88)"/>
<path d="M0,0 L7,0 L8,1 L8,17 L15,17 L15,32 L7,32 L7,17 L0,17 Z " fill="#A97425" transform="translate(382,143)"/>
<path d="M0,0 L1,4 L2,7 L0,7 L-1,12 L-7,12 L-6,14 L-6,29 L-13,29 L-13,36 L-14,36 L-14,28 L-14,25 L-14,20 L-20,20 L-20,19 L-15,19 L-16,12 L-15,11 L-10,11 L-9,4 L-5,1 L-5,3 L0,3 Z " fill="#241D22" transform="translate(348,409)"/>
<path d="M0,0 L54,0 L55,9 L56,11 L54,11 L55,15 L7,15 L7,13 L51,13 L52,2 L1,1 L1,8 L0,9 L-17,9 L-17,7 L0,7 Z " fill="#D6A434" transform="translate(295,184)"/>
<path d="M0,0 L8,0 L8,8 L16,8 L16,24 L24,24 L24,48 L23,48 L23,25 L15,25 L16,31 L11,31 L11,28 L9,28 L9,15 L3,15 L4,9 L6,8 L7,1 L0,1 Z " fill="#250F0F" transform="translate(40,175)"/>
<path d="M0,0 L44,0 L45,5 L-1,5 Z " fill="#AC721D" transform="translate(383,43)"/>
<path d="M0,0 L16,0 L16,8 L32,8 L32,16 L31,16 L31,9 L25,11 L25,15 L25,16 L8,16 L8,1 L0,1 Z " fill="#BB8C41" transform="translate(175,469)"/>
<path d="M0,0 L8,0 L8,7 L16,7 L16,15 L23,15 L23,24 L15,24 L15,16 L7,16 L7,8 L0,8 Z " fill="#4A3632" transform="translate(430,40)"/>
<path d="M0,0 L8,0 L8,80 L16,80 L16,103 L15,103 L15,88 L8,88 L8,112 L7,112 L7,89 L0,89 L0,88 L6,87 L7,16 L0,16 L0,15 L7,15 L7,1 L0,1 Z " fill="#746054" transform="translate(48,207)"/>
<path d="M0,0 L24,0 L24,8 L-16,8 L-16,7 L0,7 Z " fill="#512F14" transform="translate(310,247)"/>
<path d="M0,0 L1,2 L4,1 L12,2 L12,10 L17,10 L14,12 L13,25 L20,25 L20,26 L12,26 L12,18 L4,18 L4,9 L-3,9 L-3,2 Z " fill="#7D501D" transform="translate(139,412)"/>
<path d="M0,0 L1,0 L1,49 L6,51 L5,54 L8,56 L0,56 L0,63 L-8,63 L-8,47 L0,47 Z " fill="#311608" transform="translate(461,80)"/>
<path d="M0,0 L8,0 L8,1 L1,1 L1,15 L8,15 L8,16 L1,16 L0,79 L-6,79 L-4,78 L-4,64 L-2,64 L-3,18 L-7,16 L0,16 Z " fill="#A57335" transform="translate(421,207)"/>
<path d="M0,0 L16,0 L16,24 L5,24 L7,22 L14,22 L13,10 L11,9 L10,16 L8,16 L8,8 L0,8 Z " fill="#AF8449" transform="translate(159,223)"/>
<path d="M0,0 L48,0 L48,8 L43,7 L40,6 L40,4 L33,3 L1,1 L0,16 L-8,16 L-8,9 L-1,7 Z M36,2 Z M40,3 Z " fill="#F4D37A" transform="translate(127,199)"/>
<path d="M0,0 L7,0 L4,2 L1,2 L1,95 L-1,95 L-1,1 Z " fill="#D29927" transform="translate(72,191)"/>
<path d="M0,0 L33,0 L35,6 L109,6 L110,0 L143,0 L143,1 L128,1 L128,8 L127,8 L127,1 L112,1 L112,8 L31,8 L31,1 L16,1 L16,8 L15,8 L15,1 L0,1 Z " fill="#856644" transform="translate(167,485)"/>
<path d="M0,0 L1,0 L1,8 L9,8 L9,16 L-15,16 L-16,21 L-17,21 L-17,16 L-15,14 L-9,15 L-9,7 L-3,6 Z M-19,21 L-17,22 L-18,23 L-23,23 Z " fill="#D5A631" transform="translate(301,199)"/>
<path d="M0,0 L8,0 L10,7 L8,7 L8,15 L2,15 L2,12 L-4,12 L-5,11 L-6,13 L-3,14 L-1,16 L-5,17 L-6,31 L-8,31 L-8,8 L0,8 Z " fill="#0A0308" transform="translate(326,430)"/>
<path d="M0,0 L8,0 L8,16 L-8,16 L-8,8 L0,8 Z " fill="#1C0A07" transform="translate(318,223)"/>
<path d="M0,0 L8,0 L8,8 L16,8 L16,16 L0,16 Z " fill="#210E0B" transform="translate(151,223)"/>
<path d="M0,0 L76,0 L76,1 L3,1 L1,8 L0,8 Z M-32,8 L0,8 L-1,10 L-25,10 L-30,12 L-31,17 L-45,18 L-47,24 L-48,24 L-48,16 L-32,16 Z M-55,24 L-48,24 L-51,26 L-55,25 Z " fill="#DCA32F" transform="translate(199,80)"/>
<path d="M0,0 L8,0 L10,2 L11,7 L9,8 L8,16 L0,16 L0,8 L-31,8 L-31,2 L-28,3 L-30,6 L-15,5 L-13,6 L-1,6 L1,2 L4,3 L7,2 L0,1 Z " fill="#DBA11E" transform="translate(310,334)"/>
<path d="M0,0 L15,0 L15,15 L14,16 L7,16 L7,8 L0,8 Z " fill="#72420E" transform="translate(112,398)"/>
<path d="M0,0 L1,0 L1,40 L-7,40 L-7,22 L-5,22 L-5,19 L-2,18 L-1,23 Z " fill="#180813" transform="translate(190,231)"/>
<path d="M0,0 L1,0 L1,16 L9,16 L9,9 L12,9 L12,17 L5,22 L3,21 L3,56 L1,56 L0,17 L-7,17 L-7,16 L0,15 Z M4,22 Z " fill="#D8A547" transform="translate(15,63)"/>
<path d="M0,0 L47,0 L47,6 L45,2 L2,1 L2,8 L0,9 L-14,9 L-14,20 L-2,21 L-2,15 L0,15 L0,23 L-16,23 L-16,7 L0,7 Z " fill="#472302" transform="translate(294,168)"/>
<path d="M0,0 L1,0 L1,8 L8,8 L8,16 L16,16 L16,24 L9,24 L6,22 L6,17 L1,17 L1,24 L0,24 L0,17 L-7,17 L-7,16 L0,15 Z " fill="#533D34" transform="translate(87,350)"/>
<path d="M0,0 L24,0 L24,8 L32,8 L32,0 L40,0 L40,1 L33,1 L33,8 L38,8 L38,11 L32,13 L33,9 L23,10 L23,6 L18,6 L18,4 L3,4 L4,2 L1,1 L1,9 L-31,9 L-31,8 L0,8 Z " fill="#4A3324" transform="translate(254,342)"/>
<path d="M0,0 L48,0 L48,8 L64,8 L64,24 L48,24 L48,17 L50,18 L50,22 L62,22 L62,11 L47,10 L47,1 L1,1 L1,8 L0,8 Z " fill="#5A3206" transform="translate(135,167)"/>
<path d="M0,0 L8,0 L7,23 L0,23 Z " fill="#AA7218" transform="translate(183,271)"/>
<path d="M0,0 L16,0 L16,1 L1,1 L1,7 L14,6 L16,3 L21,2 L24,3 L24,0 L32,0 L32,8 L24,8 L23,6 L22,7 L17,7 L17,32 L16,32 L16,8 L0,8 Z " fill="#312019" transform="translate(111,215)"/>
<path d="M0,0 L47,0 L47,7 L44,7 L44,3 L1,3 L0,7 Z " fill="#A97437" transform="translate(48,40)"/>
<path d="M0,0 L7,0 L7,6 L4,5 L4,33 L2,36 L0,36 Z " fill="#0A0207" transform="translate(8,80)"/>
<path d="M0,0 L3,0 L3,46 L-3,46 L-1,42 Z " fill="#F5D79B" transform="translate(331,367)"/>
<path d="M0,0 L80,0 L80,1 L1,1 L1,16 L-7,16 L-7,8 L0,8 Z " fill="#DFBC5C" transform="translate(198,334)"/>
<path d="M0,0 L1,0 L2,35 L4,33 L5,5 L7,5 L7,42 L3,40 L3,42 L1,42 L1,55 L0,55 Z " fill="#43383A" transform="translate(7,80)"/>
<path d="M0,0 L16,0 L15,2 L2,2 L3,5 L38,5 L46,6 L45,2 L36,1 L36,0 L47,0 L47,8 L0,8 Z " fill="#271205" transform="translate(215,422)"/>
<path d="M0,0 L7,0 L7,16 L0,16 L0,31 L-7,31 L-7,30 L-2,30 L-3,15 L1,13 L3,14 L3,11 L-2,12 L-1,10 Z " fill="#21181B" transform="translate(430,176)"/>
<path d="M0,0 L46,0 L46,7 L45,7 L45,1 L2,1 L1,8 L-6,11 L-7,14 L44,14 L44,15 L-9,15 L-9,7 L0,7 Z " fill="#421C01" transform="translate(136,168)"/>
<path d="M0,0 L1,0 L1,17 L0,31 L-8,31 L-8,16 L-7,15 L0,15 Z " fill="#905D1A" transform="translate(87,144)"/>
<path d="M0,0 L8,0 L10,5 L17,7 L18,8 L18,38 L16,39 L16,8 L0,8 Z " fill="#D2A22C" transform="translate(350,207)"/>
<path d="M0,0 L7,0 L5,8 L6,8 L6,13 L1,13 L0,10 L-9,9 L-47,8 L-47,23 L-48,23 L-48,7 L0,7 Z " fill="#E6D4A3" transform="translate(342,248)"/>
<path d="M0,0 L1,0 L1,7 L9,7 L9,3 L31,3 L30,6 L48,7 L48,8 L0,8 Z " fill="#4A2D18" transform="translate(135,247)"/>
<path d="M0,0 L64,0 L65,2 L62,2 L62,4 L58,3 L0,2 Z " fill="#A6731D" transform="translate(206,486)"/>
<path d="M0,0 L2,2 L3,5 L8,7 L8,31 L16,31 L16,39 L15,39 L15,32 L7,32 L7,16 L0,16 L-1,15 L-1,9 L-7,9 L-7,8 L-1,7 Z " fill="#5F585A" transform="translate(127,406)"/>
<path d="M0,0 L2,0 L2,39 L0,42 L-7,42 L-7,49 L-8,49 L-8,41 L-1,41 L-1,1 Z " fill="#CE9F44" transform="translate(438,87)"/>
<path d="M0,0 L8,0 L8,8 L16,8 L16,16 L24,16 L24,25 L15,25 L15,17 L-1,17 L-1,9 L0,9 L0,16 L15,16 L15,9 L7,9 L7,1 L0,1 Z " fill="#67564B" transform="translate(104,39)"/>
<path d="M0,0 L2,0 L3,10 L4,14 L9,14 L9,21 L19,21 L20,23 L0,23 Z " fill="#DEA739" transform="translate(40,152)"/>
<path d="M0,0 L8,0 L4,4 L2,9 L1,10 L-6,10 L-5,17 L-5,38 L0,39 L0,40 L-8,40 L-8,8 L0,8 Z " fill="#F2D37D" transform="translate(286,215)"/>
<path d="M0,0 L2,1 L2,37 L-6,37 L-6,32 L-2,31 L-1,6 Z " fill="#240E0A" transform="translate(434,90)"/>
<path d="M0,0 L8,0 L8,16 L0,16 Z " fill="#754622" transform="translate(302,461)"/>
<path d="M0,0 L16,0 L16,8 L0,8 Z " fill="#D3A442" transform="translate(286,469)"/>
<path d="M0,0 L8,0 L8,16 L0,16 Z " fill="#A06E26" transform="translate(318,422)"/>
<path d="M0,0 L8,0 L8,16 L0,16 Z " fill="#AB771F" transform="translate(151,342)"/>
<path d="M0,0 L8,0 L8,16 L0,16 Z " fill="#AE7615" transform="translate(318,342)"/>
<path d="M0,0 L8,0 L8,16 L0,16 Z " fill="#A7741D" transform="translate(278,255)"/>
<path d="M0,0 L8,0 L8,16 L0,16 Z " fill="#A26D1E" transform="translate(191,255)"/>
<path d="M0,0 L8,0 L8,16 L0,16 Z " fill="#D7A94D" transform="translate(135,223)"/>
<path d="M0,0 L8,0 L8,16 L0,16 Z " fill="#E2AC3A" transform="translate(334,223)"/>
<path d="M0,0 L16,0 L16,8 L0,8 Z " fill="#311B19" transform="translate(111,183)"/>
<path d="M0,0 L16,0 L16,8 L0,8 Z " fill="#421D01" transform="translate(350,183)"/>
<path d="M0,0 L48,1 L48,2 L1,2 L1,10 L-7,10 L-7,18 L-23,18 L-23,17 L-14,16 L-14,14 L-11,13 L-9,14 L-9,9 L-2,7 Z " fill="#D2A03F" transform="translate(134,165)"/>
<path d="M0,0 L8,0 L8,16 L0,16 Z " fill="#0E0306" transform="translate(445,143)"/>
<path d="M0,0 L7,0 L8,1 L8,16 L0,16 Z " fill="#98621B" transform="translate(382,143)"/>
<path d="M0,0 L8,0 L8,8 L1,8 L1,15 L-8,15 L-8,8 L0,8 Z " fill="#B2781D" transform="translate(111,120)"/>
<path d="M0,0 L3,0 L3,37 L8,37 L8,39 L0,39 Z " fill="#280C03" transform="translate(40,88)"/>
<path d="M0,0 L15,0 L15,8 L12,8 L10,14 L8,14 L8,7 L0,7 Z " fill="#110408" transform="translate(136,72)"/>
<path d="M0,0 L7,0 L8,1 L8,16 L0,16 Z " fill="#190A0A" transform="translate(16,63)"/>
<path d="M0,0 L2,0 L2,23 L-6,23 L-6,31 L-14,31 L-13,28 L-9,28 L-10,22 L-7,22 L-7,20 L-2,19 L-1,1 Z " fill="#F7D580" transform="translate(364,224)"/>
<path d="M0,0 L0,3 L-4,4 L-4,15 L-9,19 L-13,19 L-13,36 L-8,37 L-8,40 L-15,40 L-15,16 L-7,16 L-7,1 Z " fill="#1C0604" transform="translate(429,183)"/>
<path d="M0,0 L40,0 L40,8 L56,8 L56,16 L40,16 L43,14 L54,14 L54,10 L39,11 L37,10 L39,1 L0,1 Z " fill="#2F1D0F" transform="translate(310,207)"/>
<path d="M0,0 L1,0 L1,8 L-7,8 L-7,16 L-30,16 L-30,23 L1,23 L1,24 L-31,24 L-31,16 L-47,16 L-47,15 L-31,15 L-31,8 L-46,8 L-46,7 L-30,7 L-30,15 L-8,15 L-8,7 L0,7 Z " fill="#6A584D" transform="translate(333,64)"/>
<path d="M0,0 L40,0 L40,7 L37,3 L2,3 L2,7 L0,7 Z " fill="#130A0B" transform="translate(175,430)"/>
<path d="M0,0 L21,1 L20,6 L17,7 L7,7 L-1,6 L-1,1 Z " fill="#B9802B" transform="translate(305,238)"/>
<path d="M0,0 L8,0 L7,2 L2,2 L1,9 L0,14 L2,14 L3,20 L9,22 L9,23 L0,23 L0,16 L-8,16 L-8,8 L0,8 Z " fill="#351A10" transform="translate(366,104)"/>
<path d="M0,0 L1,0 L2,6 L60,6 L60,2 L63,3 L63,8 L0,8 Z " fill="#FBE093" transform="translate(207,477)"/>
<path d="M0,0 L7,0 L7,15 L6,16 L-1,16 L-1,5 Z " fill="#0D0102" transform="translate(104,382)"/>
<path d="M0,0 L6,0 L7,5 L9,5 L9,21 L3,21 L2,4 Z " fill="#905A0A" transform="translate(325,218)"/>
<path d="M0,0 L8,0 L8,15 L0,15 Z " fill="#0C0103" transform="translate(366,383)"/>
<path d="M0,0 L7,0 L7,16 L-1,16 Z " fill="#0A0205" transform="translate(398,334)"/>
<path d="M0,0 L7,0 L8,16 L0,16 Z " fill="#100404" transform="translate(72,334)"/>
<path d="M0,0 L48,0 L48,2 L0,2 L0,9 L-7,9 L-6,7 L-2,7 L-2,2 Z " fill="#260B00" transform="translate(381,38)"/>
<path d="M0,0 L16,0 L16,1 L1,1 L1,7 L6,6 L5,13 L-1,13 L0,10 L-63,9 L-63,8 L0,8 Z " fill="#BF9948" transform="translate(270,477)"/>
<path d="M0,0 L8,0 L8,1 L1,1 L1,8 L8,8 L8,9 L1,9 L1,17 L-23,17 L-23,16 L-8,16 L-8,8 L0,8 Z " fill="#65554F" transform="translate(357,47)"/>
<path d="M0,0 L8,0 L8,16 L5,21 L3,21 L2,19 L1,2 Z " fill="#A8721F" transform="translate(286,271)"/>
<path d="M0,0 L1,0 L1,8 L-7,8 L-7,16 L-15,16 L-15,8 L-23,8 L-23,5 L-15,5 L-10,10 L-9,6 L-2,5 Z " fill="#DFA72F" transform="translate(357,358)"/>
<path d="M0,0 L15,0 L15,8 L10,8 L8,11 L8,7 L0,7 Z " fill="#0D0101" transform="translate(183,486)"/>
<path d="M0,0 L7,0 L8,16 L0,16 Z " fill="#130508" transform="translate(80,350)"/>
<path d="M0,0 L16,0 L16,7 L0,7 Z " fill="#1A0302" transform="translate(294,478)"/>
<path d="M0,0 L16,0 L16,7 L0,7 Z " fill="#0F040B" transform="translate(167,478)"/>
<path d="M0,0 L7,0 L6,21 L1,22 Z " fill="#B17A27" transform="translate(310,438)"/>
<path d="M0,0 L1,4 L2,7 L0,7 L-1,12 L-14,13 L-14,20 L-20,20 L-20,19 L-15,19 L-16,12 L-15,11 L-10,11 L-9,4 L-5,1 L-5,3 L0,3 Z " fill="#6F492A" transform="translate(348,409)"/>
<path d="M0,0 L7,0 L7,16 L0,16 Z " fill="#190301" transform="translate(390,350)"/>
<path d="M0,0 L7,0 L7,16 L0,16 Z " fill="#190609" transform="translate(438,159)"/>
<path d="M0,0 L16,0 L16,7 L0,7 Z " fill="#0E0507" transform="translate(286,72)"/>
<path d="M0,0 L16,0 L16,7 L0,7 Z " fill="#0E0306" transform="translate(175,72)"/>
<path d="M0,0 L2,3 L3,9 L8,10 L8,11 L0,11 L0,4 L-24,4 L-24,11 L-32,11 L-31,9 L-28,8 L-26,2 L-22,1 L0,2 Z " fill="#93652C" transform="translate(422,68)"/>
<path d="M0,0 L1,0 L1,7 L9,7 L10,12 L10,14 L15,15 L15,0 L16,0 L17,15 L24,16 L24,23 L16,23 L16,16 L8,16 L8,8 L0,8 Z " fill="#160304" transform="translate(207,366)"/>
<path d="M0,0 L8,0 L8,1 L1,1 L1,16 L-7,16 L-7,40 L-8,40 L-8,8 L0,8 Z " fill="#613817" transform="translate(421,183)"/>
<path d="M0,0 L3,0 L3,8 L11,8 L11,47 L9,47 L8,10 L1,9 L0,8 Z " fill="#CFA451" transform="translate(450,72)"/>
<path d="M0,0 L6,0 L6,16 L-1,16 L-1,1 Z " fill="#190C12" transform="translate(455,63)"/>
<path d="M0,0 L3,0 L3,5 L3,8 L2,24 L2,51 L1,55 L3,55 L3,61 L0,61 Z " fill="#AA762E" transform="translate(57,225)"/>
<path d="M0,0 L1,0 L1,8 L-7,8 L-7,24 L-15,24 L-15,40 L-23,40 L-23,55 L-24,55 L-24,40 L-31,40 L-31,47 L-32,47 L-32,39 L-24,39 L-24,23 L-23,23 L-23,39 L-16,39 L-16,23 L-8,23 L-8,7 L0,7 Z " fill="#76685F" transform="translate(461,136)"/>
<path d="M0,0 L8,0 L8,15 L1,15 Z " fill="#11030A" transform="translate(158,462)"/>
<path d="M0,0 L23,0 L23,8 L31,8 L31,16 L29,14 L29,9 L26,10 L22,9 L20,3 L2,2 L0,9 L-5,10 L-7,16 L-8,16 L-8,8 L-1,7 Z " fill="#2F1005" transform="translate(398,72)"/>
<path d="M0,0 L31,0 L31,4 L34,5 L-13,5 L-13,4 L19,3 L19,1 L0,1 Z " fill="#B37720" transform="translate(61,43)"/>
<path d="M0,0 L7,0 L7,15 L0,15 Z " fill="#0C0308" transform="translate(32,160)"/>
<path d="M0,0 L7,0 L7,15 L0,15 Z " fill="#0E0307" transform="translate(24,144)"/>
<path d="M0,0 L1,0 L1,6 L3,6 L3,22 L2,32 L3,37 L2,44 L3,47 L-1,46 Z " fill="#1A070B" transform="translate(462,83)"/>
<path d="M0,0 L1,4 L9,5 L10,9 L10,38 L9,52 L8,52 L7,38 L8,7 L0,7 Z " fill="#D4A62F" transform="translate(191,216)"/>
<path d="M0,0 L93,0 L93,6 L91,3 L88,2 L0,1 Z " fill="#060104" transform="translate(193,64)"/>
<path d="M0,0 L8,0 L8,16 L16,16 L16,32 L15,32 L15,24 L8,24 L7,23 L7,1 L0,1 Z " fill="#6C4322" transform="translate(64,310)"/>
<path d="M0,0 L3,0 L3,15 L-4,15 L-4,2 Z " fill="#AC7726" transform="translate(156,422)"/>
<path d="M0,0 L1,0 L1,7 L29,6 L29,1 L30,0 L50,0 L50,1 L31,1 L31,9 L0,9 Z " fill="#F6E1B1" transform="translate(223,341)"/>
<path d="M0,0 L1,0 L2,14 L9,15 L9,17 L11,16 L13,9 L15,9 L15,24 L8,24 L8,16 L0,16 Z " fill="#2D1006" transform="translate(64,151)"/>
<path d="M0,0 L48,0 L48,17 L45,20 L45,1 L0,1 Z " fill="#E6D1A6" transform="translate(135,255)"/>
<path d="M0,0 L40,0 L37,3 L13,3 L2,1 L1,6 L0,6 Z " fill="#D2A52D" transform="translate(310,263)"/>
<path d="M0,0 L6,1 L7,13 L8,16 L0,16 Z " fill="#935A15" transform="translate(143,223)"/>
<path d="M0,0 L47,1 L48,3 L0,3 Z " fill="#D19E35" transform="translate(294,164)"/>
<path d="M0,0 L6,1 L7,3 L-41,3 L-41,1 Z " fill="#250C00" transform="translate(89,37)"/>
<path d="M0,0 L9,0 L9,32 L8,32 L8,8 L0,8 Z " fill="#B79B5B" transform="translate(222,390)"/>
<path d="M0,0 L1,0 L1,8 L8,8 L8,16 L1,16 L1,24 L8,24 L8,25 L0,25 L0,17 L-7,17 L-7,16 L-1,15 Z " fill="#735E51" transform="translate(111,382)"/>
<path d="M0,0 L1,0 L1,8 L-7,8 L-7,16 L-15,16 L-15,8 L-8,5 L-1,4 Z " fill="#F4D481" transform="translate(309,263)"/>
<path d="M0,0 L79,0 L79,5 L78,1 L43,2 L3,2 L1,7 L0,7 Z " fill="#F9DC85" transform="translate(199,335)"/>
<path d="M0,0 L8,0 L8,1 L1,1 L1,16 L-7,16 L-7,24 L-8,24 L-8,8 L0,8 Z " fill="#9E6C28" transform="translate(429,127)"/>
<path d="M0,0 L8,0 L8,1 L2,1 L2,9 L-5,11 L-6,13 L-3,14 L-1,16 L-5,17 L-6,31 L-8,31 L-8,8 L0,8 Z " fill="#250A03" transform="translate(326,430)"/>
<path d="M0,0 L32,0 L31,3 L1,4 Z " fill="#080005" transform="translate(264,433)"/>
<path d="M0,0 L24,0 L24,8 L8,8 L8,23 L6,21 L6,7 L7,6 L21,6 L21,2 L0,1 Z " fill="#79512B" transform="translate(143,215)"/>
<path d="M0,0 L6,0 L3,2 L8,3 L8,4 L0,4 L0,27 L-3,27 L-3,5 Z " fill="#E8D6A0" transform="translate(286,227)"/>
<path d="M0,0 L10,0 L10,1 L3,1 L3,8 L2,9 L-5,9 L-5,16 L-6,16 L-6,9 L-22,9 L-22,8 L-5,8 L-4,2 Z " fill="#473A39" transform="translate(316,469)"/>
<path d="M0,0 L1,0 L1,5 L-7,5 L-7,48 L-8,48 L-9,35 L-9,5 L-1,2 Z " fill="#D6A530" transform="translate(285,218)"/>
<path d="M0,0 L2,0 L2,23 L-13,23 L-15,20 L0,19 Z " fill="#F6E9B4" transform="translate(228,398)"/>
<path d="M0,0 L8,0 L8,8 L1,8 L1,32 L0,32 Z " fill="#B09456" transform="translate(246,390)"/>
<path d="M0,0 L3,0 L3,2 L12,3 L12,4 L5,4 L5,18 L4,18 L3,14 L-1,17 L-2,12 Z " fill="#110411" transform="translate(409,315)"/>
<path d="M0,0 L2,2 L2,5 L15,5 L18,6 L18,21 L17,24 L0,24 L0,23 L16,23 L16,7 L0,7 Z " fill="#D09E41" transform="translate(183,168)"/>
<path d="M0,0 L1,0 L2,8 L1,23 L0,23 L0,16 L-8,16 L-8,8 L0,8 Z " fill="#85603B" transform="translate(453,56)"/>
<path d="M0,0 L40,0 L38,2 L34,3 L5,2 L2,4 L0,7 Z " fill="#E1A631" transform="translate(382,48)"/>
<path d="M0,0 L3,1 L5,6 L7,7 L7,16 L0,16 Z " fill="#240F0D" transform="translate(398,159)"/>
<path d="M0,0 L1,0 L1,22 L-4,22 L-3,5 L-1,1 Z " fill="#F4DD9B" transform="translate(196,232)"/>
<path d="M0,0 L7,0 L7,6 L5,13 L3,12 L3,10 L1,10 L1,23 L0,23 Z " fill="#A3702A" transform="translate(159,438)"/>
<path d="M0,0 L8,0 L8,31 L7,32 L0,32 L0,31 L6,31 L6,2 L0,2 Z " fill="#EFCF75" transform="translate(191,223)"/>
<path d="M0,0 L8,0 L8,8 L16,8 L16,14 L14,11 L2,9 L0,3 Z " fill="#0B0206" transform="translate(103,40)"/>
<path d="M0,0 L16,0 L16,1 L9,1 L9,8 L0,8 Z " fill="#C9A453" transform="translate(270,366)"/>
<path d="M0,0 L1,2 L5,2 L4,5 L3,17 L1,15 L-2,17 L-3,3 L0,3 Z " fill="#120410" transform="translate(346,218)"/>
<path d="M0,0 L1,0 L1,7 L-7,7 L-7,15 L-14,15 L-14,23 L-22,23 L-22,21 L-17,21 L-17,15 L-16,13 L-8,13 L-8,6 L-1,4 Z " fill="#9F6F35" transform="translate(380,88)"/>
<path d="M0,0 L3,0 L3,2 L7,2 L6,10 L7,14 L-1,14 L-1,6 Z " fill="#764512" transform="translate(327,416)"/>
<path d="M0,0 L23,0 L23,2 L13,5 L10,5 L2,3 L0,2 Z " fill="#9E6B2E" transform="translate(310,88)"/>
<path d="M0,0 L3,1 L1,1 L1,3 L6,4 L5,18 L0,17 Z " fill="#0D0209" transform="translate(416,202)"/>
<path d="M0,0 L2,0 L2,15 L-6,15 L-6,31 L-13,31 L-13,29 L-8,28 L-7,14 L-6,12 L0,13 Z " fill="#341504" transform="translate(419,136)"/>
<path d="M0,0 L2,0 L2,8 L-6,8 L-6,16 L-14,16 L-14,15 L-7,15 L-7,6 L-6,1 Z " fill="#30150D" transform="translate(348,64)"/>
<path d="M0,0 L8,0 L8,8 L1,8 L1,13 L0,9 L-5,9 L-5,8 L0,8 Z " fill="#704211" transform="translate(103,374)"/>
<path d="M0,0 L1,0 L1,40 L-7,40 L-6,37 L-1,37 L-1,23 Z " fill="#3D2311" transform="translate(190,231)"/>
<path d="M0,0 L2,0 L2,19 L10,19 L15,20 L14,22 L4,22 L2,21 L2,23 L0,23 Z " fill="#F7EBB9" transform="translate(247,398)"/>
<path d="M0,0 L16,0 L16,8 L8,8 L8,1 L0,1 Z " fill="#D0A13F" transform="translate(175,469)"/>
<path d="M0,0 L8,0 L8,23 L7,23 L7,7 L0,7 Z " fill="#6C3E18" transform="translate(56,287)"/>
<path d="M0,0 L7,0 L7,9 L-1,9 L-1,1 Z " fill="#2A140A" transform="translate(128,63)"/>
<path d="M0,0 L55,0 L55,6 L52,2 L1,1 L1,7 L0,7 Z " fill="#080207" transform="translate(374,32)"/>
<path d="M0,0 L6,0 L6,4 L3,5 L4,1 L1,1 L2,12 L10,13 L8,10 L6,10 L7,7 L14,8 L14,14 L0,14 Z " fill="#130203" transform="translate(152,224)"/>
<path d="M0,0 L4,2 L4,5 L9,6 L9,14 L15,14 L15,9 L16,9 L16,16 L8,16 L8,8 L0,8 Z " fill="#F5D57E" transform="translate(167,263)"/>
<path d="M0,0 L2,0 L3,9 L2,32 L10,32 L10,40 L8,38 L7,35 L1,33 L0,30 Z " fill="#D5A436" transform="translate(109,215)"/>
<path d="M0,0 L16,0 L16,7 L11,5 L10,3 L1,4 L1,6 L-1,5 Z " fill="#A16E36" transform="translate(286,80)"/>
<path d="M0,0 L8,0 L11,1 L11,3 L13,4 L10,6 L1,6 L0,8 Z " fill="#B67F24" transform="translate(183,477)"/>
<path d="M0,0 L2,0 L6,7 L8,10 L4,10 L1,4 L-42,3 L-42,2 L-1,1 Z " fill="#D6A027" transform="translate(181,163)"/>
<path d="M0,0 L4,0 L4,10 L3,12 L-2,11 L-3,4 Z " fill="#A36819" transform="translate(329,90)"/>
<path d="M0,0 L2,0 L3,20 L6,19 L8,23 L0,23 Z " fill="#F7D57B" transform="translate(111,224)"/>
<path d="M0,0 L2,0 L2,23 L-5,23 L-5,16 L-3,20 L0,19 Z " fill="#190301" transform="translate(61,200)"/>
<path d="M0,0 L7,0 L7,24 L15,24 L15,25 L6,26 L5,25 L5,1 L0,1 Z " fill="#240803" transform="translate(295,223)"/>
<path d="M0,0 L8,0 L8,8 L0,9 Z " fill="#906228" transform="translate(413,151)"/>
<path d="M0,0 L47,0 L47,8 L45,5 L44,2 L1,1 L1,7 L0,7 Z " fill="#9F7142" transform="translate(382,40)"/>
<path d="M0,0 L8,0 L8,8 L0,8 Z " fill="#BC8B38" transform="translate(167,461)"/>
<path d="M0,0 L8,0 L8,8 L0,8 Z " fill="#AD8039" transform="translate(302,461)"/>
<path d="M0,0 L8,0 L8,8 L0,8 Z " fill="#E0B345" transform="translate(310,430)"/>
<path d="M0,0 L8,0 L8,8 L0,8 Z " fill="#CB9E48" transform="translate(262,374)"/>
<path d="M0,0 L8,0 L8,8 L0,8 Z " fill="#BC9A55" transform="translate(207,374)"/>
<path d="M0,0 L8,0 L8,8 L0,8 Z " fill="#CDA64C" transform="translate(199,366)"/>
<path d="M0,0 L8,0 L8,8 L0,8 Z " fill="#A57119" transform="translate(143,358)"/>
<path d="M0,0 L8,0 L8,8 L0,8 Z " fill="#A36C10" transform="translate(326,358)"/>
<path d="M0,0 L8,0 L8,8 L0,8 Z " fill="#E3B049" transform="translate(326,239)"/>
<path d="M0,0 L8,0 L8,8 L0,8 Z " fill="#E1B150" transform="translate(143,239)"/>
<path d="M0,0 L8,0 L8,1 L1,1 L1,15 L8,15 L8,16 L1,16 L1,25 L0,33 L-1,33 L-1,18 L-7,17 L-7,16 L0,16 Z " fill="#8E725F" transform="translate(421,207)"/>
<path d="M0,0 L8,0 L8,8 L0,8 Z " fill="#E8D4A2" transform="translate(310,223)"/>
<path d="M0,0 L8,0 L8,8 L0,8 Z " fill="#E8D4A0" transform="translate(159,223)"/>
<path d="M0,0 L8,0 L8,8 L0,8 Z " fill="#402010" transform="translate(334,215)"/>
<path d="M0,0 L8,0 L8,8 L0,8 Z " fill="#8B6534" transform="translate(294,215)"/>
<path d="M0,0 L8,0 L8,8 L0,8 Z " fill="#402416" transform="translate(135,215)"/>
<path d="M0,0 L8,0 L8,8 L0,8 Z " fill="#1E0702" transform="translate(302,215)"/>
<path d="M0,0 L8,0 L8,8 L0,8 Z " fill="#8C612D" transform="translate(175,215)"/>
<path d="M0,0 L8,0 L8,8 L0,8 Z " fill="#1C0805" transform="translate(167,215)"/>
<path d="M0,0 L8,0 L8,8 L0,8 Z " fill="#EEDCA9" transform="translate(350,207)"/>
<path d="M0,0 L8,0 L8,8 L0,8 Z " fill="#99713D" transform="translate(302,207)"/>
<path d="M0,0 L8,0 L8,8 L0,8 Z " fill="#F6D984" transform="translate(294,207)"/>
<path d="M0,0 L8,0 L8,8 L0,8 Z " fill="#F8D37D" transform="translate(175,207)"/>
<path d="M0,0 L8,0 L8,8 L0,8 Z " fill="#976A33" transform="translate(167,207)"/>
<path d="M0,0 L8,0 L8,8 L0,8 Z " fill="#703E12" transform="translate(56,191)"/>
<path d="M0,0 L2,0 L2,8 L-14,8 L-14,24 L-15,24 L-15,7 L-13,6 L-1,6 Z " fill="#D3A33F" transform="translate(292,167)"/>
<path d="M0,0 L8,0 L8,8 L0,8 Z " fill="#B27A1D" transform="translate(429,167)"/>
<path d="M0,0 L8,0 L8,8 L0,8 Z " fill="#A16F2B" transform="translate(40,167)"/>
<path d="M0,0 L8,0 L8,8 L0,8 Z " fill="#8D5E2B" transform="translate(56,151)"/>
<path d="M0,0 L8,0 L8,8 L0,8 Z " fill="#9F6A22" transform="translate(32,151)"/>
<path d="M0,0 L8,0 L8,8 L0,8 Z " fill="#AA7428" transform="translate(437,151)"/>
<path d="M0,0 L8,0 L8,8 L0,8 Z " fill="#A06C28" transform="translate(445,135)"/>
<path d="M0,0 L8,0 L8,8 L0,8 Z " fill="#9A6214" transform="translate(374,135)"/>
<path d="M0,0 L8,0 L8,8 L0,8 Z " fill="#986220" transform="translate(48,135)"/>
<path d="M0,0 L8,0 L8,8 L0,8 Z " fill="#A26F2A" transform="translate(95,135)"/>
<path d="M0,0 L8,0 L8,8 L0,8 Z " fill="#B0751A" transform="translate(24,135)"/>
<path d="M0,0 L8,0 L8,8 L0,8 Z " fill="#9B6622" transform="translate(366,127)"/>
<path d="M0,0 L8,0 L8,8 L0,8 Z " fill="#A87632" transform="translate(453,119)"/>
<path d="M0,0 L8,0 L8,8 L0,8 Z " fill="#A67024" transform="translate(16,119)"/>
<path d="M0,0 L8,0 L8,8 L0,8 Z " fill="#AA6F17" transform="translate(135,80)"/>
<path d="M0,0 L8,0 L8,8 L0,8 Z " fill="#B27A1A" transform="translate(334,80)"/>
<path d="M0,0 L8,0 L8,8 L0,8 Z " fill="#B1741B" transform="translate(127,72)"/>
<path d="M0,0 L8,0 L8,8 L0,8 Z " fill="#AD7219" transform="translate(342,72)"/>
<path d="M0,0 L8,0 L8,8 L0,8 Z " fill="#A16E27" transform="translate(119,64)"/>
<path d="M0,0 L8,0 L8,8 L0,8 Z " fill="#A86E16" transform="translate(24,64)"/>
<path d="M0,0 L8,0 L8,8 L0,8 Z " fill="#B17A2A" transform="translate(350,64)"/>
<path d="M0,0 L8,0 L8,8 L0,8 Z " fill="#AA731E" transform="translate(32,56)"/>
<path d="M0,0 L8,0 L8,8 L0,8 Z " fill="#A16817" transform="translate(358,56)"/>
<path d="M0,0 L8,0 L8,8 L0,8 Z " fill="#A16A24" transform="translate(111,56)"/>
<path d="M0,0 L8,0 L8,8 L0,8 Z " fill="#A06D26" transform="translate(437,56)"/>
<path d="M0,0 L8,0 L8,8 L0,8 Z " fill="#180903" transform="translate(445,56)"/>
<path d="M0,0 L8,0 L8,8 L0,8 Z " fill="#120405" transform="translate(24,56)"/>
<path d="M0,0 L8,0 L8,8 L0,8 Z " fill="#A16E25" transform="translate(95,48)"/>
<path d="M0,0 L8,0 L8,8 L0,8 Z " fill="#AF7723" transform="translate(429,48)"/>
<path d="M0,0 L8,0 L8,8 L0,8 Z " fill="#AD772C" transform="translate(374,48)"/>
<path d="M0,0 L8,0 L8,8 L0,8 Z " fill="#AB701C" transform="translate(40,48)"/>
<path d="M0,0 L8,0 L8,8 L0,8 Z " fill="#160703" transform="translate(32,48)"/>
<path d="M0,0 L8,0 L8,7 L7,8 L0,8 Z " fill="#75430F" transform="translate(374,366)"/>
<path d="M0,0 L8,0 L8,8 L1,8 L0,7 Z " fill="#482918" transform="translate(135,239)"/>
<path d="M0,0 L8,0 L8,8 L1,8 L0,7 Z " fill="#885214" transform="translate(167,223)"/>
<path d="M0,0 L7,0 L7,8 L-1,8 L-1,1 Z " fill="#F6DB8B" transform="translate(120,207)"/>
<path d="M0,0 L4,1 L3,7 L1,7 L2,13 L9,13 L13,11 L15,8 L15,15 L0,15 Z " fill="#E1AA39" transform="translate(414,160)"/>
<path d="M0,0 L6,0 L6,8 L14,8 L14,31 L13,31 L12,13 L11,11 L5,9 L3,1 Z " fill="#250903" transform="translate(145,430)"/>
<path d="M0,0 L7,0 L7,7 L6,8 L-1,8 L-1,1 Z " fill="#1A0B0B" transform="translate(120,406)"/>
<path d="M0,0 L3,0 L3,8 L-5,8 L-5,16 L-6,16 L-7,7 L-2,2 Z " fill="#A77127" transform="translate(371,366)"/>
<path d="M0,0 L15,0 L15,8 L23,8 L23,16 L21,12 L21,10 L13,10 L13,2 L0,1 Z " fill="#F3D17B" transform="translate(295,342)"/>
<path d="M0,0 L1,0 L2,7 L2,15 L1,16 L-6,16 L-6,31 L-7,31 L-8,15 L-2,15 L-1,10 L1,10 L1,8 L-7,8 L-7,7 L0,7 Z " fill="#6B5F5B" transform="translate(349,406)"/>
<path d="M0,0 L3,1 L1,4 L16,3 L18,4 L31,5 L31,6 L0,6 Z " fill="#D2A431" transform="translate(279,336)"/>
<path d="M0,0 L1,0 L1,20 L-3,15 L-3,4 L-5,3 L-1,2 Z " fill="#1E0D0B" transform="translate(134,219)"/>
<path d="M0,0 L47,0 L45,3 L45,1 L4,2 L2,3 L2,7 L0,7 Z " fill="#D0A95A" transform="translate(215,430)"/>
<path d="M0,0 L2,0 L2,3 L-6,3 L-6,11 L-14,11 L-14,3 L-12,6 L-12,9 L-9,7 L-7,1 Z " fill="#D8A233" transform="translate(141,363)"/>
<path d="M0,0 L2,0 L2,24 L9,24 L9,25 L3,26 L0,23 L-1,17 Z " fill="#F0E3B6" transform="translate(125,224)"/>
<path d="M0,0 L2,0 L2,7 L-6,7 L-8,3 L-11,2 L-11,1 Z " fill="#0C0104" transform="translate(292,486)"/>
<path d="M0,0 L1,0 L1,7 L-16,7 L-15,3 L-2,3 Z " fill="#AF8242" transform="translate(293,478)"/>
<path d="M0,0 L4,0 L4,15 L0,15 Z " fill="#170C10" transform="translate(370,383)"/>
<path d="M0,0 L6,0 L7,5 L6,15 L5,17 L3,17 L2,4 Z " fill="#925A1A" transform="translate(325,218)"/>
<path d="M0,0 L8,0 L8,2 L3,5 L4,14 L0,16 Z " fill="#B0770F" transform="translate(151,342)"/>
<path d="M0,0 L8,0 L7,8 L0,8 Z " fill="#4D2A12" transform="translate(334,239)"/>
<path d="M0,0 L8,0 L8,8 L0,7 Z " fill="#F0D88E" transform="translate(183,215)"/>
<path d="M0,0 L3,1 L17,2 L18,5 L6,6 L1,4 Z M17,1 Z " fill="#0C0106" transform="translate(311,208)"/>
<path d="M0,0 L1,0 L3,27 L-3,27 L-1,23 L-1,13 Z " fill="#FCE4A8" transform="translate(331,386)"/>
<path d="M0,0 L15,0 L12,2 L2,2 L2,9 L0,10 L-7,9 L-7,16 L-8,16 L-8,8 L0,8 Z " fill="#F4D077" transform="translate(167,342)"/>
<path d="M0,0 L8,0 L8,7 L0,8 Z " fill="#814A11" transform="translate(413,287)"/>
<path d="M0,0 L6,0 L7,1 L7,7 L2,8 L1,15 L0,15 Z " fill="#B98A48" transform="translate(303,231)"/>
<path d="M0,0 L3,1 L3,13 L-3,13 L-4,8 L-1,7 Z " fill="#BA8529" transform="translate(170,232)"/>
<path d="M0,0 L3,4 L10,5 L25,5 L28,7 L0,7 Z " fill="#1B0400" transform="translate(310,208)"/>
<path d="M0,0 L8,0 L7,2 L4,3 L4,14 L0,16 Z " fill="#331607" transform="translate(445,143)"/>
<path d="M0,0 L31,0 L31,7 L30,3 L21,2 L4,2 Z " fill="#DDA22C" transform="translate(279,88)"/>
<path d="M0,0 L16,0 L16,1 L1,1 L1,7 L6,6 L5,13 L-1,13 L0,10 Z " fill="#BC8C36" transform="translate(270,477)"/>
<path d="M0,0 L8,0 L8,7 L0,7 Z " fill="#A17234" transform="translate(175,470)"/>
<path d="M0,0 L8,0 L8,7 L0,7 Z " fill="#AB782C" transform="translate(294,470)"/>
<path d="M0,0 L8,0 L8,7 L0,7 Z " fill="#DDAC46" transform="translate(159,430)"/>
<path d="M0,0 L7,0 L7,8 L0,8 Z " fill="#1D0403" transform="translate(112,398)"/>
<path d="M0,0 L7,0 L7,8 L0,8 Z " fill="#1A0605" transform="translate(358,398)"/>
<path d="M0,0 L7,0 L7,8 L0,8 Z " fill="#D3A74D" transform="translate(215,382)"/>
<path d="M0,0 L7,0 L7,8 L0,8 Z " fill="#D4A848" transform="translate(255,382)"/>
<path d="M0,0 L7,0 L7,8 L0,8 Z " fill="#6F4323" transform="translate(366,374)"/>
<path d="M0,0 L7,0 L7,8 L0,8 Z " fill="#170506" transform="translate(382,366)"/>
<path d="M0,0 L7,0 L7,8 L0,8 Z " fill="#EFDA9E" transform="translate(191,342)"/>
<path d="M0,0 L7,0 L7,8 L0,8 Z " fill="#754723" transform="translate(80,342)"/>
<path d="M0,0 L7,0 L7,8 L0,8 Z " fill="#F5DF9D" transform="translate(279,342)"/>
<path d="M0,0 L8,0 L8,7 L0,7 Z " fill="#A06619" transform="translate(103,128)"/>
<path d="M0,0 L8,0 L8,7 L0,7 Z " fill="#A26919" transform="translate(358,120)"/>
<path d="M0,0 L2,0 L2,8 L-29,8 L-29,2 L-28,6 L-1,6 Z " fill="#220601" transform="translate(332,79)"/>
<path d="M0,0 L7,0 L7,8 L0,8 Z " fill="#110603" transform="translate(430,40)"/>
<path d="M0,0 L7,0 L7,7 L6,8 L0,8 Z " fill="#674022" transform="translate(358,390)"/>
<path d="M0,0 L1,0 L1,7 L9,7 L10,12 L10,14 L15,15 L15,0 L16,0 L17,16 L8,16 L8,8 L0,8 Z " fill="#210B06" transform="translate(207,366)"/>
<path d="M0,0 L2,0 L2,7 L-6,7 L-6,15 L-11,15 L-8,10 L-8,6 L-1,3 Z " fill="#976B32" transform="translate(427,176)"/>
<path d="M0,0 L1,0 L1,8 L-7,8 L-7,16 L-15,16 L-12,12 L-10,8 L-9,7 L0,7 Z " fill="#84582A" transform="translate(55,72)"/>
<path d="M0,0 L16,0 L16,7 L5,7 L5,6 L15,6 L15,2 L5,3 L0,3 Z " fill="#180A0A" transform="translate(175,72)"/>
<path d="M0,0 L5,1 L6,11 L0,11 Z " fill="#15080F" transform="translate(391,352)"/>
<path d="M0,0 L4,0 L4,12 L-1,12 Z " fill="#AA731C" transform="translate(161,320)"/>
<path d="M0,0 L9,0 L12,1 L12,3 L4,6 L0,6 Z " fill="#895619" transform="translate(311,217)"/>
<path d="M0,0 L1,0 L1,7 L-23,7 L-22,5 L-2,4 Z " fill="#1E0500" transform="translate(166,208)"/>
<path d="M0,0 L1,0 L1,7 L-6,9 L-7,16 L-15,16 L-15,14 L-8,14 L-8,8 L-4,7 L-2,2 Z " fill="#D1A53A" transform="translate(126,199)"/>
<path d="M0,0 L16,0 L16,8 L0,8 Z M1,1 L1,7 L9,7 L14,6 L15,1 Z " fill="#4A2501" transform="translate(111,183)"/>
<path d="M0,0 L6,0 L6,7 L1,12 Z " fill="#100206" transform="translate(176,224)"/>
<path d="M0,0 L1,3 L8,3 L10,8 L10,15 L8,15 L8,7 L0,7 Z " fill="#A26F2F" transform="translate(48,176)"/>
<path d="M0,0 L1,0 L1,6 L-39,6 L-39,5 L-2,5 L-1,1 Z " fill="#F5E7B7" transform="translate(213,423)"/>
<path d="M0,0 L8,0 L8,16 L0,16 L4,14 L6,14 L6,2 L0,2 Z " fill="#C69C4F" transform="translate(334,223)"/>
<path d="M0,0 L24,0 L23,3 L0,2 Z " fill="#9C6B34" transform="translate(143,88)"/>
<path d="M0,0 L10,1 L9,4 L6,7 L0,6 Z " fill="#8A551E" transform="translate(143,217)"/>
<path d="M0,0 L7,0 L7,39 L6,39 L5,3 L0,1 Z " fill="#351500" transform="translate(430,88)"/>
<path d="M0,0 L7,0 L7,7 L0,7 L-1,1 Z " fill="#110304" transform="translate(350,56)"/>
<path d="M0,0 L35,1 L35,2 L2,2 L3,7 L0,7 Z " fill="#180C0F" transform="translate(262,430)"/>
<path d="M0,0 L8,0 L8,8 L16,8 L16,9 L5,11 L5,13 L2,14 L3,9 L7,8 L7,1 L1,1 L1,10 L0,10 Z " fill="#322014" transform="translate(183,342)"/>
<path d="M0,0 L3,0 L3,19 L0,17 Z " fill="#F2E4AB" transform="translate(295,256)"/>
<path d="M0,0 L7,0 L7,7 L0,7 Z " fill="#0E0203" transform="translate(247,382)"/>
<path d="M0,0 L7,0 L7,7 L0,7 Z " fill="#0E0105" transform="translate(374,375)"/>
<path d="M0,0 L7,0 L7,7 L0,7 Z " fill="#100203" transform="translate(136,247)"/>
<path d="M0,0 L4,0 L5,11 L1,12 L0,11 Z " fill="#EBB22A" transform="translate(137,225)"/>
<path d="M0,0 L1,0 L1,5 L9,6 L11,8 L11,13 L14,12 L14,14 L16,15 L8,15 L8,7 L0,7 Z " fill="#2B0E03" transform="translate(374,128)"/>
<path d="M0,0 L7,0 L7,7 L0,7 Z " fill="#110204" transform="translate(120,56)"/>
<path d="M0,0 L7,0 L7,7 L0,7 Z " fill="#120204" transform="translate(40,40)"/>
<path d="M0,0 L8,2 L8,3 L0,3 L0,11 L-8,11 L-3,6 L-1,1 Z " fill="#F1D183" transform="translate(318,419)"/>
<path d="M0,0 L8,0 L8,10 L12,11 L9,12 L6,15 L3,15 L4,9 L6,8 L7,1 L0,1 Z " fill="#241310" transform="translate(40,175)"/>
<path d="M0,0 L1,0 L2,15 L1,16 L-5,16 L-7,15 L-7,30 L-8,30 L-8,14 L0,14 Z " fill="#CA9126" transform="translate(87,161)"/>
<path d="M0,0 L36,0 L36,7 L34,3 L31,2 L0,1 Z " fill="#190B01" transform="translate(179,430)"/>
<path d="M0,0 L1,0 L2,18 L3,21 L-3,21 L-3,15 L-1,14 Z " fill="#F7E29D" transform="translate(179,256)"/>
<path d="M0,0 L24,0 L23,5 L21,5 L21,2 L9,2 L0,1 Z " fill="#E0A835" transform="translate(71,48)"/>
<path d="M0,0 L2,3 L3,14 L-2,14 L-2,3 Z " fill="#130B12" transform="translate(105,384)"/>
<path d="M0,0 L8,0 L7,5 L3,6 L3,8 L1,8 L0,6 Z " fill="#764313" transform="translate(381,358)"/>
<path d="M0,0 L2,0 L2,9 L-6,9 L-5,17 L-9,17 L-9,15 L-7,15 L-7,8 L-1,8 L-1,1 Z " fill="#A77434" transform="translate(387,349)"/>
<path d="M0,0 L5,0 L3,1 L1,8 L3,8 L3,10 L-6,10 L-6,14 L-8,14 L-8,8 L0,8 Z " fill="#A66E0F" transform="translate(374,72)"/>
<path d="M0,0 L3,0 L3,15 L0,15 Z " fill="#8C5709" transform="translate(143,223)"/>
<path d="M0,0 L23,0 L23,5 L21,2 L3,1 L2,8 L0,8 Z " fill="#2F1002" transform="translate(56,72)"/>
<path d="M0,0 L11,0 L11,4 L0,4 Z " fill="#2F1A15" transform="translate(352,185)"/>
<path d="M0,0 L1,0 L1,9 L-2,9 L-3,11 L-5,11 L-5,1 Z " fill="#0D020B" transform="translate(444,160)"/>
<path d="M0,0 L5,1 L5,8 L-1,8 L-1,1 Z " fill="#0D0308" transform="translate(456,135)"/>
<path d="M0,0 L15,0 L16,5 L14,4 L-2,3 L0,2 Z " fill="#DACB9E" transform="translate(249,419)"/>
<path d="M0,0 L8,0 L8,2 L6,2 L5,7 L0,7 Z " fill="#1D0302" transform="translate(342,414)"/>
<path d="M0,0 L6,0 L5,3 L7,3 L7,7 L1,8 L0,7 Z " fill="#100303" transform="translate(350,406)"/>
<path d="M0,0 L7,0 L7,7 L1,7 Z " fill="#7A4612" transform="translate(96,366)"/>
<path d="M0,0 L7,0 L7,8 L1,6 Z " fill="#704316" transform="translate(88,358)"/>
<path d="M0,0 L3,1 L3,15 L0,15 Z " fill="#F4E3AE" transform="translate(295,343)"/>
<path d="M0,0 L3,1 L3,3 L-18,3 L-17,1 Z " fill="#F2DEA9" transform="translate(218,339)"/>
<path d="M0,0 L7,0 L5,7 L4,7 L4,2 L2,3 L2,12 L-1,16 Z " fill="#240C06" transform="translate(398,334)"/>
<path d="M0,0 L8,0 L6,2 L2,3 L2,10 L3,14 L6,15 L0,15 Z " fill="#DBA42E" transform="translate(294,279)"/>
<path d="M0,0 L4,0 L5,5 L13,5 L13,6 L6,6 L6,13 L5,13 L4,8 L0,4 Z " fill="#43383D" transform="translate(281,488)"/>
<path d="M0,0 L4,0 L5,7 L13,7 L13,12 L11,12 L10,10 L3,7 L2,3 L-1,1 Z " fill="#F5E096" transform="translate(209,383)"/>
<path d="M0,0 L2,1 L3,12 L8,13 L8,15 L0,15 Z " fill="#2F1205" transform="translate(390,144)"/>
<path d="M0,0 L7,0 L7,16 L6,12 L4,12 L4,1 Z " fill="#DDA82F" transform="translate(40,128)"/>
<path d="M0,0 L1,0 L1,16 L9,16 L9,17 L1,17 L1,25 L0,25 L0,17 L-7,17 L-7,16 L0,15 Z " fill="#827264" transform="translate(15,63)"/>
<path d="M0,0 L1,0 L1,8 L-7,8 L-7,13 L-9,11 L-9,6 L-2,5 Z " fill="#D79F28" transform="translate(357,358)"/>
<path d="M0,0 L2,0 L2,14 L-6,14 L-6,12 L-1,11 Z " fill="#331306" transform="translate(85,145)"/>
<path d="M0,0 L7,0 L3,3 L1,8 L0,8 Z M-8,8 L0,8 L-4,10 L-8,13 Z " fill="#E0A531" transform="translate(350,72)"/>
<path d="M0,0 L2,2 L3,5 L8,7 L8,8 L0,8 L0,15 L-1,15 L-1,9 L-7,9 L-7,8 L-1,7 Z " fill="#756050" transform="translate(127,406)"/>
<path d="M0,0 L3,0 L3,2 L12,3 L12,4 L5,4 L5,18 L4,18 L3,5 L0,6 L-1,3 Z " fill="#2D242C" transform="translate(409,315)"/>
<path d="M0,0 L2,1 L2,5 L-3,6 L-8,4 L-8,12 L-9,12 L-9,2 L-1,1 Z " fill="#1F0608" transform="translate(415,309)"/>
<path d="M0,0 L1,0 L1,12 L6,13 L7,9 L7,16 L0,16 Z " fill="#2D0F03" transform="translate(398,159)"/>
<path d="M0,0 L11,0 L11,4 L0,4 Z " fill="#15070C" transform="translate(299,479)"/>
<path d="M0,0 L5,0 L4,2 L2,2 L2,12 L-6,11 L-6,9 L-1,8 Z " fill="#160514" transform="translate(328,431)"/>
<path d="M0,0 L6,0 L6,7 L0,6 Z " fill="#7A4813" transform="translate(113,390)"/>
<path d="M0,0 L5,0 L6,5 L8,7 L0,7 Z " fill="#0B0303" transform="translate(88,367)"/>
<path d="M0,0 L2,0 L2,9 L-6,9 L-6,1 L-4,1 L-3,7 L0,8 Z " fill="#D4A231" transform="translate(316,341)"/>
<path d="M0,0 L2,2 L-5,2 L-5,10 L-17,10 L-17,9 L-8,9 L-7,1 Z " fill="#F9D88A" transform="translate(291,467)"/>
<path d="M0,0 L1,0 L1,16 L-7,16 L-6,12 L-1,12 L0,15 Z " fill="#B37A17" transform="translate(198,255)"/>
<path d="M0,0 L8,0 L10,2 L9,6 L7,9 L5,9 L4,11 L5,3 L6,2 L0,1 Z M8,2 Z " fill="#E6D197" transform="translate(342,247)"/>
<path d="M0,0 L6,0 L6,15 L3,13 L4,1 Z " fill="#DEA431" transform="translate(137,88)"/>
<path d="M0,0 L22,0 L22,1 L10,2 L3,2 L1,8 L0,8 Z " fill="#E0A636" transform="translate(48,48)"/>
<path d="M0,0 L2,0 L2,4 L0,5 L-9,5 L-10,2 Z " fill="#0B050D" transform="translate(193,487)"/>
<path d="M0,0 L2,4 L3,11 L7,10 L8,13 L0,13 Z " fill="#070204" transform="translate(80,353)"/>
<path d="M0,0 L7,0 L7,6 L-9,6 L-9,5 L5,5 L5,2 L-1,2 Z " fill="#140403" transform="translate(303,248)"/>
<path d="M0,0 L1,0 L1,14 L-5,13 L-2,9 L-1,1 Z " fill="#240F0B" transform="translate(418,135)"/>
<path d="M0,0 L1,0 L1,8 L-13,8 L-12,3 L-8,3 L-8,7 L0,7 Z " fill="#452C1B" transform="translate(254,382)"/>
<path d="M0,0 L1,0 L1,5 L5,5 L7,0 L8,0 L8,8 L0,8 Z " fill="#F7D377" transform="translate(294,271)"/>
<path d="M0,0 L3,1 L4,6 L9,6 L8,8 L0,8 Z " fill="#F5D47D" transform="translate(119,247)"/>
<path d="M0,0 L7,0 L7,7 L5,5 L0,5 Z " fill="#140308" transform="translate(334,247)"/>
<path d="M0,0 L21,1 L21,2 L4,3 L-1,4 Z " fill="#A67832" transform="translate(305,238)"/>
<path d="M0,0 L5,0 L5,10 L2,10 L2,4 L0,4 Z " fill="#090202" transform="translate(295,224)"/>
<path d="M0,0 L2,2 L2,6 L16,7 L16,8 L0,8 Z " fill="#F9D98C" transform="translate(191,469)"/>
<path d="M0,0 L1,0 L1,14 L-2,14 L-3,11 L0,8 L-2,8 L-2,1 Z " fill="#F2E1AB" transform="translate(181,344)"/>
<path d="M0,0 L8,0 L8,15 L6,15 L7,3 L2,3 L2,1 Z " fill="#DAA32F" transform="translate(175,279)"/>
<path d="M0,0 L9,3 L10,4 L10,12 L8,11 L8,4 L0,4 Z " fill="#D0A444" transform="translate(358,211)"/>
<path d="M0,0 L14,0 L14,1 L2,1 L2,4 L7,4 L8,6 L0,6 Z " fill="#2F1204" transform="translate(112,184)"/>
<path d="M0,0 L5,0 L5,2 L3,3 L2,14 L0,14 Z " fill="#A57333" transform="translate(88,144)"/>
<path d="M0,0 L8,0 L8,9 L4,7 L6,2 L1,2 Z " fill="#D2972D" transform="translate(366,135)"/>
<path d="M0,0 L5,0 L2,3 L3,14 L0,14 Z " fill="#DDA430" transform="translate(334,88)"/>
<path d="M0,0 L8,0 L8,8 L6,8 L5,4 L3,5 L3,3 L1,3 Z " fill="#DAA73E" transform="translate(103,56)"/>
<path d="M0,0 L2,3 L2,6 L7,6 L8,8 L1,8 L1,13 L0,9 L-5,9 L-5,8 L0,8 Z " fill="#563B2E" transform="translate(103,374)"/>
<path d="M0,0 L5,0 L3,5 L1,14 L0,14 Z " fill="#DAA02D" transform="translate(183,295)"/>
<path d="M0,0 L2,0 L3,13 L1,15 L0,14 Z " fill="#190A05" transform="translate(183,254)"/>
<path d="M0,0 L9,0 L9,8 L4,8 L7,7 L6,3 L0,2 Z " fill="#4F2705" transform="translate(341,175)"/>
<path d="M0,0 L2,2 L3,6 L2,8 L-3,8 L-3,2 Z " fill="#170811" transform="translate(36,166)"/>
<path d="M0,0 L1,0 L1,8 L0,6 L-4,7 L-5,1 Z " fill="#9E6718" transform="translate(412,168)"/>
<path d="M0,0 L2,0 L2,9 L3,13 L6,15 L0,15 Z " fill="#220B07" transform="translate(58,136)"/>
<path d="M0,0 L9,0 L9,2 L2,3 L1,6 L6,6 L6,8 L0,8 Z " fill="#A66E0F" transform="translate(342,103)"/>
<path d="M0,0 L6,0 L6,1 L1,1 L1,13 L7,12 L7,15 L0,15 Z " fill="#160201" transform="translate(454,64)"/>
<path d="M0,0 L9,0 L9,1 L3,1 L3,7 L2,8 L-3,8 L1,7 L1,3 L-2,4 L-3,2 Z " fill="#595151" transform="translate(356,406)"/>
<path d="M0,0 L8,0 L8,2 L3,4 L2,9 L0,9 Z " fill="#8C5509" transform="translate(135,366)"/>
<path d="M0,0 L3,1 L2,13 L0,16 Z " fill="#050002" transform="translate(128,222)"/>
<path d="M0,0 L6,0 L3,3 L2,12 L0,14 Z " fill="#A37038" transform="translate(80,160)"/>
<path d="M0,0 L6,1 L5,4 L8,6 L-1,6 L-2,2 Z " fill="#261C27" transform="translate(461,130)"/>
<path d="M0,0 L2,4 L3,8 L1,10 L-6,10 L-7,16 L-8,16 L-8,9 L0,9 Z " fill="#D69D2A" transform="translate(135,103)"/>
<path d="M0,0 L2,1 L2,3 L5,3 L6,8 L0,8 Z " fill="#A76E16" transform="translate(445,64)"/>
<path d="M0,0 L14,0 L14,1 L2,2 L2,5 L4,6 L2,10 L0,10 Z " fill="#090104" transform="translate(334,64)"/>
<path d="M0,0 L1,0 L1,16 L0,16 L0,8 L-5,8 L-5,6 L-1,5 Z " fill="#533928" transform="translate(389,358)"/>
<path d="M0,0 L2,0 L3,15 L0,14 Z M3,12 Z " fill="#252125" transform="translate(63,319)"/>
<path d="M0,0 L7,0 L7,18 L5,14 L5,2 L0,1 Z M4,14 Z " fill="#1B0201" transform="translate(64,311)"/>
<path d="M0,0 L3,0 L3,9 L0,10 L-1,1 Z " fill="#E5AF29" transform="translate(336,226)"/>
<path d="M0,0 L4,1 L3,13 L1,10 L0,7 Z M0,10 Z " fill="#0B0103" transform="translate(346,222)"/>
<path d="M0,0 L1,0 L1,7 L-8,7 L-7,5 L-2,2 Z " fill="#2D0F03" transform="translate(94,136)"/>
<path d="M0,0 L1,0 L1,8 L-6,8 L-7,6 L-1,2 Z " fill="#2F0F04" transform="translate(110,119)"/>
<path d="M0,0 L7,0 L7,7 L4,7 Z " fill="#9C6D33" transform="translate(136,80)"/>
<path d="M0,0 L3,1 L3,3 L-12,3 L-12,1 Z " fill="#070103" transform="translate(307,482)"/>
<path d="M0,0 L2,1 L2,8 L-5,8 L-2,3 L0,3 Z " fill="#B58131" transform="translate(323,429)"/>
<path d="M0,0 L3,1 L4,7 L8,8 L0,9 Z " fill="#5D3922" transform="translate(119,398)"/>
<path d="M0,0 L4,0 L5,6 L-1,6 L-1,1 Z " fill="#D8AB3F" transform="translate(208,376)"/>
<path d="M0,0 L1,2 L4,2 L4,4 L-2,4 L-2,13 L-10,13 L-10,12 L-3,12 L-3,3 L0,2 Z " fill="#D49A23" transform="translate(177,290)"/>
<path d="M0,0 L1,0 L2,10 L-4,8 L-3,4 L-1,1 Z " fill="#12060D" transform="translate(133,234)"/>
<path d="M0,0 L8,0 L8,8 L5,5 L5,2 L0,3 Z " fill="#734B27" transform="translate(167,223)"/>
<path d="M0,0 L10,0 L9,4 L4,4 L4,3 L-1,2 Z " fill="#8E5817" transform="translate(155,218)"/>
<path d="M0,0 L2,0 L3,6 L8,6 L9,8 L0,8 Z " fill="#D4A13D" transform="translate(342,167)"/>
<path d="M0,0 L8,0 L8,15 L7,15 L6,6 L4,2 Z " fill="#DFA839" transform="translate(55,160)"/>
<path d="M0,0 L1,0 L1,13 L-6,13 L-2,12 L-2,6 L0,6 Z " fill="#A66A12" transform="translate(94,146)"/>
<path d="M0,0 L3,1 L3,6 L8,7 L8,8 L0,8 Z " fill="#AA763C" transform="translate(24,135)"/>
<path d="M0,0 L8,0 L8,1 L1,1 L1,7 L5,7 L5,5 L7,5 L8,2 L8,8 L0,8 Z " fill="#89571A" transform="translate(95,135)"/>
<path d="M0,0 L8,0 L8,1 L3,2 L3,5 L2,6 L8,6 L8,8 L0,8 Z " fill="#B17B2C" transform="translate(445,135)"/>
<path d="M0,0 L8,0 L8,8 L6,8 L4,2 L0,2 Z " fill="#2A0F06" transform="translate(103,104)"/>
<path d="M0,0 L7,0 L4,3 L3,8 L0,8 Z " fill="#9D6B36" transform="translate(24,64)"/>
<path d="M0,0 L13,0 L13,7 L9,3 L9,1 L0,1 Z " fill="#1C0501" transform="translate(170,478)"/>
<path d="M0,0 L1,2 L4,3 L6,5 L2,6 L1,20 L0,20 Z " fill="#110203" transform="translate(319,441)"/>
<path d="M0,0 L6,0 L6,8 L1,8 L2,5 L4,5 Z " fill="#1A0304" transform="translate(97,374)"/>
<path d="M0,0 L1,0 L1,8 L-7,8 L-7,16 L-8,16 L-9,7 L-4,6 L0,7 Z " fill="#D49C26" transform="translate(373,342)"/>
<path d="M0,0 L7,0 L3,2 L2,7 L2,12 L3,15 L0,14 Z " fill="#A9700E" transform="translate(382,327)"/>
<path d="M0,0 L2,1 L1,18 L0,18 L0,2 L-10,2 L-10,1 Z " fill="#CEA845" transform="translate(278,332)"/>
<path d="M0,0 L7,0 L7,5 L2,5 Z " fill="#6F3B0D" transform="translate(72,327)"/>
<path d="M0,0 L8,0 L8,8 L6,5 L6,3 L-1,5 L-1,2 L2,2 Z " fill="#DECEA3" transform="translate(127,247)"/>
<path d="M0,0 L15,0 L13,2 L2,1 L3,6 L0,6 Z " fill="#110201" transform="translate(112,216)"/>
<path d="M0,0 L8,0 L8,8 L6,8 L5,2 L0,2 Z " fill="#845A2D" transform="translate(374,135)"/>
<path d="M0,0 L8,0 L9,2 L3,4 L1,7 L0,6 Z " fill="#070102" transform="translate(366,40)"/>
<path d="M0,0 L8,1 L8,2 L2,2 L2,8 L0,9 L0,2 L-7,2 L-7,1 Z " fill="#6F6462" transform="translate(381,373)"/>
<path d="M0,0 L4,0 L4,7 L-2,7 L0,3 Z " fill="#714624" transform="translate(393,343)"/>
<path d="M0,0 L7,0 L7,9 L5,10 L6,3 L0,2 Z " fill="#1A0301" transform="translate(56,295)"/>
<path d="M0,0 L5,0 L5,2 L3,2 L2,7 L7,7 L7,8 L0,8 Z " fill="#EBDCAD" transform="translate(183,222)"/>
<path d="M0,0 L8,0 L8,8 L6,8 L5,3 L1,3 Z " fill="#F4D074" transform="translate(183,215)"/>
<path d="M0,0 L2,2 L2,5 L8,6 L8,8 L0,8 Z " fill="#D7A832" transform="translate(175,199)"/>
<path d="M0,0 L3,1 L3,10 L0,10 Z " fill="#DEA941" transform="translate(24,125)"/>
<path d="M0,0 L1,0 L2,5 L8,7 L8,8 L-1,8 L-1,1 Z " fill="#2B0E02" transform="translate(367,119)"/>
<path d="M0,0 L7,0 L5,4 L0,6 Z " fill="#71410B" transform="translate(366,374)"/>
<path d="M0,0 L1,0 L3,14 L7,16 L1,16 L0,15 Z " fill="#573821" transform="translate(87,350)"/>
<path d="M0,0 L3,1 L0,3 L-2,8 L-6,7 L-5,1 L-3,2 Z " fill="#F5DD91" transform="translate(301,269)"/>
<path d="M0,0 L1,0 L1,8 L-7,8 L-7,5 L-1,4 Z " fill="#2E1E14" transform="translate(341,247)"/>
<path d="M0,0 L6,0 L5,6 L0,5 Z " fill="#110411" transform="translate(130,212)"/>
<path d="M0,0 L8,0 L5,2 L3,3 L2,6 L6,7 L0,7 Z " fill="#2F0F03" transform="translate(358,112)"/>
<path d="M0,0 L9,0 L9,7 L8,3 L2,3 Z " fill="#D19C39" transform="translate(301,88)"/>
<path d="M0,0 L7,0 L3,5 L2,8 L0,8 Z " fill="#A06E36" transform="translate(40,48)"/>
<path d="M0,0 L2,0 L2,7 L-1,7 L-1,3 L-7,3 L-3,1 Z " fill="#AE793C" transform="translate(93,40)"/>
<path d="M0,0 L7,0 L7,5 L5,2 L2,2 L3,7 L0,7 Z " fill="#AA7B36" transform="translate(167,462)"/>
<path d="M0,0 L8,0 L13,1 L12,3 L2,3 L0,2 Z " fill="#F9E7AA" transform="translate(249,417)"/>
<path d="M0,0 L2,2 L2,5 L7,6 L7,7 L-1,7 L-1,1 Z " fill="#986B1F" transform="translate(327,359)"/>
<path d="M0,0 L7,0 L7,6 L2,5 L2,1 Z " fill="#7C450C" transform="translate(80,342)"/>
<path d="M0,0 L8,0 L7,2 L2,2 L2,8 L0,8 Z " fill="#D2A42B" transform="translate(358,247)"/>
<path d="M0,0 L6,1 L5,3 L3,2 L2,9 L0,9 Z " fill="#AC7D39" transform="translate(167,230)"/>
<path d="M0,0 L2,0 L2,7 L-6,7 L-5,5 L0,4 Z " fill="#A6773C" transform="translate(435,168)"/>
<path d="M0,0 L8,0 L8,7 L2,7 L3,5 L6,5 L6,1 L0,1 Z " fill="#311201" transform="translate(111,112)"/>
<path d="M0,0 L2,2 L2,5 L6,5 L7,8 L0,8 Z " fill="#9E6D33" transform="translate(88,79)"/>
<path d="M0,0 L8,0 L8,7 L6,7 L5,3 L0,2 Z " fill="#A1733C" transform="translate(127,72)"/>
<path d="M0,0 L1,0 L1,7 L0,8 L-7,8 L-7,6 L-1,6 L-1,1 Z " fill="#60381E" transform="translate(381,366)"/>
<path d="M0,0 L8,0 L8,2 L2,4 L0,6 Z " fill="#AA710E" transform="translate(350,366)"/>
<path d="M0,0 L8,0 L7,2 L3,3 L2,7 L0,7 Z " fill="#AA720E" transform="translate(366,350)"/>
<path d="M0,0 L7,0 L2,6 L0,9 Z " fill="#1C0201" transform="translate(414,295)"/>
<path d="M0,0 L8,0 L4,2 L2,8 L0,8 Z " fill="#D3A636" transform="translate(350,255)"/>
<path d="M0,0 L5,0 L5,4 L3,4 L3,6 L0,6 Z " fill="#9B6923" transform="translate(303,208)"/>
<path d="M0,0 L7,0 L7,11 L4,8 L5,2 L0,1 Z " fill="#1F0604" transform="translate(24,144)"/>
<path d="M0,0 L7,0 L7,13 L6,13 L5,3 L0,2 Z " fill="#926434" transform="translate(382,143)"/>
<path d="M0,0 L6,0 L5,4 L0,5 Z " fill="#A36A14" transform="translate(453,120)"/>
<path d="M0,0 L1,3 L7,2 L8,6 L0,6 Z " fill="#AB7738" transform="translate(96,89)"/>
<path d="M0,0 L6,0 L5,4 L0,6 Z " fill="#723B0E" transform="translate(303,470)"/>
<path d="M0,0 L1,0 L1,8 L-7,8 L-7,7 L0,7 L0,4 L-2,4 L-3,6 L-3,2 L0,2 Z " fill="#DAA536" transform="translate(317,430)"/>
<path d="M0,0 L2,0 L2,4 L6,5 L6,7 L0,7 Z " fill="#B08136" transform="translate(152,430)"/>
<path d="M0,0 L5,0 L5,8 L-3,8 L1,5 L3,4 L4,1 Z " fill="#1F0A08" transform="translate(130,414)"/>
<path d="M0,0 L1,0 L1,7 L-7,7 L-3,4 L-1,4 Z " fill="#1C0B01" transform="translate(293,351)"/>
<path d="M0,0 L8,0 L8,8 L6,7 L6,2 L0,1 Z " fill="#D3A433" transform="translate(119,255)"/>
<path d="M0,0 L7,0 L7,8 L4,5 L3,2 Z " fill="#5E3203" transform="translate(136,239)"/>
<path d="M0,0 L3,0 L3,5 L-5,5 L-2,2 L0,2 Z " fill="#4C2406" transform="translate(140,218)"/>
<path d="M0,0 L7,0 L7,10 L5,8 L4,2 Z M5,10 Z " fill="#170201" transform="translate(16,128)"/>
<path d="M0,0 L8,0 L7,2 L2,2 L2,7 L0,7 Z " fill="#321204" transform="translate(366,104)"/>
<path d="M0,0 L8,0 L6,2 L2,2 L2,7 L0,8 Z " fill="#311004" transform="translate(382,88)"/>
<path d="M0,0 L7,0 L5,3 L2,3 L1,7 L0,7 Z " fill="#9F7234" transform="translate(342,72)"/>
<path d="M0,0 L1,0 L1,7 L-6,7 L-5,4 L-2,4 Z " fill="#A87334" transform="translate(54,72)"/>
<path d="M0,0 L5,0 L5,7 L0,4 Z " fill="#B87C1D" transform="translate(154,430)"/>
<path d="M0,0 L7,0 L1,7 L0,7 Z " fill="#180103" transform="translate(334,422)"/>
<path d="M0,0 L4,2 L4,7 L0,7 Z " fill="#090305" transform="translate(112,399)"/>
<path d="M0,0 L6,0 L5,4 L0,6 Z " fill="#743F0C" transform="translate(358,390)"/>
<path d="M0,0 L8,0 L7,2 L2,4 L0,8 Z " fill="#F3D57D" transform="translate(254,390)"/>
<path d="M0,0 L4,1 L4,6 L0,7 Z " fill="#C08728" transform="translate(304,232)"/>
<path d="M0,0 L5,0 L5,4 L2,5 L0,7 Z " fill="#69360C" transform="translate(414,192)"/>
<path d="M0,0 L5,1 L6,5 L0,5 Z " fill="#A66A17" transform="translate(56,154)"/>
<path d="M0,0 L2,0 L2,9 L-4,9 L-1,8 Z " fill="#D8A54D" transform="translate(451,126)"/>
<path d="M0,0 L5,3 L10,4 L10,5 L1,5 L0,7 Z " fill="#AA7A3A" transform="translate(183,478)"/>
<path d="M0,0 L2,0 L3,7 L2,9 L-2,8 L0,2 Z " fill="#150810" transform="translate(147,433)"/>
<path d="M0,0 L5,1 L4,4 L-2,4 L-1,1 Z " fill="#080206" transform="translate(122,410)"/>
<path d="M0,0 L1,0 L1,7 L-6,7 L-6,5 L-1,5 Z " fill="#764A2B" transform="translate(420,287)"/>
<path d="M0,0 L8,0 L8,1 L3,2 L2,8 L0,8 Z " fill="#F7D272" transform="translate(286,215)"/>
<path d="M0,0 L8,0 L8,7 L6,6 L6,2 L0,1 Z " fill="#F5D378" transform="translate(350,207)"/>
<path d="M0,0 L1,0 L3,11 L6,12 L0,12 Z " fill="#A46C0E" transform="translate(390,163)"/>
<path d="M0,0 L5,0 L5,11 L3,8 L2,2 Z " fill="#150201" transform="translate(34,160)"/>
<path d="M0,0 L6,0 L2,3 L1,14 L0,14 Z " fill="#E0A630" transform="translate(96,144)"/>
<path d="M0,0 L1,0 L1,8 L-7,8 L-6,6 L-1,6 Z " fill="#381604" transform="translate(428,127)"/>
<path d="M0,0 L5,0 L6,6 L1,4 Z " fill="#AB752D" transform="translate(296,81)"/>
<path d="M0,0 L7,0 L4,1 L2,6 L0,7 Z " fill="#A4753B" transform="translate(334,80)"/>
<path d="M0,0 L1,0 L1,8 L-7,8 L-3,5 L-1,4 Z " fill="#351507" transform="translate(31,56)"/>
<path d="M0,0 L1,0 L2,7 L6,7 L5,10 L0,10 Z " fill="#AB7A35" transform="translate(112,380)"/>
<path d="M0,0 L8,0 L5,2 L2,4 L0,8 Z " fill="#F1D07A" transform="translate(270,374)"/>
<path d="M0,0 L8,0 L5,2 L2,4 L2,7 L0,7 Z " fill="#B27A16" transform="translate(358,358)"/>
<path d="M0,0 L3,4 L2,6 L-3,6 L-3,2 L0,2 Z " fill="#090207" transform="translate(59,312)"/>
<path d="M0,0 L2,0 L3,5 L5,5 L5,7 L0,7 Z " fill="#D9A12D" transform="translate(302,295)"/>
<path d="M0,0 L8,0 L8,8 L6,4 L6,2 L0,1 Z " fill="#D5AA39" transform="translate(167,271)"/>
<path d="M0,0 L6,0 L3,2 L8,3 L8,4 L-1,5 Z " fill="#E3D1A3" transform="translate(286,227)"/>
<path d="M0,0 L1,0 L1,8 L-5,8 L-2,7 L-2,5 L-5,4 L0,4 Z " fill="#EDE0B2" transform="translate(126,207)"/>
<path d="M0,0 L5,0 L4,5 L0,6 Z " fill="#F9DD93" transform="translate(176,209)"/>
<path d="M0,0 L6,0 L6,8 L4,8 L4,2 Z " fill="#9D6C33" transform="translate(65,168)"/>
<path d="M0,0 L4,1 L2,1 L3,6 L5,7 L0,7 Z M3,3 L5,4 Z " fill="#100201" transform="translate(128,64)"/>
<path d="M0,0 L7,0 L4,3 L2,4 L0,7 Z " fill="#906638" transform="translate(32,56)"/>
<path d="M0,0 L8,0 L5,2 L2,2 L1,7 L0,7 Z " fill="#876032" transform="translate(358,56)"/>
<path d="M0,0 L4,0 L4,6 L0,5 Z " fill="#A26E1F" transform="translate(179,470)"/>
<path d="M0,0 L3,0 L2,5 L-3,5 L-2,1 Z " fill="#0F0208" transform="translate(345,416)"/>
<path d="M0,0 L5,0 L5,5 L0,3 Z " fill="#703A09" transform="translate(90,359)"/>
<path d="M0,0 L1,0 L1,8 L-4,7 L-2,3 L0,3 Z " fill="#210E0A" transform="translate(79,342)"/>
<path d="M0,0 L6,0 L6,4 L0,3 Z " fill="#753E0D" transform="translate(398,327)"/>
<path d="M0,0 L7,0 L3,2 L1,8 L0,8 Z " fill="#986F31" transform="translate(183,271)"/>
<path d="M0,0 L5,0 L5,5 L1,5 Z " fill="#955C19" transform="translate(295,216)"/>
<path d="M0,0 L8,0 L8,7 L6,7 L5,2 L0,1 Z " fill="#936633" transform="translate(358,120)"/>
<path d="M0,0 L4,4 L6,5 L6,7 L0,7 Z " fill="#A77538" transform="translate(112,104)"/>
<path d="M0,0 L2,0 L2,5 L-3,5 L-3,2 Z " fill="#E3A932" transform="translate(355,90)"/>
<path d="M0,0 L2,0 L2,7 L-1,7 L-1,1 Z " fill="#AD7C28" transform="translate(164,453)"/>
<path d="M0,0 L3,1 L3,6 L-1,5 Z " fill="#E1AA34" transform="translate(163,431)"/>
<path d="M0,0 L9,0 L9,7 L7,3 L0,1 Z " fill="#2B1906" transform="translate(206,430)"/>
<path d="M0,0 L4,0 L4,5 L0,5 Z " fill="#E1AA36" transform="translate(249,392)"/>
<path d="M0,0 L7,0 L7,5 L5,5 L4,3 L0,1 Z " fill="#F6D98B" transform="translate(215,390)"/>
<path d="M0,0 L3,4 L2,7 L8,7 L8,8 L0,8 Z " fill="#AC7D28" transform="translate(318,350)"/>
<path d="M0,0 L8,0 L8,1 L3,1 L1,7 L0,7 Z " fill="#B47A13" transform="translate(374,342)"/>
<path d="M0,0 L6,0 L5,2 L2,3 L1,10 L0,10 Z " fill="#A8700F" transform="translate(390,311)"/>
<path d="M0,0 L1,0 L1,6 L-6,6 L-6,3 L0,4 Z " fill="#EEBC50" transform="translate(332,240)"/>
<path d="M0,0 L8,0 L6,1 L6,3 L0,3 Z " fill="#9B6516" transform="translate(49,176)"/>
<path d="M0,0 L6,0 L2,3 L1,12 L0,12 Z " fill="#DEA32D" transform="translate(88,160)"/>
<path d="M0,0 L8,0 L5,2 L2,2 L1,7 L0,7 Z " fill="#9A6B39" transform="translate(111,120)"/>
<path d="M0,0 L7,0 L7,7 L5,6 L4,1 Z " fill="#DCA430" transform="translate(343,112)"/>
<path d="M0,0 L7,0 L2,5 L0,7 Z " fill="#DFA535" transform="translate(358,64)"/>
<path d="M0,0 L7,0 L7,7 L5,6 L4,1 Z " fill="#A47444" transform="translate(430,48)"/>
<path d="M0,0 L5,0 L6,3 L-1,3 Z " fill="#110913" transform="translate(287,489)"/>
<path d="M0,0 L4,2 L4,7 L0,7 Z " fill="#FDE29B" transform="translate(298,462)"/>
<path d="M0,0 L4,0 L4,5 L0,4 Z " fill="#0B0109" transform="translate(361,400)"/>
<path d="M0,0 L2,0 L2,8 L-2,7 L0,7 L-1,1 Z " fill="#1B0303" transform="translate(260,373)"/>
<path d="M0,0 L2,3 L7,4 L7,6 L0,6 Z " fill="#6A4222" transform="translate(72,328)"/>
<path d="M0,0 L3,1 L4,6 L0,6 Z " fill="#DB9F2D" transform="translate(310,312)"/>
<path d="M0,0 L5,1 L6,4 L0,4 Z " fill="#EDB63B" transform="translate(145,241)"/>
<path d="M0,0 L1,0 L1,6 L-6,6 L-4,4 L-1,4 Z " fill="#F1E3B6" transform="translate(293,224)"/>
<path d="M0,0 L2,2 L4,6 L5,8 L0,8 Z " fill="#D0A530" transform="translate(183,207)"/>
<path d="M0,0 L4,0 L4,5 L-1,3 Z " fill="#9E681C" transform="translate(170,209)"/>
<path d="M0,0 L7,0 L7,5 L4,5 L4,1 Z " fill="#D7A842" transform="translate(40,128)"/>
<path d="M0,0 L5,0 L5,2 L3,2 L1,6 L0,6 Z " fill="#B67B1C" transform="translate(318,430)"/>
<path d="M0,0 L3,0 L3,7 L0,7 Z " fill="#2E1A08" transform="translate(262,430)"/>
<path d="M0,0 L2,0 L1,3 L-13,2 L-13,1 Z " fill="#FCECB0" transform="translate(226,417)"/>
<path d="M0,0 L1,0 L1,8 L-7,8 L-7,7 L-1,5 Z " fill="#9A6627" transform="translate(373,366)"/>
<path d="M0,0 L6,0 L6,3 L0,3 Z " fill="#070207" transform="translate(391,363)"/>
<path d="M0,0 L7,0 L8,3 L0,3 Z " fill="#DBA02A" transform="translate(326,355)"/>
<path d="M0,0 L1,4 L-6,4 L-6,2 Z " fill="#F8E5BC" transform="translate(285,346)"/>
<path d="M0,0 L7,0 L6,6 L4,4 L4,1 Z " fill="#E9D084" transform="translate(279,342)"/>
<path d="M0,0 L1,0 L1,7 L-5,7 L-5,5 L-1,4 Z " fill="#321002" transform="translate(102,128)"/>
<path d="M0,0 L6,0 L3,2 L1,7 L0,7 Z " fill="#956739" transform="translate(103,128)"/>
<path d="M0,0 L1,0 L1,6 L-6,6 L-2,5 Z " fill="#A4680A" transform="translate(150,97)"/>
<path d="M0,0 L6,0 L2,4 L0,7 Z " fill="#AB700E" transform="translate(40,72)"/>
<path d="M0,0 L7,0 L4,2 L2,3 L1,8 L0,8 Z " fill="#DBA135" transform="translate(40,56)"/>
<path d="M0,0 L2,2 L2,6 L-1,6 L-2,1 Z " fill="#19070F" transform="translate(442,48)"/>
<path d="M0,0 L3,0 L3,9 L2,9 L1,4 L-1,3 Z " fill="#D8CA9C" transform="translate(172,429)"/>
<path d="M0,0 L4,0 L4,5 L0,4 Z " fill="#E4AF3D" transform="translate(224,392)"/>
<path d="M0,0 L7,1 L8,3 L0,3 Z " fill="#DAA336" transform="translate(334,363)"/>
<path d="M0,0 L8,0 L6,4 L0,1 Z " fill="#B57E16" transform="translate(111,358)"/>
<path d="M0,0 L7,0 L6,3 L0,3 Z " fill="#1F0301" transform="translate(80,350)"/>
<path d="M0,0 L7,0 L6,2 L2,3 L0,5 Z " fill="#35211D" transform="translate(135,215)"/>
<path d="M0,0 L4,5 L4,7 L0,7 Z " fill="#633E26" transform="translate(56,192)"/>
<path d="M0,0 L2,0 L2,5 L-3,5 Z " fill="#A57336" transform="translate(419,186)"/>
<path d="M0,0 L2,4 L7,6 L7,7 L0,7 Z " fill="#936A3D" transform="translate(48,176)"/>
<path d="M0,0 L5,0 L5,8 L4,8 L4,3 L0,1 Z " fill="#B67D1F" transform="translate(43,167)"/>
<path d="M0,0 L1,0 L1,5 L-3,5 L-3,1 Z " fill="#A3680F" transform="translate(420,154)"/>
<path d="M0,0 L1,0 L1,7 L-4,7 L-3,5 L-1,5 Z " fill="#311003" transform="translate(174,80)"/>
<path d="M0,0 L2,1 L4,7 L0,7 Z " fill="#250904" transform="translate(286,72)"/>
<path d="M0,0 L3,0 L2,7 L0,7 Z " fill="#D2A14A" transform="translate(24,72)"/>
<path d="M0,0 L7,0 L6,3 L3,3 L3,5 L1,4 L2,2 Z " fill="#231C1D" transform="translate(128,63)"/>
<path d="M0,0 L1,0 L1,7 L-4,7 L-4,5 L0,4 Z " fill="#AB6F11" transform="translate(380,49)"/>
</svg>
