<?xml version="1.0" encoding="UTF-8"?>
<svg version="1.1" xmlns="http://www.w3.org/2000/svg" width="479" height="521">
<path d="M0,0 L57,0 L57,8 L65,8 L65,16 L73,16 L73,24 L80,24 L81,25 L81,32 L88,32 L89,33 L89,40 L105,40 L105,48 L127,48 L127,40 L143,40 L143,32 L240,32 L240,40 L255,40 L256,41 L256,48 L278,48 L278,41 L279,40 L286,40 L286,32 L302,32 L302,24 L310,24 L310,16 L318,16 L318,8 L326,8 L326,0 L383,0 L383,8 L390,8 L391,9 L391,16 L398,16 L399,17 L399,24 L406,24 L407,25 L407,32 L415,32 L415,48 L422,48 L423,49 L423,104 L422,105 L415,105 L415,113 L407,113 L407,129 L399,129 L399,144 L398,145 L391,145 L391,160 L390,161 L383,161 L383,176 L382,177 L375,177 L375,191 L382,191 L383,192 L384,258 L382,265 L375,265 L375,288 L367,288 L367,303 L366,304 L359,304 L359,320 L352,320 L352,335 L351,336 L343,336 L343,343 L342,344 L335,344 L335,351 L334,352 L327,352 L327,367 L326,368 L320,368 L319,375 L318,376 L312,376 L312,382 L305,384 L303,391 L295,391 L296,405 L295,407 L289,408 L287,415 L280,415 L280,438 L279,439 L272,439 L272,446 L271,447 L264,447 L264,454 L263,455 L248,455 L248,462 L247,463 L240,463 L240,471 L143,471 L143,463 L136,463 L135,460 L136,455 L120,455 L119,454 L119,447 L112,447 L111,446 L111,439 L104,439 L103,438 L103,415 L96,415 L95,408 L87,407 L87,393 L88,391 L80,391 L79,390 L79,384 L73,384 L72,383 L72,376 L64,376 L63,368 L57,368 L55,366 L55,358 L56,352 L49,352 L48,351 L48,344 L41,344 L40,343 L40,336 L33,336 L32,335 L32,320 L24,320 L24,304 L16,304 L16,288 L8,288 L8,265 L1,265 L0,264 L0,192 L1,191 L8,191 L7,177 L0,176 L0,161 L-7,161 L-8,160 L-8,145 L-15,145 L-16,144 L-16,129 L-24,129 L-24,113 L-32,113 L-32,105 L-39,105 L-40,104 L-40,49 L-39,48 L-32,48 L-32,32 L-24,32 L-24,24 L-16,24 L-16,16 L-8,16 L-8,9 L-7,8 L0,8 Z " fill="#DDA117" transform="translate(47,31)"/>
<path d="M0,0 L23,0 L23,8 L31,8 L31,16 L39,16 L39,55 L31,55 L31,63 L23,63 L23,87 L16,87 L16,103 L39,103 L39,87 L47,87 L47,71 L55,71 L55,55 L63,55 L63,8 L72,8 L72,63 L71,64 L64,64 L64,72 L56,72 L56,88 L48,88 L48,103 L47,104 L40,104 L40,119 L39,120 L32,120 L32,135 L31,136 L24,136 L24,150 L31,150 L32,151 L33,217 L31,224 L24,224 L24,247 L16,247 L16,262 L15,263 L8,263 L8,279 L1,279 L1,294 L0,295 L-8,295 L-8,302 L-9,303 L-16,303 L-16,310 L-17,311 L-24,311 L-24,326 L-25,327 L-31,327 L-32,334 L-33,335 L-39,335 L-39,341 L-46,343 L-48,350 L-56,350 L-55,364 L-56,366 L-62,367 L-64,374 L-71,374 L-71,397 L-72,398 L-79,398 L-79,405 L-80,406 L-87,406 L-87,413 L-88,414 L-103,414 L-103,421 L-104,422 L-111,422 L-111,430 L-208,430 L-208,422 L-215,422 L-216,419 L-215,414 L-231,414 L-232,413 L-232,406 L-239,406 L-240,405 L-240,398 L-247,398 L-248,397 L-248,374 L-255,374 L-256,367 L-264,366 L-264,352 L-263,350 L-271,350 L-272,349 L-272,343 L-278,343 L-279,342 L-279,335 L-287,335 L-288,327 L-294,327 L-296,325 L-296,317 L-295,311 L-302,311 L-303,310 L-303,303 L-310,303 L-311,302 L-311,295 L-318,295 L-319,294 L-319,279 L-327,279 L-327,263 L-335,263 L-335,247 L-343,247 L-343,224 L-350,224 L-351,223 L-351,151 L-350,150 L-343,150 L-344,136 L-351,135 L-351,120 L-358,120 L-359,119 L-359,104 L-366,104 L-367,103 L-367,88 L-375,88 L-375,72 L-383,72 L-383,64 L-390,64 L-391,63 L-391,8 L-382,8 L-382,48 L-374,48 L-374,63 L-366,63 L-366,79 L-358,79 L-358,95 L-350,95 L-350,111 L-342,111 L-342,119 L-334,119 L-333,126 L-333,152 L-338,154 L-339,161 L-339,189 L-338,190 L-338,213 L-333,214 L-331,223 L-331,234 L-327,235 L-325,238 L-324,253 L-318,254 L-318,270 L-310,270 L-310,286 L-303,286 L-303,294 L-295,294 L-294,309 L-286,310 L-286,318 L-279,318 L-279,326 L-271,326 L-271,334 L-268,335 L-268,337 L-264,339 L-261,340 L-260,348 L-254,348 L-253,349 L-253,355 L-249,355 L-249,357 L-247,357 L-247,350 L-239,350 L-239,358 L-231,358 L-231,389 L-223,389 L-223,397 L-207,397 L-207,405 L-191,405 L-191,413 L-128,413 L-128,405 L-112,405 L-112,397 L-88,397 L-88,390 L-80,390 L-80,366 L-72,366 L-72,357 L-66,356 L-66,349 L-65,347 L-59,345 L-60,342 L-54,338 L-52,338 L-51,334 L-48,334 L-48,326 L-40,326 L-40,318 L-32,318 L-32,302 L-24,302 L-24,294 L-16,294 L-16,286 L-9,286 L-9,270 L-1,270 L0,254 L7,254 L7,239 L8,238 L15,238 L15,215 L21,214 L20,153 L13,152 L12,127 L14,124 L14,120 L7,119 L0,119 L-1,103 L-9,103 L-9,88 L-17,88 L-17,71 L-24,71 L-24,55 L-32,55 L-32,47 L-40,47 L-40,40 L-32,40 L-32,32 L-24,32 L-24,24 L-16,24 L-16,16 L-8,16 L-8,8 L0,8 Z M9,119 Z " fill="#A46E22" transform="translate(398,72)"/>
<path d="M0,0 L16,0 L16,16 L24,16 L24,24 L40,24 L40,32 L48,32 L48,40 L55,40 L55,48 L64,48 L64,72 L48,72 L48,80 L32,80 L32,88 L16,88 L16,96 L8,96 L8,111 L16,111 L16,104 L24,104 L24,95 L39,95 L39,88 L103,88 L103,96 L119,96 L119,104 L127,104 L127,111 L135,111 L135,96 L127,96 L127,88 L112,88 L112,80 L95,80 L95,72 L80,72 L80,48 L88,48 L88,40 L95,40 L95,32 L103,32 L103,24 L119,24 L119,16 L127,16 L127,0 L143,0 L143,8 L151,8 L151,16 L159,16 L159,24 L167,24 L167,72 L159,72 L159,80 L151,80 L151,87 L150,88 L143,88 L143,119 L135,119 L135,127 L119,127 L119,135 L103,135 L103,143 L40,143 L40,135 L24,135 L24,127 L8,127 L8,119 L0,119 L0,88 L-8,88 L-8,80 L-16,80 L-16,72 L-24,72 L-24,25 L-23,24 L-16,24 L-16,16 L-8,16 L-8,8 L0,8 Z " fill="#F0DA96" transform="translate(167,342)"/>
<path d="M0,0 L8,0 L8,8 L16,8 L16,0 L40,0 L40,8 L72,8 L72,1 L95,1 L95,9 L104,9 L104,0 L111,0 L111,16 L103,16 L103,24 L87,24 L87,32 L79,32 L79,40 L72,40 L72,48 L64,48 L64,72 L79,72 L79,80 L96,80 L96,88 L111,88 L111,96 L119,96 L119,111 L111,111 L111,104 L103,104 L103,96 L87,96 L87,88 L23,88 L23,95 L8,95 L8,104 L0,104 L0,111 L-8,111 L-8,96 L0,96 L0,88 L16,88 L16,80 L32,80 L32,72 L48,72 L48,48 L39,48 L39,40 L32,40 L32,32 L24,32 L24,24 L8,24 L8,16 L0,16 Z " fill="#351D18" transform="translate(183,342)"/>
<path d="M0,0 L9,0 L9,40 L17,40 L17,55 L25,55 L25,71 L33,71 L33,87 L41,87 L41,103 L49,103 L49,111 L57,111 L58,118 L58,144 L53,146 L52,153 L52,181 L53,182 L53,205 L58,206 L60,215 L60,226 L64,227 L66,230 L67,245 L73,246 L73,262 L81,262 L81,278 L88,278 L88,286 L96,286 L97,301 L105,302 L105,310 L112,310 L112,318 L120,318 L120,326 L123,327 L123,329 L127,331 L130,332 L131,340 L137,340 L138,341 L138,347 L142,347 L142,349 L144,349 L144,358 L152,358 L152,382 L160,382 L160,397 L151,397 L151,390 L144,390 L143,389 L143,366 L136,366 L135,359 L127,358 L127,344 L128,342 L120,342 L119,341 L119,335 L113,335 L112,334 L112,327 L104,327 L103,319 L97,319 L95,317 L95,309 L96,303 L89,303 L88,302 L88,295 L81,295 L80,294 L80,287 L73,287 L72,286 L72,271 L64,271 L64,255 L56,255 L56,239 L48,239 L48,216 L41,216 L40,215 L40,143 L41,142 L48,142 L47,128 L40,127 L40,112 L33,112 L32,111 L32,96 L25,96 L24,95 L24,80 L16,80 L16,64 L8,64 L8,56 L1,56 L0,55 Z " fill="#6E6058" transform="translate(7,80)"/>
<path d="M0,0 L23,0 L23,8 L31,8 L31,16 L39,16 L39,24 L47,24 L47,32 L55,32 L55,40 L63,40 L63,47 L56,48 L55,56 L47,56 L47,63 L39,63 L39,71 L32,72 L31,87 L24,87 L24,103 L16,103 L16,95 L8,95 L8,79 L0,79 L0,63 L-8,63 L-8,55 L-16,55 L-16,16 L-8,16 L-8,8 L0,8 Z " fill="#291313" transform="translate(56,72)"/>
<path d="M0,0 L23,0 L23,8 L31,8 L31,16 L39,16 L39,55 L31,55 L31,63 L23,63 L23,79 L15,79 L15,95 L7,95 L7,103 L0,103 L-1,88 L-9,87 L-9,72 L-16,72 L-16,63 L-24,63 L-24,55 L-32,55 L-32,47 L-40,47 L-40,40 L-32,40 L-32,32 L-24,32 L-24,24 L-16,24 L-16,16 L-8,16 L-8,8 L0,8 Z " fill="#291314" transform="translate(398,72)"/>
<path d="M0,0 L1,0 L1,39 L9,39 L9,47 L17,47 L17,63 L25,63 L25,79 L33,79 L33,87 L41,87 L41,103 L40,104 L33,104 L33,198 L40,198 L41,199 L41,222 L49,222 L49,238 L57,238 L57,254 L64,254 L64,262 L72,262 L72,270 L80,270 L80,278 L88,278 L88,286 L96,286 L96,278 L104,278 L104,326 L112,326 L112,341 L110,341 L110,339 L106,339 L105,333 L99,332 L98,324 L90,323 L91,321 L88,318 L88,310 L80,310 L80,302 L73,302 L73,294 L65,294 L64,293 L64,278 L56,278 L56,270 L49,270 L49,254 L41,254 L41,238 L35,238 L34,237 L33,222 L29,220 L27,218 L27,204 L26,198 L21,198 L20,197 L20,174 L19,173 L19,145 L20,137 L25,136 L25,103 L17,103 L17,95 L9,95 L9,87 L24,87 L24,72 L16,72 L16,55 L9,55 L8,48 L8,40 L0,40 Z " fill="#AA7320" transform="translate(39,88)"/>
<path d="M0,0 L1,0 L1,14 L11,13 L16,15 L15,21 L14,22 L14,47 L21,48 L22,50 L22,109 L16,110 L16,133 L9,134 L8,149 L1,149 L0,165 L-8,165 L-8,181 L-15,181 L-15,189 L-23,189 L-23,197 L-31,197 L-31,213 L-39,213 L-39,221 L-47,221 L-47,229 L-50,230 L-51,233 L-57,237 L-57,241 L-64,242 L-65,251 L-71,252 L-71,261 L-79,261 L-79,285 L-87,285 L-87,292 L-95,292 L-95,284 L-87,284 L-87,253 L-80,252 L-79,245 L-71,245 L-71,237 L-63,237 L-63,189 L-55,189 L-55,197 L-47,197 L-47,189 L-39,189 L-39,181 L-31,181 L-31,173 L-23,173 L-23,166 L-15,166 L-15,149 L-8,149 L-8,133 L0,133 L0,110 L1,109 L8,109 L8,15 L0,15 Z M10,14 L11,17 Z " fill="#AA721E" transform="translate(397,177)"/>
<path d="M0,0 L32,0 L32,8 L40,8 L40,16 L48,16 L48,40 L55,39 L56,8 L58,10 L58,56 L50,59 L49,81 L44,84 L41,88 L40,96 L32,96 L32,103 L25,104 L24,119 L16,119 L16,103 L24,103 L24,88 L32,88 L32,79 L40,79 L40,40 L0,40 L0,48 L-15,48 L-15,55 L-8,56 L-8,80 L-24,80 L-25,78 L-25,48 L-24,47 L-17,47 L-16,16 L-32,16 L-32,8 L0,8 Z " fill="#5082B1" transform="translate(143,215)"/>
<path d="M0,0 L8,0 L8,8 L16,8 L16,39 L24,39 L24,47 L40,47 L40,55 L56,55 L56,63 L119,63 L119,55 L135,55 L135,47 L151,47 L151,55 L144,56 L144,63 L159,63 L159,64 L144,64 L144,71 L143,72 L136,72 L136,80 L39,80 L39,72 L32,72 L31,69 L32,64 L16,64 L15,63 L15,56 L8,56 L8,55 L16,55 L16,40 L8,40 L8,16 L0,16 Z " fill="#AC7823" transform="translate(151,422)"/>
<path d="M0,0 L8,0 L11,1 L12,7 L29,7 L29,15 L37,15 L37,30 L45,30 L45,14 L46,14 L46,30 L53,30 L53,31 L45,31 L45,78 L37,78 L37,94 L29,94 L29,110 L21,110 L21,126 L-2,126 L-2,110 L5,110 L5,86 L13,86 L13,78 L21,78 L21,23 L13,23 L13,15 L5,15 L5,7 L-26,7 L-26,14 L-27,14 L-27,6 L-26,5 L-16,4 L-12,2 L-1,2 Z " fill="#DEA321" transform="translate(416,49)"/>
<path d="M0,0 L5,0 L6,1 L6,23 L-2,24 L-1,37 L-1,40 L-8,40 L-8,56 L-15,56 L-15,71 L-16,72 L-24,72 L-24,79 L-25,80 L-32,80 L-32,87 L-33,88 L-40,88 L-40,103 L-41,104 L-47,104 L-48,111 L-49,112 L-55,112 L-55,118 L-62,120 L-64,127 L-72,127 L-71,141 L-72,143 L-78,144 L-80,151 L-87,151 L-87,174 L-88,175 L-95,175 L-95,182 L-96,183 L-103,183 L-103,190 L-119,190 L-120,182 L-112,182 L-112,174 L-104,174 L-104,167 L-96,167 L-96,143 L-88,143 L-88,134 L-82,133 L-82,126 L-81,124 L-75,122 L-76,119 L-70,115 L-68,115 L-67,111 L-64,111 L-64,103 L-56,103 L-56,95 L-48,95 L-48,79 L-40,79 L-40,71 L-32,71 L-32,63 L-25,63 L-25,47 L-17,47 L-16,31 L-9,31 L-9,16 L0,16 Z " fill="#3E3337" transform="translate(414,295)"/>
<path d="M0,0 L57,0 L57,8 L64,8 L65,9 L65,16 L72,16 L73,17 L73,24 L80,24 L81,25 L81,32 L88,32 L88,48 L80,48 L80,33 L72,33 L72,25 L55,25 L54,19 L17,19 L11,21 L10,26 L1,28 L-4,30 L-6,35 L-11,35 L-14,38 L-15,41 L-31,41 L-31,49 L-39,49 L-39,56 L-70,56 L-70,49 L-47,49 L-47,40 L-40,40 L-40,32 L-24,32 L-24,24 L-16,24 L-16,16 L-8,16 L-8,8 L0,8 Z " fill="#DCA130" transform="translate(373,31)"/>
<path d="M0,0 L8,0 L8,8 L32,8 L32,16 L64,16 L64,24 L48,24 L48,32 L40,32 L40,40 L32,40 L32,48 L-8,48 L-8,64 L-16,64 L-16,24 L-8,24 L-8,8 L0,8 Z " fill="#A87934" transform="translate(302,207)"/>
<path d="M0,0 L6,0 L7,15 L15,16 L15,31 L23,31 L23,47 L31,47 L31,63 L38,63 L38,71 L46,71 L47,86 L55,87 L55,95 L62,95 L62,103 L70,103 L70,111 L73,112 L73,114 L77,116 L80,117 L81,125 L87,125 L88,126 L88,132 L92,132 L92,134 L94,134 L94,143 L102,143 L102,167 L110,167 L110,182 L101,182 L101,175 L94,175 L93,174 L93,151 L86,151 L85,144 L77,143 L77,129 L78,127 L70,127 L69,126 L69,120 L63,120 L62,119 L62,112 L54,112 L53,104 L47,104 L45,102 L45,94 L46,88 L39,88 L38,87 L38,80 L31,80 L30,79 L30,72 L23,72 L23,55 L15,55 L15,39 L7,39 L7,23 L-1,23 Z " fill="#6B574C" transform="translate(57,295)"/>
<path d="M0,0 L1,0 L1,39 L9,39 L9,47 L17,47 L17,63 L25,63 L25,79 L33,79 L33,87 L41,87 L41,103 L40,104 L33,104 L33,198 L40,198 L41,199 L41,222 L49,222 L49,238 L57,238 L57,254 L56,254 L56,239 L48,239 L48,223 L40,223 L27,219 L27,204 L26,198 L21,198 L20,197 L20,174 L19,173 L19,145 L20,137 L25,136 L25,103 L17,103 L17,95 L9,95 L9,87 L24,87 L24,72 L16,72 L16,55 L9,55 L8,48 L8,40 L0,40 Z " fill="#AA721D" transform="translate(39,88)"/>
<path d="M0,0 L15,0 L15,24 L31,24 L31,32 L48,32 L48,40 L63,40 L63,48 L71,48 L71,63 L63,63 L63,56 L55,56 L55,48 L39,48 L39,40 L-25,40 L-25,47 L-40,47 L-40,56 L-48,56 L-48,63 L-56,63 L-56,48 L-48,48 L-48,40 L-32,40 L-32,32 L-16,32 L-16,24 L0,24 Z " fill="#15070E" transform="translate(231,390)"/>
<path d="M0,0 L31,0 L31,8 L39,8 L39,16 L47,16 L47,32 L39,32 L39,24 L31,24 L31,16 L8,16 L8,24 L0,24 L0,32 L-8,32 L-8,40 L-16,40 L-16,48 L-24,48 L-24,56 L-32,56 L-32,63 L-24,63 L-24,71 L-16,71 L-16,79 L-25,79 L-25,72 L-32,72 L-33,71 L-33,64 L-40,64 L-41,56 L-48,55 L-48,48 L-40,48 L-40,40 L-32,40 L-32,32 L-24,32 L-24,24 L-16,24 L-16,16 L-8,16 L-8,8 L-1,7 Z " fill="#A2691B" transform="translate(390,56)"/>
<path d="M0,0 L31,0 L31,8 L39,8 L39,16 L47,16 L47,24 L55,24 L55,32 L63,32 L63,39 L71,39 L71,47 L79,47 L79,55 L71,55 L71,64 L63,64 L63,72 L56,72 L56,79 L47,79 L47,72 L55,72 L55,64 L56,63 L63,63 L63,56 L55,56 L55,48 L47,48 L47,40 L39,40 L39,32 L31,32 L31,24 L23,24 L23,16 L0,16 L0,24 L-8,24 L-8,32 L-16,32 L-16,16 L-9,15 L-8,8 L-1,7 Z " fill="#A46B1A" transform="translate(56,56)"/>
<path d="M0,0 L8,0 L8,7 L7,8 L0,8 L0,16 L-24,16 L-24,24 L-56,24 L-56,32 L-40,32 L-40,56 L-41,63 L-48,64 L-48,96 L-32,96 L-32,72 L-39,71 L-39,64 L-24,64 L-24,56 L16,56 L16,80 L7,80 L7,73 L-2,73 L-5,67 L-35,67 L-34,69 L-29,70 L-29,97 L-30,98 L-49,98 L-49,96 L-51,96 L-52,73 L-51,62 L-43,62 L-43,57 L-48,57 L-48,49 L-56,49 L-59,27 L-58,22 L-57,21 L-50,20 L-47,16 L-40,16 L-40,8 L-1,7 Z " fill="#CAA642" transform="translate(167,199)"/>
<path d="M0,0 L9,0 L9,7 L16,7 L17,8 L17,15 L33,15 L33,23 L55,23 L55,15 L71,15 L71,7 L168,7 L168,15 L183,15 L183,23 L167,23 L167,16 L72,16 L72,24 L56,24 L56,32 L24,32 L24,24 L16,24 L16,16 L0,16 Z " fill="#6E5D54" transform="translate(119,56)"/>
<path d="M0,0 L43,0 L44,1 L44,8 L69,8 L65,10 L56,11 L56,13 L56,20 L62,21 L62,30 L38,30 L38,22 L14,22 L14,14 L6,14 L6,22 L-2,22 L-2,38 L-10,38 L-10,62 L-18,62 L-18,28 L-14,25 L-10,19 L-5,20 L-4,13 L-1,11 L2,10 L6,2 L0,1 Z " fill="#D6A32A" transform="translate(296,193)"/>
<path d="M0,0 L8,0 L8,8 L16,8 L16,32 L23,31 L24,0 L26,2 L26,48 L18,51 L17,73 L12,76 L9,80 L8,88 L0,88 L0,95 L-7,96 L-8,111 L-16,111 L-16,95 L-8,95 L-8,80 L0,80 L0,71 L8,71 L8,32 L-9,32 L-9,24 L0,24 Z " fill="#AB7314" transform="translate(175,223)"/>
<path d="M0,0 L9,0 L9,55 L8,56 L1,56 L1,64 L-7,64 L-7,80 L-15,80 L-15,95 L-16,96 L-23,96 L-23,111 L-24,112 L-31,112 L-31,127 L-32,128 L-40,128 L-40,143 L-47,143 L-47,119 L-40,119 L-40,103 L-32,103 L-32,95 L-24,95 L-24,79 L-16,79 L-16,63 L-8,63 L-8,47 L0,47 Z " fill="#6F6561" transform="translate(461,80)"/>
<path d="M0,0 L95,0 L95,7 L111,7 L111,0 L112,0 L112,7 L134,7 L134,0 L135,0 L135,8 L112,8 L112,15 L143,15 L143,32 L135,32 L135,23 L119,23 L119,16 L87,16 L87,8 L8,8 L8,16 L-16,16 L-16,8 L0,8 Z " fill="#A96D23" transform="translate(191,72)"/>
<path d="M0,0 L8,0 L8,8 L16,8 L16,16 L32,16 L32,24 L48,24 L48,32 L72,32 L72,40 L88,40 L88,48 L64,48 L64,40 L16,40 L16,32 L8,32 L8,24 L0,24 Z " fill="#371C14" transform="translate(278,151)"/>
<path d="M0,0 L8,0 L8,24 L0,24 L0,32 L-8,32 L-8,40 L-56,40 L-56,48 L-80,48 L-80,40 L-64,40 L-64,32 L-40,32 L-40,24 L-24,24 L-24,16 L-8,16 L-8,8 L0,8 Z " fill="#3B1F13" transform="translate(191,151)"/>
<path d="M0,0 L11,0 L12,2 L12,27 L7,29 L3,35 L-4,35 L-4,40 L-7,43 L-11,44 L-22,44 L-21,47 L-13,47 L-13,57 L-6,57 L-6,73 L-14,73 L-14,65 L-22,65 L-22,57 L-15,56 L-14,49 L-22,49 L-22,56 L-23,57 L-62,57 L-62,65 L-69,66 L-71,67 L-71,64 L-63,63 L-64,56 L-63,54 L-66,53 L-79,52 L-79,49 L-81,49 L-81,43 L-83,42 L-81,38 L-65,38 L-66,32 L-64,33 L-61,30 L-40,31 L-40,24 L-38,23 L-24,23 L-24,17 L-23,15 L-17,13 L-10,13 L-6,6 L-1,6 L-1,1 Z M2,1 L2,9 L-6,9 L-6,17 L-22,17 L-22,25 L-38,25 L-38,33 L-62,33 L-62,41 L-78,41 L-78,49 L-54,49 L-54,41 L-6,41 L-6,33 L2,33 L2,25 L10,25 L10,1 Z " fill="#DAA21E" transform="translate(189,150)"/>
<path d="M0,0 L1,0 L1,26 L-4,28 L-5,35 L-5,63 L-4,64 L-4,87 L1,88 L3,97 L3,108 L7,109 L9,112 L10,128 L8,128 L8,113 L0,113 L-1,112 L-1,97 L-7,97 L-7,118 L-8,120 L0,120 L0,136 L8,136 L8,152 L16,152 L16,168 L15,168 L15,153 L7,153 L7,137 L-1,137 L-1,121 L-9,121 L-9,98 L-16,98 L-17,97 L-17,25 L-16,24 L-9,24 L-9,9 L-8,9 L-8,25 L0,25 Z " fill="#A7762E" transform="translate(64,198)"/>
<path d="M0,0 L16,0 L16,16 L8,16 L8,24 L0,24 L0,32 L-40,32 L-40,40 L-48,40 L-48,48 L-56,48 L-56,24 L-16,24 L-16,16 L-8,16 L-8,8 L0,8 Z " fill="#EBD69A" transform="translate(350,231)"/>
<path d="M0,0 L57,0 L57,8 L65,8 L65,17 L72,17 L72,24 L57,24 L57,16 L49,16 L49,9 L1,9 L1,17 L-7,17 L-7,25 L-15,25 L-15,33 L-23,33 L-23,48 L-31,48 L-31,32 L-24,32 L-24,24 L-16,24 L-16,16 L-8,16 L-8,9 L-7,8 L0,8 Z " fill="#19090F" transform="translate(47,31)"/>
<path d="M0,0 L16,0 L16,9 L9,9 L9,17 L-88,17 L-89,9 L-94,8 L-94,1 L-80,1 L-80,8 L0,8 Z " fill="#11070F" transform="translate(278,485)"/>
<path d="M0,0 L8,0 L8,23 L16,23 L16,32 L24,32 L24,47 L32,47 L32,63 L34,64 L31,69 L38,68 L40,71 L41,86 L48,87 L48,95 L40,95 L40,87 L32,87 L32,79 L24,79 L24,71 L1,71 L1,80 L-8,80 L-8,72 L-31,72 L-31,79 L-32,79 L-32,71 L-7,71 L-7,79 L0,79 L-1,69 L6,68 L7,66 L7,68 L22,69 L24,69 L22,57 L22,49 L15,49 L14,47 L14,43 L8,40 L8,24 L0,24 Z " fill="#AC7313" transform="translate(286,271)"/>
<path d="M0,0 L5,1 L6,2 L7,18 L12,16 L20,16 L22,17 L22,55 L20,58 L11,58 L11,20 L9,20 L9,53 L8,51 L4,50 L-5,50 L-5,2 L0,1 Z " fill="#B58329" transform="translate(243,133)"/>
<path d="M0,0 L8,0 L8,40 L13,40 L12,44 L6,48 L6,52 L-1,53 L-2,62 L-8,63 L-8,72 L-16,72 L-16,96 L-24,96 L-24,103 L-32,103 L-32,95 L-24,95 L-24,64 L-17,63 L-16,56 L-8,56 L-8,48 L0,48 Z " fill="#7B4913" transform="translate(334,366)"/>
<path d="M0,0 L80,0 L80,8 L56,8 L56,16 L25,16 L25,8 L1,8 L1,16 L-7,16 L-7,8 L0,8 Z " fill="#F0DB95" transform="translate(198,334)"/>
<path d="M0,0 L95,0 L95,7 L111,7 L111,15 L95,15 L95,8 L0,8 Z " fill="#1E0F10" transform="translate(191,64)"/>
<path d="M0,0 L1,0 L1,39 L9,39 L9,47 L17,47 L17,63 L25,63 L25,79 L33,79 L33,87 L41,87 L41,103 L32,103 L32,120 L30,117 L28,120 L29,128 L28,136 L25,136 L25,103 L17,103 L17,95 L9,95 L9,87 L24,87 L24,72 L16,72 L16,55 L9,55 L8,48 L8,40 L0,40 Z M30,120 Z M29,121 Z " fill="#A76F1F" transform="translate(39,88)"/>
<path d="M0,0 L7,0 L8,16 L2,17 L0,24 L-7,24 L-7,47 L-8,48 L-15,48 L-15,55 L-16,56 L-23,56 L-23,63 L-39,63 L-40,55 L-32,55 L-32,47 L-24,47 L-24,40 L-16,40 L-16,16 L-8,16 L-8,7 L0,7 Z " fill="#1F0A08" transform="translate(334,422)"/>
<path d="M0,0 L32,0 L32,8 L16,8 L16,16 L24,16 L24,24 L8,24 L8,16 L-8,16 L-8,24 L-16,24 L-16,16 L-32,16 L-32,8 L0,8 Z " fill="#16090E" transform="translate(143,215)"/>
<path d="M0,0 L7,0 L7,24 L39,24 L39,32 L-1,32 L-1,48 L-9,48 L-9,8 L0,8 Z " fill="#1D0C0E" transform="translate(295,223)"/>
<path d="M0,0 L3,0 L3,7 L35,7 L35,15 L19,15 L19,23 L11,23 L11,15 L-5,15 L-5,23 L-21,23 L-21,15 L-13,15 L-13,5 L-23,6 L-26,5 L-26,1 L-18,1 L-17,2 L-16,1 Z " fill="#17090D" transform="translate(331,216)"/>
<path d="M0,0 L6,0 L7,15 L15,16 L15,31 L23,31 L23,47 L31,47 L31,71 L23,71 L23,55 L15,55 L15,39 L7,39 L7,23 L-1,23 Z " fill="#6B4222" transform="translate(57,295)"/>
<path d="M0,0 L55,0 L55,8 L8,8 L8,16 L0,16 L0,24 L-16,24 L-16,16 L-8,16 L-9,12 L-8,8 L0,8 Z " fill="#1A0A10" transform="translate(374,32)"/>
<path d="M0,0 L8,0 L8,7 L16,7 L16,16 L24,16 L24,40 L32,40 L32,55 L23,55 L23,48 L16,48 L15,47 L15,24 L8,24 L7,17 L-1,16 L-1,2 Z " fill="#382B30" transform="translate(135,422)"/>
<path d="M0,0 L7,0 L7,16 L-1,16 L-1,24 L-17,24 L-17,32 L-25,32 L-25,40 L-33,40 L-33,47 L-40,47 L-40,40 L-34,39 L-33,24 L-32,23 L-25,23 L-25,16 L-9,16 L-10,10 L-10,2 L-31,2 L-32,6 L-32,1 L-9,1 L-9,9 L0,9 Z " fill="#13040D" transform="translate(287,342)"/>
<path d="M0,0 L8,0 L8,8 L16,8 L16,48 L8,48 L8,32 L-9,32 L-9,24 L0,24 Z " fill="#16070E" transform="translate(175,223)"/>
<path d="M0,0 L11,0 L12,2 L12,27 L7,29 L3,35 L-4,35 L-4,40 L-7,43 L-52,43 L-51,51 L-52,52 L-79,52 L-79,49 L-81,49 L-81,43 L-83,42 L-81,38 L-65,38 L-66,32 L-64,33 L-61,30 L-40,31 L-40,24 L-38,23 L-24,23 L-24,17 L-23,15 L-17,13 L-10,13 L-6,6 L-1,6 L-1,1 Z M2,1 L2,9 L-6,9 L-6,17 L-22,17 L-22,25 L-38,25 L-38,33 L-62,33 L-62,41 L-78,41 L-78,49 L-54,49 L-54,41 L-6,41 L-6,33 L2,33 L2,25 L10,25 L10,1 Z " fill="#CD9C43" transform="translate(189,150)"/>
<path d="M0,0 L8,0 L8,9 L15,10 L15,16 L32,16 L32,23 L40,23 L41,39 L48,40 L48,47 L40,47 L40,40 L32,40 L32,32 L24,32 L24,24 L8,24 L8,16 L0,16 Z " fill="#18070B" transform="translate(183,342)"/>
<path d="M0,0 L5,0 L6,1 L6,23 L-2,24 L-1,37 L-1,40 L-8,40 L-8,56 L-15,56 L-16,58 L-16,55 L-24,55 L-24,63 L-25,63 L-25,47 L-17,47 L-16,31 L-9,31 L-9,16 L0,16 Z " fill="#654E42" transform="translate(414,295)"/>
<path d="M0,0 L8,0 L8,8 L16,8 L16,39 L24,39 L24,47 L40,47 L40,55 L24,55 L24,48 L16,48 L16,40 L8,40 L8,16 L0,16 Z " fill="#C1913D" transform="translate(151,422)"/>
<path d="M0,0 L8,0 L9,66 L8,72 L0,72 Z " fill="#21161D" transform="translate(422,223)"/>
<path d="M0,0 L8,0 L9,7 L47,8 L48,9 L48,16 L56,16 L56,24 L32,24 L32,16 L8,16 L8,8 L0,8 Z " fill="#E8D499" transform="translate(302,199)"/>
<path d="M0,0 L16,0 L16,24 L-15,24 L-16,23 L-16,16 L-24,16 L-24,8 L-8,8 L-8,16 L8,16 L8,8 L0,8 Z " fill="#A67B3E" transform="translate(159,223)"/>
<path d="M0,0 L8,0 L8,71 L7,72 L0,72 Z " fill="#23171B" transform="translate(47,223)"/>
<path d="M0,0 L8,0 L8,7 L7,8 L0,8 L0,16 L-24,16 L-24,24 L-47,24 L-48,23 L-48,17 L-47,16 L-40,16 L-40,8 L-1,7 Z " fill="#EFD78B" transform="translate(167,199)"/>
<path d="M0,0 L10,0 L11,1 L12,41 L9,43 L0,43 L-3,40 L-3,26 L-2,1 Z " fill="#C19139" transform="translate(214,150)"/>
<path d="M0,0 L48,0 L48,7 L56,7 L56,15 L71,15 L71,8 L64,8 L64,7 L72,7 L72,15 L79,15 L79,16 L71,16 L71,24 L63,24 L63,16 L47,16 L47,8 L0,8 Z " fill="#95683C" transform="translate(48,40)"/>
<path d="M0,0 L8,0 L8,48 L16,48 L16,63 L14,63 L14,61 L10,61 L9,55 L3,54 L2,46 L-6,45 L-5,43 L-6,40 L0,40 Z " fill="#7B4A13" transform="translate(135,366)"/>
<path d="M0,0 L16,0 L16,8 L31,8 L31,16 L39,16 L39,31 L31,31 L31,24 L23,24 L23,16 L7,16 L7,8 L-56,8 L-56,7 L6,6 L7,2 L0,1 Z " fill="#352624" transform="translate(263,422)"/>
<path d="M0,0 L40,0 L40,24 L32,24 L32,16 L24,16 L24,8 L1,8 L0,7 Z " fill="#ECDA99" transform="translate(143,255)"/>
<path d="M0,0 L1,0 L1,7 L23,7 L23,0 L24,0 L24,8 L1,8 L1,15 L32,15 L32,32 L24,32 L24,23 L8,23 L8,16 L-23,15 L-24,4 L-23,6 L-20,5 L-19,7 L-17,6 L0,7 Z " fill="#A3691D" transform="translate(302,72)"/>
<path d="M0,0 L1,0 L2,7 L2,15 L9,16 L9,40 L-7,40 L-8,38 L-8,8 L-7,7 L0,7 Z " fill="#ADA36D" transform="translate(126,255)"/>
<path d="M0,0 L7,0 L7,8 L15,8 L15,23 L25,23 L22,29 L29,28 L31,31 L32,46 L39,47 L39,55 L31,55 L31,47 L23,47 L23,39 L15,39 L15,31 L-8,31 L-8,40 L-17,40 L-17,32 L-40,32 L-40,39 L-41,39 L-41,31 L-16,31 L-16,39 L-9,39 L-10,29 L-3,28 L-2,26 L-2,28 L13,29 L15,29 L13,17 L13,9 L6,9 L5,7 L5,3 L0,1 Z " fill="#BF902C" transform="translate(295,311)"/>
<path d="M0,0 L1,0 L1,16 L8,16 L8,17 L0,17 L0,64 L-8,64 L-8,80 L-16,80 L-16,96 L-24,96 L-24,112 L-32,112 L-32,104 L-27,103 L-26,87 L-19,86 L-19,79 L-16,72 L-10,72 L-10,57 L-7,55 L-3,55 L-4,21 L-8,20 L-8,18 L-2,18 L-1,17 L-8,17 L-8,16 L0,16 Z " fill="#C0974E" transform="translate(461,63)"/>
<path d="M0,0 L7,0 L7,8 L15,8 L16,23 L23,23 L23,47 L16,47 L16,31 L10,32 L7,31 L7,16 L0,16 Z " fill="#150607" transform="translate(40,176)"/>
<path d="M0,0 L16,0 L16,8 L8,8 L8,16 L0,16 L0,23 L-31,23 L-31,16 L-8,16 L-8,8 L0,8 Z " fill="#140609" transform="translate(334,64)"/>
<path d="M0,0 L8,0 L8,7 L40,7 L40,16 L38,16 L38,19 L40,20 L109,21 L109,15 L110,15 L110,22 L34,22 L33,15 L32,14 L18,13 L17,15 L-1,15 L-1,8 L-8,8 L-8,7 L0,7 Z " fill="#B17F2E" transform="translate(167,470)"/>
<path d="M0,0 L8,0 L8,16 L0,16 L0,40 L-8,40 L-8,47 L-16,47 L-16,39 L-8,39 L-8,8 L-1,7 Z " fill="#AD7B2F" transform="translate(318,422)"/>
<path d="M0,0 L57,0 L57,8 L65,8 L65,9 L56,9 L56,1 L1,1 L1,17 L-7,17 L-7,25 L-15,25 L-15,33 L-23,33 L-23,48 L-31,48 L-31,32 L-24,32 L-24,24 L-16,24 L-16,16 L-8,16 L-8,9 L-7,8 L0,8 Z " fill="#6A6160" transform="translate(47,31)"/>
<path d="M0,0 L5,0 L5,14 L0,15 L-1,28 L-3,32 L-9,32 L-9,47 L-16,47 L-16,23 L-9,23 L-9,7 L0,7 Z " fill="#14050C" transform="translate(430,176)"/>
<path d="M0,0 L78,0 L79,3 L79,11 L102,11 L102,12 L78,12 L78,4 L-1,4 L-1,12 L-25,12 L-23,11 L-23,9 L-6,9 L-4,7 L-3,2 Z " fill="#AC7116" transform="translate(200,76)"/>
<path d="M0,0 L8,0 L11,2 L11,9 L16,9 L16,10 L8,10 L8,2 L0,2 L0,26 L8,26 L8,34 L16,34 L16,42 L64,42 L64,50 L88,50 L88,42 L72,42 L72,37 L74,37 L74,39 L86,39 L90,41 L90,51 L87,52 L62,52 L61,45 L15,44 L13,40 L11,39 L12,37 L6,36 L4,32 L-1,30 L-2,26 L-2,2 Z " fill="#C69742" transform="translate(278,149)"/>
<path d="M0,0 L3,0 L2,13 L2,16 L3,3 L5,1 L5,47 L13,47 L13,62 L6,62 L6,54 L-2,54 L-2,7 Z " fill="#100509" transform="translate(10,81)"/>
<path d="M0,0 L6,0 L6,55 L-1,55 L-1,63 L-8,63 L-7,52 L0,50 L1,47 L0,46 Z " fill="#11040B" transform="translate(462,80)"/>
<path d="M0,0 L8,0 L8,16 L0,16 L0,40 L-8,40 L-8,8 L0,8 Z " fill="#F4DB91" transform="translate(286,215)"/>
<path d="M0,0 L8,0 L8,8 L16,8 L16,39 L15,40 L8,40 L8,16 L0,16 Z " fill="#EBD699" transform="translate(183,215)"/>
<path d="M0,0 L8,0 L8,8 L32,8 L29,10 L13,11 L12,13 L10,12 L11,10 L3,10 L3,14 L16,14 L16,24 L0,24 L0,16 L-7,16 L-7,24 L-8,24 L-8,8 L0,8 Z " fill="#231009" transform="translate(302,207)"/>
<path d="M0,0 L8,0 L11,1 L12,7 L29,7 L29,15 L20,15 L20,13 L17,14 L14,22 L21,22 L21,23 L13,23 L13,15 L5,15 L5,7 L-26,7 L-26,14 L-27,14 L-27,6 L-26,5 L-16,4 L-12,2 L-1,2 Z " fill="#D99D26" transform="translate(416,49)"/>
<path d="M0,0 L8,0 L8,7 L15,7 L16,8 L16,15 L23,15 L24,16 L24,23 L31,23 L31,39 L23,39 L23,24 L15,24 L15,16 L7,16 L7,8 L0,8 Z " fill="#685953" transform="translate(430,40)"/>
<path d="M0,0 L7,0 L8,16 L0,16 L0,20 L-4,19 L-5,17 L-9,21 L-11,21 L-12,19 L-14,19 L-14,43 L-9,46 L-9,47 L-18,47 L-18,53 L-20,53 L-21,46 L-23,42 L-23,40 L-16,40 L-16,16 L-8,16 L-8,7 L0,7 Z " fill="#140608" transform="translate(334,422)"/>
<path d="M0,0 L8,0 L8,8 L15,8 L15,9 L9,9 L9,15 L2,17 L0,24 L-8,24 L-7,38 L-9,34 L-9,24 L-16,24 L-16,31 L-22,31 L-18,30 L-18,23 L-17,21 L-11,19 L-12,16 L-6,12 L-4,12 L-3,8 L0,8 Z " fill="#7B593A" transform="translate(350,398)"/>
<path d="M0,0 L28,0 L29,1 L29,8 L32,9 L26,9 L26,2 L3,2 L3,10 L-5,10 L-5,18 L-13,18 L-13,26 L-21,26 L-21,34 L-29,34 L-29,42 L-37,42 L-37,49 L-38,49 L-38,41 L-37,39 L-32,38 L-31,31 L-24,31 L-25,24 L-21,23 L-20,21 L-17,21 L-15,15 L-10,14 L-8,8 L-2,5 Z " fill="#85572A" transform="translate(395,70)"/>
<path d="M0,0 L7,0 L7,47 L0,47 Z " fill="#3B1C0E" transform="translate(239,136)"/>
<path d="M0,0 L16,0 L16,8 L39,8 L39,15 L9,15 L9,7 L0,7 Z " fill="#13070A" transform="translate(135,72)"/>
<path d="M0,0 L8,0 L8,24 L16,24 L16,39 L8,39 L9,32 L1,31 L2,29 L2,8 L0,8 L0,6 L-6,6 L-5,2 L1,4 Z " fill="#140507" transform="translate(151,438)"/>
<path d="M0,0 L16,0 L16,9 L9,9 L9,17 L-65,17 L-65,16 L6,16 L6,8 L2,10 L-79,9 L-79,8 L0,8 Z " fill="#2E1B11" transform="translate(278,485)"/>
<path d="M0,0 L16,0 L16,8 L8,9 L5,13 L-11,13 L-15,18 L-79,17 L-79,16 L-16,16 L-16,8 L0,8 Z " fill="#B38833" transform="translate(286,469)"/>
<path d="M0,0 L6,0 L7,15 L14,16 L15,39 L7,39 L7,23 L-1,23 Z " fill="#12050A" transform="translate(57,295)"/>
<path d="M0,0 L32,0 L32,8 L16,8 L16,16 L8,16 L8,8 L-8,8 L-8,7 L-2,5 L0,2 L2,2 L2,5 L4,5 L4,2 L7,2 L8,5 L10,4 L11,3 L0,1 Z " fill="#1B0E0B" transform="translate(334,223)"/>
<path d="M0,0 L23,0 L28,2 L29,7 L35,9 L33,11 L4,11 L0,4 L-2,2 Z " fill="#DBA219" transform="translate(311,194)"/>
<path d="M0,0 L15,0 L15,24 L8,24 L8,16 L0,16 Z " fill="#F0D88B" transform="translate(112,231)"/>
<path d="M0,0 L5,0 L6,1 L6,23 L-2,24 L-1,37 L-1,39 L-8,39 L-8,16 L0,16 Z " fill="#12060E" transform="translate(414,295)"/>
<path d="M0,0 L2,2 L2,48 L-6,51 L-7,73 L-12,76 L-16,80 L-16,72 L-8,72 L-8,32 L-1,31 Z " fill="#D5A029" transform="translate(199,223)"/>
<path d="M0,0 L2,0 L2,7 L17,7 L17,8 L2,8 L2,15 L1,15 L1,7 L-15,7 L-15,15 L-95,15 L-95,8 L-108,9 L-108,14 L-104,16 L-110,16 L-111,13 L-110,8 L-126,8 L-126,7 L-109,7 L-108,3 L-108,5 L-94,5 L-92,7 L-92,14 L-16,14 L-16,6 L-15,4 L-2,3 Z " fill="#9F7A4D" transform="translate(293,478)"/>
<path d="M0,0 L1,0 L1,16 L9,16 L9,9 L12,9 L12,18 L7,22 L5,23 L5,54 L10,55 L10,59 L12,59 L13,64 L13,70 L17,72 L9,72 L9,57 L1,57 L1,17 L-7,17 L-7,16 L0,16 Z " fill="#E0A729" transform="translate(15,63)"/>
<path d="M0,0 L1,0 L1,14 L8,14 L8,15 L1,15 L1,87 L8,87 L8,88 L1,88 L1,111 L-7,111 L-7,126 L-9,124 L-9,117 L-10,110 L-2,109 L-2,88 L-7,87 L-7,103 L-15,103 L-15,102 L-8,102 L-8,79 L0,79 Z " fill="#736054" transform="translate(421,208)"/>
<path d="M0,0 L7,0 L7,39 L0,39 Z " fill="#371C14" transform="translate(255,152)"/>
<path d="M0,0 L7,0 L7,39 L0,39 Z " fill="#3C1C0D" transform="translate(215,152)"/>
<path d="M0,0 L4,1 L5,3 L-75,3 L-75,11 L-106,11 L-106,19 L-114,19 L-114,11 L-113,11 L-113,17 L-110,15 L-109,11 L-106,9 L-90,9 L-77,8 L-77,3 L-75,1 Z " fill="#D0A02B" transform="translate(273,331)"/>
<path d="M0,0 L33,0 L33,8 L0,8 Z " fill="#CD972C" transform="translate(222,438)"/>
<path d="M0,0 L7,0 L7,16 L-1,16 L-1,24 L-17,24 L-17,32 L-25,32 L-25,31 L-18,31 L-18,22 L-3,23 L-6,15 L-9,16 L-10,10 L-10,2 L-31,2 L-32,6 L-32,1 L-9,1 L-9,9 L0,9 Z " fill="#190908" transform="translate(287,342)"/>
<path d="M0,0 L57,0 L57,8 L64,8 L64,9 L57,9 L57,17 L54,17 L53,13 L11,12 L11,16 L9,16 L9,9 L56,9 L56,1 L1,1 L1,9 L-7,9 L-8,13 L-8,8 L0,8 Z " fill="#88694C" transform="translate(373,31)"/>
<path d="M0,0 L8,0 L9,7 L47,8 L48,9 L48,16 L56,16 L56,23 L52,21 L49,18 L44,17 L43,10 L35,11 L32,13 L24,13 L18,12 L9,13 L8,8 L0,8 Z " fill="#F4CF74" transform="translate(302,199)"/>
<path d="M0,0 L7,0 L7,16 L1,17 L0,32 L-8,32 L-8,16 L-1,16 L-1,1 Z " fill="#9B6A33" transform="translate(88,143)"/>
<path d="M0,0 L20,0 L21,7 L-3,7 L-3,15 L-26,15 L-26,13 L-24,12 L-6,11 L-4,2 Z " fill="#EDD898" transform="translate(146,208)"/>
<path d="M0,0 L24,0 L24,8 L32,8 L32,16 L40,16 L40,24 L48,24 L48,32 L56,32 L56,40 L65,40 L65,49 L63,49 L63,57 L56,57 L56,64 L47,64 L47,57 L55,57 L55,49 L56,48 L63,48 L63,41 L55,41 L55,33 L47,33 L47,25 L39,25 L39,17 L31,17 L31,9 L23,9 L23,1 L0,1 Z " fill="#714623" transform="translate(56,71)"/>
<path d="M0,0 L7,0 L7,71 L6,71 L5,22 L2,24 L1,71 L0,71 Z " fill="#120408" transform="translate(422,223)"/>
<path d="M0,0 L7,0 L7,17 L1,17 L0,24 L-8,24 L-8,8 L0,8 Z " fill="#2F2929" transform="translate(366,382)"/>
<path d="M0,0 L95,0 L95,7 L93,6 L93,1 L2,1 L2,4 L8,4 L6,7 L6,12 L2,14 L-12,14 L-14,13 L-14,15 L-16,15 L-16,8 L0,8 Z " fill="#9E6C34" transform="translate(191,72)"/>
<path d="M0,0 L1,3 L5,4 L5,0 L7,1 L5,8 L-2,8 L-2,31 L-12,30 L-11,25 L-9,25 L-10,3 L-6,3 L-3,3 Z " fill="#140810" transform="translate(329,438)"/>
<path d="M0,0 L1,0 L1,30 L9,30 L9,53 L8,53 L8,38 L2,38 L2,59 L1,61 L9,61 L9,77 L17,77 L17,93 L25,93 L25,109 L24,109 L24,94 L16,94 L16,78 L8,78 L8,62 L0,62 L0,39 L-7,39 L-7,38 L-1,37 Z " fill="#66564F" transform="translate(55,257)"/>
<path d="M0,0 L24,0 L24,7 L8,7 L8,16 L0,16 Z " fill="#A3670F" transform="translate(143,88)"/>
<path d="M0,0 L24,0 L24,16 L16,16 L16,7 L0,7 Z " fill="#A06822" transform="translate(310,88)"/>
<path d="M0,0 L8,0 L8,8 L15,8 L15,9 L8,9 L8,16 L7,17 L0,17 L0,32 L-1,32 L-1,16 L-8,16 L-8,8 L0,8 Z " fill="#534544" transform="translate(374,366)"/>
<path d="M0,0 L32,0 L32,8 L-8,8 L-8,7 L8,7 L8,1 L0,1 Z " fill="#51341E" transform="translate(302,247)"/>
<path d="M0,0 L42,0 L43,5 L-2,5 L0,4 Z " fill="#AA7018" transform="translate(384,43)"/>
<path d="M0,0 L8,0 L8,1 L1,1 L1,95 L8,95 L9,96 L9,119 L17,119 L17,135 L25,135 L25,151 L24,151 L24,136 L16,136 L16,120 L8,120 L6,119 L7,97 L1,97 L0,96 Z " fill="#C98F22" transform="translate(71,191)"/>
<path d="M0,0 L41,0 L41,4 L43,5 L-3,5 Z " fill="#A76C16" transform="translate(51,43)"/>
<path d="M0,0 L2,0 L2,42 L10,42 L11,57 L18,57 L18,68 L16,66 L16,60 L11,59 L8,56 L6,47 L5,43 L0,42 L-1,33 L-1,4 Z " fill="#DEA73B" transform="translate(37,86)"/>
<path d="M0,0 L1,0 L1,27 L9,27 L9,91 L4,91 L7,90 L6,29 L-1,28 L-2,3 Z " fill="#99713D" transform="translate(412,196)"/>
<path d="M0,0 L1,0 L1,22 L-7,22 L-7,38 L-15,38 L-15,30 L-10,29 L-9,13 L-2,12 L-2,5 Z " fill="#D8A037" transform="translate(444,137)"/>
<path d="M0,0 L8,0 L11,2 L11,9 L16,9 L16,10 L8,10 L8,2 L0,2 L0,26 L8,26 L8,34 L16,34 L17,44 L13,42 L13,40 L11,39 L12,37 L6,36 L4,32 L-1,30 L-2,26 L-2,2 Z " fill="#D3A03F" transform="translate(278,149)"/>
<path d="M0,0 L16,0 L16,1 L4,2 L0,10 L-9,10 L-8,13 L-12,15 L-13,20 L-17,20 L-17,17 L-22,17 L-22,29 L-19,29 L-17,22 L-10,22 L-10,17 L-8,16 L-8,24 L-16,24 L-16,31 L-24,31 L-24,16 L-16,16 L-16,8 L0,8 Z " fill="#130A0A" transform="translate(199,422)"/>
<path d="M0,0 L1,3 L-7,3 L-7,11 L1,11 L1,19 L-31,19 L-31,27 L-39,27 L-39,26 L-32,26 L-32,18 L-16,18 L-16,10 L-8,10 L-8,2 L0,2 Z " fill="#8F785E" transform="translate(365,45)"/>
<path d="M0,0 L8,0 L9,15 L16,16 L16,24 L8,24 L8,16 L0,16 Z " fill="#AB7415" transform="translate(318,342)"/>
<path d="M0,0 L1,0 L1,39 L9,39 L9,47 L17,47 L17,63 L25,63 L25,71 L17,71 L16,64 L16,55 L9,55 L8,48 L8,40 L0,40 Z " fill="#966935" transform="translate(39,88)"/>
<path d="M0,0 L8,0 L8,16 L0,16 L0,24 L-7,24 L-8,23 L-8,16 L-1,15 Z " fill="#AB761C" transform="translate(151,342)"/>
<path d="M0,0 L16,0 L16,16 L8,16 L8,8 L0,8 Z " fill="#875511" transform="translate(326,231)"/>
<path d="M0,0 L3,1 L3,3 L7,5 L10,6 L11,14 L17,14 L18,15 L18,21 L22,21 L22,23 L16,23 L16,16 L0,16 L-1,15 L-1,9 L-7,9 L-5,6 L-1,5 Z " fill="#734B29" transform="translate(127,406)"/>
<path d="M0,0 L14,0 L15,7 L92,8 L92,9 L11,9 L9,10 L8,8 L0,7 Z " fill="#170301" transform="translate(184,486)"/>
<path d="M0,0 L7,1 L7,21 L6,22 L-5,22 L-6,21 L-6,16 L0,16 Z " fill="#507EA3" transform="translate(127,271)"/>
<path d="M0,0 L8,0 L8,8 L16,8 L16,39 L15,40 L8,40 L10,33 L11,25 L13,25 L13,10 L8,10 L6,8 L5,2 L1,2 L1,7 L0,7 Z " fill="#F5D790" transform="translate(183,215)"/>
<path d="M0,0 L1,0 L1,16 L-15,16 L-15,24 L-23,24 L-23,22 L-19,19 L-15,13 L-10,14 L-9,7 L-6,5 L-3,4 L-2,1 Z " fill="#D3A32D" transform="translate(301,199)"/>
<path d="M0,0 L9,0 L9,8 L16,8 L16,15 L1,15 Z " fill="#12070E" transform="translate(103,40)"/>
<path d="M0,0 L63,0 L63,8 L71,8 L70,11 L62,9 L61,8 L61,2 L53,3 L48,2 L34,3 L10,3 L1,2 L1,7 L0,7 Z " fill="#EDDDAD" transform="translate(207,430)"/>
<path d="M0,0 L9,0 L9,48 L8,48 L7,4 L6,25 L6,31 L4,33 L4,9 L6,1 L3,1 L3,7 L2,8 L1,55 L0,55 Z " fill="#493C36" transform="translate(7,80)"/>
<path d="M0,0 L15,0 L15,13 L12,16 L8,15 L8,8 L0,8 Z " fill="#623B22" transform="translate(112,398)"/>
<path d="M0,0 L3,2 L1,2 L3,6 L3,21 L11,21 L11,14 L19,14 L19,22 L1,23 L-3,18 L-3,4 L-1,1 Z " fill="#E4D195" transform="translate(172,432)"/>
<path d="M0,0 L8,0 L7,23 L0,23 Z " fill="#A7701B" transform="translate(183,271)"/>
<path d="M0,0 L1,0 L1,8 L8,8 L8,16 L16,16 L16,24 L9,24 L8,23 L8,17 L3,18 L1,24 L0,24 L0,17 L-7,17 L-7,16 L0,15 Z " fill="#59361F" transform="translate(87,350)"/>
<path d="M0,0 L1,0 L1,26 L-5,28 L-7,28 L-7,88 L-8,88 L-9,59 L-9,25 L-16,25 L-16,24 L-9,24 L-9,9 L-8,9 L-8,25 L0,25 Z " fill="#8B6846" transform="translate(64,198)"/>
<path d="M0,0 L6,0 L6,15 L-2,15 L-2,39 L-9,39 L-9,38 L-4,38 L-4,13 L-1,8 L0,4 Z " fill="#EDD795" transform="translate(288,216)"/>
<path d="M0,0 L8,0 L11,1 L11,7 L19,8 L20,9 L20,19 L19,21 L15,19 L15,13 L7,12 L7,6 L4,5 L1,4 Z " fill="#11050C" transform="translate(281,431)"/>
<path d="M0,0 L5,2 L5,15 L7,16 L5,23 L-2,22 L-2,7 L-9,7 L-9,6 L-1,5 Z " fill="#2B2028" transform="translate(49,185)"/>
<path d="M0,0 L8,0 L8,24 L0,24 L0,32 L-8,32 L-6,30 L-3,30 L-2,23 L-1,22 L6,22 L5,5 L3,3 L1,10 L-6,10 L-6,16 L-8,16 L-8,8 L0,8 Z " fill="#512B0B" transform="translate(191,151)"/>
<path d="M0,0 L1,0 L1,22 L-6,23 L-7,38 L-14,38 L-15,54 L-21,54 L-21,52 L-17,52 L-17,40 L-15,34 L-9,35 L-9,22 L-7,20 L-1,20 L-1,6 Z " fill="#A47335" transform="translate(412,288)"/>
<path d="M0,0 L80,0 L80,1 L1,1 L1,16 L-7,16 L-7,8 L0,8 Z " fill="#DDB757" transform="translate(198,334)"/>
<path d="M0,0 L14,1 L13,7 L11,7 L9,12 L1,14 L1,19 L0,16 L-2,16 L-1,13 Z " fill="#EFD998" transform="translate(297,256)"/>
<path d="M0,0 L32,0 L32,2 L13,3 L13,7 L16,8 L0,8 Z " fill="#322215" transform="translate(111,223)"/>
<path d="M0,0 L2,0 L2,24 L-6,24 L-6,31 L-14,31 L-14,23 L1,23 L0,21 L-4,22 L-5,21 L-5,4 L-4,4 L-3,20 L-2,20 L-1,1 Z " fill="#996E31" transform="translate(316,438)"/>
<path d="M0,0 L8,0 L9,7 L31,8 L31,16 L8,16 L8,15 L29,15 L29,10 L8,10 L8,8 L0,8 Z " fill="#697A7E" transform="translate(135,239)"/>
<path d="M0,0 L8,0 L8,8 L16,8 L15,11 L8,10 L6,8 L5,4 L3,9 L3,20 L6,21 L14,21 L16,20 L16,24 L1,24 L0,23 Z " fill="#648195" transform="translate(127,239)"/>
<path d="M0,0 L8,0 L8,8 L16,8 L16,16 L7,16 L7,9 L0,9 Z " fill="#B37A2D" transform="translate(358,119)"/>
<path d="M0,0 L1,0 L1,40 L-7,40 L-7,56 L-15,56 L-15,63 L-16,63 L-16,47 L-8,47 L-8,39 L0,39 Z " fill="#A37536" transform="translate(437,88)"/>
<path d="M0,0 L1,0 L1,41 L0,42 L-9,42 L-13,38 L-12,36 L-11,2 L-9,2 L-9,40 L0,40 Z " fill="#D09F3E" transform="translate(263,151)"/>
<path d="M0,0 L8,0 L8,8 L15,8 L15,9 L9,9 L9,15 L8,16 L1,16 L0,15 Z " fill="#764311" transform="translate(350,398)"/>
<path d="M0,0 L21,0 L21,5 L0,5 L0,10 L-2,12 L-10,12 L-11,10 L-4,9 L-2,6 Z " fill="#5680A1" transform="translate(143,249)"/>
<path d="M0,0 L1,0 L1,16 L-7,16 L-7,24 L-14,24 L-14,32 L-22,32 L-22,40 L-32,40 L-32,38 L-30,38 L-30,36 L-27,37 L-24,30 L-17,28 L-15,20 L-13,21 L-13,22 L-9,21 L-8,15 L-1,13 Z " fill="#DBA128" transform="translate(380,326)"/>
<path d="M0,0 L7,0 L6,2 L3,2 L3,37 L8,37 L8,39 L0,39 Z " fill="#290B01" transform="translate(40,88)"/>
<path d="M0,0 L3,3 L3,5 L33,5 L34,6 L47,6 L48,8 L0,8 Z " fill="#452109" transform="translate(294,183)"/>
<path d="M0,0 L2,0 L3,5 L16,6 L19,9 L20,13 L33,14 L33,23 L56,23 L56,24 L32,24 L32,16 L16,16 L16,8 L0,8 Z " fill="#CC9C45" transform="translate(294,159)"/>
<path d="M0,0 L16,0 L16,8 L0,8 Z " fill="#D1A449" transform="translate(286,469)"/>
<path d="M0,0 L8,0 L8,16 L0,16 Z " fill="#B07924" transform="translate(318,422)"/>
<path d="M0,0 L8,0 L8,16 L0,16 Z " fill="#A36E24" transform="translate(151,422)"/>
<path d="M0,0 L1,0 L1,59 L-5,59 L-5,57 L-2,55 L-1,1 Z " fill="#AB752C" transform="translate(418,227)"/>
<path d="M0,0 L8,0 L8,16 L0,16 Z " fill="#9F6C21" transform="translate(278,255)"/>
<path d="M0,0 L8,0 L8,16 L0,16 Z " fill="#A76D16" transform="translate(191,255)"/>
<path d="M0,0 L16,0 L16,8 L0,8 Z " fill="#6E4821" transform="translate(159,223)"/>
<path d="M0,0 L24,0 L24,8 L40,8 L40,16 L16,16 L16,15 L39,15 L39,9 L24,10 L25,14 L18,14 L17,8 L20,7 L21,4 L22,5 L23,1 L0,1 Z " fill="#4D2B0D" transform="translate(326,183)"/>
<path d="M0,0 L8,0 L8,16 L0,16 Z " fill="#140C0F" transform="translate(24,143)"/>
<path d="M0,0 L7,2 L7,0 L12,0 L12,24 L11,26 L8,25 L8,6 L6,6 L6,4 L0,4 Z " fill="#10050F" transform="translate(145,440)"/>
<path d="M0,0 L33,0 L33,8 L0,8 Z M2,1 L2,6 L29,6 L30,2 L29,1 Z " fill="#CBA248" transform="translate(222,438)"/>
<path d="M0,0 L8,0 L8,8 L1,8 L1,15 L-8,15 L-8,8 L0,8 Z " fill="#A76F1F" transform="translate(111,120)"/>
<path d="M0,0 L6,0 L6,16 L-2,16 L-2,1 Z " fill="#1A0E14" transform="translate(455,63)"/>
<path d="M0,0 L1,0 L1,40 L-7,40 L-7,24 L-24,24 L-24,16 L-23,16 L-23,22 L-8,21 L-5,22 L-4,25 L-5,27 L-5,36 L-1,36 Z " fill="#442E1B" transform="translate(190,231)"/>
<path d="M0,0 L1,0 L1,16 L-7,16 L-7,24 L-15,24 L-15,32 L-55,32 L-55,31 L-16,31 L-16,23 L-8,23 L-8,13 L-3,12 Z " fill="#EEC867" transform="translate(365,231)"/>
<path d="M0,0 L23,0 L26,2 L2,2 L2,11 L-6,11 L-6,19 L-14,19 L-11,15 L-8,15 L-9,11 L-2,8 L-1,2 Z " fill="#A47033" transform="translate(54,69)"/>
<path d="M0,0 L16,0 L16,8 L1,8 Z " fill="#110204" transform="translate(294,477)"/>
<path d="M0,0 L8,0 L8,8 L1,9 L0,16 L-7,16 L-7,8 L0,8 Z " fill="#C89D4E" transform="translate(262,374)"/>
<path d="M0,0 L11,0 L17,2 L17,9 L47,9 L47,11 L16,11 L16,3 L-8,3 L-8,1 Z " fill="#F6E1AF" transform="translate(207,339)"/>
<path d="M0,0 L8,0 L8,8 L16,8 L16,16 L24,16 L24,48 L23,48 L23,24 L16,24 L15,17 L15,9 L7,9 L7,1 L0,1 Z " fill="#593317" transform="translate(40,175)"/>
<path d="M0,0 L8,0 L8,15 L0,15 Z " fill="#AC721E" transform="translate(80,160)"/>
<path d="M0,0 L17,0 L15,3 L21,4 L22,6 L-9,6 L-5,4 L-1,2 Z " fill="#EED286" transform="translate(232,432)"/>
<path d="M0,0 L1,0 L1,17 L3,17 L6,14 L12,12 L14,8 L16,8 L16,16 L8,16 L8,24 L0,24 Z " fill="#F6DB89" transform="translate(294,255)"/>
<path d="M0,0 L1,0 L1,16 L8,16 L8,17 L1,17 L1,32 L0,33 L-7,33 L-7,48 L-10,48 L-10,45 L-8,45 L-8,32 L-7,31 L-2,31 L-2,17 L-7,17 L-7,24 L-8,24 L-8,16 L0,16 Z " fill="#474144" transform="translate(437,159)"/>
<path d="M0,0 L8,0 L8,1 L3,2 L2,10 L3,20 L8,21 L8,23 L0,23 L0,15 L-8,15 L-8,8 L0,8 Z " fill="#2C0E06" transform="translate(366,104)"/>
<path d="M0,0 L5,0 L6,6 L13,7 L14,15 L5,15 L5,8 L-2,8 L-1,1 Z " fill="#362424" transform="translate(90,367)"/>
<path d="M0,0 L7,0 L7,16 L-1,16 L-1,24 L-17,24 L-17,32 L-25,32 L-25,31 L-18,31 L-18,22 L-3,23 L-6,15 L-5,14 L5,14 L5,2 L0,1 Z " fill="#241209" transform="translate(287,342)"/>
<path d="M0,0 L5,0 L5,14 L-2,15 L-2,13 L-6,15 L-6,12 L-8,12 L-8,8 L-1,7 Z " fill="#14060E" transform="translate(430,176)"/>
<path d="M0,0 L23,0 L23,7 L21,7 L20,5 L9,5 L2,7 L0,6 Z " fill="#230D0C" transform="translate(56,72)"/>
<path d="M0,0 L7,0 L7,1 L1,1 L1,8 L-6,9 L-7,22 L-2,22 L-2,16 L0,16 L0,24 L-8,24 L-8,31 L-15,31 L-15,24 L-9,23 L-8,8 L-7,7 L0,7 Z " fill="#230D09" transform="translate(262,358)"/>
<path d="M0,0 L7,0 L8,16 L0,16 Z " fill="#13050A" transform="translate(80,350)"/>
<path d="M0,0 L7,0 L8,16 L0,16 Z " fill="#090406" transform="translate(72,334)"/>
<path d="M0,0 L8,0 L8,7 L7,8 L0,8 L-1,11 L-1,9 L-39,9 L-39,16 L-40,16 L-40,8 L-1,7 Z " fill="#F2CE70" transform="translate(167,199)"/>
<path d="M0,0 L16,0 L16,7 L0,7 Z " fill="#130508" transform="translate(167,478)"/>
<path d="M0,0 L7,0 L7,16 L0,16 Z " fill="#89BCDE" transform="translate(120,271)"/>
<path d="M0,0 L16,0 L16,7 L0,7 Z " fill="#130707" transform="translate(286,72)"/>
<path d="M0,0 L16,0 L16,7 L0,7 Z " fill="#110303" transform="translate(175,72)"/>
<path d="M0,0 L1,0 L1,7 L18,7 L18,13 L26,14 L28,21 L30,22 L30,10 L24,9 L24,8 L32,8 L32,23 L24,23 L24,16 L16,16 L16,8 L0,8 Z " fill="#3A2615" transform="translate(270,430)"/>
<path d="M0,0 L1,0 L2,46 L3,48 L1,51 L-6,52 L-7,63 L-8,63 L-8,47 L0,47 Z " fill="#3C1F0E" transform="translate(461,80)"/>
<path d="M0,0 L32,0 L29,2 L22,3 L20,7 L8,7 L8,1 L0,1 Z " fill="#512B11" transform="translate(302,247)"/>
<path d="M0,0 L79,0 L79,5 L77,5 L77,2 L33,2 L1,1 L0,5 Z " fill="#FAD87F" transform="translate(199,335)"/>
<path d="M0,0 L23,0 L23,7 L21,6 L21,4 L2,5 L2,8 L0,8 Z " fill="#250D0C" transform="translate(398,72)"/>
<path d="M0,0 L7,0 L7,15 L0,15 Z " fill="#0A0103" transform="translate(398,335)"/>
<path d="M0,0 L7,0 L7,15 L0,15 Z " fill="#130407" transform="translate(438,160)"/>
<path d="M0,0 L7,0 L7,15 L0,15 Z " fill="#100203" transform="translate(32,160)"/>
<path d="M0,0 L7,0 L7,15 L0,15 Z " fill="#150709" transform="translate(446,144)"/>
<path d="M0,0 L10,0 L10,1 L3,1 L3,9 L-71,9 L-71,8 L0,8 Z " fill="#211C20" transform="translate(284,493)"/>
<path d="M0,0 L5,0 L3,1 L3,44 L6,46 L0,46 Z " fill="#FCE3A3" transform="translate(144,367)"/>
<path d="M0,0 L8,0 L8,23 L16,23 L16,39 L24,39 L24,55 L23,55 L23,40 L15,40 L15,24 L7,24 L5,23 L6,1 L0,1 Z " fill="#BC8316" transform="translate(72,287)"/>
<path d="M0,0 L9,0 L11,9 L11,20 L15,21 L17,24 L18,40 L16,40 L16,25 L8,25 L8,1 L0,1 Z " fill="#9C6D35" transform="translate(56,286)"/>
<path d="M0,0 L1,0 L1,5 L-23,5 L-23,13 L-46,13 L-46,11 L-44,10 L-27,9 L-24,11 L-24,4 L0,4 Z " fill="#E0CEA1" transform="translate(166,210)"/>
<path d="M0,0 L43,0 L47,1 L47,3 L-1,3 Z " fill="#260B02" transform="translate(382,37)"/>
<path d="M0,0 L7,0 L7,39 L0,39 Z M2,1 L1,2 L1,35 L6,36 L6,2 Z " fill="#3B1700" transform="translate(255,152)"/>
<path d="M0,0 L1,4 L9,4 L10,19 L17,19 L17,30 L15,28 L15,22 L10,21 L7,18 L5,9 L4,5 L0,5 Z " fill="#D29B2A" transform="translate(38,124)"/>
<path d="M0,0 L7,0 L7,8 L6,10 L5,20 L4,20 L3,11 L2,10 L1,23 L8,23 L8,24 L0,24 Z " fill="#9A6C29" transform="translate(159,438)"/>
<path d="M0,0 Z M-1,1 Z M1,1 L5,3 L5,4 L-1,4 L-1,19 L-2,20 L-9,20 L-8,29 L-17,28 L-14,25 L-12,25 L-12,20 L-5,17 L-4,11 L-2,11 L-3,3 Z " fill="#D89F27" transform="translate(152,338)"/>
<path d="M0,0 L16,0 L16,8 L8,8 L8,16 L0,16 L0,15 L7,15 L7,7 L15,7 L14,3 L11,3 L11,5 L4,6 L4,2 L2,2 L1,7 L0,7 Z " fill="#291714" transform="translate(334,64)"/>
<path d="M0,0 L8,0 L4,3 L2,8 L-5,13 L-6,19 L-4,19 L-2,21 L-1,23 L-8,23 L-8,8 L0,8 Z " fill="#D9A129" transform="translate(302,271)"/>
<path d="M0,0 L24,0 L24,3 L15,4 L5,6 L1,4 Z " fill="#9E672A" transform="translate(143,88)"/>
<path d="M0,0 L40,0 L36,3 L25,2 L15,2 L5,3 L2,8 L0,8 Z " fill="#CEA32F" transform="translate(310,263)"/>
<path d="M0,0 L1,0 L1,7 L23,7 L23,0 L24,0 L24,8 L1,8 L1,15 L32,15 L32,16 L0,16 L0,8 L-16,8 L-16,7 L0,7 Z " fill="#675144" transform="translate(302,72)"/>
<path d="M0,0 L15,0 L11,2 L10,3 L43,4 L43,5 L-3,5 Z " fill="#B1751A" transform="translate(51,43)"/>
<path d="M0,0 L2,0 L3,37 L-6,38 L-5,34 L0,34 Z " fill="#200A06" transform="translate(433,90)"/>
<path d="M0,0 L8,0 L8,9 L6,9 L5,11 L3,14 L0,13 Z " fill="#100204" transform="translate(135,422)"/>
<path d="M0,0 L8,0 L8,8 L24,8 L24,16 L40,16 L40,24 L39,24 L39,17 L23,17 L22,10 L9,11 L6,6 L7,1 L0,1 Z " fill="#542C08" transform="translate(286,159)"/>
<path d="M0,0 L7,0 L7,13 L6,11 L4,11 L3,14 L0,13 Z " fill="#0B0201" transform="translate(104,382)"/>
<path d="M0,0 L8,0 L8,1 L2,1 L3,8 L1,10 L-6,10 L-6,25 L-7,40 L-8,40 L-8,8 L0,8 Z " fill="#EECA6D" transform="translate(286,215)"/>
<path d="M0,0 L9,0 L9,24 L8,24 L8,8 L0,8 Z " fill="#B89B5F" transform="translate(222,390)"/>
<path d="M0,0 L8,0 L8,7 L16,7 L16,8 L0,8 L0,15 L-1,15 L-1,8 L-8,8 L-8,7 L0,7 Z " fill="#523F35" transform="translate(167,470)"/>
<path d="M0,0 L1,0 L1,8 L-7,8 L-7,16 L-15,16 L-15,7 L0,7 Z " fill="#A5854B" transform="translate(206,430)"/>
<path d="M0,0 L7,0 L7,8 L0,8 L0,32 L-1,32 L-1,1 Z " fill="#643811" transform="translate(414,191)"/>
<path d="M0,0 L28,0 L29,1 L29,8 L32,9 L26,9 L26,1 L2,1 L2,9 L-4,9 L-2,5 Z " fill="#A06F36" transform="translate(395,70)"/>
<path d="M0,0 L1,0 L1,22 L-2,24 L-5,27 L-7,31 L-14,31 L-14,36 L-16,37 L-16,29 L-8,29 L-8,21 L0,21 Z " fill="#C99B45" transform="translate(199,154)"/>
<path d="M0,0 L8,0 L8,8 L7,8 L7,1 L2,1 L2,3 L5,3 L5,6 L3,6 L3,8 L6,8 L5,13 L8,16 L0,16 Z " fill="#2A1C14" transform="translate(183,342)"/>
<path d="M0,0 L29,0 L24,4 L15,4 L9,3 L0,4 Z " fill="#F1D68C" transform="translate(311,208)"/>
<path d="M0,0 L6,0 L6,39 L4,37 L4,2 L0,2 Z " fill="#361503" transform="translate(431,88)"/>
<path d="M0,0 L32,0 L32,8 L16,8 L16,7 L29,6 L30,2 L8,2 L0,1 Z " fill="#332110" transform="translate(334,223)"/>
<path d="M0,0 L6,0 L8,6 L8,10 L11,10 L11,17 L4,17 L3,2 Z M7,10 Z " fill="#240E09" transform="translate(394,158)"/>
<path d="M0,0 L8,0 L8,1 L2,1 L2,13 L5,13 L7,6 L14,6 L14,1 L16,0 L16,8 L8,8 L8,15 L0,15 Z " fill="#1C0E05" transform="translate(175,438)"/>
<path d="M0,0 L1,0 L2,7 L60,7 L62,3 L63,3 L63,8 L0,8 Z " fill="#F7D988" transform="translate(207,477)"/>
<path d="M0,0 L2,1 L3,4 L10,5 L11,14 L13,13 L13,9 L16,10 L16,16 L8,16 L8,8 L0,8 Z " fill="#DAA12E" transform="translate(334,358)"/>
<path d="M0,0 L15,0 L15,24 L12,21 L12,2 L3,2 Z " fill="#DFD4AA" transform="translate(112,231)"/>
<path d="M0,0 L7,0 L7,7 L16,7 L16,15 L23,15 L23,16 L15,16 L15,8 L0,8 Z " fill="#977D56" transform="translate(279,422)"/>
<path d="M0,0 L16,0 L16,1 L9,1 L9,8 L0,8 Z " fill="#C9A457" transform="translate(270,366)"/>
<path d="M0,0 L7,0 L7,1 L2,2 L1,10 L0,12 L2,13 L2,15 L-8,15 L-8,8 L0,8 Z " fill="#9F660D" transform="translate(350,96)"/>
<path d="M0,0 L1,2 L4,2 L4,4 L11,6 L12,15 L16,16 L8,16 L8,8 L0,8 Z " fill="#F5D781" transform="translate(167,263)"/>
<path d="M0,0 L7,0 L9,5 L17,6 L18,16 L14,14 L14,12 L12,11 L13,9 L7,8 L5,4 L0,2 Z " fill="#DCA62B" transform="translate(277,177)"/>
<path d="M0,0 L7,1 L9,4 L13,2 L13,11 L5,11 L5,3 L-3,3 Z " fill="#A66C15" transform="translate(424,77)"/>
<path d="M0,0 L1,0 L1,16 L9,16 L6,18 L3,18 L2,56 L1,56 L1,17 L-7,17 L-7,16 L0,16 Z " fill="#B39567" transform="translate(15,63)"/>
<path d="M0,0 L6,0 L4,2 L8,4 L0,4 L0,28 L-7,28 L-7,27 L-2,27 L-2,2 Z " fill="#DFCB9C" transform="translate(286,227)"/>
<path d="M0,0 L7,0 L8,4 L-15,4 L-14,1 Z " fill="#F1D382" transform="translate(159,259)"/>
<path d="M0,0 L47,0 L47,8 L45,8 L44,2 L3,2 L2,7 L0,7 Z " fill="#9F7045" transform="translate(382,40)"/>
<path d="M0,0 L2,4 L7,4 L7,6 L9,6 L10,13 L14,14 L14,8 L16,8 L16,16 L8,16 L8,8 L0,8 Z M7,3 Z " fill="#D49C22" transform="translate(119,358)"/>
<path d="M0,0 L7,0 L7,24 L-9,24 L-9,16 L-7,16 L-6,21 L5,21 L6,1 L0,1 Z " fill="#797E67" transform="translate(128,271)"/>
<path d="M0,0 L8,0 L8,8 L16,8 L16,39 L15,39 L15,9 L7,9 L5,2 L1,2 L1,7 L0,7 Z " fill="#ECC768" transform="translate(183,215)"/>
<path d="M0,0 L1,0 L1,8 L0,12 L-6,12 L-6,1 Z " fill="#0F030A" transform="translate(22,65)"/>
<path d="M0,0 L2,2 L1,9 L-12,9 L-10,5 L-6,4 L-4,4 L-3,1 Z " fill="#F2DA96" transform="translate(205,412)"/>
<path d="M0,0 L24,0 L21,3 L20,7 L24,8 L16,8 L17,3 L3,2 L1,1 L1,8 L0,8 Z " fill="#32251B" transform="translate(143,215)"/>
<path d="M0,0 L7,1 L8,7 L4,9 L3,7 L-5,6 L-4,1 Z " fill="#0B0409" transform="translate(189,487)"/>
<path d="M0,0 L8,0 L8,9 L0,9 Z " fill="#B28742" transform="translate(167,461)"/>
<path d="M0,0 L1,4 L6,7 L6,8 L-3,8 L-3,14 L-5,14 L-6,7 L-8,3 L-8,1 Z " fill="#0E0106" transform="translate(319,461)"/>
<path d="M0,0 L8,0 L8,7 L16,7 L16,8 L0,8 Z " fill="#BE9D5A" transform="translate(286,446)"/>
<path d="M0,0 L8,0 L8,8 L-8,8 L-8,7 L0,7 Z " fill="#C09F5B" transform="translate(183,446)"/>
<path d="M0,0 L8,0 L8,8 L-8,8 L-8,7 L0,7 Z " fill="#9F7C3B" transform="translate(191,422)"/>
<path d="M0,0 L8,0 L8,8 L1,8 L1,16 L0,16 Z " fill="#744822" transform="translate(389,342)"/>
<path d="M0,0 L1,0 L1,7 L-6,8 L-7,23 L-15,23 L-15,7 L-7,6 L-1,4 Z M-14,8 L-14,21 L-11,22 L-8,18 L-8,8 Z " fill="#B47A0F" transform="translate(174,311)"/>
<path d="M0,0 L8,0 L8,8 L1,8 L1,16 L0,16 Z " fill="#7A5B38" transform="translate(294,215)"/>
<path d="M0,0 L3,0 L2,9 L-4,11 L-5,13 L-5,47 L-7,47 L-7,11 L-6,9 L0,8 Z " fill="#DCA63E" transform="translate(24,72)"/>
<path d="M0,0 L41,0 L40,4 L38,3 L26,2 L4,2 L0,3 Z " fill="#DFA32F" transform="translate(54,48)"/>
<path d="M0,0 L2,0 L3,22 L10,24 L10,30 L7,31 L7,24 L0,24 Z " fill="#20151A" transform="translate(151,446)"/>
<path d="M0,0 L1,0 L1,16 L6,16 L4,18 L-1,18 L-1,15 L-3,15 L-3,1 Z " fill="#F2E0A8" transform="translate(182,343)"/>
<path d="M0,0 L16,0 L16,1 L3,3 L1,10 L-6,12 L-8,16 L-8,8 L0,8 Z " fill="#F3CF76" transform="translate(167,342)"/>
<path d="M0,0 L2,2 L2,18 L1,20 L-4,20 L-4,18 L-2,17 L-2,2 Z " fill="#0C0106" transform="translate(417,296)"/>
<path d="M0,0 L1,0 L1,8 L9,8 L9,16 L-7,16 L-7,8 L-4,9 L-3,14 L8,15 L8,9 L-1,9 L-2,5 Z " fill="#2D170B" transform="translate(158,223)"/>
<path d="M0,0 L15,0 L14,5 L2,5 L0,4 Z " fill="#160911" transform="translate(349,225)"/>
<path d="M0,0 L1,0 L1,16 L-7,16 L-7,32 L-13,32 L-13,30 L-9,30 L-9,18 L-7,14 L-1,14 Z " fill="#361606" transform="translate(420,135)"/>
<path d="M0,0 L31,0 L30,2 L10,2 L6,3 L6,5 L0,7 Z " fill="#D19930" transform="translate(167,88)"/>
<path d="M0,0 L5,0 L4,2 L2,3 L2,15 L0,18 L-6,18 L-7,39 L-8,39 L-8,16 L0,16 Z " fill="#1E0602" transform="translate(414,295)"/>
<path d="M0,0 L3,0 L3,4 L-4,4 L-4,20 L-12,20 L-10,17 L-7,17 L-6,3 Z " fill="#D89F29" transform="translate(171,298)"/>
<path d="M0,0 L1,0 L1,5 L-6,5 L-6,14 L-14,14 L-14,21 L-15,21 L-15,13 L-14,11 L-9,10 L-8,3 L-1,3 Z " fill="#936235" transform="translate(372,98)"/>
<path d="M0,0 L2,0 L2,33 L0,33 L-1,25 Z " fill="#D4A12D" transform="translate(276,223)"/>
<path d="M0,0 L1,4 L24,5 L24,9 L26,9 L25,13 L25,11 L23,11 L23,7 L0,7 Z " fill="#D9A333" transform="translate(327,175)"/>
<path d="M0,0 L3,0 L3,8 L10,8 L10,47 L9,47 L9,9 L1,9 Z " fill="#D7AA4F" transform="translate(450,72)"/>
<path d="M0,0 L21,1 L23,3 L0,3 L0,9 L-4,8 Z " fill="#F1DCA7" transform="translate(254,339)"/>
<path d="M0,0 L2,4 L2,5 L-7,5 L-7,22 L-8,22 L-10,4 L-8,2 L-1,1 Z " fill="#C99E3E" transform="translate(118,218)"/>
<path d="M0,0 L5,0 L6,22 L2,22 L2,8 L4,1 L0,3 Z " fill="#0F0104" transform="translate(56,200)"/>
<path d="M0,0 L1,0 L1,9 L-7,9 L-7,1 Z " fill="#D9A840" transform="translate(317,429)"/>
<path d="M0,0 L4,0 L4,15 L-11,15 L-11,8 L-9,12 L-4,13 L2,11 L1,4 Z " fill="#DCA436" transform="translate(59,160)"/>
<path d="M0,0 L8,0 L8,1 L1,1 L2,18 L10,22 L8,24 L0,24 Z " fill="#5F3819" transform="translate(278,151)"/>
<path d="M0,0 L8,0 L8,8 L0,9 Z " fill="#895F33" transform="translate(413,151)"/>
<path d="M0,0 L7,0 L7,7 L-1,7 L-1,15 L-6,15 L-6,10 L-2,5 L5,6 L4,2 Z " fill="#A2680D" transform="translate(128,104)"/>
<path d="M0,0 L8,0 L8,8 L0,8 Z " fill="#733B0E" transform="translate(302,469)"/>
<path d="M0,0 L8,0 L8,8 L0,8 Z " fill="#A37431" transform="translate(302,461)"/>
<path d="M0,0 L8,0 L8,8 L0,8 Z " fill="#CEA44F" transform="translate(278,438)"/>
<path d="M0,0 L8,0 L8,8 L0,8 Z " fill="#A48146" transform="translate(262,414)"/>
<path d="M0,0 L8,0 L8,8 L0,8 Z " fill="#B99037" transform="translate(207,414)"/>
<path d="M0,0 L8,0 L8,8 L0,8 Z " fill="#0F080B" transform="translate(358,398)"/>
<path d="M0,0 L8,0 L8,8 L0,8 Z " fill="#D4AA56" transform="translate(247,390)"/>
<path d="M0,0 L8,0 L8,8 L0,8 Z " fill="#CCA24D" transform="translate(207,374)"/>
<path d="M0,0 L8,0 L8,8 L0,8 Z " fill="#DDA841" transform="translate(326,239)"/>
<path d="M0,0 L8,0 L8,8 L0,8 Z " fill="#3A3230" transform="translate(135,239)"/>
<path d="M0,0 L8,0 L8,8 L0,8 Z " fill="#5F3911" transform="translate(334,239)"/>
<path d="M0,0 L8,0 L8,8 L0,8 Z " fill="#CFA14C" transform="translate(334,231)"/>
<path d="M0,0 L8,0 L8,8 L0,8 Z " fill="#C89F5B" transform="translate(135,231)"/>
<path d="M0,0 L8,0 L8,8 L0,8 Z " fill="#8C5812" transform="translate(143,231)"/>
<path d="M0,0 L8,0 L8,8 L0,8 Z " fill="#DDCD9F" transform="translate(310,223)"/>
<path d="M0,0 L8,0 L8,8 L0,8 Z " fill="#714B22" transform="translate(302,223)"/>
<path d="M0,0 L8,0 L8,8 L0,8 Z " fill="#DDCCA0" transform="translate(159,223)"/>
<path d="M0,0 L8,0 L8,8 L0,8 Z " fill="#835D2E" transform="translate(175,215)"/>
<path d="M0,0 L8,0 L8,8 L0,8 Z " fill="#956825" transform="translate(167,207)"/>
<path d="M0,0 L8,0 L8,8 L0,8 Z " fill="#F5D27C" transform="translate(294,207)"/>
<path d="M0,0 L8,0 L8,8 L0,8 Z " fill="#F5D078" transform="translate(175,207)"/>
<path d="M0,0 L8,0 L8,8 L0,8 Z " fill="#996D2B" transform="translate(302,207)"/>
<path d="M0,0 L8,0 L8,8 L0,8 Z " fill="#B37A19" transform="translate(429,167)"/>
<path d="M0,0 L8,0 L8,8 L0,8 Z " fill="#AB721A" transform="translate(40,167)"/>
<path d="M0,0 L8,0 L8,8 L0,8 Z " fill="#A36A14" transform="translate(32,151)"/>
<path d="M0,0 L8,0 L8,8 L0,8 Z " fill="#AF741A" transform="translate(437,151)"/>
<path d="M0,0 L8,0 L8,8 L0,8 Z " fill="#9D703D" transform="translate(445,135)"/>
<path d="M0,0 L8,0 L8,8 L0,8 Z " fill="#91602D" transform="translate(95,135)"/>
<path d="M0,0 L8,0 L8,8 L0,8 Z " fill="#905C1F" transform="translate(374,135)"/>
<path d="M0,0 L8,0 L8,8 L0,8 Z " fill="#AA7632" transform="translate(24,135)"/>
<path d="M0,0 L8,0 L8,8 L0,8 Z " fill="#B17915" transform="translate(334,80)"/>
<path d="M0,0 L8,0 L8,8 L0,8 Z " fill="#A26814" transform="translate(135,80)"/>
<path d="M0,0 L8,0 L8,8 L0,8 Z " fill="#AC7219" transform="translate(342,72)"/>
<path d="M0,0 L8,0 L8,8 L0,8 Z " fill="#A16E39" transform="translate(127,72)"/>
<path d="M0,0 L8,0 L8,8 L0,8 Z " fill="#B37817" transform="translate(350,64)"/>
<path d="M0,0 L8,0 L8,8 L0,8 Z " fill="#946530" transform="translate(445,64)"/>
<path d="M0,0 L8,0 L8,8 L0,8 Z " fill="#A86B16" transform="translate(24,64)"/>
<path d="M0,0 L8,0 L8,8 L0,8 Z " fill="#A76D1A" transform="translate(32,56)"/>
<path d="M0,0 L8,0 L8,8 L0,8 Z " fill="#A66D1A" transform="translate(437,56)"/>
<path d="M0,0 L8,0 L8,8 L0,8 Z " fill="#2B1009" transform="translate(24,56)"/>
<path d="M0,0 L8,0 L8,8 L0,8 Z " fill="#1E0E08" transform="translate(350,56)"/>
<path d="M0,0 L8,0 L8,8 L0,8 Z " fill="#261610" transform="translate(119,56)"/>
<path d="M0,0 L8,0 L8,8 L0,8 Z " fill="#986831" transform="translate(111,56)"/>
<path d="M0,0 L8,0 L8,8 L0,8 Z " fill="#A16D36" transform="translate(40,48)"/>
<path d="M0,0 L8,0 L8,8 L0,8 Z " fill="#A8712B" transform="translate(429,48)"/>
<path d="M0,0 L8,0 L8,8 L0,8 Z " fill="#AE721A" transform="translate(374,48)"/>
<path d="M0,0 L8,0 L8,8 L0,8 Z " fill="#A26A24" transform="translate(95,48)"/>
<path d="M0,0 L8,0 L8,8 L0,8 Z " fill="#1B0B0B" transform="translate(32,48)"/>
<path d="M0,0 L8,0 L8,8 L0,8 Z " fill="#270E08" transform="translate(40,40)"/>
<path d="M0,0 L8,0 L8,8 L1,8 L0,7 Z " fill="#70400E" transform="translate(103,374)"/>
<path d="M0,0 L7,0 L7,8 L-1,8 L-1,1 Z " fill="#557F97" transform="translate(120,263)"/>
<path d="M0,0 L8,0 L8,8 L1,8 L0,7 Z " fill="#CCA65F" transform="translate(143,239)"/>
<path d="M0,0 L15,0 L15,2 L2,2 L1,8 L-15,8 L-15,15 L-16,15 L-16,7 L0,7 Z " fill="#492508" transform="translate(167,168)"/>
<path d="M0,0 L8,0 L8,7 L6,8 L0,8 Z " fill="#743F10" transform="translate(358,390)"/>
<path d="M0,0 L2,0 L2,24 L-5,24 L-5,39 L-7,37 L-7,30 L-8,23 L0,22 Z " fill="#443B3F" transform="translate(419,295)"/>
<path d="M0,0 L8,0 L8,8 L7,8 L7,1 L3,2 L2,7 L3,9 L2,24 L0,24 Z " fill="#261006" transform="translate(175,223)"/>
<path d="M0,0 L7,0 L7,1 L1,1 L1,21 L3,21 L3,23 L5,22 L6,8 L11,8 L7,9 L7,24 L0,24 Z " fill="#2A1113" transform="translate(414,199)"/>
<path d="M0,0 L3,0 L5,0 L4,7 L3,22 L1,22 L0,6 L-1,2 Z " fill="#170E14" transform="translate(55,201)"/>
<path d="M0,0 L32,0 L32,8 L31,8 L31,1 L18,2 L18,7 L22,9 L16,9 L15,6 L16,1 L0,1 Z " fill="#503B2D" transform="translate(167,485)"/>
<path d="M0,0 L6,0 L6,8 L-2,8 L-2,1 Z " fill="#150909" transform="translate(129,414)"/>
<path d="M0,0 L7,0 L5,1 L5,10 L3,12 L1,11 L0,15 Z " fill="#140503" transform="translate(366,382)"/>
<path d="M0,0 L1,0 L1,5 L-6,5 L-6,21 L-9,21 L-9,9 L-7,3 L-1,3 Z " fill="#A47336" transform="translate(372,369)"/>
<path d="M0,0 L32,0 L32,1 L23,2 L2,3 L0,7 Z " fill="#D5D7BC" transform="translate(143,255)"/>
<path d="M0,0 L1,0 L1,28 L-1,28 L-2,3 Z " fill="#9D7037" transform="translate(412,196)"/>
<path d="M0,0 L8,0 L8,9 L2,9 L2,3 L3,2 L1,1 L1,9 L-7,9 L-7,8 L0,8 Z " fill="#8E5B1F" transform="translate(405,167)"/>
<path d="M0,0 L9,0 L7,4 L3,5 L1,10 L-4,10 L-8,13 L-8,8 L0,8 Z " fill="#D49D37" transform="translate(366,56)"/>
<path d="M0,0 L16,0 L16,8 L31,8 L31,16 L28,16 L29,10 L16,10 L15,9 L15,1 L0,1 Z " fill="#27160A" transform="translate(263,422)"/>
<path d="M0,0 L1,0 L1,16 L-8,16 L-7,12 L-3,12 Z " fill="#F3D276" transform="translate(365,231)"/>
<path d="M0,0 L8,0 L8,8 L2,8 L2,2 L1,1 L1,16 L0,16 Z " fill="#9D6722" transform="translate(421,135)"/>
<path d="M0,0 L1,0 L1,14 L-7,14 L-7,5 L-6,9 L-2,8 Z " fill="#A96E0D" transform="translate(333,90)"/>
<path d="M0,0 L1,0 L1,14 L-5,14 L-3,2 Z " fill="#A56810" transform="translate(94,145)"/>
<path d="M0,0 L3,2 L4,6 L4,13 L8,13 L8,15 L0,15 Z " fill="#D9A133" transform="translate(32,136)"/>
<path d="M0,0 L16,0 L16,2 L4,3 L1,10 L-7,10 L-7,9 L0,9 Z " fill="#D39625" transform="translate(151,95)"/>
<path d="M0,0 L29,0 L29,7 L26,6 L26,3 L21,3 L20,2 L6,2 L0,1 Z " fill="#D59B32" transform="translate(281,88)"/>
<path d="M0,0 L8,0 L8,24 L6,22 L6,2 L0,2 Z " fill="#230904" transform="translate(151,438)"/>
<path d="M0,0 L1,0 L1,7 L8,7 L8,0 L9,0 L9,8 L1,8 L1,32 L0,32 L0,8 L-3,7 L-2,3 L0,3 Z " fill="#4F3A25" transform="translate(246,382)"/>
<path d="M0,0 L16,0 L16,8 L8,8 L8,3 L15,3 L15,1 L0,1 Z " fill="#C29F54" transform="translate(191,366)"/>
<path d="M0,0 L2,0 L2,7 L-37,7 L-36,5 L-1,5 Z " fill="#F8D885" transform="translate(347,255)"/>
<path d="M0,0 L8,0 L3,4 L2,9 L-4,11 L-8,15 L-8,8 L0,8 Z " fill="#D0A02E" transform="translate(358,247)"/>
<path d="M0,0 L5,0 L5,15 L13,15 L13,32 L12,32 L11,17 L4,16 L3,9 L4,1 Z " fill="#DD9F2F" transform="translate(384,160)"/>
<path d="M0,0 L2,0 L3,5 L8,5 L11,8 L12,12 L14,12 L14,14 L16,15 L8,15 L8,7 L0,7 Z " fill="#A26F34" transform="translate(104,96)"/>
<path d="M0,0 L7,0 L8,8 L0,8 Z " fill="#1D0606" transform="translate(112,398)"/>
<path d="M0,0 L8,0 L8,7 L0,7 Z " fill="#A06E21" transform="translate(175,470)"/>
<path d="M0,0 L8,0 L8,7 L0,7 Z " fill="#A8742C" transform="translate(294,470)"/>
<path d="M0,0 L8,0 L8,7 L0,7 Z " fill="#D8A63F" transform="translate(159,430)"/>
<path d="M0,0 L7,0 L7,8 L0,8 Z " fill="#D0A74F" transform="translate(215,382)"/>
<path d="M0,0 L7,0 L7,8 L0,8 Z " fill="#744218" transform="translate(366,374)"/>
<path d="M0,0 L7,0 L7,8 L0,8 Z " fill="#1D0401" transform="translate(382,366)"/>
<path d="M0,0 L7,0 L7,8 L0,8 Z " fill="#734320" transform="translate(96,366)"/>
<path d="M0,0 L7,0 L7,8 L0,8 Z " fill="#784207" transform="translate(374,366)"/>
<path d="M0,0 L7,0 L7,8 L0,8 Z " fill="#623C1F" transform="translate(382,358)"/>
<path d="M0,0 L7,0 L7,8 L0,8 Z " fill="#EFD48E" transform="translate(279,342)"/>
<path d="M0,0 L7,0 L7,8 L0,8 Z " fill="#EFDAA1" transform="translate(191,342)"/>
<path d="M0,0 L7,0 L7,8 L0,8 Z " fill="#784723" transform="translate(398,326)"/>
<path d="M0,0 L1,0 L1,24 L-2,23 L-2,5 Z " fill="#DDA327" transform="translate(396,286)"/>
<path d="M0,0 L7,0 L5,5 L1,5 L1,24 L-7,24 L-7,23 L0,23 Z " fill="#6F4117" transform="translate(413,287)"/>
<path d="M0,0 L8,0 L8,7 L0,7 Z " fill="#A06C30" transform="translate(16,120)"/>
<path d="M0,0 L8,0 L8,7 L0,7 Z " fill="#A17135" transform="translate(453,120)"/>
<path d="M0,0 L7,0 L7,8 L0,8 Z " fill="#AD762F" transform="translate(112,120)"/>
<path d="M0,0 L7,0 L7,8 L0,8 Z " fill="#1B0B06" transform="translate(430,40)"/>
<path d="M0,0 L2,1 L0,8 L-7,8 L-7,31 L-8,31 L-8,7 L-5,6 L-5,3 L0,4 Z " fill="#736F73" transform="translate(334,438)"/>
<path d="M0,0 L6,0 L2,2 L1,16 L-6,18 L-7,31 L-8,31 L-8,15 L0,15 Z " fill="#DCA12B" transform="translate(88,160)"/>
<path d="M0,0 L2,2 L3,7 L9,7 L11,10 L11,14 L14,13 L17,16 L8,16 L8,8 L0,8 Z " fill="#2E0C04" transform="translate(374,127)"/>
<path d="M0,0 L16,0 L16,7 L15,7 L15,2 L13,3 L5,3 L2,2 L2,7 L0,7 Z " fill="#1A0D0F" transform="translate(175,72)"/>
<path d="M0,0 L1,0 L1,16 L8,16 L8,17 L1,17 L1,32 L0,32 L0,17 L-7,17 L-7,24 L-8,24 L-8,16 L0,16 Z " fill="#68513F" transform="translate(437,159)"/>
<path d="M0,0 L16,0 L16,1 L4,2 L0,10 L-9,10 L-11,8 L0,8 Z " fill="#1E0A04" transform="translate(199,422)"/>
<path d="M0,0 L8,0 L8,1 L1,1 L2,9 L-4,12 L-6,13 L-7,9 L-7,24 L-8,24 L-8,8 L0,8 Z " fill="#C78E26" transform="translate(103,135)"/>
<path d="M0,0 L23,0 L23,7 L21,6 L21,2 L3,1 L2,5 L2,8 L0,8 Z " fill="#2F0D02" transform="translate(398,72)"/>
<path d="M0,0 L10,0 L10,1 L3,1 L3,9 L-19,9 L-19,8 L0,8 Z " fill="#443D41" transform="translate(284,493)"/>
<path d="M0,0 L3,0 L4,6 L13,7 L13,14 L9,12 L6,9 L1,8 Z " fill="#F2D174" transform="translate(345,208)"/>
<path d="M0,0 L7,0 L7,8 L15,8 L15,16 L13,15 L13,9 L6,9 L4,5 L2,4 L2,1 Z " fill="#2C0D04" transform="translate(88,88)"/>
<path d="M0,0 L2,1 L3,10 L6,12 L8,10 L8,15 L0,15 Z " fill="#250C04" transform="translate(453,64)"/>
<path d="M0,0 L8,0 L7,7 L0,7 Z " fill="#1D0704" transform="translate(342,414)"/>
<path d="M0,0 L2,1 L3,11 L5,11 L5,13 L7,13 L7,16 L0,16 Z " fill="#B27A14" transform="translate(278,255)"/>
<path d="M0,0 L1,0 L1,7 L0,8 L-39,8 L-39,7 L-3,6 L0,5 Z " fill="#D3A536" transform="translate(166,199)"/>
<path d="M0,0 L7,0 L7,6 L6,6 L5,18 L4,18 L3,2 L-9,2 L-9,1 Z " fill="#F1DFAE" transform="translate(175,255)"/>
<path d="M0,0 L41,0 L41,1 L22,2 L3,2 L2,4 L0,4 Z " fill="#DBA42C" transform="translate(137,193)"/>
<path d="M0,0 L4,1 L3,8 L1,8 L2,13 L13,13 L15,12 L15,15 L0,15 Z " fill="#DEA63A" transform="translate(414,160)"/>
<path d="M0,0 L1,0 L1,8 L-7,8 L-7,16 L-15,16 L-12,12 L-9,12 L-10,8 L-9,7 L0,7 Z " fill="#85582E" transform="translate(55,72)"/>
<path d="M0,0 L23,0 L23,7 L21,7 L20,2 L3,1 L2,6 L0,6 Z " fill="#2E0C01" transform="translate(56,72)"/>
<path d="M0,0 L1,0 L1,8 L-15,8 L-15,7 L-10,7 L-10,5 L-1,5 L-2,1 Z " fill="#F3D487" transform="translate(285,469)"/>
<path d="M0,0 L7,0 L7,7 L0,7 Z " fill="#130505" transform="translate(374,375)"/>
<path d="M0,0 L1,0 L1,6 L16,5 L19,6 L20,9 L18,11 L18,8 L0,8 Z " fill="#2E241D" transform="translate(166,247)"/>
<path d="M0,0 L24,0 L21,2 L5,3 L4,5 L2,4 L3,2 L0,1 Z " fill="#322418" transform="translate(310,215)"/>
<path d="M0,0 L7,0 L7,7 L0,7 Z " fill="#A2671F" transform="translate(48,136)"/>
<path d="M0,0 L7,0 L7,7 L0,7 Z " fill="#130304" transform="translate(128,64)"/>
<path d="M0,0 L7,0 L7,7 L0,7 Z " fill="#1F090F" transform="translate(438,48)"/>
<path d="M0,0 L8,0 L7,13 L6,13 L6,2 L2,5 L2,13 L0,14 Z " fill="#1A0403" transform="translate(390,350)"/>
<path d="M0,0 L5,0 L5,13 L3,12 L4,9 L0,8 Z " fill="#0D0203" transform="translate(430,176)"/>
<path d="M0,0 L8,0 L8,15 L6,11 L4,10 L5,2 L0,1 Z " fill="#331509" transform="translate(24,143)"/>
<path d="M0,0 L1,0 L1,7 L-6,7 L-6,15 L-12,15 L-10,11 L-8,10 L-6,5 L-1,4 Z " fill="#D9A02D" transform="translate(364,80)"/>
<path d="M0,0 L10,0 L10,1 L3,1 L3,8 L2,9 L-5,9 L-5,16 L-6,16 L-6,8 L-1,7 Z " fill="#756E71" transform="translate(316,469)"/>
<path d="M0,0 L7,0 L7,5 L4,8 L0,7 Z " fill="#150607" transform="translate(120,406)"/>
<path d="M0,0 L12,0 L11,3 L8,6 L4,4 L0,2 Z " fill="#3A1F18" transform="translate(336,185)"/>
<path d="M0,0 L3,2 L3,6 L9,5 L10,6 L9,20 L8,20 L7,8 L0,7 Z " fill="#F0E1AD" transform="translate(295,430)"/>
<path d="M0,0 L8,0 L8,8 L2,7 L1,2 Z " fill="#87500A" transform="translate(334,366)"/>
<path d="M0,0 L6,0 L6,6 L5,7 L-1,7 Z " fill="#936819" transform="translate(327,359)"/>
<path d="M0,0 L8,0 L7,2 L3,4 L3,13 L0,14 Z " fill="#B1770E" transform="translate(151,342)"/>
<path d="M0,0 L7,0 L8,16 L4,16 L5,2 L0,1 Z " fill="#120403" transform="translate(72,334)"/>
<path d="M0,0 L1,0 L1,17 L-2,18 L-2,1 Z " fill="#E5D2A4" transform="translate(182,255)"/>
<path d="M0,0 L10,0 L12,2 L11,4 L0,5 Z " fill="#AC7A2C" transform="translate(151,240)"/>
<path d="M0,0 L16,0 L16,8 L14,7 L14,2 L5,3 L0,2 Z " fill="#D59828" transform="translate(310,95)"/>
<path d="M0,0 L15,0 L13,2 L2,2 L3,8 L0,9 Z " fill="#361707" transform="translate(278,485)"/>
<path d="M0,0 L6,0 L6,8 L-1,8 L2,6 L0,5 Z " fill="#7D440C" transform="translate(113,390)"/>
<path d="M0,0 L5,0 L6,7 L-2,7 Z " fill="#0D0305" transform="translate(90,367)"/>
<path d="M0,0 L1,0 L1,16 L3,17 L1,19 L-5,19 L-7,17 L-7,24 L-8,24 L-8,16 L0,16 Z " fill="#BFAE89" transform="translate(294,342)"/>
<path d="M0,0 L10,0 L10,1 L2,1 L2,8 L-5,8 L-3,3 L0,3 Z " fill="#381A0D" transform="translate(101,127)"/>
<path d="M0,0 L2,0 L3,5 L3,11 L7,13 L-1,13 L-1,2 Z " fill="#DCA83A" transform="translate(25,122)"/>
<path d="M0,0 L5,0 L2,4 L3,15 L1,17 L-6,17 L-6,16 L0,16 Z " fill="#DAA02B" transform="translate(334,88)"/>
<path d="M0,0 L7,1 L7,7 L0,7 Z " fill="#150604" transform="translate(445,56)"/>
<path d="M0,0 L1,0 L1,8 L-6,9 L-7,24 L-8,24 L-8,8 L-4,6 L-2,7 L-2,2 Z " fill="#EFE0B1" transform="translate(181,429)"/>
<path d="M0,0 L1,0 L2,6 L8,7 L9,3 L9,8 L1,8 L2,22 L0,18 L0,8 L-7,8 L-7,7 L0,7 Z " fill="#493932" transform="translate(341,414)"/>
<path d="M0,0 L9,0 L6,1 L4,10 L3,10 L3,4 L-2,4 L-3,1 Z " fill="#D7A11A" transform="translate(135,265)"/>
<path d="M0,0 L2,3 L3,10 L8,15 L0,15 Z " fill="#D8A242" transform="translate(40,152)"/>
<path d="M0,0 L8,0 L8,8 L14,8 L14,9 L6,9 L5,3 L1,2 Z " fill="#CE9429" transform="translate(366,135)"/>
<path d="M0,0 L15,0 L15,8 L13,8 L13,3 L7,3 L2,2 Z " fill="#D7A03B" transform="translate(96,56)"/>
<path d="M0,0 L1,0 L1,6 L-6,6 L-6,14 L-12,14 L-8,13 L-8,6 L-7,4 L0,3 Z " fill="#754D2C" transform="translate(340,415)"/>
<path d="M0,0 L3,0 L3,14 L0,14 Z " fill="#EDDFAE" transform="translate(295,344)"/>
<path d="M0,0 L15,0 L15,8 L13,8 L13,2 L0,2 Z " fill="#F5D278" transform="translate(295,342)"/>
<path d="M0,0 L2,4 L2,6 L14,5 L16,4 L16,8 L1,8 L0,7 Z " fill="#72816E" transform="translate(127,255)"/>
<path d="M0,0 L2,2 L2,7 L-12,7 L-12,9 L-14,9 L-14,17 L-15,17 L-15,11 L-17,10 L-15,6 L1,6 Z " fill="#D9A325" transform="translate(123,182)"/>
<path d="M0,0 L1,0 L2,10 L6,8 L6,14 L5,15 L0,15 Z " fill="#180D13" transform="translate(32,160)"/>
<path d="M0,0 L6,0 L6,6 L1,8 L0,7 Z " fill="#140303" transform="translate(350,406)"/>
<path d="M0,0 L5,0 L5,7 L-1,7 L-1,1 Z " fill="#D5A63F" transform="translate(257,383)"/>
<path d="M0,0 L3,0 L3,7 L-4,7 L-4,4 Z " fill="#9D6B1A" transform="translate(148,359)"/>
<path d="M0,0 L8,0 L8,8 L16,8 L16,14 L13,11 L9,11 L9,9 L7,9 L6,2 L0,1 Z " fill="#B0780F" transform="translate(95,342)"/>
<path d="M0,0 L2,0 L2,15 L-4,15 L-5,13 L0,12 Z " fill="#DAA026" transform="translate(387,311)"/>
<path d="M0,0 L28,0 L23,4 L21,2 L0,1 Z " fill="#F6D882" transform="translate(312,208)"/>
<path d="M0,0 L7,0 L3,5 L1,14 L0,14 Z " fill="#A26E35" transform="translate(80,160)"/>
<path d="M0,0 L1,0 L1,6 L9,6 L9,4 L16,3 L17,6 L19,7 L0,7 Z " fill="#A5680F" transform="translate(279,80)"/>
<path d="M0,0 L16,0 L16,7 L14,7 L14,2 L1,2 Z " fill="#9F6F3B" transform="translate(286,80)"/>
<path d="M0,0 L7,0 L6,2 L2,1 L3,9 L2,12 L4,13 L0,13 Z " fill="#10070B" transform="translate(104,382)"/>
<path d="M0,0 L6,0 L6,6 L0,7 Z " fill="#0D0205" transform="translate(247,382)"/>
<path d="M0,0 L1,0 L1,15 L-5,14 L-4,10 L-1,9 Z " fill="#1C0E16" transform="translate(444,160)"/>
<path d="M0,0 L8,0 L4,1 L2,12 L0,12 Z " fill="#DDA539" transform="translate(430,128)"/>
<path d="M0,0 L21,0 L21,8 L20,6 L18,6 L17,2 L0,1 Z " fill="#A56A0D" transform="translate(400,56)"/>
<path d="M0,0 L2,0 L4,6 L9,7 L9,16 L8,16 L8,8 L0,8 Z " fill="#D39B24" transform="translate(103,342)"/>
<path d="M0,0 L1,0 L1,23 L8,20 L8,24 L0,24 Z " fill="#D3B675" transform="translate(294,255)"/>
<path d="M0,0 L7,0 L9,2 L8,3 L3,3 L3,6 L6,7 L0,7 Z " fill="#1A0B03" transform="translate(112,223)"/>
<path d="M0,0 L5,1 L6,15 L9,15 L9,13 L11,13 L11,17 L4,17 L3,2 Z " fill="#300F03" transform="translate(394,158)"/>
<path d="M0,0 L1,0 L1,14 L-3,13 L-3,3 Z " fill="#AD7C28" transform="translate(165,446)"/>
<path d="M0,0 L2,0 L2,3 L0,3 L0,6 L-16,6 L-16,5 L-6,4 Z " fill="#E1C986" transform="translate(286,416)"/>
<path d="M0,0 L4,0 L4,4 L-19,4 L-19,3 L-2,2 Z " fill="#E0C88D" transform="translate(266,410)"/>
<path d="M0,0 L10,2 L10,11 L8,12 L8,3 L0,3 Z " fill="#CC9E44" transform="translate(358,220)"/>
<path d="M0,0 L8,0 L8,1 L1,1 L3,9 L3,14 L0,16 Z " fill="#36180A" transform="translate(421,183)"/>
<path d="M0,0 L1,2 L0,7 L-15,8 L-15,6 L-9,4 L-2,4 Z " fill="#D7A22E" transform="translate(181,159)"/>
<path d="M0,0 L5,1 L4,5 L2,6 L2,10 L7,11 L7,12 L0,12 Z " fill="#A06812" transform="translate(390,163)"/>
<path d="M0,0 L2,0 L2,6 L-25,6 L-25,5 L-1,4 Z " fill="#1E0601" transform="translate(172,81)"/>
<path d="M0,0 L7,0 L7,7 L0,4 Z " fill="#713F10" transform="translate(168,470)"/>
<path d="M0,0 L2,3 L4,2 L5,8 L3,13 L1,13 L0,15 Z M3,4 Z " fill="#E3D19F" transform="translate(302,438)"/>
<path d="M0,0 L1,0 L1,16 L-6,16 L-6,12 L-1,11 L0,15 Z " fill="#B37916" transform="translate(198,255)"/>
<path d="M0,0 L7,0 L3,3 L1,16 L0,16 Z " fill="#966A2D" transform="translate(191,255)"/>
<path d="M0,0 L19,0 L19,5 L18,3 L11,3 L11,1 L0,1 Z " fill="#F5D886" transform="translate(147,208)"/>
<path d="M0,0 L8,0 L8,8 L15,8 L15,9 L6,9 L6,2 L0,2 Z " fill="#81542A" transform="translate(64,167)"/>
<path d="M0,0 L4,0 L4,16 L1,13 L2,1 Z " fill="#DCA12E" transform="translate(139,88)"/>
<path d="M0,0 L11,1 L15,4 L0,4 Z " fill="#A2660C" transform="translate(310,91)"/>
<path d="M0,0 L1,0 L1,8 L-7,8 L-7,15 L-8,15 L-8,6 L-1,6 L-1,1 Z " fill="#402710" transform="translate(190,438)"/>
<path d="M0,0 L8,0 L8,1 L1,1 L3,10 L-1,14 L-3,14 L-4,11 L0,11 Z " fill="#2B100F" transform="translate(326,429)"/>
<path d="M0,0 L4,0 L5,2 L22,3 L22,4 L-1,4 Z " fill="#DCC689" transform="translate(208,410)"/>
<path d="M0,0 L1,3 L9,3 L8,7 L0,7 Z " fill="#DDA426" transform="translate(303,295)"/>
<path d="M0,0 L1,4 L9,4 L9,11 L7,11 L7,9 L4,8 L4,5 L0,5 Z " fill="#D7A440" transform="translate(38,124)"/>
<path d="M0,0 L7,1 L6,10 L12,10 L12,11 L5,11 L5,3 L-3,3 Z " fill="#7E5027" transform="translate(424,77)"/>
<path d="M0,0 L9,0 L9,1 L3,1 L3,7 L2,8 L-4,8 L0,6 Z " fill="#585454" transform="translate(356,406)"/>
<path d="M0,0 L1,0 L2,5 L6,6 L6,0 L8,0 L8,8 L0,8 Z " fill="#D79E31" transform="translate(127,366)"/>
<path d="M0,0 L16,0 L16,7 L15,7 L15,1 L10,2 L8,8 L7,8 L7,1 L0,1 Z " fill="#5C4C4A" transform="translate(80,366)"/>
<path d="M0,0 L1,0 L1,15 L0,11 L-2,11 L-2,1 Z " fill="#E5D5A7" transform="translate(182,343)"/>
<path d="M0,0 L5,0 L5,7 L0,8 Z " fill="#130405" transform="translate(296,224)"/>
<path d="M0,0 L2,1 L2,4 L6,5 L9,7 L8,8 L0,8 Z " fill="#D3A32F" transform="translate(191,215)"/>
<path d="M0,0 L6,0 L4,1 L4,6 L-1,7 L-1,1 Z " fill="#8C6122" transform="translate(296,215)"/>
<path d="M0,0 L3,0 L3,9 L2,13 L0,13 Z " fill="#260D0A" transform="translate(417,136)"/>
<path d="M0,0 L1,0 L2,8 L4,10 L-6,9 L-6,14 L-8,14 L-8,8 L-1,7 Z " fill="#9E640D" transform="translate(390,56)"/>
<path d="M0,0 L16,0 L14,4 L13,3 L7,3 L0,1 Z " fill="#34160D" transform="translate(294,477)"/>
<path d="M0,0 L7,0 L1,9 L0,9 Z " fill="#A9700C" transform="translate(382,327)"/>
<path d="M0,0 L2,0 L3,5 L8,5 L8,6 L-8,6 L-8,5 L-2,3 Z " fill="#2A130D" transform="translate(334,225)"/>
<path d="M0,0 L2,0 L3,13 L5,15 L0,15 Z " fill="#321003" transform="translate(56,136)"/>
<path d="M0,0 L2,0 L1,14 L-3,13 L-1,13 L-1,1 Z " fill="#E0A82E" transform="translate(450,121)"/>
<path d="M0,0 L6,0 L6,8 L5,6 L1,5 Z M1,6 Z " fill="#DFA430" transform="translate(431,56)"/>
<path d="M0,0 L3,0 L3,6 L0,6 L0,4 L-6,4 L-5,1 Z " fill="#15070D" transform="translate(307,479)"/>
<path d="M0,0 L8,0 L8,8 L7,6 L5,6 Z " fill="#EFCD7A" transform="translate(310,350)"/>
<path d="M0,0 L2,0 L3,3 L2,16 L0,16 Z " fill="#DBA128" transform="translate(318,317)"/>
<path d="M0,0 L7,0 L7,6 L2,6 Z " fill="#78410F" transform="translate(57,287)"/>
<path d="M0,0 L8,0 L4,3 L2,8 L0,9 Z " fill="#D3A533" transform="translate(302,271)"/>
<path d="M0,0 L2,0 L2,8 L-6,8 L-5,6 L-2,6 Z " fill="#F3D479" transform="translate(308,263)"/>
<path d="M0,0 L1,3 L8,3 L8,7 L0,7 Z " fill="#966936" transform="translate(48,176)"/>
<path d="M0,0 L2,4 L3,8 L-4,13 L-4,10 L-7,8 L0,8 Z " fill="#D0972A" transform="translate(421,151)"/>
<path d="M0,0 L1,0 L2,8 L3,8 L3,14 L2,16 L-7,16 L-7,15 L0,15 Z " fill="#7A4D24" transform="translate(87,144)"/>
<path d="M0,0 L6,1 L7,6 L0,6 Z " fill="#9D6713" transform="translate(358,121)"/>
<path d="M0,0 L10,0 L10,6 L14,6 L14,8 L8,8 L8,1 L0,1 Z " fill="#684227" transform="translate(135,421)"/>
<path d="M0,0 L8,0 L9,14 L7,16 L6,15 L6,7 L7,1 L0,1 Z " fill="#615A5F" transform="translate(96,382)"/>
<path d="M0,0 L7,0 L7,7 L3,6 L2,3 L0,2 Z " fill="#7F552C" transform="translate(144,231)"/>
<path d="M0,0 L1,0 L1,14 L-6,14 L-5,11 L0,10 Z " fill="#321104" transform="translate(86,145)"/>
<path d="M0,0 L1,0 L1,7 L-5,7 L-4,3 L-3,1 Z " fill="#A26815" transform="translate(420,152)"/>
<path d="M0,0 L7,0 L6,5 L3,6 L0,5 Z " fill="#A76E13" transform="translate(445,135)"/>
<path d="M0,0 L5,0 L5,7 L13,7 L12,11 L10,11 L10,9 L4,8 L4,1 Z " fill="#A76D0B" transform="translate(114,88)"/>
<path d="M0,0 L7,0 L4,5 L2,8 L0,8 Z " fill="#A37437" transform="translate(334,80)"/>
<path d="M0,0 L7,0 L7,2 L3,2 L3,8 L0,8 Z " fill="#976835" transform="translate(24,64)"/>
<path d="M0,0 L8,0 L8,8 L0,8 L1,5 L6,6 L7,1 L0,1 Z " fill="#764929" transform="translate(302,469)"/>
<path d="M0,0 L8,0 L8,1 L1,1 L1,5 L5,6 L6,2 L6,8 L0,8 Z " fill="#B68A42" transform="translate(302,461)"/>
<path d="M0,0 L3,0 L3,6 L5,7 L-3,7 L-1,6 L-1,1 Z " fill="#AE762A" transform="translate(170,463)"/>
<path d="M0,0 L3,0 L3,8 L-5,8 L-5,6 L1,6 Z " fill="#A0824E" transform="translate(212,414)"/>
<path d="M0,0 L6,0 L3,1 L3,8 L1,14 L0,14 Z " fill="#130704" transform="translate(287,232)"/>
<path d="M0,0 L6,0 L6,5 L1,6 Z " fill="#F4D98B" transform="translate(288,216)"/>
<path d="M0,0 L2,2 L2,8 L-7,8 L-6,6 L-1,6 Z " fill="#2B0B03" transform="translate(93,135)"/>
<path d="M0,0 L8,0 L8,8 L6,7 L6,3 L0,2 Z " fill="#865B32" transform="translate(358,119)"/>
<path d="M0,0 L2,2 L4,0 L4,5 L-12,5 L-12,4 L-4,3 L0,4 Z " fill="#FADC91" transform="translate(298,464)"/>
<path d="M0,0 L1,0 L1,8 L9,8 L8,11 L0,9 L-1,8 Z " fill="#E8D9A8" transform="translate(269,430)"/>
<path d="M0,0 L2,1 L2,6 L7,8 L7,10 L0,10 Z " fill="#AF7D38" transform="translate(152,427)"/>
<path d="M0,0 L4,2 L7,4 L-1,4 L-1,11 L-2,11 L-3,3 Z " fill="#EBC97C" transform="translate(319,418)"/>
<path d="M0,0 L4,1 L4,7 L-1,7 L-1,1 Z " fill="#12080F" transform="translate(97,375)"/>
<path d="M0,0 L1,0 L1,8 L8,8 L8,9 L1,9 L1,16 L0,16 L0,9 L-7,9 L-7,8 L0,8 Z " fill="#4E3930" transform="translate(381,366)"/>
<path d="M0,0 L8,0 L6,2 L2,2 L2,9 L0,11 Z " fill="#875004" transform="translate(135,366)"/>
<path d="M0,0 L5,0 L5,7 L0,5 Z " fill="#703C0A" transform="translate(90,358)"/>
<path d="M0,0 L1,0 L2,16 L3,21 L0,22 Z " fill="#68412A" transform="translate(71,311)"/>
<path d="M0,0 L7,0 L2,5 L1,14 L0,14 Z " fill="#A66D0D" transform="translate(390,311)"/>
<path d="M0,0 L4,1 L4,6 L-3,6 L-1,2 Z " fill="#DDA427" transform="translate(179,288)"/>
<path d="M0,0 L20,0 L21,1 L21,6 L19,5 L18,2 L0,1 Z " fill="#D2A028" transform="translate(144,264)"/>
<path d="M0,0 L1,0 L2,12 L9,13 L7,15 L0,15 Z " fill="#BE8D4C" transform="translate(303,231)"/>
<path d="M0,0 L1,0 L2,14 L7,18 L0,18 Z " fill="#451F03" transform="translate(255,173)"/>
<path d="M0,0 L5,0 L5,5 L1,7 Z " fill="#11060F" transform="translate(33,163)"/>
<path d="M0,0 L4,4 L5,6 L8,8 L0,8 Z " fill="#A86E17" transform="translate(119,64)"/>
<path d="M0,0 L8,0 L6,4 L1,4 L0,7 Z " fill="#89602D" transform="translate(358,56)"/>
<path d="M0,0 L7,0 L7,2 L2,7 L0,7 Z " fill="#180D11" transform="translate(24,56)"/>
<path d="M0,0 L5,0 L5,5 L-1,5 Z " fill="#79400B" transform="translate(82,342)"/>
<path d="M0,0 L5,0 L3,3 L1,13 L0,13 Z " fill="#DAA02A" transform="translate(167,319)"/>
<path d="M0,0 L7,0 L7,5 L1,5 Z " fill="#DDA740" transform="translate(144,239)"/>
<path d="M0,0 L12,0 L10,2 L2,4 L0,3 Z " fill="#996414" transform="translate(49,176)"/>
<path d="M0,0 L2,0 L2,4 L8,5 L8,7 L0,7 Z " fill="#916733" transform="translate(32,152)"/>
<path d="M0,0 L1,0 L1,9 L-5,10 L-7,15 L-8,15 L-8,8 L0,8 Z " fill="#926338" transform="translate(111,120)"/>
<path d="M0,0 L1,0 L1,7 L-8,7 L-7,5 L-2,5 L-1,1 Z " fill="#2B0B03" transform="translate(110,120)"/>
<path d="M0,0 L3,0 L3,2 L5,2 L5,5 L8,6 L0,6 Z " fill="#AF7115" transform="translate(127,74)"/>
<path d="M0,0 L8,0 L4,4 L2,4 L2,7 L0,7 Z " fill="#A5733A" transform="translate(350,64)"/>
<path d="M0,0 L8,0 L8,8 L6,8 L4,3 Z " fill="#D99E2D" transform="translate(111,64)"/>
<path d="M0,0 L5,1 L5,5 L8,6 L0,6 Z " fill="#AB6A13" transform="translate(111,58)"/>
<path d="M0,0 L4,1 L4,6 L0,9 Z " fill="#DEA02F" transform="translate(40,56)"/>
<path d="M0,0 L7,0 L7,7 L5,7 L5,3 L0,3 Z " fill="#916638" transform="translate(438,56)"/>
<path d="M0,0 L2,4 L7,4 L5,7 L3,10 L0,9 Z " fill="#120810" transform="translate(135,426)"/>
<path d="M0,0 L8,0 L8,6 L7,2 L2,2 L2,6 L0,6 Z " fill="#9C6F22" transform="translate(318,422)"/>
<path d="M0,0 L6,0 L6,5 L0,4 Z " fill="#B08131" transform="translate(280,422)"/>
<path d="M0,0 L1,2 L4,3 L2,5 L1,10 L0,10 L0,4 L-6,4 L-4,1 Z " fill="#68625F" transform="translate(126,411)"/>
<path d="M0,0 L5,0 L5,6 L1,6 Z " fill="#723E09" transform="translate(122,398)"/>
<path d="M0,0 L1,0 L1,8 L-4,8 L-4,5 Z " fill="#180D10" transform="translate(388,366)"/>
<path d="M0,0 L6,0 L5,5 L1,5 L0,7 Z " fill="#744010" transform="translate(390,343)"/>
<path d="M0,0 L7,0 L7,8 L15,8 L15,9 L6,9 L5,7 L5,3 L0,1 Z " fill="#DDA12E" transform="translate(295,311)"/>
<path d="M0,0 L1,2 L-6,3 L-6,12 L-8,13 L-8,1 Z " fill="#AC720D" transform="translate(406,286)"/>
<path d="M0,0 L7,0 L3,2 L2,6 L-1,7 L-1,1 Z " fill="#F1CE71" transform="translate(120,215)"/>
<path d="M0,0 L2,0 L2,7 L-5,7 L-2,3 L0,3 Z " fill="#633B26" transform="translate(419,192)"/>
<path d="M0,0 L1,0 L1,8 L-6,8 L-6,6 L-1,5 Z " fill="#A3753B" transform="translate(436,167)"/>
<path d="M0,0 L1,0 L1,12 L-6,12 L-1,7 Z " fill="#A66A0E" transform="translate(86,163)"/>
<path d="M0,0 L7,0 L7,11 L6,11 L6,3 L1,3 Z " fill="#976839" transform="translate(390,159)"/>
<path d="M0,0 L1,0 L2,9 L6,11 L6,12 L0,12 Z " fill="#A0640C" transform="translate(382,147)"/>
<path d="M0,0 L5,2 L5,7 L0,7 Z " fill="#A36A0A" transform="translate(350,112)"/>
<path d="M0,0 L3,0 L3,8 L9,8 L9,9 L1,9 Z " fill="#CC9E53" transform="translate(450,72)"/>
<path d="M0,0 L2,1 L3,5 L6,5 L6,7 L8,8 L0,8 Z " fill="#A77334" transform="translate(80,71)"/>
<path d="M0,0 L4,0 L5,6 L-1,6 Z " fill="#A56A13" transform="translate(43,50)"/>
<path d="M0,0 L1,0 L1,7 L-1,8 L-7,8 L-7,6 L-1,5 Z " fill="#5E3C23" transform="translate(365,390)"/>
<path d="M0,0 L2,0 L3,4 L2,6 L-4,6 L-4,3 L-1,2 Z " fill="#393437" transform="translate(108,393)"/>
<path d="M0,0 L3,3 L7,8 L1,8 L0,7 Z " fill="#623E2B" transform="translate(103,374)"/>
<path d="M0,0 L2,0 L2,8 L-5,8 L-5,6 L0,5 Z " fill="#704221" transform="translate(379,366)"/>
<path d="M0,0 L7,0 L7,7 L5,3 L0,2 L0,8 L-1,8 L-1,1 Z " fill="#747A67" transform="translate(120,263)"/>
<path d="M0,0 L6,0 L5,5 L0,4 L-1,1 Z " fill="#10040A" transform="translate(358,225)"/>
<path d="M0,0 L1,4 L-8,5 L-10,8 L-9,3 L-8,2 L-1,1 Z " fill="#D09E2F" transform="translate(118,218)"/>
<path d="M0,0 L11,0 L11,2 L4,4 L0,2 Z " fill="#996414" transform="translate(416,176)"/>
<path d="M0,0 L7,0 L7,2 L2,3 L2,7 L0,7 Z " fill="#A07034" transform="translate(342,72)"/>
<path d="M0,0 L8,0 L8,6 L6,6 L4,3 L0,1 Z " fill="#B0780F" transform="translate(111,358)"/>
<path d="M0,0 L7,0 L4,4 L2,4 L2,6 L0,6 Z " fill="#713D0B" transform="translate(382,358)"/>
<path d="M0,0 L7,0 L7,7 L5,6 L4,2 L1,3 Z " fill="#4E2809" transform="translate(136,239)"/>
<path d="M0,0 L3,1 L6,2 L6,5 L-1,5 Z " fill="#B87F27" transform="translate(306,239)"/>
<path d="M0,0 L1,0 L2,5 L2,13 L0,13 L0,8 L-2,7 Z " fill="#D5A025" transform="translate(109,235)"/>
<path d="M0,0 L6,0 L6,7 L3,7 L3,1 L1,1 L0,3 Z " fill="#AA7D3F" transform="translate(304,231)"/>
<path d="M0,0 L3,0 L3,7 L-1,7 Z " fill="#62320E" transform="translate(60,192)"/>
<path d="M0,0 L2,2 L2,9 L5,9 L5,11 L0,11 Z " fill="#A8700D" transform="translate(398,180)"/>
<path d="M0,0 L5,0 L2,2 L1,9 L-5,12 L-6,8 L0,8 Z " fill="#A16E33" transform="translate(406,168)"/>
<path d="M0,0 L1,0 L1,8 L-7,8 L-6,6 L-1,6 L-1,1 Z " fill="#BF8E3C" transform="translate(190,151)"/>
<path d="M0,0 L7,0 L7,10 L5,8 L5,2 L0,1 Z " fill="#D9A339" transform="translate(48,144)"/>
<path d="M0,0 L8,0 L8,2 L2,2 L2,7 L0,7 Z " fill="#8A5F30" transform="translate(32,56)"/>
<path d="M0,0 L1,2 L7,2 L8,5 L0,5 Z " fill="#9D6F39" transform="translate(175,472)"/>
<path d="M0,0 L9,0 L10,1 L10,7 L7,8 L7,1 L0,1 Z " fill="#474043" transform="translate(151,469)"/>
<path d="M0,0 L5,0 L5,5 L0,5 Z " fill="#CEA03A" transform="translate(185,448)"/>
<path d="M0,0 L7,0 L7,2 L2,3 L0,7 Z " fill="#1D0502" transform="translate(334,422)"/>
<path d="M0,0 L5,1 L5,4 L3,4 L3,6 L0,6 Z " fill="#BA8A33" transform="translate(264,414)"/>
<path d="M0,0 L1,0 L1,5 L-8,6 L-8,3 L-5,2 L-2,2 Z " fill="#FAE2A3" transform="translate(332,408)"/>
<path d="M0,0 L7,0 L2,5 L0,6 Z " fill="#1D0301" transform="translate(358,398)"/>
<path d="M0,0 L2,0 L2,3 L13,4 L13,5 L0,5 Z " fill="#0B0104" transform="translate(193,360)"/>
<path d="M0,0 L2,0 L2,11 L0,13 L-1,8 Z " fill="#161012" transform="translate(403,336)"/>
<path d="M0,0 L6,0 L6,5 L1,5 Z " fill="#70390A" transform="translate(73,327)"/>
<path d="M0,0 L5,0 L5,10 L3,9 L3,2 L0,2 Z " fill="#1B0400" transform="translate(58,295)"/>
<path d="M0,0 L5,0 L5,5 L0,5 Z " fill="#A76E12" transform="translate(114,122)"/>
<path d="M0,0 L7,0 L5,3 L2,3 L1,7 L0,7 Z " fill="#A76D0C" transform="translate(374,72)"/>
<path d="M0,0 L2,2 L2,6 L-3,6 L-2,1 Z " fill="#0F060A" transform="translate(347,415)"/>
<path d="M0,0 L8,0 L5,3 L2,3 L2,5 L0,5 Z " fill="#A96F09" transform="translate(350,366)"/>
<path d="M0,0 L4,0 L5,4 L3,10 L2,10 L2,2 L0,2 Z " fill="#D9A431" transform="translate(308,340)"/>
<path d="M0,0 L1,0 L1,7 L-6,7 L-6,5 L-2,4 Z " fill="#744A2F" transform="translate(420,287)"/>
<path d="M0,0 L12,0 L12,1 L2,2 L-2,7 L-1,1 Z " fill="#D5A125" transform="translate(313,264)"/>
<path d="M0,0 L1,0 L1,19 L0,16 L-2,16 L-1,13 Z " fill="#F6E4A4" transform="translate(297,256)"/>
<path d="M0,0 L3,0 L3,6 L-5,6 L-1,4 Z " fill="#120301" transform="translate(163,232)"/>
<path d="M0,0 L1,0 L1,6 L-6,6 L-3,4 L-4,1 Z " fill="#855721" transform="translate(173,225)"/>
<path d="M0,0 L3,1 L2,5 L0,8 L-2,5 Z M-1,8 Z " fill="#100104" transform="translate(178,224)"/>
<path d="M0,0 L8,0 L8,7 L6,6 L5,3 L0,1 Z " fill="#BC9245" transform="translate(286,183)"/>
<path d="M0,0 L3,4 L-5,5 L-6,2 Z " fill="#170718" transform="translate(463,130)"/>
<path d="M0,0 L9,0 L10,2 L1,3 L-1,4 Z " fill="#1B0405" transform="translate(190,435)"/>
<path d="M0,0 L1,0 L1,9 L-7,9 L-7,8 L-2,7 Z " fill="#98703E" transform="translate(325,429)"/>
<path d="M0,0 L3,0 L5,6 L-1,6 Z " fill="#0D0408" transform="translate(113,400)"/>
<path d="M0,0 L1,0 L1,8 L-6,8 L-6,6 L-1,6 Z " fill="#CE9825" transform="translate(317,342)"/>
<path d="M0,0 L5,0 L6,4 L0,4 Z " fill="#DFA735" transform="translate(137,233)"/>
<path d="M0,0 L8,0 L8,8 L7,8 L6,3 L0,2 Z " fill="#2A1005" transform="translate(167,215)"/>
<path d="M0,0 L8,0 L8,5 L4,2 L1,1 L1,8 L0,8 Z " fill="#F5CB64" transform="translate(302,199)"/>
<path d="M0,0 L2,0 L3,6 L8,7 L8,8 L0,8 Z " fill="#572E0D" transform="translate(286,175)"/>
<path d="M0,0 L2,0 L1,5 L-5,5 L-5,2 L0,2 Z " fill="#976629" transform="translate(427,176)"/>
<path d="M0,0 L5,2 L4,6 L0,6 Z " fill="#9D6516" transform="translate(64,169)"/>
<path d="M0,0 L7,0 L7,8 L5,6 L6,4 L4,4 L4,2 Z " fill="#280902" transform="translate(104,104)"/>
<path d="M0,0 L1,0 L1,6 L-7,6 L-6,4 L-2,3 Z " fill="#DCA32D" transform="translate(348,97)"/>
<path d="M0,0 L7,0 L2,5 L1,8 L0,8 Z " fill="#300B02" transform="translate(382,88)"/>
<path d="M0,0 L7,0 L7,8 L5,8 L4,1 Z " fill="#9A7042" transform="translate(136,80)"/>
<path d="M0,0 L8,0 L8,1 L3,2 L1,8 L0,8 Z " fill="#2B0B01" transform="translate(390,80)"/>
<path d="M0,0 L2,3 L3,7 L10,7 L10,8 L0,8 Z " fill="#1D0303" transform="translate(104,47)"/>
<path d="M0,0 L3,1 L2,5 L-3,5 L-3,3 L-1,3 Z M3,0 Z " fill="#080409" transform="translate(194,496)"/>
<path d="M0,0 L5,0 L4,8 L2,9 L2,2 L0,2 Z " fill="#AA7218" transform="translate(311,438)"/>
<path d="M0,0 L1,0 L1,8 L-7,8 L-6,6 L-1,5 Z " fill="#5A3823" transform="translate(357,398)"/>
<path d="M0,0 L6,0 L6,5 L2,5 L2,2 L0,2 Z " fill="#9A6108" transform="translate(327,359)"/>
<path d="M0,0 L7,0 L3,2 L2,9 L0,10 Z " fill="#1C0402" transform="translate(398,335)"/>
<path d="M0,0 L8,0 L7,3 L0,3 Z " fill="#271006" transform="translate(167,247)"/>
<path d="M0,0 L7,0 L4,3 L2,3 L1,6 L0,6 Z " fill="#7A5733" transform="translate(326,231)"/>
<path d="M0,0 L3,1 L0,4 L-5,4 L-5,1 Z " fill="#0E040E" transform="translate(120,225)"/>
<path d="M0,0 L1,0 L1,5 L7,6 L7,8 L0,8 Z " fill="#996E3D" transform="translate(40,167)"/>
<path d="M0,0 L2,1 L3,6 L8,7 L8,8 L0,8 Z " fill="#BC8D40" transform="translate(286,151)"/>
<path d="M0,0 L1,0 L1,8 L-6,8 L-6,6 L0,5 Z " fill="#A37643" transform="translate(444,151)"/>
<path d="M0,0 L8,0 L8,8 L5,7 L5,4 L7,4 L7,1 L0,1 Z " fill="#7E5227" transform="translate(366,127)"/>
<path d="M0,0 L6,0 L4,1 L4,5 L0,5 Z " fill="#9F670E" transform="translate(453,120)"/>
<path d="M0,0 L7,0 L7,2 L2,2 L2,6 L0,6 Z " fill="#A6723C" transform="translate(374,48)"/>
<path d="M0,0 L6,0 L6,2 L2,2 L1,8 L0,8 Z " fill="#190D14" transform="translate(358,48)"/>
<path d="M0,0 L2,0 L2,5 L6,7 L0,7 L-1,4 Z " fill="#6A686A" transform="translate(183,487)"/>
<path d="M0,0 L3,0 L5,6 L2,6 L0,8 Z " fill="#A17234" transform="translate(183,477)"/>
<path d="M0,0 L1,0 L1,6 L3,7 L2,9 L-7,8 L-7,7 L0,7 Z " fill="#EECE77" transform="translate(262,383)"/>
<path d="M0,0 L8,0 L4,2 L2,4 L0,8 Z " fill="#F1CE79" transform="translate(270,374)"/>
<path d="M0,0 L1,0 L1,9 L-2,9 L-1,1 Z " fill="#B1790C" transform="translate(325,348)"/>
<path d="M0,0 L7,0 L7,3 L0,3 Z " fill="#F6E8C6" transform="translate(279,347)"/>
<path d="M0,0 L1,0 L1,9 L-5,9 L-5,7 L-1,7 Z " fill="#A9763E" transform="translate(396,333)"/>
<path d="M0,0 L7,0 L7,6 L5,6 L5,2 L0,1 Z " fill="#220702" transform="translate(72,334)"/>
<path d="M0,0 L1,0 L1,9 L-7,9 L-7,8 L-2,7 L-2,5 L0,5 Z " fill="#B37812" transform="translate(182,302)"/>
<path d="M0,0 L1,0 L1,7 L-6,7 L-1,2 Z " fill="#F8D783" transform="translate(356,247)"/>
<path d="M0,0 L8,0 L8,7 L6,6 L6,2 L0,1 Z " fill="#C79C4E" transform="translate(278,175)"/>
<path d="M0,0 L1,0 L1,9 L-5,9 L-2,8 Z " fill="#D2A143" transform="translate(436,158)"/>
<path d="M0,0 L4,2 L7,5 L0,5 Z " fill="#E4A934" transform="translate(41,162)"/>
<path d="M0,0 L3,0 L3,8 L0,8 Z " fill="#260B05" transform="translate(76,160)"/>
<path d="M0,0 L5,0 L6,4 L0,4 Z " fill="#9F650F" transform="translate(366,131)"/>
<path d="M0,0 L1,0 L1,5 L-4,5 L-4,1 Z " fill="#9D600E" transform="translate(110,130)"/>
<path d="M0,0 L6,0 L3,3 L2,7 L0,7 Z " fill="#D39B29" transform="translate(119,120)"/>
<path d="M0,0 L6,0 L6,7 L5,3 L0,2 Z " fill="#A76B0D" transform="translate(18,120)"/>
<path d="M0,0 L8,0 L8,1 L3,2 L1,8 L0,8 Z " fill="#2A0B01" transform="translate(374,96)"/>
<path d="M0,0 L1,2 L4,2 L4,4 L6,5 L5,6 L0,6 Z " fill="#A7743E" transform="translate(96,89)"/>
<path d="M0,0 L2,1 L3,6 L-2,6 L-2,2 L0,2 Z " fill="#A16B34" transform="translate(432,81)"/>
<path d="M0,0 L5,0 L4,4 L1,5 Z " fill="#D59C31" transform="translate(289,471)"/>
<path d="M0,0 L4,0 L4,5 L0,5 Z " fill="#DBAB42" transform="translate(223,392)"/>
<path d="M0,0 L6,0 L4,3 L2,3 L1,6 L0,6 Z " fill="#AB6F08" transform="translate(143,358)"/>
<path d="M0,0 L1,0 L1,8 L-6,6 L-6,5 L0,5 Z " fill="#804D1D" transform="translate(87,342)"/>
<path d="M0,0 L2,0 L3,5 L7,7 L0,7 Z " fill="#D3A83A" transform="translate(278,335)"/>
<path d="M0,0 L1,0 L1,5 L8,7 L8,8 L0,8 Z " fill="#F5D272" transform="translate(167,263)"/>
<path d="M0,0 L1,0 L2,12 L3,15 L0,15 Z " fill="#2F0A02" transform="translate(390,144)"/>
<path d="M0,0 L1,0 L1,6 L-6,6 L-1,1 Z " fill="#9D630F" transform="translate(102,137)"/>
<path d="M0,0 L2,1 L2,7 L1,3 L-7,3 L-4,1 Z " fill="#D29628" transform="translate(23,117)"/>
<path d="M0,0 L1,0 L1,8 L-6,8 L-2,6 Z " fill="#290B02" transform="translate(333,79)"/>
<path d="M0,0 L5,0 L5,5 L1,4 Z " fill="#AB7022" transform="translate(295,82)"/>
<path d="M0,0 L1,0 L1,5 L-6,5 L-6,3 L-1,2 Z " fill="#130503" transform="translate(460,74)"/>
<path d="M0,0 L3,0 L2,7 L0,8 Z " fill="#D09F48" transform="translate(24,72)"/>
<path d="M0,0 L5,3 L6,6 L0,6 Z " fill="#A86B11" transform="translate(445,66)"/>
<path d="M0,0 L7,0 L6,3 L0,3 Z " fill="#2E252B" transform="translate(16,63)"/>
<path d="M0,0 L1,0 L1,5 L-7,5 L-6,3 L-2,2 Z " fill="#DDA02E" transform="translate(388,58)"/>
<path d="M0,0 L1,0 L1,6 L-6,6 L-7,4 L-1,3 Z " fill="#DFA42E" transform="translate(54,57)"/>
<path d="M0,0 L4,1 L2,6 L0,7 Z " fill="#A6690C" transform="translate(56,56)"/>
<path d="M0,0 L5,1 L1,7 L0,7 Z " fill="#0B0508" transform="translate(40,40)"/>
<path d="M0,0 L2,0 L3,5 L1,5 L1,7 L5,8 L0,8 Z " fill="#635D60" transform="translate(190,494)"/>
<path d="M0,0 L2,4 L7,6 L7,7 L0,7 Z " fill="#634026" transform="translate(167,470)"/>
<path d="M0,0 L4,1 L4,5 L0,5 Z " fill="#CC9C3A" transform="translate(287,447)"/>
<path d="M0,0 L7,0 L7,6 L2,2 Z " fill="#794306" transform="translate(96,366)"/>
<path d="M0,0 L1,0 L1,14 L-2,14 L-1,11 Z " fill="#F7E6A8" transform="translate(297,344)"/>
<path d="M0,0 L1,0 L2,11 L3,14 L0,14 Z " fill="#DEA529" transform="translate(96,328)"/>
<path d="M0,0 L2,4 L2,6 L6,9 L0,9 Z " fill="#DB9F2A" transform="translate(310,309)"/>
<path d="M0,0 L4,0 L4,5 L-1,5 L1,4 Z " fill="#D9A12B" transform="translate(120,256)"/>
<path d="M0,0 L4,0 L4,4 L-2,4 Z " fill="#4B2B0E" transform="translate(337,242)"/>
<path d="M0,0 L1,0 L1,7 L-6,7 L-3,5 L-1,5 Z " fill="#EBDBB1" transform="translate(293,223)"/>
<path d="M0,0 L8,1 L8,3 L0,3 Z " fill="#BC9440" transform="translate(358,220)"/>
<path d="M0,0 L5,0 L2,3 L-1,8 L-3,7 L-1,5 Z " fill="#D5A028" transform="translate(185,185)"/>
<path d="M0,0 L4,1 L7,8 L3,6 L3,4 L1,3 L2,1 Z " fill="#D19E29" transform="translate(288,185)"/>
<path d="M0,0 L3,0 L5,5 L0,5 Z " fill="#A2650F" transform="translate(56,154)"/>
<path d="M0,0 L3,0 L4,3 L6,5 L0,5 Z " fill="#160202" transform="translate(120,58)"/>
<path d="M0,0 L6,0 L4,5 L1,5 Z " fill="#070302" transform="translate(431,40)"/>
<path d="M0,0 L2,0 L2,2 L6,1 L3,5 L0,5 Z " fill="#FAE09A" transform="translate(152,416)"/>
<path d="M0,0 L3,0 L3,2 L6,3 L6,5 L-1,5 L2,3 L0,2 Z " fill="#683C1B" transform="translate(113,393)"/>
<path d="M0,0 L6,0 L6,3 L0,3 Z " fill="#753C08" transform="translate(398,327)"/>
<path d="M0,0 L9,0 L9,1 L1,2 L0,4 L-3,3 L-3,1 Z " fill="#D3A426" transform="translate(135,265)"/>
<path d="M0,0 L2,4 L-6,4 L-6,2 L0,2 Z " fill="#DCAB5C" transform="translate(332,243)"/>
<path d="M0,0 L2,0 L4,7 L0,7 Z " fill="#E1D1A3" transform="translate(183,222)"/>
<path d="M0,0 L6,0 L6,5 L3,4 Z " fill="#F5D67E" transform="translate(351,216)"/>
<path d="M0,0 L1,0 L2,9 L1,11 L-1,11 Z " fill="#AB6E1F" transform="translate(91,147)"/>
<path d="M0,0 L3,0 L3,6 L0,6 Z " fill="#100103" transform="translate(26,145)"/>
<path d="M0,0 L1,2 L-5,4 L-7,7 L-7,1 Z " fill="#DCA12B" transform="translate(111,135)"/>
<path d="M0,0 L1,0 L1,5 L-4,5 L-2,1 Z " fill="#E1A630" transform="translate(356,90)"/>
<path d="M0,0 L6,1 L6,3 L0,5 Z " fill="#D79F27" transform="translate(167,90)"/>
<path d="M0,0 L2,3 L3,5 L8,6 L8,7 L0,7 Z " fill="#98673B" transform="translate(88,80)"/>
<path d="M0,0 Z M-8,1 L0,1 L-1,3 L-6,4 L-8,6 Z " fill="#E2A335" transform="translate(358,71)"/>
<path d="M0,0 L5,0 L5,7 L3,6 L3,2 L0,1 Z " fill="#21171A" transform="translate(281,64)"/>
<path d="M0,0 L7,0 L7,6 L4,5 L5,1 L0,1 Z " fill="#1C1116" transform="translate(128,64)"/>
<path d="M0,0 L5,0 L3,4 L0,4 Z " fill="#C99A36" transform="translate(193,440)"/>
<path d="M0,0 L5,0 L4,4 L0,4 Z " fill="#E3A830" transform="translate(160,432)"/>
<path d="M0,0 L2,0 L2,3 L6,4 L-2,4 Z " fill="#1A0E10" transform="translate(360,402)"/>
<path d="M0,0 L1,0 L1,6 L-2,3 L-6,3 L-6,1 Z " fill="#A86F0A" transform="translate(110,350)"/>
<path d="M0,0 L3,4 L2,8 L0,8 Z " fill="#A17438" transform="translate(80,334)"/>
<path d="M0,0 L6,0 L6,7 L5,7 L5,1 L0,3 Z " fill="#A36A0D" transform="translate(160,319)"/>
<path d="M0,0 L2,0 L2,6 L-1,6 L-1,1 Z " fill="#F7D68F" transform="translate(181,272)"/>
<path d="M0,0 L3,3 L7,5 L3,6 L0,5 Z " fill="#D4A227" transform="translate(358,215)"/>
<path d="M0,0 L1,2 L3,2 L3,4 L-6,4 L-2,2 Z " fill="#DAA427" transform="translate(197,146)"/>
<path d="M0,0 L5,0 L5,4 L0,3 Z " fill="#AA6B10" transform="translate(27,136)"/>
<path d="M0,0 L2,4 L8,6 L8,7 L0,7 Z " fill="#E3A935" transform="translate(96,64)"/>
</svg>
